<svg xmlns="http://www.w3.org/2000/svg" width="21.7100830078125" height="6.5" viewBox="1123.68994140625 1225.469970703125 21.7100830078125 6.5">
                <rect x="1123.68994140625" y="1225.469970703125" width="21.7100830078125" height="6.5" fill="white"/>
                <path d="M 1123.97998046875 1231.300048828125 L 1125.260009765625 1231.25 L 1125.1099853515625 1226.820068359375 L 1123.719970703125 1227.14990234375 L 1123.68994140625 1226.429931640625 L 1125.0899658203125 1226.10009765625 L 1125.8699951171875 1226.070068359375 L 1126.0400390625 1231.22998046875 L 1127.3399658203125 1231.18994140625 L 1127.3599853515625 1231.860107421875 L 1124.0 1231.969970703125 Z M 1130.949951171875 1226.60009765625 L 1129.050048828125 1229.77001953125 L 1131.050048828125 1229.699951171875 Z M 1130.7099609375 1225.919921875 L 1131.7099609375 1225.8798828125 L 1131.8299560546875 1229.679931640625 L 1132.6600341796875 1229.64990234375 L 1132.6800537109375 1230.31005859375 L 1131.8499755859375 1230.330078125 L 1131.9000244140625 1231.7099609375 L 1131.1199951171875 1231.72998046875 L 1131.0699462890625 1230.360107421875 L 1128.4300537109375 1230.449951171875 L 1128.4100341796875 1229.679931640625 Z M 1135.6300048828125 1228.820068359375 C 1135.6300048828125 1228.820068359375 1135.0699462890625 1228.840087890625 1134.760009765625 1229.14990234375 C 1134.760009765625 1229.14990234375 1134.449951171875 1229.449951171875 1134.4599609375 1229.97998046875 C 1134.4599609375 1229.97998046875 1134.47998046875 1230.510009765625 1134.81005859375 1230.800048828125 C 1134.81005859375 1230.800048828125 1135.1400146484375 1231.090087890625 1135.699951171875 1231.070068359375 C 1135.699951171875 1231.070068359375 1136.27001953125 1231.050048828125 1136.5799560546875 1230.72998046875 C 1136.5799560546875 1230.72998046875 1136.8900146484375 1230.419921875 1136.8699951171875 1229.89990234375 C 1136.8699951171875 1229.89990234375 1136.8499755859375 1229.3701171875 1136.52001953125 1229.090087890625 Z M 1134.8199462890625 1228.5 C 1134.8199462890625 1228.5 1134.3199462890625 1228.389892578125 1134.030029296875 1228.06005859375 C 1134.030029296875 1228.06005859375 1133.72998046875 1227.719970703125 1133.719970703125 1227.22998046875 C 1133.719970703125 1227.22998046875 1133.68994140625 1226.52001953125 1134.1700439453125 1226.10009765625 C 1134.1700439453125 1226.10009765625 1134.6500244140625 1225.679931640625 1135.530029296875 1225.64990234375 C 1135.530029296875 1225.64990234375 1136.4000244140625 1225.6201171875 1136.9100341796875 1226.010009765625 C 1136.9100341796875 1226.010009765625 1137.4100341796875 1226.39990234375 1137.4300537109375 1227.10009765625 C 1137.4300537109375 1227.10009765625 1137.449951171875 1227.60009765625 1137.1800537109375 1227.9599609375 C 1137.1800537109375 1227.9599609375 1136.9100341796875 1228.31005859375 1136.4100341796875 1228.449951171875 C 1136.4100341796875 1228.449951171875 1136.97998046875 1228.570068359375 1137.31005859375 1228.93994140625 C 1137.31005859375 1228.93994140625 1137.6500244140625 1229.320068359375 1137.6700439453125 1229.8798828125 C 1137.6700439453125 1229.8798828125 1137.68994140625 1230.719970703125 1137.18994140625 1231.18994140625 C 1137.18994140625 1231.18994140625 1136.68994140625 1231.659912109375 1135.719970703125 1231.68994140625 C 1135.719970703125 1231.68994140625 1134.760009765625 1231.719970703125 1134.219970703125 1231.2900390625 C 1134.219970703125 1231.2900390625 1133.68994140625 1230.85009765625 1133.6700439453125 1230.010009765625 C 1133.6700439453125 1230.010009765625 1133.6500244140625 1229.449951171875 1133.9599609375 1229.050048828125 Z M 1134.5 1227.260009765625 C 1134.5 1227.260009765625 1134.510009765625 1227.7099609375 1134.800048828125 1227.9599609375 C 1134.800048828125 1227.9599609375 1135.0899658203125 1228.2099609375 1135.6099853515625 1228.18994140625 C 1135.6099853515625 1228.18994140625 1136.1099853515625 1228.179931640625 1136.3900146484375 1227.909912109375 C 1136.3900146484375 1227.909912109375 1136.6700439453125 1227.639892578125 1136.6500244140625 1227.18994140625 C 1136.6500244140625 1227.18994140625 1136.6400146484375 1226.739990234375 1136.3399658203125 1226.5 C 1136.3399658203125 1226.5 1136.050048828125 1226.260009765625 1135.550048828125 1226.27001953125 C 1135.550048828125 1226.27001953125 1135.030029296875 1226.2900390625 1134.760009765625 1226.550048828125 Z M 1139.0899658203125 1230.469970703125 L 1139.9200439453125 1230.449951171875 L 1139.949951171875 1231.449951171875 L 1139.1199951171875 1231.469970703125 Z M 1143.6600341796875 1226.179931640625 L 1141.77001953125 1229.35009765625 L 1143.77001953125 1229.2900390625 Z M 1143.4200439453125 1225.5 L 1144.4200439453125 1225.469970703125 L 1144.550048828125 1229.260009765625 L 1145.3699951171875 1229.239990234375 L 1145.4000244140625 1229.889892578125 L 1144.5699462890625 1229.919921875 L 1144.6099853515625 1231.2900390625 L 1143.8299560546875 1231.320068359375 L 1143.7900390625 1229.93994140625 L 1141.1500244140625 1230.030029296875 L 1141.1199951171875 1229.27001953125 Z" stroke="black" fill="none" stroke-width="1" />
                </svg>