<svg xmlns="http://www.w3.org/2000/svg" width="14.65997314453125" height="9.849853515625" viewBox="548.0599975585938 1160.340087890625 14.65997314453125 9.849853515625">
                <rect x="548.0599975585938" y="1160.340087890625" width="14.65997314453125" height="9.849853515625" fill="white"/>
                <path d="M 548.0599975585938 1160.52001953125 L 554.1599731445312 1160.52001953125 L 554.1599731445312 1161.06005859375 L 550.719970703125 1170.0 L 549.3800048828125 1170.0 L 552.6300048828125 1161.610107421875 L 548.0599975585938 1161.610107421875 Z M 559.5700073242188 1164.75 C 559.5700073242188 1164.75 558.6900024414062 1164.75 558.1900024414062 1165.340087890625 C 558.1900024414062 1165.340087890625 557.6900024414062 1165.93994140625 557.6900024414062 1166.949951171875 C 557.6900024414062 1166.949951171875 557.6900024414062 1167.97998046875 558.1900024414062 1168.580078125 C 558.1900024414062 1168.580078125 558.6900024414062 1169.169921875 559.5700073242188 1169.169921875 C 559.5700073242188 1169.169921875 560.4299926757812 1169.169921875 560.9299926757812 1168.580078125 C 560.9299926757812 1168.580078125 561.4299926757812 1167.97998046875 561.4299926757812 1166.949951171875 C 561.4299926757812 1166.949951171875 561.4299926757812 1165.93994140625 560.9299926757812 1165.340087890625 Z M 562.1099853515625 1160.72998046875 L 562.1099853515625 1161.909912109375 C 562.1099853515625 1161.909912109375 561.6300048828125 1161.669921875 561.1400146484375 1161.550048828125 C 561.1400146484375 1161.550048828125 560.6500244140625 1161.43994140625 560.1599731445312 1161.43994140625 C 560.1599731445312 1161.43994140625 558.9000244140625 1161.43994140625 558.219970703125 1162.2900390625 C 558.219970703125 1162.2900390625 557.5499877929688 1163.139892578125 557.4600219726562 1164.8701171875 C 557.4600219726562 1164.8701171875 557.8300170898438 1164.330078125 558.4000244140625 1164.030029296875 C 558.4000244140625 1164.030029296875 558.9600219726562 1163.72998046875 559.6500244140625 1163.72998046875 C 559.6500244140625 1163.72998046875 561.0700073242188 1163.72998046875 561.9000244140625 1164.60009765625 C 561.9000244140625 1164.60009765625 562.719970703125 1165.469970703125 562.719970703125 1166.949951171875 C 562.719970703125 1166.949951171875 562.719970703125 1168.419921875 561.8599853515625 1169.300048828125 C 561.8599853515625 1169.300048828125 560.989990234375 1170.18994140625 559.5700073242188 1170.18994140625 C 559.5700073242188 1170.18994140625 557.9099731445312 1170.18994140625 557.0399780273438 1168.919921875 C 557.0399780273438 1168.919921875 556.1799926757812 1167.659912109375 556.1799926757812 1165.27001953125 C 556.1799926757812 1165.27001953125 556.1799926757812 1163.030029296875 557.25 1161.68994140625 C 557.25 1161.68994140625 558.3200073242188 1160.340087890625 560.1099853515625 1160.340087890625 C 560.1099853515625 1160.340087890625 560.5800170898438 1160.340087890625 561.0800170898438 1160.449951171875 Z" stroke="black" fill="none" stroke-width="1" />
                </svg>