<svg xmlns="http://www.w3.org/2000/svg" width="7.3800048828125" height="21.550048828125" viewBox="1573.3599853515625 2007.449951171875 7.3800048828125 21.550048828125">
                <rect x="1573.3599853515625" y="2007.449951171875" width="7.3800048828125" height="21.550048828125" fill="white"/>
                <path d="M 1578.4100341796875 2028.949951171875 L 1578.5 2027.6700439453125 L 1574.0799560546875 2027.3399658203125 L 1574.25 2028.760009765625 L 1573.5400390625 2028.699951171875 L 1573.3599853515625 2027.280029296875 L 1573.4200439453125 2026.5 L 1578.56005859375 2026.9000244140625 L 1578.6600341796875 2025.5999755859375 L 1579.3299560546875 2025.6500244140625 L 1579.0799560546875 2029.0 Z M 1574.2900390625 2021.97998046875 C 1574.2900390625 2021.97998046875 1574.239990234375 2022.5899658203125 1574.8199462890625 2022.93994140625 C 1574.8199462890625 2022.93994140625 1575.3900146484375 2023.2900390625 1576.5899658203125 2023.3800048828125 C 1576.5899658203125 2023.3800048828125 1577.780029296875 2023.469970703125 1578.4000244140625 2023.2099609375 C 1578.4000244140625 2023.2099609375 1579.02001953125 2022.949951171875 1579.0699462890625 2022.3499755859375 C 1579.0699462890625 2022.3499755859375 1579.1099853515625 2021.739990234375 1578.5400390625 2021.3900146484375 C 1578.5400390625 2021.3900146484375 1577.9599609375 2021.0400390625 1576.780029296875 2020.949951171875 C 1576.780029296875 2020.949951171875 1575.5799560546875 2020.8599853515625 1574.949951171875 2021.1099853515625 Z M 1573.6600341796875 2021.9300537109375 C 1573.6600341796875 2021.9300537109375 1573.739990234375 2020.949951171875 1574.550048828125 2020.5 C 1574.550048828125 2020.5 1575.3599853515625 2020.0400390625 1576.8399658203125 2020.1500244140625 C 1576.8399658203125 2020.1500244140625 1578.300048828125 2020.27001953125 1579.030029296875 2020.8399658203125 C 1579.030029296875 2020.8399658203125 1579.77001953125 2021.4100341796875 1579.68994140625 2022.3900146484375 C 1579.68994140625 2022.3900146484375 1579.6199951171875 2023.3800048828125 1578.81005859375 2023.8299560546875 C 1578.81005859375 2023.8299560546875 1578.0 2024.2900390625 1576.530029296875 2024.1700439453125 C 1576.530029296875 2024.1700439453125 1575.050048828125 2024.06005859375 1574.3199462890625 2023.489990234375 Z M 1579.219970703125 2018.27001953125 L 1579.4300537109375 2015.510009765625 L 1580.0999755859375 2015.5699462890625 L 1579.8199462890625 2019.260009765625 L 1579.1500244140625 2019.2099609375 C 1579.1500244140625 2019.2099609375 1578.72998046875 2018.739990234375 1578.010009765625 2017.9000244140625 C 1578.010009765625 2017.9000244140625 1577.280029296875 2017.06005859375 1577.0699462890625 2016.8499755859375 C 1577.0699462890625 2016.8499755859375 1576.6800537109375 2016.4300537109375 1576.4000244140625 2016.260009765625 C 1576.4000244140625 2016.260009765625 1576.1099853515625 2016.0899658203125 1575.8299560546875 2016.0699462890625 C 1575.8299560546875 2016.0699462890625 1575.3699951171875 2016.030029296875 1575.050048828125 2016.3399658203125 C 1575.050048828125 2016.3399658203125 1574.719970703125 2016.6400146484375 1574.68994140625 2017.1600341796875 C 1574.68994140625 2017.1600341796875 1574.6600341796875 2017.530029296875 1574.760009765625 2017.949951171875 C 1574.760009765625 2017.949951171875 1574.8599853515625 2018.3800048828125 1575.0899658203125 2018.8599853515625 L 1574.2900390625 2018.800048828125 C 1574.2900390625 2018.800048828125 1574.1300048828125 2018.31005859375 1574.0699462890625 2017.8900146484375 C 1574.0699462890625 2017.8900146484375 1574.0 2017.469970703125 1574.030029296875 2017.1199951171875 C 1574.030029296875 2017.1199951171875 1574.0999755859375 2016.219970703125 1574.5899658203125 2015.719970703125 C 1574.5899658203125 2015.719970703125 1575.0799560546875 2015.2099609375 1575.8299560546875 2015.27001953125 C 1575.8299560546875 2015.27001953125 1576.18994140625 2015.300048828125 1576.510009765625 2015.4599609375 C 1576.510009765625 2015.4599609375 1576.8199462890625 2015.6300048828125 1577.22998046875 2016.0 C 1577.22998046875 2016.0 1577.3299560546875 2016.1199951171875 1577.8299560546875 2016.6800537109375 Z M 1579.22998046875 2013.8399658203125 L 1579.300048828125 2013.02001953125 L 1580.2900390625 2013.0899658203125 L 1580.22998046875 2013.9200439453125 Z M 1577.3299560546875 2009.3599853515625 C 1577.3299560546875 2009.3599853515625 1577.2900390625 2009.8900146484375 1577.6400146484375 2010.22998046875 C 1577.6400146484375 2010.22998046875 1577.97998046875 2010.5699462890625 1578.5999755859375 2010.6199951171875 C 1578.5999755859375 2010.6199951171875 1579.22998046875 2010.6600341796875 1579.6099853515625 2010.3800048828125 C 1579.6099853515625 2010.3800048828125 1580.010009765625 2010.0999755859375 1580.050048828125 2009.5699462890625 C 1580.050048828125 2009.5699462890625 1580.0899658203125 2009.0400390625 1579.739990234375 2008.699951171875 C 1579.739990234375 2008.699951171875 1579.4000244140625 2008.3599853515625 1578.780029296875 2008.31005859375 C 1578.780029296875 2008.31005859375 1578.1600341796875 2008.260009765625 1577.77001953125 2008.550048828125 Z M 1574.989990234375 2007.6099853515625 L 1575.7099609375 2007.6700439453125 C 1575.7099609375 2007.6700439453125 1575.550048828125 2007.949951171875 1575.449951171875 2008.239990234375 C 1575.449951171875 2008.239990234375 1575.3399658203125 2008.530029296875 1575.3199462890625 2008.8299560546875 C 1575.3199462890625 2008.8299560546875 1575.260009765625 2009.6099853515625 1575.760009765625 2010.06005859375 C 1575.760009765625 2010.06005859375 1576.260009765625 2010.52001953125 1577.31005859375 2010.6600341796875 C 1577.31005859375 2010.6600341796875 1576.989990234375 2010.4000244140625 1576.8399658203125 2010.0400390625 C 1576.8399658203125 2010.0400390625 1576.6800537109375 2009.68994140625 1576.7099609375 2009.27001953125 C 1576.7099609375 2009.27001953125 1576.780029296875 2008.3900146484375 1577.3499755859375 2007.9200439453125 C 1577.3499755859375 2007.9200439453125 1577.9200439453125 2007.449951171875 1578.8399658203125 2007.52001953125 C 1578.8399658203125 2007.52001953125 1579.739990234375 2007.5899658203125 1580.239990234375 2008.1600341796875 C 1580.239990234375 2008.1600341796875 1580.739990234375 2008.72998046875 1580.6700439453125 2009.6099853515625 C 1580.6700439453125 2009.6099853515625 1580.5899658203125 2010.6300048828125 1579.780029296875 2011.0999755859375 C 1579.780029296875 2011.0999755859375 1578.969970703125 2011.5699462890625 1577.5 2011.4599609375 C 1577.5 2011.4599609375 1576.1199951171875 2011.3499755859375 1575.3499755859375 2010.6300048828125 C 1575.3499755859375 2010.6300048828125 1574.5799560546875 2009.9200439453125 1574.6700439453125 2008.81005859375 C 1574.6700439453125 2008.81005859375 1574.68994140625 2008.510009765625 1574.77001953125 2008.219970703125 Z" stroke="black" fill="none" stroke-width="1" />
                </svg>