<svg xmlns="http://www.w3.org/2000/svg" width="22.75" height="9.6600341796875" viewBox="1729.949951171875 1772.3399658203125 22.75 9.6600341796875">
                <rect x="1729.949951171875" y="1772.3399658203125" width="22.75" height="9.6600341796875" fill="white"/>
                <path d="M 1731.5 1780.9200439453125 L 1735.969970703125 1780.9200439453125 L 1735.969970703125 1782.0 L 1729.949951171875 1782.0 L 1729.949951171875 1780.9200439453125 C 1729.949951171875 1780.9200439453125 1730.68994140625 1780.1700439453125 1731.949951171875 1778.9000244140625 C 1731.949951171875 1778.9000244140625 1733.199951171875 1777.6199951171875 1733.530029296875 1777.25 C 1733.530029296875 1777.25 1734.1400146484375 1776.56005859375 1734.3800048828125 1776.0799560546875 C 1734.3800048828125 1776.0799560546875 1734.6300048828125 1775.5899658203125 1734.6300048828125 1775.1400146484375 C 1734.6300048828125 1775.1400146484375 1734.6300048828125 1774.3699951171875 1734.0999755859375 1773.9100341796875 C 1734.0999755859375 1773.9100341796875 1733.5799560546875 1773.43994140625 1732.719970703125 1773.43994140625 C 1732.719970703125 1773.43994140625 1732.1099853515625 1773.43994140625 1731.449951171875 1773.6400146484375 C 1731.449951171875 1773.6400146484375 1730.780029296875 1773.8399658203125 1730.02001953125 1774.280029296875 L 1730.02001953125 1772.97998046875 C 1730.02001953125 1772.97998046875 1730.800048828125 1772.6700439453125 1731.469970703125 1772.510009765625 C 1731.469970703125 1772.510009765625 1732.1400146484375 1772.3399658203125 1732.68994140625 1772.3399658203125 C 1732.68994140625 1772.3399658203125 1734.1700439453125 1772.3399658203125 1735.050048828125 1773.0899658203125 C 1735.050048828125 1773.0899658203125 1735.9200439453125 1773.8299560546875 1735.9200439453125 1775.06005859375 C 1735.9200439453125 1775.06005859375 1735.9200439453125 1775.6400146484375 1735.699951171875 1776.1600341796875 C 1735.699951171875 1776.1600341796875 1735.47998046875 1776.68994140625 1734.9100341796875 1777.3900146484375 C 1734.9100341796875 1777.3900146484375 1734.75 1777.5799560546875 1733.9000244140625 1778.4599609375 Z M 1739.77001953125 1780.9200439453125 L 1744.239990234375 1780.9200439453125 L 1744.239990234375 1782.0 L 1738.219970703125 1782.0 L 1738.219970703125 1780.9200439453125 C 1738.219970703125 1780.9200439453125 1738.9599609375 1780.1700439453125 1740.219970703125 1778.9000244140625 C 1740.219970703125 1778.9000244140625 1741.469970703125 1777.6199951171875 1741.800048828125 1777.25 C 1741.800048828125 1777.25 1742.4100341796875 1776.56005859375 1742.6500244140625 1776.0799560546875 C 1742.6500244140625 1776.0799560546875 1742.9000244140625 1775.5899658203125 1742.9000244140625 1775.1400146484375 C 1742.9000244140625 1775.1400146484375 1742.9000244140625 1774.3699951171875 1742.3699951171875 1773.9100341796875 C 1742.3699951171875 1773.9100341796875 1741.8499755859375 1773.43994140625 1740.989990234375 1773.43994140625 C 1740.989990234375 1773.43994140625 1740.3800048828125 1773.43994140625 1739.719970703125 1773.6400146484375 C 1739.719970703125 1773.6400146484375 1739.050048828125 1773.8399658203125 1738.2900390625 1774.280029296875 L 1738.2900390625 1772.97998046875 C 1738.2900390625 1772.97998046875 1739.0699462890625 1772.6700439453125 1739.739990234375 1772.510009765625 C 1739.739990234375 1772.510009765625 1740.4100341796875 1772.3399658203125 1740.9599609375 1772.3399658203125 C 1740.9599609375 1772.3399658203125 1742.43994140625 1772.3399658203125 1743.3199462890625 1773.0899658203125 C 1743.3199462890625 1773.0899658203125 1744.18994140625 1773.8299560546875 1744.18994140625 1775.06005859375 C 1744.18994140625 1775.06005859375 1744.18994140625 1775.6400146484375 1743.969970703125 1776.1600341796875 C 1743.969970703125 1776.1600341796875 1743.760009765625 1776.68994140625 1743.1800537109375 1777.3900146484375 C 1743.1800537109375 1777.3900146484375 1743.02001953125 1777.5799560546875 1742.1700439453125 1778.4599609375 Z M 1746.5999755859375 1772.52001953125 L 1752.699951171875 1772.52001953125 L 1752.699951171875 1773.06005859375 L 1749.260009765625 1782.0 L 1747.9200439453125 1782.0 L 1751.1700439453125 1773.6099853515625 L 1746.5999755859375 1773.6099853515625 Z" stroke="black" fill="none" stroke-width="1" />
                </svg>