<svg xmlns="http://www.w3.org/2000/svg" width="11.47998046875" height="6.429931640625" viewBox="718.6400146484375 1843.1400146484375 11.47998046875 6.429931640625">
                <rect x="718.6400146484375" y="1843.1400146484375" width="11.47998046875" height="6.429931640625" fill="white"/>
                <path d="M 718.8800048828125 1848.9200439453125 L 718.9099731445312 1848.199951171875 C 718.9099731445312 1848.199951171875 719.2000122070312 1848.3499755859375 719.5 1848.449951171875 C 719.5 1848.449951171875 719.8099975585938 1848.5400390625 720.0999755859375 1848.550048828125 C 720.0999755859375 1848.550048828125 720.8800048828125 1848.5899658203125 721.3200073242188 1848.0799560546875 C 721.3200073242188 1848.0799560546875 721.760009765625 1847.5699462890625 721.8699951171875 1846.510009765625 C 721.8699951171875 1846.510009765625 721.6199951171875 1846.8299560546875 721.27001953125 1846.989990234375 C 721.27001953125 1846.989990234375 720.9199829101562 1847.1500244140625 720.5 1847.1300048828125 C 720.5 1847.1300048828125 719.6199951171875 1847.0899658203125 719.1300048828125 1846.5400390625 C 719.1300048828125 1846.5400390625 718.6400146484375 1846.0 718.6900024414062 1845.0799560546875 C 718.6900024414062 1845.0799560546875 718.72998046875 1844.1700439453125 719.2899780273438 1843.6600341796875 C 719.2899780273438 1843.6600341796875 719.8400268554688 1843.1400146484375 720.72998046875 1843.18994140625 C 720.72998046875 1843.18994140625 721.75 1843.22998046875 722.239990234375 1844.030029296875 C 722.239990234375 1844.030029296875 722.72998046875 1844.8299560546875 722.6599731445312 1846.31005859375 C 722.6599731445312 1846.31005859375 722.5999755859375 1847.68994140625 721.9000244140625 1848.469970703125 C 721.9000244140625 1848.469970703125 721.2100219726562 1849.260009765625 720.0999755859375 1849.2099609375 C 720.0999755859375 1849.2099609375 719.8099975585938 1849.199951171875 719.5 1849.1300048828125 Z M 720.5700073242188 1846.530029296875 C 720.5700073242188 1846.530029296875 721.0999755859375 1846.550048828125 721.4299926757812 1846.199951171875 C 721.4299926757812 1846.199951171875 721.760009765625 1845.8499755859375 721.7899780273438 1845.219970703125 C 721.7899780273438 1845.219970703125 721.8200073242188 1844.5999755859375 721.530029296875 1844.219970703125 C 721.530029296875 1844.219970703125 721.22998046875 1843.8399658203125 720.7000122070312 1843.81005859375 C 720.7000122070312 1843.81005859375 720.1699829101562 1843.780029296875 719.8400268554688 1844.1400146484375 C 719.8400268554688 1844.1400146484375 719.510009765625 1844.489990234375 719.47998046875 1845.1099853515625 C 719.47998046875 1845.1099853515625 719.4500122070312 1845.739990234375 719.75 1846.1199951171875 Z M 723.989990234375 1848.280029296875 L 724.8200073242188 1848.3199462890625 L 724.77001953125 1849.3199462890625 L 723.9400024414062 1849.280029296875 Z M 727.1900024414062 1848.760009765625 L 729.9500122070312 1848.9000244140625 L 729.9199829101562 1849.5699462890625 L 726.219970703125 1849.3900146484375 L 726.25 1848.719970703125 C 726.25 1848.719970703125 726.7100219726562 1848.2900390625 727.530029296875 1847.5400390625 C 727.530029296875 1847.5400390625 728.3400268554688 1846.7900390625 728.5399780273438 1846.5799560546875 C 728.5399780273438 1846.5799560546875 728.9500122070312 1846.1700439453125 729.1099853515625 1845.8800048828125 C 729.1099853515625 1845.8800048828125 729.280029296875 1845.5899658203125 729.2899780273438 1845.31005859375 C 729.2899780273438 1845.31005859375 729.3099975585938 1844.8499755859375 729.0 1844.530029296875 C 729.0 1844.530029296875 728.6799926757812 1844.219970703125 728.1699829101562 1844.199951171875 C 728.1699829101562 1844.199951171875 727.7899780273438 1844.1800537109375 727.3800048828125 1844.2900390625 C 727.3800048828125 1844.2900390625 726.9600219726562 1844.4000244140625 726.469970703125 1844.6500244140625 L 726.510009765625 1843.8499755859375 C 726.510009765625 1843.8499755859375 727.010009765625 1843.6700439453125 727.4199829101562 1843.5999755859375 C 727.4199829101562 1843.5999755859375 727.8400268554688 1843.52001953125 728.1900024414062 1843.5400390625 C 728.1900024414062 1843.5400390625 729.0900268554688 1843.5799560546875 729.6099853515625 1844.06005859375 C 729.6099853515625 1844.06005859375 730.1199951171875 1844.5400390625 730.0900268554688 1845.2900390625 C 730.0900268554688 1845.2900390625 730.0700073242188 1845.6500244140625 729.9199829101562 1845.969970703125 C 729.9199829101562 1845.969970703125 729.760009765625 1846.2900390625 729.4000244140625 1846.7099609375 C 729.4000244140625 1846.7099609375 729.280029296875 1846.8199462890625 728.72998046875 1847.3299560546875 Z" stroke="black" fill="none" stroke-width="1" />
                </svg>