<svg xmlns="http://www.w3.org/2000/svg" width="86.30000305175781" height="9.2998046875" viewBox="48.16999816894531 60.8701171875 86.30000305175781 9.2998046875">
                <rect x="48.16999816894531" y="60.8701171875" width="86.30000305175781" height="9.2998046875" fill="white"/>
                <path d="M 49.36000061035156 62.219970703125 L 49.36000061035156 69.030029296875 L 50.79999923706055 69.030029296875 C 50.79999923706055 69.030029296875 52.61000061035156 69.030029296875 53.45000076293945 68.2099609375 C 53.45000076293945 68.2099609375 54.279998779296875 67.389892578125 54.279998779296875 65.610107421875 C 54.279998779296875 65.610107421875 54.279998779296875 63.860107421875 53.45000076293945 63.0400390625 C 53.45000076293945 63.0400390625 52.61000061035156 62.219970703125 50.79999923706055 62.219970703125 Z M 48.16999816894531 61.25 L 50.61000061035156 61.25 C 50.61000061035156 61.25 53.15999984741211 61.25 54.34000015258789 62.300048828125 C 54.34000015258789 62.300048828125 55.529998779296875 63.360107421875 55.529998779296875 65.610107421875 C 55.529998779296875 65.610107421875 55.529998779296875 67.8701171875 54.34000015258789 68.93994140625 C 54.34000015258789 68.93994140625 53.13999938964844 70.0 50.61000061035156 70.0 L 48.16999816894531 70.0 Z M 57.369998931884766 63.43994140625 L 58.439998626708984 63.43994140625 L 58.439998626708984 70.0 L 57.369998931884766 70.0 Z M 57.369998931884766 60.8701171875 L 58.439998626708984 60.8701171875 L 58.439998626708984 62.25 L 57.369998931884766 62.25 Z M 64.88999938964844 63.6201171875 L 64.88999938964844 64.659912109375 C 64.88999938964844 64.659912109375 64.43000030517578 64.419921875 63.939998626708984 64.300048828125 C 63.939998626708984 64.300048828125 63.45000076293945 64.18994140625 62.91999816894531 64.18994140625 C 62.91999816894531 64.18994140625 62.119998931884766 64.18994140625 61.709999084472656 64.429931640625 C 61.709999084472656 64.429931640625 61.310001373291016 64.669921875 61.310001373291016 65.169921875 C 61.310001373291016 65.169921875 61.310001373291016 65.550048828125 61.599998474121094 65.760009765625 C 61.599998474121094 65.760009765625 61.88999938964844 65.969970703125 62.7599983215332 66.159912109375 L 63.119998931884766 66.25 C 63.119998931884766 66.25 64.27999877929688 66.47998046875 64.76000213623047 66.93994140625 C 64.76000213623047 66.93994140625 65.25 67.389892578125 65.25 68.18994140625 C 65.25 68.18994140625 65.25 69.110107421875 64.5199966430664 69.639892578125 C 64.5199966430664 69.639892578125 63.790000915527344 70.169921875 62.529998779296875 70.169921875 C 62.529998779296875 70.169921875 62.0 70.169921875 61.43000030517578 70.070068359375 C 61.43000030517578 70.070068359375 60.86000061035156 69.969970703125 60.22999954223633 69.77001953125 L 60.22999954223633 68.639892578125 C 60.22999954223633 68.639892578125 60.81999969482422 68.949951171875 61.400001525878906 69.110107421875 C 61.400001525878906 69.110107421875 61.97999954223633 69.27001953125 62.560001373291016 69.27001953125 C 62.560001373291016 69.27001953125 63.310001373291016 69.27001953125 63.720001220703125 69.010009765625 C 63.720001220703125 69.010009765625 64.13999938964844 68.75 64.13999938964844 68.27001953125 C 64.13999938964844 68.27001953125 64.13999938964844 67.830078125 63.84000015258789 67.590087890625 C 63.84000015258789 67.590087890625 63.540000915527344 67.360107421875 62.540000915527344 67.139892578125 L 62.16999816894531 67.06005859375 C 62.16999816894531 67.06005859375 61.16999816894531 66.840087890625 60.720001220703125 66.409912109375 C 60.720001220703125 66.409912109375 60.279998779296875 65.969970703125 60.279998779296875 65.219970703125 C 60.279998779296875 65.219970703125 60.279998779296875 64.280029296875 60.93000030517578 63.780029296875 C 60.93000030517578 63.780029296875 61.59000015258789 63.280029296875 62.790000915527344 63.280029296875 C 62.790000915527344 63.280029296875 63.38999938964844 63.280029296875 63.91999816894531 63.3701171875 Z M 68.02999877929688 61.580078125 L 68.02999877929688 63.43994140625 L 70.25 63.43994140625 L 70.25 64.280029296875 L 68.02999877929688 64.280029296875 L 68.02999877929688 67.840087890625 C 68.02999877929688 67.840087890625 68.02999877929688 68.639892578125 68.25 68.8701171875 C 68.25 68.8701171875 68.47000122070312 69.090087890625 69.13999938964844 69.090087890625 L 70.25 69.090087890625 L 70.25 70.0 L 69.13999938964844 70.0 C 69.13999938964844 70.0 67.88999938964844 70.0 67.41000366210938 69.530029296875 C 67.41000366210938 69.530029296875 66.94000244140625 69.06005859375 66.94000244140625 67.840087890625 L 66.94000244140625 64.280029296875 L 66.1500015258789 64.280029296875 L 66.1500015258789 63.43994140625 L 66.94000244140625 63.43994140625 L 66.94000244140625 61.580078125 Z M 75.47000122070312 64.43994140625 C 75.47000122070312 64.43994140625 75.27999877929688 64.340087890625 75.06999969482422 64.2900390625 C 75.06999969482422 64.2900390625 74.86000061035156 64.22998046875 74.58999633789062 64.22998046875 C 74.58999633789062 64.22998046875 73.69000244140625 64.22998046875 73.19999694824219 64.830078125 C 73.19999694824219 64.830078125 72.69999694824219 65.419921875 72.69999694824219 66.550048828125 L 72.69999694824219 70.0 L 71.62999725341797 70.0 L 71.62999725341797 63.43994140625 L 72.69999694824219 63.43994140625 L 72.69999694824219 64.449951171875 C 72.69999694824219 64.449951171875 73.05000305175781 63.860107421875 73.58999633789062 63.570068359375 C 73.58999633789062 63.570068359375 74.13999938964844 63.280029296875 74.91999816894531 63.280029296875 C 74.91999816894531 63.280029296875 75.02999877929688 63.280029296875 75.16000366210938 63.300048828125 C 75.16000366210938 63.300048828125 75.30000305175781 63.31005859375 75.44999694824219 63.340087890625 Z M 76.58999633789062 63.43994140625 L 77.66999816894531 63.43994140625 L 77.66999816894531 70.0 L 76.58999633789062 70.0 Z M 76.58999633789062 60.8701171875 L 77.66999816894531 60.8701171875 L 77.66999816894531 62.25 L 76.58999633789062 62.25 Z M 84.66000366210938 63.68994140625 L 84.66000366210938 64.699951171875 C 84.66000366210938 64.699951171875 84.19000244140625 64.43994140625 83.73999786376953 64.31005859375 C 83.73999786376953 64.31005859375 83.27999877929688 64.18994140625 82.80999755859375 64.18994140625 C 82.80999755859375 64.18994140625 81.75 64.18994140625 81.16999816894531 64.85009765625 C 81.16999816894531 64.85009765625 80.5999984741211 65.52001953125 80.5999984741211 66.719970703125 C 80.5999984741211 66.719970703125 80.5999984741211 67.919921875 81.16999816894531 68.590087890625 C 81.16999816894531 68.590087890625 81.75 69.25 82.80999755859375 69.25 C 82.80999755859375 69.25 83.27999877929688 69.25 83.73999786376953 69.1201171875 C 83.73999786376953 69.1201171875 84.19000244140625 69.0 84.66000366210938 68.75 L 84.66000366210938 69.75 C 84.66000366210938 69.75 84.20999908447266 69.949951171875 83.72000122070312 70.06005859375 C 83.72000122070312 70.06005859375 83.23999786376953 70.169921875 82.69000244140625 70.169921875 C 82.69000244140625 70.169921875 81.20999908447266 70.169921875 80.33000183105469 69.239990234375 C 80.33000183105469 69.239990234375 79.45999908447266 68.31005859375 79.45999908447266 66.719970703125 C 79.45999908447266 66.719970703125 79.45999908447266 65.1201171875 80.33999633789062 64.199951171875 C 80.33999633789062 64.199951171875 81.22000122070312 63.280029296875 82.7699966430664 63.280029296875 C 82.7699966430664 63.280029296875 83.25 63.280029296875 83.7300033569336 63.3798828125 Z M 87.5999984741211 61.580078125 L 87.5999984741211 63.43994140625 L 89.81999969482422 63.43994140625 L 89.81999969482422 64.280029296875 L 87.5999984741211 64.280029296875 L 87.5999984741211 67.840087890625 C 87.5999984741211 67.840087890625 87.5999984741211 68.639892578125 87.81999969482422 68.8701171875 C 87.81999969482422 68.8701171875 88.04000091552734 69.090087890625 88.70999908447266 69.090087890625 L 89.81999969482422 69.090087890625 L 89.81999969482422 70.0 L 88.70999908447266 70.0 C 88.70999908447266 70.0 87.45999908447266 70.0 86.9800033569336 69.530029296875 C 86.9800033569336 69.530029296875 86.51000213623047 69.06005859375 86.51000213623047 67.840087890625 L 86.51000213623047 64.280029296875 L 85.72000122070312 64.280029296875 L 85.72000122070312 63.43994140625 L 86.51000213623047 63.43994140625 L 86.51000213623047 61.580078125 Z M 95.31999969482422 68.52001953125 L 96.55999755859375 68.52001953125 L 96.55999755859375 70.0 L 95.31999969482422 70.0 Z M 95.31999969482422 63.800048828125 L 96.55999755859375 63.800048828125 L 96.55999755859375 65.280029296875 L 95.31999969482422 65.280029296875 Z M 102.94999694824219 61.25 L 104.12999725341797 61.25 L 104.12999725341797 64.949951171875 L 108.05000305175781 61.25 L 109.58999633789062 61.25 L 105.23999786376953 65.330078125 L 109.9000015258789 70.0 L 108.33999633789062 70.0 L 104.12999725341797 65.780029296875 L 104.12999725341797 70.0 L 102.94999694824219 70.0 Z M 113.75 66.699951171875 C 113.75 66.699951171875 112.45999908447266 66.699951171875 111.94999694824219 67.0 C 111.94999694824219 67.0 111.44000244140625 67.300048828125 111.44000244140625 68.02001953125 C 111.44000244140625 68.02001953125 111.44000244140625 68.590087890625 111.81999969482422 68.929931640625 C 111.81999969482422 68.929931640625 112.20999908447266 69.27001953125 112.8499984741211 69.27001953125 C 112.8499984741211 69.27001953125 113.75 69.27001953125 114.29000091552734 68.6298828125 C 114.29000091552734 68.6298828125 114.83000183105469 68.0 114.83000183105469 66.93994140625 L 114.83000183105469 66.699951171875 Z M 115.91000366210938 66.25 L 115.91000366210938 70.0 L 114.83000183105469 70.0 L 114.83000183105469 69.0 C 114.83000183105469 69.0 114.45999908447266 69.590087890625 113.91000366210938 69.8798828125 C 113.91000366210938 69.8798828125 113.36000061035156 70.169921875 112.55999755859375 70.169921875 C 112.55999755859375 70.169921875 111.55000305175781 70.169921875 110.95999908447266 69.60009765625 C 110.95999908447266 69.60009765625 110.36000061035156 69.030029296875 110.36000061035156 68.090087890625 C 110.36000061035156 68.090087890625 110.36000061035156 66.97998046875 111.0999984741211 66.419921875 C 111.0999984741211 66.419921875 111.8499984741211 65.860107421875 113.30999755859375 65.860107421875 L 114.83000183105469 65.860107421875 L 114.83000183105469 65.75 C 114.83000183105469 65.75 114.83000183105469 65.0 114.33999633789062 64.590087890625 C 114.33999633789062 64.590087890625 113.8499984741211 64.18994140625 112.97000122070312 64.18994140625 C 112.97000122070312 64.18994140625 112.41000366210938 64.18994140625 111.87000274658203 64.330078125 C 111.87000274658203 64.330078125 111.33000183105469 64.469970703125 110.8499984741211 64.72998046875 L 110.8499984741211 63.72998046875 C 110.8499984741211 63.72998046875 111.44000244140625 63.5 111.98999786376953 63.389892578125 C 111.98999786376953 63.389892578125 112.55000305175781 63.280029296875 113.08000183105469 63.280029296875 C 113.08000183105469 63.280029296875 114.5 63.280029296875 115.20999908447266 64.02001953125 Z M 121.93000030517578 64.43994140625 C 121.93000030517578 64.43994140625 121.75 64.340087890625 121.54000091552734 64.2900390625 C 121.54000091552734 64.2900390625 121.31999969482422 64.22998046875 121.05999755859375 64.22998046875 C 121.05999755859375 64.22998046875 120.1500015258789 64.22998046875 119.66000366210938 64.830078125 C 119.66000366210938 64.830078125 119.16999816894531 65.419921875 119.16999816894531 66.550048828125 L 119.16999816894531 70.0 L 118.08999633789062 70.0 L 118.08999633789062 63.43994140625 L 119.16999816894531 63.43994140625 L 119.16999816894531 64.449951171875 C 119.16999816894531 64.449951171875 119.51000213623047 63.860107421875 120.05999755859375 63.570068359375 C 120.05999755859375 63.570068359375 120.61000061035156 63.280029296875 121.38999938964844 63.280029296875 C 121.38999938964844 63.280029296875 121.5 63.280029296875 121.62999725341797 63.300048828125 C 121.62999725341797 63.300048828125 121.76000213623047 63.31005859375 121.91999816894531 63.340087890625 Z M 122.94999694824219 67.409912109375 L 122.94999694824219 63.43994140625 L 124.0199966430664 63.43994140625 L 124.0199966430664 67.3701171875 C 124.0199966430664 67.3701171875 124.0199966430664 68.300048828125 124.38999938964844 68.77001953125 C 124.38999938964844 68.77001953125 124.76000213623047 69.22998046875 125.4800033569336 69.22998046875 C 125.4800033569336 69.22998046875 126.3499984741211 69.22998046875 126.86000061035156 68.679931640625 C 126.86000061035156 68.679931640625 127.37000274658203 68.1201171875 127.37000274658203 67.159912109375 L 127.37000274658203 63.43994140625 L 128.4499969482422 63.43994140625 L 128.4499969482422 70.0 L 127.37000274658203 70.0 L 127.37000274658203 68.97998046875 C 127.37000274658203 68.97998046875 126.9800033569336 69.590087890625 126.45999908447266 69.8798828125 C 126.45999908447266 69.8798828125 125.94999694824219 70.169921875 125.26000213623047 70.169921875 C 125.26000213623047 70.169921875 124.12000274658203 70.169921875 123.52999877929688 69.469970703125 Z M 134.47000122070312 64.43994140625 C 134.47000122070312 64.43994140625 134.2899932861328 64.340087890625 134.07000732421875 64.2900390625 C 134.07000732421875 64.2900390625 133.86000061035156 64.22998046875 133.60000610351562 64.22998046875 C 133.60000610351562 64.22998046875 132.69000244140625 64.22998046875 132.1999969482422 64.830078125 C 132.1999969482422 64.830078125 131.7100067138672 65.419921875 131.7100067138672 66.550048828125 L 131.7100067138672 70.0 L 130.6300048828125 70.0 L 130.6300048828125 63.43994140625 L 131.7100067138672 63.43994140625 L 131.7100067138672 64.449951171875 C 131.7100067138672 64.449951171875 132.0500030517578 63.860107421875 132.60000610351562 63.570068359375 C 132.60000610351562 63.570068359375 133.13999938964844 63.280029296875 133.92999267578125 63.280029296875 C 133.92999267578125 63.280029296875 134.0399932861328 63.280029296875 134.1699981689453 63.300048828125 C 134.1699981689453 63.300048828125 134.3000030517578 63.31005859375 134.4600067138672 63.340087890625 Z" stroke="black" fill="none" stroke-width="1" />
                </svg>