<svg xmlns="http://www.w3.org/2000/svg" width="316.2300148010254" height="9.670166015625" viewBox="42.65999984741211 3332.409912109375 316.2300148010254 9.670166015625">
                <rect x="42.65999984741211" y="3332.409912109375" width="316.2300148010254" height="9.670166015625" fill="white"/>
                <path d="M 47.36000061035156 3332.949951171875 L 47.36000061035156 3333.909912109375 C 47.36000061035156 3333.909912109375 46.79999923706055 3333.639892578125 46.29999923706055 3333.510009765625 C 46.29999923706055 3333.510009765625 45.79999923706055 3333.3701171875 45.33000183105469 3333.3701171875 C 45.33000183105469 3333.3701171875 44.529998779296875 3333.3701171875 44.09000015258789 3333.68994140625 C 44.09000015258789 3333.68994140625 43.65999984741211 3334.0 43.65999984741211 3334.580078125 C 43.65999984741211 3334.580078125 43.65999984741211 3335.06005859375 43.95000076293945 3335.31005859375 C 43.95000076293945 3335.31005859375 44.22999954223633 3335.56005859375 45.04999923706055 3335.699951171875 L 45.63999938964844 3335.830078125 C 45.63999938964844 3335.830078125 46.72999954223633 3336.050048828125 47.27000045776367 3336.570068359375 C 47.27000045776367 3336.570068359375 47.79999923706055 3337.090087890625 47.79999923706055 3337.97998046875 C 47.79999923706055 3337.97998046875 47.79999923706055 3339.050048828125 47.09000015258789 3339.590087890625 C 47.09000015258789 3339.590087890625 46.380001068115234 3340.139892578125 45.0 3340.139892578125 C 45.0 3340.139892578125 44.47999954223633 3340.139892578125 43.900001525878906 3340.02001953125 C 43.900001525878906 3340.02001953125 43.310001373291016 3339.909912109375 42.689998626708984 3339.669921875 L 42.689998626708984 3338.659912109375 C 42.689998626708984 3338.659912109375 43.29999923706055 3339.0 43.869998931884766 3339.169921875 C 43.869998931884766 3339.169921875 44.439998626708984 3339.340087890625 45.0 3339.340087890625 C 45.0 3339.340087890625 45.84000015258789 3339.340087890625 46.29999923706055 3339.010009765625 C 46.29999923706055 3339.010009765625 46.77000045776367 3338.669921875 46.77000045776367 3338.06005859375 C 46.77000045776367 3338.06005859375 46.77000045776367 3337.530029296875 46.439998626708984 3337.22998046875 C 46.439998626708984 3337.22998046875 46.11000061035156 3336.919921875 45.34000015258789 3336.77001953125 L 44.75 3336.659912109375 C 44.75 3336.659912109375 43.63999938964844 3336.43994140625 43.150001525878906 3335.969970703125 C 43.150001525878906 3335.969970703125 42.65999984741211 3335.5 42.65999984741211 3334.659912109375 C 42.65999984741211 3334.659912109375 42.65999984741211 3333.68994140625 43.34000015258789 3333.1298828125 C 43.34000015258789 3333.1298828125 44.02000045776367 3332.580078125 45.220001220703125 3332.580078125 C 45.220001220703125 3332.580078125 45.72999954223633 3332.580078125 46.27000045776367 3332.669921875 Z M 49.189998626708984 3337.840087890625 L 49.189998626708984 3334.530029296875 L 50.099998474121094 3334.530029296875 L 50.099998474121094 3337.81005859375 C 50.099998474121094 3337.81005859375 50.099998474121094 3338.580078125 50.400001525878906 3338.969970703125 C 50.400001525878906 3338.969970703125 50.709999084472656 3339.360107421875 51.29999923706055 3339.360107421875 C 51.29999923706055 3339.360107421875 52.040000915527344 3339.360107421875 52.459999084472656 3338.89990234375 C 52.459999084472656 3338.89990234375 52.880001068115234 3338.43994140625 52.880001068115234 3337.6201171875 L 52.880001068115234 3334.530029296875 L 53.790000915527344 3334.530029296875 L 53.790000915527344 3340.0 L 52.880001068115234 3340.0 L 52.880001068115234 3339.159912109375 C 52.880001068115234 3339.159912109375 52.54999923706055 3339.659912109375 52.119998931884766 3339.89990234375 C 52.119998931884766 3339.89990234375 51.689998626708984 3340.139892578125 51.11000061035156 3340.139892578125 C 51.11000061035156 3340.139892578125 50.18000030517578 3340.139892578125 49.68000030517578 3339.550048828125 Z M 58.790000915527344 3335.3701171875 C 58.790000915527344 3335.3701171875 58.63999938964844 3335.280029296875 58.470001220703125 3335.239990234375 C 58.470001220703125 3335.239990234375 58.290000915527344 3335.199951171875 58.08000183105469 3335.199951171875 C 58.08000183105469 3335.199951171875 57.310001373291016 3335.199951171875 56.900001525878906 3335.699951171875 C 56.900001525878906 3335.699951171875 56.5 3336.18994140625 56.5 3337.1201171875 L 56.5 3340.0 L 55.59000015258789 3340.0 L 55.59000015258789 3334.530029296875 L 56.5 3334.530029296875 L 56.5 3335.3701171875 C 56.5 3335.3701171875 56.779998779296875 3334.8701171875 57.22999954223633 3334.639892578125 C 57.22999954223633 3334.639892578125 57.689998626708984 3334.409912109375 58.34000015258789 3334.409912109375 C 58.34000015258789 3334.409912109375 58.439998626708984 3334.409912109375 58.540000915527344 3334.409912109375 C 58.540000915527344 3334.409912109375 58.650001525878906 3334.419921875 58.790000915527344 3334.449951171875 Z M 59.09000015258789 3334.530029296875 L 60.04999923706055 3334.530029296875 L 61.75 3339.1201171875 L 63.470001220703125 3334.530029296875 L 64.41999816894531 3334.530029296875 L 62.36000061035156 3340.0 L 61.13999938964844 3340.0 Z M 70.33999633789062 3337.050048828125 L 70.33999633789062 3337.47998046875 L 66.19999694824219 3337.47998046875 C 66.19999694824219 3337.47998046875 66.26000213623047 3338.409912109375 66.76000213623047 3338.889892578125 C 66.76000213623047 3338.889892578125 67.26000213623047 3339.3701171875 68.1500015258789 3339.3701171875 C 68.1500015258789 3339.3701171875 68.66999816894531 3339.3701171875 69.16000366210938 3339.25 C 69.16000366210938 3339.25 69.6500015258789 3339.1201171875 70.12000274658203 3338.8701171875 L 70.12000274658203 3339.719970703125 C 70.12000274658203 3339.719970703125 69.63999938964844 3339.919921875 69.12999725341797 3340.030029296875 C 69.12999725341797 3340.030029296875 68.62000274658203 3340.139892578125 68.11000061035156 3340.139892578125 C 68.11000061035156 3340.139892578125 66.79000091552734 3340.139892578125 66.02999877929688 3339.3798828125 C 66.02999877929688 3339.3798828125 65.26000213623047 3338.6201171875 65.26000213623047 3337.31005859375 C 65.26000213623047 3337.31005859375 65.26000213623047 3335.969970703125 65.98999786376953 3335.18994140625 C 65.98999786376953 3335.18994140625 66.70999908447266 3334.409912109375 67.94999694824219 3334.409912109375 C 67.94999694824219 3334.409912109375 69.05999755859375 3334.409912109375 69.69999694824219 3335.110107421875 Z M 69.43000030517578 3336.780029296875 C 69.43000030517578 3336.780029296875 69.43000030517578 3336.050048828125 69.02999877929688 3335.60009765625 C 69.02999877929688 3335.60009765625 68.62000274658203 3335.159912109375 67.95999908447266 3335.159912109375 C 67.95999908447266 3335.159912109375 67.19999694824219 3335.159912109375 66.75 3335.590087890625 C 66.75 3335.590087890625 66.30999755859375 3336.02001953125 66.2300033569336 3336.780029296875 Z M 74.08999633789062 3340.52001953125 C 74.08999633789062 3340.52001953125 73.70999908447266 3341.47998046875 73.33999633789062 3341.780029296875 C 73.33999633789062 3341.780029296875 72.9800033569336 3342.080078125 72.37999725341797 3342.080078125 L 71.66000366210938 3342.080078125 L 71.66000366210938 3341.330078125 L 72.18000030517578 3341.330078125 C 72.18000030517578 3341.330078125 72.55000305175781 3341.330078125 72.76000213623047 3341.159912109375 C 72.76000213623047 3341.159912109375 72.95999908447266 3340.97998046875 73.20999908447266 3340.330078125 L 73.37999725341797 3339.909912109375 L 71.16000366210938 3334.530029296875 L 72.12000274658203 3334.530029296875 L 73.81999969482422 3338.81005859375 L 75.54000091552734 3334.530029296875 L 76.48999786376953 3334.530029296875 Z M 83.38999938964844 3337.25 C 83.38999938964844 3337.25 82.30999755859375 3337.25 81.88999938964844 3337.5 C 81.88999938964844 3337.5 81.45999908447266 3337.75 81.45999908447266 3338.340087890625 C 81.45999908447266 3338.340087890625 81.45999908447266 3338.830078125 81.77999877929688 3339.110107421875 C 81.77999877929688 3339.110107421875 82.08999633789062 3339.389892578125 82.63999938964844 3339.389892578125 C 82.63999938964844 3339.389892578125 83.38999938964844 3339.389892578125 83.83999633789062 3338.860107421875 C 83.83999633789062 3338.860107421875 84.29000091552734 3338.330078125 84.29000091552734 3337.449951171875 L 84.29000091552734 3337.25 Z M 85.18000030517578 3336.8701171875 L 85.18000030517578 3340.0 L 84.29000091552734 3340.0 L 84.29000091552734 3339.169921875 C 84.29000091552734 3339.169921875 83.9800033569336 3339.669921875 83.5199966430664 3339.909912109375 C 83.5199966430664 3339.909912109375 83.05999755859375 3340.139892578125 82.4000015258789 3340.139892578125 C 82.4000015258789 3340.139892578125 81.55999755859375 3340.139892578125 81.05999755859375 3339.669921875 C 81.05999755859375 3339.669921875 80.55999755859375 3339.199951171875 80.55999755859375 3338.409912109375 C 80.55999755859375 3338.409912109375 80.55999755859375 3337.47998046875 81.18000030517578 3337.02001953125 C 81.18000030517578 3337.02001953125 81.80999755859375 3336.550048828125 83.02999877929688 3336.550048828125 L 84.29000091552734 3336.550048828125 L 84.29000091552734 3336.449951171875 C 84.29000091552734 3336.449951171875 84.29000091552734 3335.840087890625 83.87999725341797 3335.5 C 83.87999725341797 3335.5 83.45999908447266 3335.159912109375 82.7300033569336 3335.159912109375 C 82.7300033569336 3335.159912109375 82.26000213623047 3335.159912109375 81.81999969482422 3335.27001953125 C 81.81999969482422 3335.27001953125 81.37000274658203 3335.389892578125 80.95999908447266 3335.610107421875 L 80.95999908447266 3334.780029296875 C 80.95999908447266 3334.780029296875 81.45999908447266 3334.590087890625 81.91999816894531 3334.5 C 81.91999816894531 3334.5 82.38999938964844 3334.409912109375 82.81999969482422 3334.409912109375 C 82.81999969482422 3334.409912109375 84.01000213623047 3334.409912109375 84.5999984741211 3335.02001953125 Z M 91.58000183105469 3336.699951171875 L 91.58000183105469 3340.0 L 90.69000244140625 3340.0 L 90.69000244140625 3336.72998046875 C 90.69000244140625 3336.72998046875 90.69000244140625 3335.949951171875 90.37999725341797 3335.570068359375 C 90.37999725341797 3335.570068359375 90.08000183105469 3335.18994140625 89.47000122070312 3335.18994140625 C 89.47000122070312 3335.18994140625 88.75 3335.18994140625 88.33000183105469 3335.64990234375 C 88.33000183105469 3335.64990234375 87.9000015258789 3336.110107421875 87.9000015258789 3336.909912109375 L 87.9000015258789 3340.0 L 87.0 3340.0 L 87.0 3334.530029296875 L 87.9000015258789 3334.530029296875 L 87.9000015258789 3335.3701171875 C 87.9000015258789 3335.3701171875 88.2300033569336 3334.889892578125 88.66999816894531 3334.64990234375 C 88.66999816894531 3334.64990234375 89.11000061035156 3334.409912109375 89.66999816894531 3334.409912109375 C 89.66999816894531 3334.409912109375 90.61000061035156 3334.409912109375 91.08999633789062 3334.97998046875 Z M 96.9800033569336 3335.360107421875 L 96.9800033569336 3332.409912109375 L 97.87000274658203 3332.409912109375 L 97.87000274658203 3340.0 L 96.9800033569336 3340.0 L 96.9800033569336 3339.169921875 C 96.9800033569336 3339.169921875 96.69999694824219 3339.669921875 96.26000213623047 3339.909912109375 C 96.26000213623047 3339.909912109375 95.81999969482422 3340.139892578125 95.20999908447266 3340.139892578125 C 95.20999908447266 3340.139892578125 94.2300033569336 3340.139892578125 93.5999984741211 3339.35009765625 C 93.5999984741211 3339.35009765625 92.9800033569336 3338.56005859375 92.9800033569336 3337.27001953125 C 92.9800033569336 3337.27001953125 92.9800033569336 3335.97998046875 93.5999984741211 3335.199951171875 C 93.5999984741211 3335.199951171875 94.2300033569336 3334.409912109375 95.20999908447266 3334.409912109375 C 95.20999908447266 3334.409912109375 95.81999969482422 3334.409912109375 96.26000213623047 3334.639892578125 Z M 93.91000366210938 3337.27001953125 C 93.91000366210938 3337.27001953125 93.91000366210938 3338.27001953125 94.31999969482422 3338.830078125 C 94.31999969482422 3338.830078125 94.7300033569336 3339.389892578125 95.44999694824219 3339.389892578125 C 95.44999694824219 3339.389892578125 96.1500015258789 3339.389892578125 96.55999755859375 3338.830078125 C 96.55999755859375 3338.830078125 96.9800033569336 3338.27001953125 96.9800033569336 3337.27001953125 C 96.9800033569336 3337.27001953125 96.9800033569336 3336.280029296875 96.55999755859375 3335.719970703125 C 96.55999755859375 3335.719970703125 96.1500015258789 3335.159912109375 95.44999694824219 3335.159912109375 C 95.44999694824219 3335.159912109375 94.7300033569336 3335.159912109375 94.31999969482422 3335.719970703125 Z M 107.31999969482422 3332.949951171875 L 107.31999969482422 3333.909912109375 C 107.31999969482422 3333.909912109375 106.75 3333.639892578125 106.25 3333.510009765625 C 106.25 3333.510009765625 105.75 3333.3701171875 105.27999877929688 3333.3701171875 C 105.27999877929688 3333.3701171875 104.48999786376953 3333.3701171875 104.05000305175781 3333.68994140625 C 104.05000305175781 3333.68994140625 103.61000061035156 3334.0 103.61000061035156 3334.580078125 C 103.61000061035156 3334.580078125 103.61000061035156 3335.06005859375 103.9000015258789 3335.31005859375 C 103.9000015258789 3335.31005859375 104.19000244140625 3335.56005859375 105.0 3335.699951171875 L 105.5999984741211 3335.830078125 C 105.5999984741211 3335.830078125 106.69000244140625 3336.050048828125 107.22000122070312 3336.570068359375 C 107.22000122070312 3336.570068359375 107.75 3337.090087890625 107.75 3337.97998046875 C 107.75 3337.97998046875 107.75 3339.050048828125 107.04000091552734 3339.590087890625 C 107.04000091552734 3339.590087890625 106.33000183105469 3340.139892578125 104.95999908447266 3340.139892578125 C 104.95999908447266 3340.139892578125 104.44000244140625 3340.139892578125 103.8499984741211 3340.02001953125 C 103.8499984741211 3340.02001953125 103.2699966430664 3339.909912109375 102.63999938964844 3339.669921875 L 102.63999938964844 3338.659912109375 C 102.63999938964844 3338.659912109375 103.25 3339.0 103.81999969482422 3339.169921875 C 103.81999969482422 3339.169921875 104.38999938964844 3339.340087890625 104.95999908447266 3339.340087890625 C 104.95999908447266 3339.340087890625 105.80000305175781 3339.340087890625 106.26000213623047 3339.010009765625 C 106.26000213623047 3339.010009765625 106.72000122070312 3338.669921875 106.72000122070312 3338.06005859375 C 106.72000122070312 3338.06005859375 106.72000122070312 3337.530029296875 106.38999938964844 3337.22998046875 C 106.38999938964844 3337.22998046875 106.06999969482422 3336.919921875 105.30000305175781 3336.77001953125 L 104.70999908447266 3336.659912109375 C 104.70999908447266 3336.659912109375 103.5999984741211 3336.43994140625 103.0999984741211 3335.969970703125 C 103.0999984741211 3335.969970703125 102.61000061035156 3335.5 102.61000061035156 3334.659912109375 C 102.61000061035156 3334.659912109375 102.61000061035156 3333.68994140625 103.29000091552734 3333.1298828125 C 103.29000091552734 3333.1298828125 103.97000122070312 3332.580078125 105.16999816894531 3332.580078125 C 105.16999816894531 3332.580078125 105.69000244140625 3332.580078125 106.22000122070312 3332.669921875 Z M 113.93000030517578 3337.050048828125 L 113.93000030517578 3337.47998046875 L 109.79000091552734 3337.47998046875 C 109.79000091552734 3337.47998046875 109.8499984741211 3338.409912109375 110.3499984741211 3338.889892578125 C 110.3499984741211 3338.889892578125 110.8499984741211 3339.3701171875 111.73999786376953 3339.3701171875 C 111.73999786376953 3339.3701171875 112.26000213623047 3339.3701171875 112.75 3339.25 C 112.75 3339.25 113.23999786376953 3339.1201171875 113.70999908447266 3338.8701171875 L 113.70999908447266 3339.719970703125 C 113.70999908447266 3339.719970703125 113.2300033569336 3339.919921875 112.72000122070312 3340.030029296875 C 112.72000122070312 3340.030029296875 112.20999908447266 3340.139892578125 111.69000244140625 3340.139892578125 C 111.69000244140625 3340.139892578125 110.37999725341797 3340.139892578125 109.62000274658203 3339.3798828125 C 109.62000274658203 3339.3798828125 108.8499984741211 3338.6201171875 108.8499984741211 3337.31005859375 C 108.8499984741211 3337.31005859375 108.8499984741211 3335.969970703125 109.58000183105469 3335.18994140625 C 109.58000183105469 3335.18994140625 110.30000305175781 3334.409912109375 111.54000091552734 3334.409912109375 C 111.54000091552734 3334.409912109375 112.6500015258789 3334.409912109375 113.29000091552734 3335.110107421875 Z M 113.0199966430664 3336.780029296875 C 113.0199966430664 3336.780029296875 113.0199966430664 3336.050048828125 112.62000274658203 3335.60009765625 C 112.62000274658203 3335.60009765625 112.20999908447266 3335.159912109375 111.55000305175781 3335.159912109375 C 111.55000305175781 3335.159912109375 110.79000091552734 3335.159912109375 110.33999633789062 3335.590087890625 C 110.33999633789062 3335.590087890625 109.9000015258789 3336.02001953125 109.81999969482422 3336.780029296875 Z M 116.27999877929688 3332.97998046875 L 116.27999877929688 3334.530029296875 L 118.13999938964844 3334.530029296875 L 118.13999938964844 3335.22998046875 L 116.27999877929688 3335.22998046875 L 116.27999877929688 3338.199951171875 C 116.27999877929688 3338.199951171875 116.27999877929688 3338.860107421875 116.47000122070312 3339.050048828125 C 116.47000122070312 3339.050048828125 116.66000366210938 3339.25 117.22000122070312 3339.25 L 118.13999938964844 3339.25 L 118.13999938964844 3340.0 L 117.22000122070312 3340.0 C 117.22000122070312 3340.0 116.16999816894531 3340.0 115.77999877929688 3339.610107421875 C 115.77999877929688 3339.610107421875 115.37999725341797 3339.219970703125 115.37999725341797 3338.199951171875 L 115.37999725341797 3335.22998046875 L 114.72000122070312 3335.22998046875 L 114.72000122070312 3334.530029296875 L 115.37999725341797 3334.530029296875 L 115.37999725341797 3332.97998046875 Z M 120.20999908447266 3332.97998046875 L 120.20999908447266 3334.530029296875 L 122.05999755859375 3334.530029296875 L 122.05999755859375 3335.22998046875 L 120.20999908447266 3335.22998046875 L 120.20999908447266 3338.199951171875 C 120.20999908447266 3338.199951171875 120.20999908447266 3338.860107421875 120.38999938964844 3339.050048828125 C 120.38999938964844 3339.050048828125 120.58000183105469 3339.25 121.13999938964844 3339.25 L 122.05999755859375 3339.25 L 122.05999755859375 3340.0 L 121.13999938964844 3340.0 C 121.13999938964844 3340.0 120.0999984741211 3340.0 119.69999694824219 3339.610107421875 C 119.69999694824219 3339.610107421875 119.30000305175781 3339.219970703125 119.30000305175781 3338.199951171875 L 119.30000305175781 3335.22998046875 L 118.63999938964844 3335.22998046875 L 118.63999938964844 3334.530029296875 L 119.30000305175781 3334.530029296875 L 119.30000305175781 3332.97998046875 Z M 123.23999786376953 3332.409912109375 L 124.13999938964844 3332.409912109375 L 124.13999938964844 3340.0 L 123.23999786376953 3340.0 Z M 130.6999969482422 3337.050048828125 L 130.6999969482422 3337.47998046875 L 126.55999755859375 3337.47998046875 C 126.55999755859375 3337.47998046875 126.62000274658203 3338.409912109375 127.12000274658203 3338.889892578125 C 127.12000274658203 3338.889892578125 127.62000274658203 3339.3701171875 128.50999450683594 3339.3701171875 C 128.50999450683594 3339.3701171875 129.02999877929688 3339.3701171875 129.52000427246094 3339.25 C 129.52000427246094 3339.25 130.00999450683594 3339.1201171875 130.47999572753906 3338.8701171875 L 130.47999572753906 3339.719970703125 C 130.47999572753906 3339.719970703125 130.0 3339.919921875 129.49000549316406 3340.030029296875 C 129.49000549316406 3340.030029296875 128.97999572753906 3340.139892578125 128.47000122070312 3340.139892578125 C 128.47000122070312 3340.139892578125 127.1500015258789 3340.139892578125 126.38999938964844 3339.3798828125 C 126.38999938964844 3339.3798828125 125.62000274658203 3338.6201171875 125.62000274658203 3337.31005859375 C 125.62000274658203 3337.31005859375 125.62000274658203 3335.969970703125 126.3499984741211 3335.18994140625 C 126.3499984741211 3335.18994140625 127.08000183105469 3334.409912109375 128.30999755859375 3334.409912109375 C 128.30999755859375 3334.409912109375 129.4199981689453 3334.409912109375 130.05999755859375 3335.110107421875 Z M 129.7899932861328 3336.780029296875 C 129.7899932861328 3336.780029296875 129.7899932861328 3336.050048828125 129.38999938964844 3335.60009765625 C 129.38999938964844 3335.60009765625 128.97999572753906 3335.159912109375 128.3300018310547 3335.159912109375 C 128.3300018310547 3335.159912109375 127.55999755859375 3335.159912109375 127.12000274658203 3335.590087890625 C 127.12000274658203 3335.590087890625 126.66999816894531 3336.02001953125 126.58999633789062 3336.780029296875 Z M 136.42999267578125 3335.580078125 C 136.42999267578125 3335.580078125 136.75999450683594 3334.969970703125 137.22999572753906 3334.68994140625 C 137.22999572753906 3334.68994140625 137.6999969482422 3334.409912109375 138.33999633789062 3334.409912109375 C 138.33999633789062 3334.409912109375 139.1999969482422 3334.409912109375 139.66000366210938 3335.0 C 139.66000366210938 3335.0 140.1199951171875 3335.590087890625 140.1199951171875 3336.699951171875 L 140.1199951171875 3340.0 L 139.2100067138672 3340.0 L 139.2100067138672 3336.72998046875 C 139.2100067138672 3336.72998046875 139.2100067138672 3335.93994140625 138.94000244140625 3335.56005859375 C 138.94000244140625 3335.56005859375 138.6699981689453 3335.18994140625 138.08999633789062 3335.18994140625 C 138.08999633789062 3335.18994140625 137.3800048828125 3335.18994140625 136.99000549316406 3335.64990234375 C 136.99000549316406 3335.64990234375 136.58999633789062 3336.110107421875 136.58999633789062 3336.909912109375 L 136.58999633789062 3340.0 L 135.67999267578125 3340.0 L 135.67999267578125 3336.72998046875 C 135.67999267578125 3336.72998046875 135.67999267578125 3335.93994140625 135.39999389648438 3335.56005859375 C 135.39999389648438 3335.56005859375 135.1199951171875 3335.18994140625 134.5399932861328 3335.18994140625 C 134.5399932861328 3335.18994140625 133.85000610351562 3335.18994140625 133.4499969482422 3335.64990234375 C 133.4499969482422 3335.64990234375 133.0399932861328 3336.110107421875 133.0399932861328 3336.909912109375 L 133.0399932861328 3340.0 L 132.1300048828125 3340.0 L 132.1300048828125 3334.530029296875 L 133.0399932861328 3334.530029296875 L 133.0399932861328 3335.3701171875 C 133.0399932861328 3335.3701171875 133.35000610351562 3334.8701171875 133.77999877929688 3334.639892578125 C 133.77999877929688 3334.639892578125 134.2100067138672 3334.409912109375 134.7899932861328 3334.409912109375 C 134.7899932861328 3334.409912109375 135.39999389648438 3334.409912109375 135.80999755859375 3334.699951171875 Z M 146.58999633789062 3337.050048828125 L 146.58999633789062 3337.47998046875 L 142.4499969482422 3337.47998046875 C 142.4499969482422 3337.47998046875 142.52000427246094 3338.409912109375 143.02000427246094 3338.889892578125 C 143.02000427246094 3338.889892578125 143.52000427246094 3339.3701171875 144.41000366210938 3339.3701171875 C 144.41000366210938 3339.3701171875 144.9199981689453 3339.3701171875 145.4199981689453 3339.25 C 145.4199981689453 3339.25 145.91000366210938 3339.1201171875 146.3800048828125 3338.8701171875 L 146.3800048828125 3339.719970703125 C 146.3800048828125 3339.719970703125 145.88999938964844 3339.919921875 145.3800048828125 3340.030029296875 C 145.3800048828125 3340.030029296875 144.8800048828125 3340.139892578125 144.36000061035156 3340.139892578125 C 144.36000061035156 3340.139892578125 143.0500030517578 3340.139892578125 142.27999877929688 3339.3798828125 C 142.27999877929688 3339.3798828125 141.52000427246094 3338.6201171875 141.52000427246094 3337.31005859375 C 141.52000427246094 3337.31005859375 141.52000427246094 3335.969970703125 142.24000549316406 3335.18994140625 C 142.24000549316406 3335.18994140625 142.97000122070312 3334.409912109375 144.1999969482422 3334.409912109375 C 144.1999969482422 3334.409912109375 145.30999755859375 3334.409912109375 145.9499969482422 3335.110107421875 Z M 145.69000244140625 3336.780029296875 C 145.69000244140625 3336.780029296875 145.69000244140625 3336.050048828125 145.27999877929688 3335.60009765625 C 145.27999877929688 3335.60009765625 144.8800048828125 3335.159912109375 144.22000122070312 3335.159912109375 C 144.22000122070312 3335.159912109375 143.4499969482422 3335.159912109375 143.00999450683594 3335.590087890625 C 143.00999450683594 3335.590087890625 142.55999755859375 3336.02001953125 142.49000549316406 3336.780029296875 Z M 152.61000061035156 3336.699951171875 L 152.61000061035156 3340.0 L 151.72000122070312 3340.0 L 151.72000122070312 3336.72998046875 C 151.72000122070312 3336.72998046875 151.72000122070312 3335.949951171875 151.41000366210938 3335.570068359375 C 151.41000366210938 3335.570068359375 151.11000061035156 3335.18994140625 150.5 3335.18994140625 C 150.5 3335.18994140625 149.77999877929688 3335.18994140625 149.36000061035156 3335.64990234375 C 149.36000061035156 3335.64990234375 148.92999267578125 3336.110107421875 148.92999267578125 3336.909912109375 L 148.92999267578125 3340.0 L 148.02999877929688 3340.0 L 148.02999877929688 3334.530029296875 L 148.92999267578125 3334.530029296875 L 148.92999267578125 3335.3701171875 C 148.92999267578125 3335.3701171875 149.25999450683594 3334.889892578125 149.6999969482422 3334.64990234375 C 149.6999969482422 3334.64990234375 150.13999938964844 3334.409912109375 150.6999969482422 3334.409912109375 C 150.6999969482422 3334.409912109375 151.63999938964844 3334.409912109375 152.1199951171875 3334.97998046875 Z M 155.2899932861328 3332.97998046875 L 155.2899932861328 3334.530029296875 L 157.14999389648438 3334.530029296875 L 157.14999389648438 3335.22998046875 L 155.2899932861328 3335.22998046875 L 155.2899932861328 3338.199951171875 C 155.2899932861328 3338.199951171875 155.2899932861328 3338.860107421875 155.47999572753906 3339.050048828125 C 155.47999572753906 3339.050048828125 155.66000366210938 3339.25 156.22999572753906 3339.25 L 157.14999389648438 3339.25 L 157.14999389648438 3340.0 L 156.22999572753906 3340.0 C 156.22999572753906 3340.0 155.17999267578125 3340.0 154.77999877929688 3339.610107421875 C 154.77999877929688 3339.610107421875 154.3800048828125 3339.219970703125 154.3800048828125 3338.199951171875 L 154.3800048828125 3335.22998046875 L 153.72999572753906 3335.22998046875 L 153.72999572753906 3334.530029296875 L 154.3800048828125 3334.530029296875 L 154.3800048828125 3332.97998046875 Z M 162.52999877929688 3333.52001953125 L 162.52999877929688 3339.18994140625 L 163.72000122070312 3339.18994140625 C 163.72000122070312 3339.18994140625 165.22999572753906 3339.18994140625 165.92999267578125 3338.510009765625 C 165.92999267578125 3338.510009765625 166.6199951171875 3337.830078125 166.6199951171875 3336.340087890625 C 166.6199951171875 3336.340087890625 166.6199951171875 3334.8701171875 165.92999267578125 3334.199951171875 C 165.92999267578125 3334.199951171875 165.22999572753906 3333.52001953125 163.72000122070312 3333.52001953125 Z M 161.5399932861328 3332.699951171875 L 163.5800018310547 3332.699951171875 C 163.5800018310547 3332.699951171875 165.67999267578125 3332.699951171875 166.67999267578125 3333.590087890625 C 166.67999267578125 3333.590087890625 167.6699981689453 3334.469970703125 167.6699981689453 3336.340087890625 C 167.6699981689453 3336.340087890625 167.6699981689453 3338.22998046875 166.67999267578125 3339.1201171875 C 166.67999267578125 3339.1201171875 165.67999267578125 3340.0 163.5800018310547 3340.0 L 161.5399932861328 3340.0 Z M 173.8800048828125 3337.050048828125 L 173.8800048828125 3337.47998046875 L 169.74000549316406 3337.47998046875 C 169.74000549316406 3337.47998046875 169.80999755859375 3338.409912109375 170.30999755859375 3338.889892578125 C 170.30999755859375 3338.889892578125 170.80999755859375 3339.3701171875 171.6999969482422 3339.3701171875 C 171.6999969482422 3339.3701171875 172.2100067138672 3339.3701171875 172.7100067138672 3339.25 C 172.7100067138672 3339.25 173.1999969482422 3339.1201171875 173.6699981689453 3338.8701171875 L 173.6699981689453 3339.719970703125 C 173.6699981689453 3339.719970703125 173.17999267578125 3339.919921875 172.6699981689453 3340.030029296875 C 172.6699981689453 3340.030029296875 172.1699981689453 3340.139892578125 171.64999389648438 3340.139892578125 C 171.64999389648438 3340.139892578125 170.33999633789062 3340.139892578125 169.57000732421875 3339.3798828125 C 169.57000732421875 3339.3798828125 168.80999755859375 3338.6201171875 168.80999755859375 3337.31005859375 C 168.80999755859375 3337.31005859375 168.80999755859375 3335.969970703125 169.52999877929688 3335.18994140625 C 169.52999877929688 3335.18994140625 170.25999450683594 3334.409912109375 171.49000549316406 3334.409912109375 C 171.49000549316406 3334.409912109375 172.60000610351562 3334.409912109375 173.24000549316406 3335.110107421875 Z M 172.97999572753906 3336.780029296875 C 172.97999572753906 3336.780029296875 172.97999572753906 3336.050048828125 172.57000732421875 3335.60009765625 C 172.57000732421875 3335.60009765625 172.1699981689453 3335.159912109375 171.50999450683594 3335.159912109375 C 171.50999450683594 3335.159912109375 170.74000549316406 3335.159912109375 170.3000030517578 3335.590087890625 C 170.3000030517578 3335.590087890625 169.85000610351562 3336.02001953125 169.77999877929688 3336.780029296875 Z M 176.22000122070312 3339.169921875 L 176.22000122070312 3342.080078125 L 175.32000732421875 3342.080078125 L 175.32000732421875 3334.530029296875 L 176.22000122070312 3334.530029296875 L 176.22000122070312 3335.360107421875 C 176.22000122070312 3335.360107421875 176.50999450683594 3334.8701171875 176.94000244140625 3334.639892578125 C 176.94000244140625 3334.639892578125 177.3699951171875 3334.409912109375 177.97000122070312 3334.409912109375 C 177.97000122070312 3334.409912109375 178.97000122070312 3334.409912109375 179.58999633789062 3335.199951171875 C 179.58999633789062 3335.199951171875 180.2100067138672 3335.97998046875 180.2100067138672 3337.27001953125 C 180.2100067138672 3337.27001953125 180.2100067138672 3338.56005859375 179.58999633789062 3339.35009765625 C 179.58999633789062 3339.35009765625 178.97000122070312 3340.139892578125 177.97000122070312 3340.139892578125 C 177.97000122070312 3340.139892578125 177.3699951171875 3340.139892578125 176.94000244140625 3339.909912109375 Z M 179.2899932861328 3337.27001953125 C 179.2899932861328 3337.27001953125 179.2899932861328 3336.280029296875 178.8699951171875 3335.719970703125 C 178.8699951171875 3335.719970703125 178.4600067138672 3335.159912109375 177.75999450683594 3335.159912109375 C 177.75999450683594 3335.159912109375 177.0399932861328 3335.159912109375 176.6300048828125 3335.719970703125 C 176.6300048828125 3335.719970703125 176.22000122070312 3336.280029296875 176.22000122070312 3337.27001953125 C 176.22000122070312 3337.27001953125 176.22000122070312 3338.27001953125 176.6300048828125 3338.830078125 C 176.6300048828125 3338.830078125 177.0399932861328 3339.389892578125 177.75999450683594 3339.389892578125 C 177.75999450683594 3339.389892578125 178.4600067138672 3339.389892578125 178.8699951171875 3338.830078125 Z M 184.17999267578125 3337.25 C 184.17999267578125 3337.25 183.10000610351562 3337.25 182.67999267578125 3337.5 C 182.67999267578125 3337.5 182.25999450683594 3337.75 182.25999450683594 3338.340087890625 C 182.25999450683594 3338.340087890625 182.25999450683594 3338.830078125 182.57000732421875 3339.110107421875 C 182.57000732421875 3339.110107421875 182.8800048828125 3339.389892578125 183.42999267578125 3339.389892578125 C 183.42999267578125 3339.389892578125 184.17999267578125 3339.389892578125 184.6300048828125 3338.860107421875 C 184.6300048828125 3338.860107421875 185.08999633789062 3338.330078125 185.08999633789062 3337.449951171875 L 185.08999633789062 3337.25 Z M 185.97999572753906 3336.8701171875 L 185.97999572753906 3340.0 L 185.08999633789062 3340.0 L 185.08999633789062 3339.169921875 C 185.08999633789062 3339.169921875 184.77999877929688 3339.669921875 184.30999755859375 3339.909912109375 C 184.30999755859375 3339.909912109375 183.85000610351562 3340.139892578125 183.1999969482422 3340.139892578125 C 183.1999969482422 3340.139892578125 182.35000610351562 3340.139892578125 181.85000610351562 3339.669921875 C 181.85000610351562 3339.669921875 181.35000610351562 3339.199951171875 181.35000610351562 3338.409912109375 C 181.35000610351562 3338.409912109375 181.35000610351562 3337.47998046875 181.97999572753906 3337.02001953125 C 181.97999572753906 3337.02001953125 182.60000610351562 3336.550048828125 183.82000732421875 3336.550048828125 L 185.08999633789062 3336.550048828125 L 185.08999633789062 3336.449951171875 C 185.08999633789062 3336.449951171875 185.08999633789062 3335.840087890625 184.6699981689453 3335.5 C 184.6699981689453 3335.5 184.25999450683594 3335.159912109375 183.52999877929688 3335.159912109375 C 183.52999877929688 3335.159912109375 183.05999755859375 3335.159912109375 182.61000061035156 3335.27001953125 C 182.61000061035156 3335.27001953125 182.1699981689453 3335.389892578125 181.75999450683594 3335.610107421875 L 181.75999450683594 3334.780029296875 C 181.75999450683594 3334.780029296875 182.25999450683594 3334.590087890625 182.72000122070312 3334.5 C 182.72000122070312 3334.5 183.17999267578125 3334.409912109375 183.6199951171875 3334.409912109375 C 183.6199951171875 3334.409912109375 184.80999755859375 3334.409912109375 185.38999938964844 3335.02001953125 Z M 191.0 3335.3701171875 C 191.0 3335.3701171875 190.83999633789062 3335.280029296875 190.6699981689453 3335.239990234375 C 190.6699981689453 3335.239990234375 190.5 3335.199951171875 190.27999877929688 3335.199951171875 C 190.27999877929688 3335.199951171875 189.50999450683594 3335.199951171875 189.11000061035156 3335.699951171875 C 189.11000061035156 3335.699951171875 188.6999969482422 3336.18994140625 188.6999969482422 3337.1201171875 L 188.6999969482422 3340.0 L 187.7899932861328 3340.0 L 187.7899932861328 3334.530029296875 L 188.6999969482422 3334.530029296875 L 188.6999969482422 3335.3701171875 C 188.6999969482422 3335.3701171875 188.97999572753906 3334.8701171875 189.42999267578125 3334.639892578125 C 189.42999267578125 3334.639892578125 189.88999938964844 3334.409912109375 190.5399932861328 3334.409912109375 C 190.5399932861328 3334.409912109375 190.63999938964844 3334.409912109375 190.75 3334.409912109375 C 190.75 3334.409912109375 190.86000061035156 3334.419921875 191.0 3334.449951171875 Z M 192.8300018310547 3332.97998046875 L 192.8300018310547 3334.530029296875 L 194.69000244140625 3334.530029296875 L 194.69000244140625 3335.22998046875 L 192.8300018310547 3335.22998046875 L 192.8300018310547 3338.199951171875 C 192.8300018310547 3338.199951171875 192.8300018310547 3338.860107421875 193.00999450683594 3339.050048828125 C 193.00999450683594 3339.050048828125 193.1999969482422 3339.25 193.75999450683594 3339.25 L 194.69000244140625 3339.25 L 194.69000244140625 3340.0 L 193.75999450683594 3340.0 C 193.75999450683594 3340.0 192.72000122070312 3340.0 192.32000732421875 3339.610107421875 C 192.32000732421875 3339.610107421875 191.9199981689453 3339.219970703125 191.9199981689453 3338.199951171875 L 191.9199981689453 3335.22998046875 L 191.25999450683594 3335.22998046875 L 191.25999450683594 3334.530029296875 L 191.9199981689453 3334.530029296875 L 191.9199981689453 3332.97998046875 Z M 200.1199951171875 3335.580078125 C 200.1199951171875 3335.580078125 200.4499969482422 3334.969970703125 200.9199981689453 3334.68994140625 C 200.9199981689453 3334.68994140625 201.38999938964844 3334.409912109375 202.02999877929688 3334.409912109375 C 202.02999877929688 3334.409912109375 202.88999938964844 3334.409912109375 203.35000610351562 3335.0 C 203.35000610351562 3335.0 203.80999755859375 3335.590087890625 203.80999755859375 3336.699951171875 L 203.80999755859375 3340.0 L 202.89999389648438 3340.0 L 202.89999389648438 3336.72998046875 C 202.89999389648438 3336.72998046875 202.89999389648438 3335.93994140625 202.6300048828125 3335.56005859375 C 202.6300048828125 3335.56005859375 202.36000061035156 3335.18994140625 201.77999877929688 3335.18994140625 C 201.77999877929688 3335.18994140625 201.0800018310547 3335.18994140625 200.67999267578125 3335.64990234375 C 200.67999267578125 3335.64990234375 200.27999877929688 3336.110107421875 200.27999877929688 3336.909912109375 L 200.27999877929688 3340.0 L 199.3699951171875 3340.0 L 199.3699951171875 3336.72998046875 C 199.3699951171875 3336.72998046875 199.3699951171875 3335.93994140625 199.08999633789062 3335.56005859375 C 199.08999633789062 3335.56005859375 198.80999755859375 3335.18994140625 198.22999572753906 3335.18994140625 C 198.22999572753906 3335.18994140625 197.5399932861328 3335.18994140625 197.13999938964844 3335.64990234375 C 197.13999938964844 3335.64990234375 196.72999572753906 3336.110107421875 196.72999572753906 3336.909912109375 L 196.72999572753906 3340.0 L 195.8300018310547 3340.0 L 195.8300018310547 3334.530029296875 L 196.72999572753906 3334.530029296875 L 196.72999572753906 3335.3701171875 C 196.72999572753906 3335.3701171875 197.0399932861328 3334.8701171875 197.47000122070312 3334.639892578125 C 197.47000122070312 3334.639892578125 197.89999389648438 3334.409912109375 198.47999572753906 3334.409912109375 C 198.47999572753906 3334.409912109375 199.08999633789062 3334.409912109375 199.50999450683594 3334.699951171875 Z M 210.2899932861328 3337.050048828125 L 210.2899932861328 3337.47998046875 L 206.14999389648438 3337.47998046875 C 206.14999389648438 3337.47998046875 206.2100067138672 3338.409912109375 206.7100067138672 3338.889892578125 C 206.7100067138672 3338.889892578125 207.2100067138672 3339.3701171875 208.10000610351562 3339.3701171875 C 208.10000610351562 3339.3701171875 208.61000061035156 3339.3701171875 209.11000061035156 3339.25 C 209.11000061035156 3339.25 209.60000610351562 3339.1201171875 210.07000732421875 3338.8701171875 L 210.07000732421875 3339.719970703125 C 210.07000732421875 3339.719970703125 209.5800018310547 3339.919921875 209.0800018310547 3340.030029296875 C 209.0800018310547 3340.030029296875 208.57000732421875 3340.139892578125 208.0500030517578 3340.139892578125 C 208.0500030517578 3340.139892578125 206.74000549316406 3340.139892578125 205.97000122070312 3339.3798828125 C 205.97000122070312 3339.3798828125 205.2100067138672 3338.6201171875 205.2100067138672 3337.31005859375 C 205.2100067138672 3337.31005859375 205.2100067138672 3335.969970703125 205.92999267578125 3335.18994140625 C 205.92999267578125 3335.18994140625 206.66000366210938 3334.409912109375 207.89999389648438 3334.409912109375 C 207.89999389648438 3334.409912109375 209.0 3334.409912109375 209.64999389648438 3335.110107421875 Z M 209.3800048828125 3336.780029296875 C 209.3800048828125 3336.780029296875 209.3800048828125 3336.050048828125 208.97000122070312 3335.60009765625 C 208.97000122070312 3335.60009765625 208.57000732421875 3335.159912109375 207.91000366210938 3335.159912109375 C 207.91000366210938 3335.159912109375 207.14999389648438 3335.159912109375 206.6999969482422 3335.590087890625 C 206.6999969482422 3335.590087890625 206.25 3336.02001953125 206.17999267578125 3336.780029296875 Z M 216.3000030517578 3336.699951171875 L 216.3000030517578 3340.0 L 215.41000366210938 3340.0 L 215.41000366210938 3336.72998046875 C 215.41000366210938 3336.72998046875 215.41000366210938 3335.949951171875 215.10000610351562 3335.570068359375 C 215.10000610351562 3335.570068359375 214.8000030517578 3335.18994140625 214.19000244140625 3335.18994140625 C 214.19000244140625 3335.18994140625 213.47000122070312 3335.18994140625 213.0500030517578 3335.64990234375 C 213.0500030517578 3335.64990234375 212.6300048828125 3336.110107421875 212.6300048828125 3336.909912109375 L 212.6300048828125 3340.0 L 211.72000122070312 3340.0 L 211.72000122070312 3334.530029296875 L 212.6300048828125 3334.530029296875 L 212.6300048828125 3335.3701171875 C 212.6300048828125 3335.3701171875 212.9499969482422 3334.889892578125 213.38999938964844 3334.64990234375 C 213.38999938964844 3334.64990234375 213.8300018310547 3334.409912109375 214.38999938964844 3334.409912109375 C 214.38999938964844 3334.409912109375 215.3300018310547 3334.409912109375 215.80999755859375 3334.97998046875 Z M 218.97999572753906 3332.97998046875 L 218.97999572753906 3334.530029296875 L 220.83999633789062 3334.530029296875 L 220.83999633789062 3335.22998046875 L 218.97999572753906 3335.22998046875 L 218.97999572753906 3338.199951171875 C 218.97999572753906 3338.199951171875 218.97999572753906 3338.860107421875 219.1699981689453 3339.050048828125 C 219.1699981689453 3339.050048828125 219.35000610351562 3339.25 219.9199981689453 3339.25 L 220.83999633789062 3339.25 L 220.83999633789062 3340.0 L 219.9199981689453 3340.0 C 219.9199981689453 3340.0 218.8699951171875 3340.0 218.47000122070312 3339.610107421875 C 218.47000122070312 3339.610107421875 218.07000732421875 3339.219970703125 218.07000732421875 3338.199951171875 L 218.07000732421875 3335.22998046875 L 217.4199981689453 3335.22998046875 L 217.4199981689453 3334.530029296875 L 218.07000732421875 3334.530029296875 L 218.07000732421875 3332.97998046875 Z M 222.24000549316406 3338.77001953125 L 223.27999877929688 3338.77001953125 L 223.27999877929688 3339.590087890625 L 222.47999572753906 3341.159912109375 L 221.83999633789062 3341.159912109375 L 222.24000549316406 3339.590087890625 Z M 233.3800048828125 3338.949951171875 L 233.3800048828125 3337.0 L 231.77000427246094 3337.0 L 231.77000427246094 3336.18994140625 L 234.35000610351562 3336.18994140625 L 234.35000610351562 3339.330078125 C 234.35000610351562 3339.330078125 233.7899932861328 3339.719970703125 233.10000610351562 3339.929931640625 C 233.10000610351562 3339.929931640625 232.41000366210938 3340.139892578125 231.6300048828125 3340.139892578125 C 231.6300048828125 3340.139892578125 229.91000366210938 3340.139892578125 228.9499969482422 3339.139892578125 C 228.9499969482422 3339.139892578125 227.99000549316406 3338.139892578125 227.99000549316406 3336.360107421875 C 227.99000549316406 3336.360107421875 227.99000549316406 3334.580078125 228.9499969482422 3333.580078125 C 228.9499969482422 3333.580078125 229.91000366210938 3332.580078125 231.6300048828125 3332.580078125 C 231.6300048828125 3332.580078125 232.33999633789062 3332.580078125 232.97999572753906 3332.75 C 232.97999572753906 3332.75 233.6300048828125 3332.919921875 234.16000366210938 3333.27001953125 L 234.16000366210938 3334.330078125 C 234.16000366210938 3334.330078125 233.6199951171875 3333.860107421875 233.00999450683594 3333.6201171875 C 233.00999450683594 3333.6201171875 232.39999389648438 3333.389892578125 231.7100067138672 3333.389892578125 C 231.7100067138672 3333.389892578125 230.3699951171875 3333.389892578125 229.6999969482422 3334.1298828125 C 229.6999969482422 3334.1298828125 229.0399932861328 3334.8701171875 229.0399932861328 3336.360107421875 C 229.0399932861328 3336.360107421875 229.0399932861328 3337.840087890625 229.6999969482422 3338.590087890625 C 229.6999969482422 3338.590087890625 230.3699951171875 3339.330078125 231.7100067138672 3339.330078125 C 231.7100067138672 3339.330078125 232.24000549316406 3339.330078125 232.64999389648438 3339.239990234375 Z M 238.24000549316406 3335.159912109375 C 238.24000549316406 3335.159912109375 237.52000427246094 3335.159912109375 237.10000610351562 3335.719970703125 C 237.10000610351562 3335.719970703125 236.67999267578125 3336.280029296875 236.67999267578125 3337.27001953125 C 236.67999267578125 3337.27001953125 236.67999267578125 3338.25 237.08999633789062 3338.81005859375 C 237.08999633789062 3338.81005859375 237.50999450683594 3339.3701171875 238.24000549316406 3339.3701171875 C 238.24000549316406 3339.3701171875 238.9600067138672 3339.3701171875 239.3800048828125 3338.81005859375 C 239.3800048828125 3338.81005859375 239.8000030517578 3338.25 239.8000030517578 3337.27001953125 C 239.8000030517578 3337.27001953125 239.8000030517578 3336.300048828125 239.3800048828125 3335.72998046875 Z M 238.24000549316406 3334.409912109375 C 238.24000549316406 3334.409912109375 239.41000366210938 3334.409912109375 240.0800018310547 3335.159912109375 C 240.0800018310547 3335.159912109375 240.75999450683594 3335.919921875 240.75999450683594 3337.27001953125 C 240.75999450683594 3337.27001953125 240.75999450683594 3338.610107421875 240.0800018310547 3339.3701171875 C 240.0800018310547 3339.3701171875 239.41000366210938 3340.139892578125 238.24000549316406 3340.139892578125 C 238.24000549316406 3340.139892578125 237.07000732421875 3340.139892578125 236.39999389648438 3339.3701171875 C 236.39999389648438 3339.3701171875 235.72999572753906 3338.610107421875 235.72999572753906 3337.27001953125 C 235.72999572753906 3337.27001953125 235.72999572753906 3335.919921875 236.39999389648438 3335.159912109375 Z M 241.58999633789062 3334.530029296875 L 242.5500030517578 3334.530029296875 L 244.25 3339.1201171875 L 245.97000122070312 3334.530029296875 L 246.9199981689453 3334.530029296875 L 244.86000061035156 3340.0 L 243.63999938964844 3340.0 Z M 252.83999633789062 3337.050048828125 L 252.83999633789062 3337.47998046875 L 248.6999969482422 3337.47998046875 C 248.6999969482422 3337.47998046875 248.75999450683594 3338.409912109375 249.25999450683594 3338.889892578125 C 249.25999450683594 3338.889892578125 249.75999450683594 3339.3701171875 250.64999389648438 3339.3701171875 C 250.64999389648438 3339.3701171875 251.1699981689453 3339.3701171875 251.66000366210938 3339.25 C 251.66000366210938 3339.25 252.14999389648438 3339.1201171875 252.6199951171875 3338.8701171875 L 252.6199951171875 3339.719970703125 C 252.6199951171875 3339.719970703125 252.13999938964844 3339.919921875 251.6300048828125 3340.030029296875 C 251.6300048828125 3340.030029296875 251.1199951171875 3340.139892578125 250.61000061035156 3340.139892578125 C 250.61000061035156 3340.139892578125 249.2899932861328 3340.139892578125 248.52999877929688 3339.3798828125 C 248.52999877929688 3339.3798828125 247.75999450683594 3338.6201171875 247.75999450683594 3337.31005859375 C 247.75999450683594 3337.31005859375 247.75999450683594 3335.969970703125 248.49000549316406 3335.18994140625 C 248.49000549316406 3335.18994140625 249.2100067138672 3334.409912109375 250.4499969482422 3334.409912109375 C 250.4499969482422 3334.409912109375 251.55999755859375 3334.409912109375 252.1999969482422 3335.110107421875 Z M 251.92999267578125 3336.780029296875 C 251.92999267578125 3336.780029296875 251.92999267578125 3336.050048828125 251.52999877929688 3335.60009765625 C 251.52999877929688 3335.60009765625 251.1199951171875 3335.159912109375 250.4600067138672 3335.159912109375 C 250.4600067138672 3335.159912109375 249.6999969482422 3335.159912109375 249.25 3335.590087890625 C 249.25 3335.590087890625 248.80999755859375 3336.02001953125 248.72999572753906 3336.780029296875 Z M 257.4800109863281 3335.3701171875 C 257.4800109863281 3335.3701171875 257.32000732421875 3335.280029296875 257.1499938964844 3335.239990234375 C 257.1499938964844 3335.239990234375 256.9800109863281 3335.199951171875 256.760009765625 3335.199951171875 C 256.760009765625 3335.199951171875 255.99000549316406 3335.199951171875 255.58999633789062 3335.699951171875 C 255.58999633789062 3335.699951171875 255.17999267578125 3336.18994140625 255.17999267578125 3337.1201171875 L 255.17999267578125 3340.0 L 254.27000427246094 3340.0 L 254.27000427246094 3334.530029296875 L 255.17999267578125 3334.530029296875 L 255.17999267578125 3335.3701171875 C 255.17999267578125 3335.3701171875 255.4600067138672 3334.8701171875 255.91000366210938 3334.639892578125 C 255.91000366210938 3334.639892578125 256.3699951171875 3334.409912109375 257.0199890136719 3334.409912109375 C 257.0199890136719 3334.409912109375 257.1199951171875 3334.409912109375 257.2300109863281 3334.409912109375 C 257.2300109863281 3334.409912109375 257.3399963378906 3334.419921875 257.4800109863281 3334.449951171875 Z M 262.9599914550781 3336.699951171875 L 262.9599914550781 3340.0 L 262.07000732421875 3340.0 L 262.07000732421875 3336.72998046875 C 262.07000732421875 3336.72998046875 262.07000732421875 3335.949951171875 261.7699890136719 3335.570068359375 C 261.7699890136719 3335.570068359375 261.4599914550781 3335.18994140625 260.8500061035156 3335.18994140625 C 260.8500061035156 3335.18994140625 260.1300048828125 3335.18994140625 259.7099914550781 3335.64990234375 C 259.7099914550781 3335.64990234375 259.2900085449219 3336.110107421875 259.2900085449219 3336.909912109375 L 259.2900085449219 3340.0 L 258.3800048828125 3340.0 L 258.3800048828125 3334.530029296875 L 259.2900085449219 3334.530029296875 L 259.2900085449219 3335.3701171875 C 259.2900085449219 3335.3701171875 259.6199951171875 3334.889892578125 260.05999755859375 3334.64990234375 C 260.05999755859375 3334.64990234375 260.489990234375 3334.409912109375 261.05999755859375 3334.409912109375 C 261.05999755859375 3334.409912109375 261.989990234375 3334.409912109375 262.4800109863281 3334.97998046875 Z M 269.0199890136719 3335.580078125 C 269.0199890136719 3335.580078125 269.3500061035156 3334.969970703125 269.82000732421875 3334.68994140625 C 269.82000732421875 3334.68994140625 270.2900085449219 3334.409912109375 270.92999267578125 3334.409912109375 C 270.92999267578125 3334.409912109375 271.7900085449219 3334.409912109375 272.25 3335.0 C 272.25 3335.0 272.7099914550781 3335.590087890625 272.7099914550781 3336.699951171875 L 272.7099914550781 3340.0 L 271.79998779296875 3340.0 L 271.79998779296875 3336.72998046875 C 271.79998779296875 3336.72998046875 271.79998779296875 3335.93994140625 271.5299987792969 3335.56005859375 C 271.5299987792969 3335.56005859375 271.25 3335.18994140625 270.67999267578125 3335.18994140625 C 270.67999267578125 3335.18994140625 269.9700012207031 3335.18994140625 269.57000732421875 3335.64990234375 C 269.57000732421875 3335.64990234375 269.17999267578125 3336.110107421875 269.17999267578125 3336.909912109375 L 269.17999267578125 3340.0 L 268.2699890136719 3340.0 L 268.2699890136719 3336.72998046875 C 268.2699890136719 3336.72998046875 268.2699890136719 3335.93994140625 267.989990234375 3335.56005859375 C 267.989990234375 3335.56005859375 267.7099914550781 3335.18994140625 267.1300048828125 3335.18994140625 C 267.1300048828125 3335.18994140625 266.44000244140625 3335.18994140625 266.0400085449219 3335.64990234375 C 266.0400085449219 3335.64990234375 265.6300048828125 3336.110107421875 265.6300048828125 3336.909912109375 L 265.6300048828125 3340.0 L 264.7200012207031 3340.0 L 264.7200012207031 3334.530029296875 L 265.6300048828125 3334.530029296875 L 265.6300048828125 3335.3701171875 C 265.6300048828125 3335.3701171875 265.94000244140625 3334.8701171875 266.3699951171875 3334.639892578125 C 266.3699951171875 3334.639892578125 266.79998779296875 3334.409912109375 267.3800048828125 3334.409912109375 C 267.3800048828125 3334.409912109375 267.989990234375 3334.409912109375 268.3999938964844 3334.699951171875 Z M 279.17999267578125 3337.050048828125 L 279.17999267578125 3337.47998046875 L 275.0400085449219 3337.47998046875 C 275.0400085449219 3337.47998046875 275.1000061035156 3338.409912109375 275.6000061035156 3338.889892578125 C 275.6000061035156 3338.889892578125 276.1000061035156 3339.3701171875 277.0 3339.3701171875 C 277.0 3339.3701171875 277.510009765625 3339.3701171875 278.0 3339.25 C 278.0 3339.25 278.5 3339.1201171875 278.9599914550781 3338.8701171875 L 278.9599914550781 3339.719970703125 C 278.9599914550781 3339.719970703125 278.4800109863281 3339.919921875 277.9700012207031 3340.030029296875 C 277.9700012207031 3340.030029296875 277.4599914550781 3340.139892578125 276.95001220703125 3340.139892578125 C 276.95001220703125 3340.139892578125 275.6400146484375 3340.139892578125 274.8699951171875 3339.3798828125 C 274.8699951171875 3339.3798828125 274.1000061035156 3338.6201171875 274.1000061035156 3337.31005859375 C 274.1000061035156 3337.31005859375 274.1000061035156 3335.969970703125 274.8299865722656 3335.18994140625 C 274.8299865722656 3335.18994140625 275.55999755859375 3334.409912109375 276.7900085449219 3334.409912109375 C 276.7900085449219 3334.409912109375 277.8999938964844 3334.409912109375 278.5400085449219 3335.110107421875 Z M 278.2799987792969 3336.780029296875 C 278.2799987792969 3336.780029296875 278.2799987792969 3336.050048828125 277.8699951171875 3335.60009765625 C 277.8699951171875 3335.60009765625 277.4599914550781 3335.159912109375 276.80999755859375 3335.159912109375 C 276.80999755859375 3335.159912109375 276.0400085449219 3335.159912109375 275.6000061035156 3335.590087890625 C 275.6000061035156 3335.590087890625 275.1499938964844 3336.02001953125 275.07000732421875 3336.780029296875 Z M 285.19000244140625 3336.699951171875 L 285.19000244140625 3340.0 L 284.29998779296875 3340.0 L 284.29998779296875 3336.72998046875 C 284.29998779296875 3336.72998046875 284.29998779296875 3335.949951171875 284.0 3335.570068359375 C 284.0 3335.570068359375 283.69000244140625 3335.18994140625 283.0799865722656 3335.18994140625 C 283.0799865722656 3335.18994140625 282.3699951171875 3335.18994140625 281.94000244140625 3335.64990234375 C 281.94000244140625 3335.64990234375 281.5199890136719 3336.110107421875 281.5199890136719 3336.909912109375 L 281.5199890136719 3340.0 L 280.6199951171875 3340.0 L 280.6199951171875 3334.530029296875 L 281.5199890136719 3334.530029296875 L 281.5199890136719 3335.3701171875 C 281.5199890136719 3335.3701171875 281.8500061035156 3334.889892578125 282.2900085449219 3334.64990234375 C 282.2900085449219 3334.64990234375 282.7300109863281 3334.409912109375 283.2900085449219 3334.409912109375 C 283.2900085449219 3334.409912109375 284.2300109863281 3334.409912109375 284.7099914550781 3334.97998046875 Z M 287.8800048828125 3332.97998046875 L 287.8800048828125 3334.530029296875 L 289.739990234375 3334.530029296875 L 289.739990234375 3335.22998046875 L 287.8800048828125 3335.22998046875 L 287.8800048828125 3338.199951171875 C 287.8800048828125 3338.199951171875 287.8800048828125 3338.860107421875 288.05999755859375 3339.050048828125 C 288.05999755859375 3339.050048828125 288.25 3339.25 288.80999755859375 3339.25 L 289.739990234375 3339.25 L 289.739990234375 3340.0 L 288.80999755859375 3340.0 C 288.80999755859375 3340.0 287.7699890136719 3340.0 287.3699951171875 3339.610107421875 C 287.3699951171875 3339.610107421875 286.9700012207031 3339.219970703125 286.9700012207031 3338.199951171875 L 286.9700012207031 3335.22998046875 L 286.30999755859375 3335.22998046875 L 286.30999755859375 3334.530029296875 L 286.9700012207031 3334.530029296875 L 286.9700012207031 3332.97998046875 Z M 296.2099914550781 3335.159912109375 C 296.2099914550781 3335.159912109375 295.489990234375 3335.159912109375 295.07000732421875 3335.719970703125 C 295.07000732421875 3335.719970703125 294.6499938964844 3336.280029296875 294.6499938964844 3337.27001953125 C 294.6499938964844 3337.27001953125 294.6499938964844 3338.25 295.05999755859375 3338.81005859375 C 295.05999755859375 3338.81005859375 295.4800109863281 3339.3701171875 296.2099914550781 3339.3701171875 C 296.2099914550781 3339.3701171875 296.92999267578125 3339.3701171875 297.3500061035156 3338.81005859375 C 297.3500061035156 3338.81005859375 297.7699890136719 3338.25 297.7699890136719 3337.27001953125 C 297.7699890136719 3337.27001953125 297.7699890136719 3336.300048828125 297.3500061035156 3335.72998046875 Z M 296.2099914550781 3334.409912109375 C 296.2099914550781 3334.409912109375 297.3800048828125 3334.409912109375 298.04998779296875 3335.159912109375 C 298.04998779296875 3335.159912109375 298.7300109863281 3335.919921875 298.7300109863281 3337.27001953125 C 298.7300109863281 3337.27001953125 298.7300109863281 3338.610107421875 298.04998779296875 3339.3701171875 C 298.04998779296875 3339.3701171875 297.3800048828125 3340.139892578125 296.2099914550781 3340.139892578125 C 296.2099914550781 3340.139892578125 295.0400085449219 3340.139892578125 294.3699951171875 3339.3701171875 C 294.3699951171875 3339.3701171875 293.69000244140625 3338.610107421875 293.69000244140625 3337.27001953125 C 293.69000244140625 3337.27001953125 293.69000244140625 3335.919921875 294.3699951171875 3335.159912109375 Z M 302.9800109863281 3332.409912109375 L 302.9800109863281 3333.159912109375 L 302.1300048828125 3333.159912109375 C 302.1300048828125 3333.159912109375 301.6400146484375 3333.159912109375 301.45001220703125 3333.35009765625 C 301.45001220703125 3333.35009765625 301.2699890136719 3333.550048828125 301.2699890136719 3334.050048828125 L 301.2699890136719 3334.530029296875 L 302.7300109863281 3334.530029296875 L 302.7300109863281 3335.22998046875 L 301.2699890136719 3335.22998046875 L 301.2699890136719 3340.0 L 300.3599853515625 3340.0 L 300.3599853515625 3335.22998046875 L 299.5 3335.22998046875 L 299.5 3334.530029296875 L 300.3599853515625 3334.530029296875 L 300.3599853515625 3334.159912109375 C 300.3599853515625 3334.159912109375 300.3599853515625 3333.22998046875 300.7799987792969 3332.820068359375 C 300.7799987792969 3332.820068359375 301.20001220703125 3332.409912109375 302.1300048828125 3332.409912109375 Z M 305.92999267578125 3332.699951171875 L 312.1099853515625 3332.699951171875 L 312.1099853515625 3333.550048828125 L 309.510009765625 3333.550048828125 L 309.510009765625 3340.0 L 308.5299987792969 3340.0 L 308.5299987792969 3333.550048828125 L 305.92999267578125 3333.550048828125 Z M 315.5 3337.25 C 315.5 3337.25 314.4200134277344 3337.25 314.0 3337.5 C 314.0 3337.5 313.57000732421875 3337.75 313.57000732421875 3338.340087890625 C 313.57000732421875 3338.340087890625 313.57000732421875 3338.830078125 313.8900146484375 3339.110107421875 C 313.8900146484375 3339.110107421875 314.20001220703125 3339.389892578125 314.75 3339.389892578125 C 314.75 3339.389892578125 315.5 3339.389892578125 315.95001220703125 3338.860107421875 C 315.95001220703125 3338.860107421875 316.3999938964844 3338.330078125 316.3999938964844 3337.449951171875 L 316.3999938964844 3337.25 Z M 317.2900085449219 3336.8701171875 L 317.2900085449219 3340.0 L 316.3999938964844 3340.0 L 316.3999938964844 3339.169921875 C 316.3999938964844 3339.169921875 316.0899963378906 3339.669921875 315.6300048828125 3339.909912109375 C 315.6300048828125 3339.909912109375 315.1700134277344 3340.139892578125 314.510009765625 3340.139892578125 C 314.510009765625 3340.139892578125 313.6700134277344 3340.139892578125 313.1700134277344 3339.669921875 C 313.1700134277344 3339.669921875 312.6700134277344 3339.199951171875 312.6700134277344 3338.409912109375 C 312.6700134277344 3338.409912109375 312.6700134277344 3337.47998046875 313.2900085449219 3337.02001953125 C 313.2900085449219 3337.02001953125 313.9200134277344 3336.550048828125 315.1400146484375 3336.550048828125 L 316.3999938964844 3336.550048828125 L 316.3999938964844 3336.449951171875 C 316.3999938964844 3336.449951171875 316.3999938964844 3335.840087890625 315.989990234375 3335.5 C 315.989990234375 3335.5 315.57000732421875 3335.159912109375 314.8399963378906 3335.159912109375 C 314.8399963378906 3335.159912109375 314.3699951171875 3335.159912109375 313.9200134277344 3335.27001953125 C 313.9200134277344 3335.27001953125 313.4800109863281 3335.389892578125 313.07000732421875 3335.610107421875 L 313.07000732421875 3334.780029296875 C 313.07000732421875 3334.780029296875 313.57000732421875 3334.590087890625 314.0299987792969 3334.5 C 314.0299987792969 3334.5 314.5 3334.409912109375 314.92999267578125 3334.409912109375 C 314.92999267578125 3334.409912109375 316.1199951171875 3334.409912109375 316.7099914550781 3335.02001953125 Z M 323.3999938964844 3335.580078125 C 323.3999938964844 3335.580078125 323.7300109863281 3334.969970703125 324.20001220703125 3334.68994140625 C 324.20001220703125 3334.68994140625 324.6700134277344 3334.409912109375 325.30999755859375 3334.409912109375 C 325.30999755859375 3334.409912109375 326.1700134277344 3334.409912109375 326.6300048828125 3335.0 C 326.6300048828125 3335.0 327.0899963378906 3335.590087890625 327.0899963378906 3336.699951171875 L 327.0899963378906 3340.0 L 326.19000244140625 3340.0 L 326.19000244140625 3336.72998046875 C 326.19000244140625 3336.72998046875 326.19000244140625 3335.93994140625 325.9100036621094 3335.56005859375 C 325.9100036621094 3335.56005859375 325.6400146484375 3335.18994140625 325.05999755859375 3335.18994140625 C 325.05999755859375 3335.18994140625 324.3599853515625 3335.18994140625 323.9599914550781 3335.64990234375 C 323.9599914550781 3335.64990234375 323.55999755859375 3336.110107421875 323.55999755859375 3336.909912109375 L 323.55999755859375 3340.0 L 322.6499938964844 3340.0 L 322.6499938964844 3336.72998046875 C 322.6499938964844 3336.72998046875 322.6499938964844 3335.93994140625 322.3699951171875 3335.56005859375 C 322.3699951171875 3335.56005859375 322.0899963378906 3335.18994140625 321.510009765625 3335.18994140625 C 321.510009765625 3335.18994140625 320.8299865722656 3335.18994140625 320.4200134277344 3335.64990234375 C 320.4200134277344 3335.64990234375 320.010009765625 3336.110107421875 320.010009765625 3336.909912109375 L 320.010009765625 3340.0 L 319.1099853515625 3340.0 L 319.1099853515625 3334.530029296875 L 320.010009765625 3334.530029296875 L 320.010009765625 3335.3701171875 C 320.010009765625 3335.3701171875 320.3299865722656 3334.8701171875 320.760009765625 3334.639892578125 C 320.760009765625 3334.639892578125 321.19000244140625 3334.409912109375 321.760009765625 3334.409912109375 C 321.760009765625 3334.409912109375 322.3699951171875 3334.409912109375 322.7900085449219 3334.699951171875 Z M 328.8800048828125 3334.530029296875 L 329.7900085449219 3334.530029296875 L 329.7900085449219 3340.0 L 328.8800048828125 3340.0 Z M 328.8800048828125 3332.409912109375 L 329.7900085449219 3332.409912109375 L 329.7900085449219 3333.550048828125 L 328.8800048828125 3333.550048828125 Z M 331.6600036621094 3332.409912109375 L 332.55999755859375 3332.409912109375 L 332.55999755859375 3340.0 L 331.6600036621094 3340.0 Z M 334.4800109863281 3332.699951171875 L 335.80999755859375 3332.699951171875 L 339.04998779296875 3338.81005859375 L 339.04998779296875 3332.699951171875 L 340.0 3332.699951171875 L 340.0 3340.0 L 338.6700134277344 3340.0 L 335.44000244140625 3333.909912109375 L 335.44000244140625 3340.0 L 334.4800109863281 3340.0 Z M 344.3999938964844 3337.25 C 344.3999938964844 3337.25 343.32000732421875 3337.25 342.8999938964844 3337.5 C 342.8999938964844 3337.5 342.4800109863281 3337.75 342.4800109863281 3338.340087890625 C 342.4800109863281 3338.340087890625 342.4800109863281 3338.830078125 342.7900085449219 3339.110107421875 C 342.7900085449219 3339.110107421875 343.1000061035156 3339.389892578125 343.6499938964844 3339.389892578125 C 343.6499938964844 3339.389892578125 344.3999938964844 3339.389892578125 344.8500061035156 3338.860107421875 C 344.8500061035156 3338.860107421875 345.30999755859375 3338.330078125 345.30999755859375 3337.449951171875 L 345.30999755859375 3337.25 Z M 346.20001220703125 3336.8701171875 L 346.20001220703125 3340.0 L 345.30999755859375 3340.0 L 345.30999755859375 3339.169921875 C 345.30999755859375 3339.169921875 345.0 3339.669921875 344.5299987792969 3339.909912109375 C 344.5299987792969 3339.909912109375 344.07000732421875 3340.139892578125 343.4200134277344 3340.139892578125 C 343.4200134277344 3340.139892578125 342.57000732421875 3340.139892578125 342.07000732421875 3339.669921875 C 342.07000732421875 3339.669921875 341.57000732421875 3339.199951171875 341.57000732421875 3338.409912109375 C 341.57000732421875 3338.409912109375 341.57000732421875 3337.47998046875 342.20001220703125 3337.02001953125 C 342.20001220703125 3337.02001953125 342.82000732421875 3336.550048828125 344.0400085449219 3336.550048828125 L 345.30999755859375 3336.550048828125 L 345.30999755859375 3336.449951171875 C 345.30999755859375 3336.449951171875 345.30999755859375 3335.840087890625 344.8900146484375 3335.5 C 344.8900146484375 3335.5 344.4800109863281 3335.159912109375 343.75 3335.159912109375 C 343.75 3335.159912109375 343.2799987792969 3335.159912109375 342.8299865722656 3335.27001953125 C 342.8299865722656 3335.27001953125 342.3900146484375 3335.389892578125 341.9800109863281 3335.610107421875 L 341.9800109863281 3334.780029296875 C 341.9800109863281 3334.780029296875 342.4800109863281 3334.590087890625 342.94000244140625 3334.5 C 342.94000244140625 3334.5 343.3999938964844 3334.409912109375 343.8399963378906 3334.409912109375 C 343.8399963378906 3334.409912109375 345.0299987792969 3334.409912109375 345.6099853515625 3335.02001953125 Z M 351.6499938964844 3335.360107421875 L 351.6499938964844 3332.409912109375 L 352.5400085449219 3332.409912109375 L 352.5400085449219 3340.0 L 351.6499938964844 3340.0 L 351.6499938964844 3339.169921875 C 351.6499938964844 3339.169921875 351.3699951171875 3339.669921875 350.94000244140625 3339.909912109375 C 350.94000244140625 3339.909912109375 350.5 3340.139892578125 349.8900146484375 3340.139892578125 C 349.8900146484375 3340.139892578125 348.8999938964844 3340.139892578125 348.2799987792969 3339.35009765625 C 348.2799987792969 3339.35009765625 347.6499938964844 3338.56005859375 347.6499938964844 3337.27001953125 C 347.6499938964844 3337.27001953125 347.6499938964844 3335.97998046875 348.2799987792969 3335.199951171875 C 348.2799987792969 3335.199951171875 348.8999938964844 3334.409912109375 349.8900146484375 3334.409912109375 C 349.8900146484375 3334.409912109375 350.5 3334.409912109375 350.94000244140625 3334.639892578125 Z M 348.5899963378906 3337.27001953125 C 348.5899963378906 3337.27001953125 348.5899963378906 3338.27001953125 349.0 3338.830078125 C 349.0 3338.830078125 349.3999938964844 3339.389892578125 350.1199951171875 3339.389892578125 C 350.1199951171875 3339.389892578125 350.8299865722656 3339.389892578125 351.239990234375 3338.830078125 C 351.239990234375 3338.830078125 351.6499938964844 3338.27001953125 351.6499938964844 3337.27001953125 C 351.6499938964844 3337.27001953125 351.6499938964844 3336.280029296875 351.239990234375 3335.719970703125 C 351.239990234375 3335.719970703125 350.8299865722656 3335.159912109375 350.1199951171875 3335.159912109375 C 350.1199951171875 3335.159912109375 349.3999938964844 3335.159912109375 349.0 3335.719970703125 Z M 354.29998779296875 3337.840087890625 L 354.29998779296875 3334.530029296875 L 355.2099914550781 3334.530029296875 L 355.2099914550781 3337.81005859375 C 355.2099914550781 3337.81005859375 355.2099914550781 3338.580078125 355.510009765625 3338.969970703125 C 355.510009765625 3338.969970703125 355.80999755859375 3339.360107421875 356.4100036621094 3339.360107421875 C 356.4100036621094 3339.360107421875 357.1400146484375 3339.360107421875 357.55999755859375 3338.89990234375 C 357.55999755859375 3338.89990234375 357.989990234375 3338.43994140625 357.989990234375 3337.6201171875 L 357.989990234375 3334.530029296875 L 358.8900146484375 3334.530029296875 L 358.8900146484375 3340.0 L 357.989990234375 3340.0 L 357.989990234375 3339.159912109375 C 357.989990234375 3339.159912109375 357.6600036621094 3339.659912109375 357.2300109863281 3339.89990234375 C 357.2300109863281 3339.89990234375 356.79998779296875 3340.139892578125 356.2200012207031 3340.139892578125 C 356.2200012207031 3340.139892578125 355.2799987792969 3340.139892578125 354.7900085449219 3339.550048828125 Z" stroke="black" fill="none" stroke-width="1" />
                </svg>