<svg xmlns="http://www.w3.org/2000/svg" width="4.6300048828125" height="7.4200439453125" viewBox="1149.72998046875 1673.5799560546875 4.6300048828125 7.4200439453125">
                <rect x="1149.72998046875" y="1673.5799560546875" width="4.6300048828125" height="7.4200439453125" fill="white"/>
                <path d="M 1150.9200439453125 1680.1700439453125 L 1154.3599853515625 1680.1700439453125 L 1154.3599853515625 1681.0 L 1149.72998046875 1681.0 L 1149.72998046875 1680.1700439453125 C 1149.72998046875 1680.1700439453125 1150.300048828125 1679.5899658203125 1151.27001953125 1678.6099853515625 C 1151.27001953125 1678.6099853515625 1152.22998046875 1677.6199951171875 1152.47998046875 1677.3399658203125 C 1152.47998046875 1677.3399658203125 1152.949951171875 1676.81005859375 1153.1400146484375 1676.449951171875 C 1153.1400146484375 1676.449951171875 1153.3299560546875 1676.0799560546875 1153.3299560546875 1675.719970703125 C 1153.3299560546875 1675.719970703125 1153.3299560546875 1675.1400146484375 1152.9200439453125 1674.77001953125 C 1152.9200439453125 1674.77001953125 1152.52001953125 1674.4100341796875 1151.8599853515625 1674.4100341796875 C 1151.8599853515625 1674.4100341796875 1151.3900146484375 1674.4100341796875 1150.8800048828125 1674.5699462890625 C 1150.8800048828125 1674.5699462890625 1150.3800048828125 1674.72998046875 1149.780029296875 1675.06005859375 L 1149.780029296875 1674.06005859375 C 1149.780029296875 1674.06005859375 1150.3800048828125 1673.8299560546875 1150.8900146484375 1673.699951171875 C 1150.8900146484375 1673.699951171875 1151.4100341796875 1673.5799560546875 1151.8399658203125 1673.5799560546875 C 1151.8399658203125 1673.5799560546875 1152.969970703125 1673.5799560546875 1153.6500244140625 1674.1400146484375 C 1153.6500244140625 1674.1400146484375 1154.3299560546875 1674.699951171875 1154.3299560546875 1675.6600341796875 C 1154.3299560546875 1675.6600341796875 1154.3299560546875 1676.1099853515625 1154.1600341796875 1676.510009765625 C 1154.1600341796875 1676.510009765625 1153.97998046875 1676.9100341796875 1153.550048828125 1677.449951171875 C 1153.550048828125 1677.449951171875 1153.4200439453125 1677.5899658203125 1152.77001953125 1678.27001953125 Z" stroke="black" fill="none" stroke-width="1" />
                </svg>