<svg xmlns="http://www.w3.org/2000/svg" width="5.8798828125" height="7.56005859375" viewBox="1555.56005859375 2182.580078125 5.8798828125 7.56005859375">
                <rect x="1555.56005859375" y="2182.580078125" width="5.8798828125" height="7.56005859375" fill="white"/>
                <path d="M 1561.43994140625 2183.27001953125 L 1561.43994140625 2184.31005859375 C 1561.43994140625 2184.31005859375 1560.93994140625 2183.83984375 1560.3800048828125 2183.6201171875 C 1560.3800048828125 2183.6201171875 1559.81005859375 2183.39013671875 1559.18994140625 2183.39013671875 C 1559.18994140625 2183.39013671875 1557.93994140625 2183.39013671875 1557.27001953125 2184.16015625 C 1557.27001953125 2184.16015625 1556.6099853515625 2184.919921875 1556.6099853515625 2186.35986328125 C 1556.6099853515625 2186.35986328125 1556.6099853515625 2187.800048828125 1557.27001953125 2188.56005859375 C 1557.27001953125 2188.56005859375 1557.93994140625 2189.330078125 1559.18994140625 2189.330078125 C 1559.18994140625 2189.330078125 1559.81005859375 2189.330078125 1560.3800048828125 2189.10009765625 C 1560.3800048828125 2189.10009765625 1560.93994140625 2188.8701171875 1561.43994140625 2188.41015625 L 1561.43994140625 2189.43994140625 C 1561.43994140625 2189.43994140625 1560.9200439453125 2189.800048828125 1560.3399658203125 2189.969970703125 C 1560.3399658203125 2189.969970703125 1559.77001953125 2190.14013671875 1559.1300048828125 2190.14013671875 C 1559.1300048828125 2190.14013671875 1557.469970703125 2190.14013671875 1556.52001953125 2189.1201171875 C 1556.52001953125 2189.1201171875 1555.56005859375 2188.10986328125 1555.56005859375 2186.35986328125 C 1555.56005859375 2186.35986328125 1555.56005859375 2184.60986328125 1556.52001953125 2183.58984375 C 1556.52001953125 2183.58984375 1557.469970703125 2182.580078125 1559.1300048828125 2182.580078125 C 1559.1300048828125 2182.580078125 1559.780029296875 2182.580078125 1560.3599853515625 2182.75 Z" stroke="black" fill="none" stroke-width="1" />
                </svg>