<svg xmlns="http://www.w3.org/2000/svg" width="7.67999267578125" height="5.199951171875" viewBox="708.52001953125 1769.800048828125 7.67999267578125 5.199951171875">
                <rect x="708.52001953125" y="1769.800048828125" width="7.67999267578125" height="5.199951171875" fill="white"/>
                <path d="M 709.3400268554688 1774.4200439453125 L 711.75 1774.4200439453125 L 711.75 1775.0 L 708.52001953125 1775.0 L 708.52001953125 1774.4200439453125 C 708.52001953125 1774.4200439453125 708.9099731445312 1774.02001953125 709.5900268554688 1773.3299560546875 C 709.5900268554688 1773.3299560546875 710.27001953125 1772.6400146484375 710.4400024414062 1772.43994140625 C 710.4400024414062 1772.43994140625 710.77001953125 1772.0799560546875 710.9000244140625 1771.81005859375 C 710.9000244140625 1771.81005859375 711.030029296875 1771.550048828125 711.030029296875 1771.31005859375 C 711.030029296875 1771.31005859375 711.030029296875 1770.8900146484375 710.75 1770.6400146484375 C 710.75 1770.6400146484375 710.469970703125 1770.3900146484375 710.0 1770.3900146484375 C 710.0 1770.3900146484375 709.6699829101562 1770.3900146484375 709.3099975585938 1770.5 C 709.3099975585938 1770.5 708.9500122070312 1770.6099853515625 708.5499877929688 1770.8399658203125 L 708.5499877929688 1770.1400146484375 C 708.5499877929688 1770.1400146484375 708.969970703125 1769.969970703125 709.3300170898438 1769.8800048828125 C 709.3300170898438 1769.8800048828125 709.6900024414062 1769.800048828125 709.97998046875 1769.800048828125 C 709.97998046875 1769.800048828125 710.780029296875 1769.800048828125 711.25 1770.199951171875 C 711.25 1770.199951171875 711.719970703125 1770.5899658203125 711.719970703125 1771.27001953125 C 711.719970703125 1771.27001953125 711.719970703125 1771.5799560546875 711.5999755859375 1771.8599853515625 C 711.5999755859375 1771.8599853515625 711.47998046875 1772.1400146484375 711.1699829101562 1772.52001953125 C 711.1699829101562 1772.52001953125 711.0900268554688 1772.6199951171875 710.6300048828125 1773.0899658203125 Z M 713.7999877929688 1774.4200439453125 L 716.2000122070312 1774.4200439453125 L 716.2000122070312 1775.0 L 712.969970703125 1775.0 L 712.969970703125 1774.4200439453125 C 712.969970703125 1774.4200439453125 713.3599853515625 1774.02001953125 714.0399780273438 1773.3299560546875 C 714.0399780273438 1773.3299560546875 714.719970703125 1772.6400146484375 714.8900146484375 1772.43994140625 C 714.8900146484375 1772.43994140625 715.219970703125 1772.0799560546875 715.3499755859375 1771.81005859375 C 715.3499755859375 1771.81005859375 715.47998046875 1771.550048828125 715.47998046875 1771.31005859375 C 715.47998046875 1771.31005859375 715.47998046875 1770.8900146484375 715.2000122070312 1770.6400146484375 C 715.2000122070312 1770.6400146484375 714.9199829101562 1770.3900146484375 714.4500122070312 1770.3900146484375 C 714.4500122070312 1770.3900146484375 714.1300048828125 1770.3900146484375 713.77001953125 1770.5 C 713.77001953125 1770.5 713.4099731445312 1770.6099853515625 713.0 1770.8399658203125 L 713.0 1770.1400146484375 C 713.0 1770.1400146484375 713.4199829101562 1769.969970703125 713.780029296875 1769.8800048828125 C 713.780029296875 1769.8800048828125 714.1400146484375 1769.800048828125 714.4400024414062 1769.800048828125 C 714.4400024414062 1769.800048828125 715.22998046875 1769.800048828125 715.7000122070312 1770.199951171875 C 715.7000122070312 1770.199951171875 716.1699829101562 1770.5899658203125 716.1699829101562 1771.27001953125 C 716.1699829101562 1771.27001953125 716.1699829101562 1771.5799560546875 716.0599975585938 1771.8599853515625 C 716.0599975585938 1771.8599853515625 715.9400024414062 1772.1400146484375 715.6300048828125 1772.52001953125 C 715.6300048828125 1772.52001953125 715.5499877929688 1772.6199951171875 715.0900268554688 1773.0899658203125 Z" stroke="black" fill="none" stroke-width="1" />
                </svg>