<svg xmlns="http://www.w3.org/2000/svg" width="7.010009765625" height="16.9300537109375" viewBox="734.739990234375 1375.8599853515625 7.010009765625 16.9300537109375">
                <rect x="734.739990234375" y="1375.8599853515625" width="7.010009765625" height="16.9300537109375" fill="white"/>
                <path d="M 736.6199951171875 1390.4100341796875 L 739.8900146484375 1392.1400146484375 L 739.719970703125 1390.1500244140625 Z M 735.9600219726562 1390.6800537109375 L 735.8699951171875 1389.68994140625 L 739.6599731445312 1389.3699951171875 L 739.5900268554688 1388.5400390625 L 740.239990234375 1388.489990234375 L 740.3099975585938 1389.3199462890625 L 741.6799926757812 1389.199951171875 L 741.75 1389.97998046875 L 740.3800048828125 1390.0899658203125 L 740.5999755859375 1392.72998046875 L 739.8300170898438 1392.7900390625 Z M 738.1799926757812 1384.949951171875 C 738.1799926757812 1384.949951171875 738.239990234375 1384.3800048828125 738.5900268554688 1384.030029296875 C 738.5900268554688 1384.030029296875 738.9500122070312 1383.6800537109375 739.510009765625 1383.6300048828125 C 739.510009765625 1383.6300048828125 740.3800048828125 1383.56005859375 740.9000244140625 1384.1099853515625 C 740.9000244140625 1384.1099853515625 741.4099731445312 1384.6600341796875 741.5 1385.75 C 741.5 1385.75 741.530029296875 1386.1300048828125 741.5 1386.52001953125 C 741.5 1386.52001953125 741.4600219726562 1386.9000244140625 741.3499755859375 1387.3299560546875 L 740.5900268554688 1387.4000244140625 C 740.5900268554688 1387.4000244140625 740.75 1387.06005859375 740.8200073242188 1386.6600341796875 C 740.8200073242188 1386.6600341796875 740.8900146484375 1386.260009765625 740.8499755859375 1385.8399658203125 C 740.8499755859375 1385.8399658203125 740.7899780273438 1385.0899658203125 740.4600219726562 1384.72998046875 C 740.4600219726562 1384.72998046875 740.1300048828125 1384.3599853515625 739.5700073242188 1384.4100341796875 C 739.5700073242188 1384.4100341796875 739.0599975585938 1384.449951171875 738.7999877929688 1384.8399658203125 C 738.7999877929688 1384.8399658203125 738.5399780273438 1385.22998046875 738.5999755859375 1385.8699951171875 L 738.6500244140625 1386.5400390625 L 738.010009765625 1386.5999755859375 L 737.9600219726562 1385.8900146484375 C 737.9600219726562 1385.8900146484375 737.9099731445312 1385.3199462890625 737.6500244140625 1385.030029296875 C 737.6500244140625 1385.030029296875 737.3900146484375 1384.72998046875 736.9500122070312 1384.77001953125 C 736.9500122070312 1384.77001953125 736.5 1384.81005859375 736.2899780273438 1385.1500244140625 C 736.2899780273438 1385.1500244140625 736.0700073242188 1385.489990234375 736.1199951171875 1386.0799560546875 C 736.1199951171875 1386.0799560546875 736.1500244140625 1386.4100341796875 736.25 1386.77001953125 C 736.25 1386.77001953125 736.3499755859375 1387.1300048828125 736.5399780273438 1387.56005859375 L 735.8400268554688 1387.6199951171875 C 735.8400268554688 1387.6199951171875 735.6799926757812 1387.1800537109375 735.5900268554688 1386.800048828125 C 735.5900268554688 1386.800048828125 735.489990234375 1386.4100341796875 735.4600219726562 1386.06005859375 C 735.4600219726562 1386.06005859375 735.3900146484375 1385.1700439453125 735.75 1384.6099853515625 C 735.75 1384.6099853515625 736.1099853515625 1384.06005859375 736.8099975585938 1384.0 C 736.8099975585938 1384.0 737.2899780273438 1383.9599609375 737.6400146484375 1384.199951171875 Z M 740.0800170898438 1382.0799560546875 L 740.010009765625 1381.260009765625 L 741.010009765625 1381.1700439453125 L 741.0800170898438 1382.0 Z M 737.969970703125 1378.010009765625 C 737.969970703125 1378.010009765625 738.02001953125 1378.5699462890625 738.3400268554688 1378.8699951171875 C 738.3400268554688 1378.8699951171875 738.6599731445312 1379.1600341796875 739.1900024414062 1379.1199951171875 C 739.1900024414062 1379.1199951171875 739.719970703125 1379.0799560546875 739.989990234375 1378.72998046875 C 739.989990234375 1378.72998046875 740.260009765625 1378.3900146484375 740.2100219726562 1377.8299560546875 C 740.2100219726562 1377.8299560546875 740.1699829101562 1377.27001953125 739.8400268554688 1376.969970703125 C 739.8400268554688 1376.969970703125 739.510009765625 1376.6800537109375 738.989990234375 1376.719970703125 C 738.989990234375 1376.719970703125 738.4600219726562 1376.77001953125 738.1900024414062 1377.1099853515625 Z M 737.7000122070312 1378.8399658203125 C 737.7000122070312 1378.8399658203125 737.6099853515625 1379.3499755859375 737.2899780273438 1379.6500244140625 C 737.2899780273438 1379.6500244140625 736.969970703125 1379.9599609375 736.47998046875 1380.010009765625 C 736.47998046875 1380.010009765625 735.77001953125 1380.06005859375 735.3300170898438 1379.6099853515625 C 735.3300170898438 1379.6099853515625 734.8800048828125 1379.1500244140625 734.8099975585938 1378.280029296875 C 734.8099975585938 1378.280029296875 734.739990234375 1377.4100341796875 735.0999755859375 1376.8800048828125 C 735.0999755859375 1376.8800048828125 735.4600219726562 1376.3599853515625 736.1699829101562 1376.300048828125 C 736.1699829101562 1376.300048828125 736.6599731445312 1376.260009765625 737.030029296875 1376.510009765625 C 737.030029296875 1376.510009765625 737.4000244140625 1376.760009765625 737.5599975585938 1377.25 C 737.5599975585938 1377.25 737.6599731445312 1376.6800537109375 738.010009765625 1376.3299560546875 C 738.010009765625 1376.3299560546875 738.3599853515625 1375.969970703125 738.9299926757812 1375.9300537109375 C 738.9299926757812 1375.9300537109375 739.77001953125 1375.8599853515625 740.260009765625 1376.3299560546875 C 740.260009765625 1376.3299560546875 740.760009765625 1376.81005859375 740.8400268554688 1377.77001953125 C 740.8400268554688 1377.77001953125 740.9199829101562 1378.739990234375 740.510009765625 1379.2900390625 C 740.510009765625 1379.2900390625 740.0999755859375 1379.8399658203125 739.260009765625 1379.9100341796875 C 739.260009765625 1379.9100341796875 738.7000122070312 1379.9599609375 738.2899780273438 1379.6700439453125 Z M 736.469970703125 1379.219970703125 C 736.469970703125 1379.219970703125 736.9199829101562 1379.1800537109375 737.1599731445312 1378.8800048828125 C 737.1599731445312 1378.8800048828125 737.3900146484375 1378.5799560546875 737.3499755859375 1378.0699462890625 C 737.3499755859375 1378.0699462890625 737.3099975585938 1377.5699462890625 737.030029296875 1377.300048828125 C 737.030029296875 1377.300048828125 736.739990234375 1377.030029296875 736.2899780273438 1377.0699462890625 C 736.2899780273438 1377.0699462890625 735.8400268554688 1377.1099853515625 735.6199951171875 1377.4200439453125 C 735.6199951171875 1377.4200439453125 735.3900146484375 1377.72998046875 735.4299926757812 1378.22998046875 C 735.4299926757812 1378.22998046875 735.47998046875 1378.739990234375 735.75 1379.0 Z" stroke="black" fill="none" stroke-width="1" />
                </svg>