<svg xmlns="http://www.w3.org/2000/svg" width="21.4100341796875" height="6.5" viewBox="1194.0 1767.239990234375 21.4100341796875 6.5">
                <rect x="1194.0" y="1767.239990234375" width="21.4100341796875" height="6.5" fill="white"/>
                <path d="M 1194.02001953125 1772.3599853515625 L 1195.300048828125 1772.4000244140625 L 1195.4300537109375 1767.9599609375 L 1194.02001953125 1768.199951171875 L 1194.0400390625 1767.47998046875 L 1195.449951171875 1767.239990234375 L 1196.22998046875 1767.260009765625 L 1196.0799560546875 1772.4200439453125 L 1197.3800048828125 1772.4599609375 L 1197.3599853515625 1773.1300048828125 L 1194.0 1773.030029296875 Z M 1201.4300537109375 1770.1099853515625 C 1201.4300537109375 1770.1099853515625 1201.989990234375 1770.22998046875 1202.300048828125 1770.6199951171875 C 1202.300048828125 1770.6199951171875 1202.6099853515625 1771.02001953125 1202.5899658203125 1771.5799560546875 C 1202.5899658203125 1771.5799560546875 1202.56005859375 1772.449951171875 1201.9599609375 1772.9000244140625 C 1201.9599609375 1772.9000244140625 1201.3499755859375 1773.3599853515625 1200.260009765625 1773.3199462890625 C 1200.260009765625 1773.3199462890625 1199.8800048828125 1773.31005859375 1199.5 1773.22998046875 C 1199.5 1773.22998046875 1199.1199951171875 1773.1500244140625 1198.699951171875 1773.0 L 1198.719970703125 1772.22998046875 C 1198.719970703125 1772.22998046875 1199.050048828125 1772.4300537109375 1199.4300537109375 1772.5400390625 C 1199.4300537109375 1772.5400390625 1199.8199462890625 1772.6500244140625 1200.239990234375 1772.6700439453125 C 1200.239990234375 1772.6700439453125 1200.989990234375 1772.68994140625 1201.3900146484375 1772.4000244140625 C 1201.3900146484375 1772.4000244140625 1201.7900390625 1772.1199951171875 1201.81005859375 1771.56005859375 C 1201.81005859375 1771.56005859375 1201.8199462890625 1771.0400390625 1201.4599609375 1770.739990234375 C 1201.4599609375 1770.739990234375 1201.1099853515625 1770.43994140625 1200.469970703125 1770.4200439453125 L 1199.7900390625 1770.4000244140625 L 1199.81005859375 1769.760009765625 L 1200.52001953125 1769.780029296875 C 1200.52001953125 1769.780029296875 1201.0899658203125 1769.800048828125 1201.4100341796875 1769.5699462890625 C 1201.4100341796875 1769.5699462890625 1201.72998046875 1769.3499755859375 1201.75 1768.9100341796875 C 1201.75 1768.9100341796875 1201.760009765625 1768.4599609375 1201.449951171875 1768.2099609375 C 1201.449951171875 1768.2099609375 1201.1300048828125 1767.9599609375 1200.5400390625 1767.93994140625 C 1200.5400390625 1767.93994140625 1200.2099609375 1767.9300537109375 1199.8399658203125 1767.989990234375 C 1199.8399658203125 1767.989990234375 1199.469970703125 1768.050048828125 1199.02001953125 1768.18994140625 L 1199.0400390625 1767.489990234375 C 1199.0400390625 1767.489990234375 1199.489990234375 1767.3800048828125 1199.8900146484375 1767.3299560546875 C 1199.8900146484375 1767.3299560546875 1200.280029296875 1767.27001953125 1200.6400146484375 1767.2900390625 C 1200.6400146484375 1767.2900390625 1201.530029296875 1767.31005859375 1202.0400390625 1767.72998046875 C 1202.0400390625 1767.72998046875 1202.550048828125 1768.1500244140625 1202.530029296875 1768.8599853515625 C 1202.530029296875 1768.8599853515625 1202.510009765625 1769.3399658203125 1202.22998046875 1769.6600341796875 Z M 1206.3599853515625 1768.25 L 1204.27001953125 1771.300048828125 L 1206.27001953125 1771.3599853515625 Z M 1206.1600341796875 1767.56005859375 L 1207.1600341796875 1767.5899658203125 L 1207.050048828125 1771.3800048828125 L 1207.8699951171875 1771.4100341796875 L 1207.8499755859375 1772.06005859375 L 1207.030029296875 1772.0400390625 L 1206.989990234375 1773.4100341796875 L 1206.2099609375 1773.3900146484375 L 1206.25 1772.02001953125 L 1203.6099853515625 1771.93994140625 L 1203.6300048828125 1771.1700439453125 Z M 1209.1500244140625 1772.47998046875 L 1209.97998046875 1772.5 L 1209.949951171875 1773.5 L 1209.1199951171875 1773.47998046875 Z M 1213.4300537109375 1770.8399658203125 C 1213.4300537109375 1770.8399658203125 1212.8699951171875 1770.8199462890625 1212.5400390625 1771.1099853515625 C 1212.5400390625 1771.1099853515625 1212.2099609375 1771.3900146484375 1212.199951171875 1771.9200439453125 C 1212.199951171875 1771.9200439453125 1212.1800537109375 1772.4599609375 1212.489990234375 1772.760009765625 C 1212.489990234375 1772.760009765625 1212.800048828125 1773.0699462890625 1213.3699951171875 1773.0799560546875 C 1213.3699951171875 1773.0799560546875 1213.9300537109375 1773.0999755859375 1214.260009765625 1772.81005859375 C 1214.260009765625 1772.81005859375 1214.5899658203125 1772.510009765625 1214.5999755859375 1772.0 C 1214.5999755859375 1772.0 1214.6199951171875 1771.4599609375 1214.31005859375 1771.1600341796875 Z M 1212.6500244140625 1770.469970703125 C 1212.6500244140625 1770.469970703125 1212.1500244140625 1770.3299560546875 1211.8800048828125 1769.97998046875 C 1211.8800048828125 1769.97998046875 1211.6099853515625 1769.6300048828125 1211.6199951171875 1769.1300048828125 C 1211.6199951171875 1769.1300048828125 1211.6400146484375 1768.4200439453125 1212.1500244140625 1768.030029296875 C 1212.1500244140625 1768.030029296875 1212.6500244140625 1767.6400146484375 1213.530029296875 1767.6700439453125 C 1213.530029296875 1767.6700439453125 1214.4000244140625 1767.68994140625 1214.8800048828125 1768.1099853515625 C 1214.8800048828125 1768.1099853515625 1215.3599853515625 1768.530029296875 1215.3399658203125 1769.22998046875 C 1215.3399658203125 1769.22998046875 1215.3199462890625 1769.72998046875 1215.030029296875 1770.0699462890625 C 1215.030029296875 1770.0699462890625 1214.739990234375 1770.4100341796875 1214.239990234375 1770.52001953125 C 1214.239990234375 1770.52001953125 1214.800048828125 1770.6700439453125 1215.1099853515625 1771.06005859375 C 1215.1099853515625 1771.06005859375 1215.4100341796875 1771.4599609375 1215.4000244140625 1772.02001953125 C 1215.4000244140625 1772.02001953125 1215.3699951171875 1772.8599853515625 1214.8399658203125 1773.300048828125 C 1214.8399658203125 1773.300048828125 1214.3199462890625 1773.739990234375 1213.3499755859375 1773.7099609375 C 1213.3499755859375 1773.7099609375 1212.3800048828125 1773.6800537109375 1211.8800048828125 1773.2099609375 C 1211.8800048828125 1773.2099609375 1211.3699951171875 1772.739990234375 1211.4000244140625 1771.9000244140625 C 1211.4000244140625 1771.9000244140625 1211.4200439453125 1771.3399658203125 1211.75 1770.969970703125 Z M 1212.4000244140625 1769.2099609375 C 1212.4000244140625 1769.2099609375 1212.3900146484375 1769.6600341796875 1212.6600341796875 1769.9300537109375 C 1212.6600341796875 1769.9300537109375 1212.93994140625 1770.199951171875 1213.449951171875 1770.2099609375 C 1213.449951171875 1770.2099609375 1213.949951171875 1770.22998046875 1214.25 1769.97998046875 C 1214.25 1769.97998046875 1214.5400390625 1769.72998046875 1214.56005859375 1769.27001953125 C 1214.56005859375 1769.27001953125 1214.5699462890625 1768.8199462890625 1214.2900390625 1768.56005859375 C 1214.2900390625 1768.56005859375 1214.010009765625 1768.300048828125 1213.510009765625 1768.2900390625 C 1213.510009765625 1768.2900390625 1212.989990234375 1768.27001953125 1212.699951171875 1768.52001953125 Z" stroke="black" fill="none" stroke-width="1" />
                </svg>