<svg xmlns="http://www.w3.org/2000/svg" width="7.75" height="5.199951171875" viewBox="1552.52001953125 1793.800048828125 7.75 5.199951171875">
                <rect x="1552.52001953125" y="1793.800048828125" width="7.75" height="5.199951171875" fill="white"/>
                <path d="M 1553.3399658203125 1798.4200439453125 L 1555.75 1798.4200439453125 L 1555.75 1799.0 L 1552.52001953125 1799.0 L 1552.52001953125 1798.4200439453125 C 1552.52001953125 1798.4200439453125 1552.9100341796875 1798.02001953125 1553.5899658203125 1797.3299560546875 C 1553.5899658203125 1797.3299560546875 1554.27001953125 1796.6400146484375 1554.43994140625 1796.43994140625 C 1554.43994140625 1796.43994140625 1554.77001953125 1796.0799560546875 1554.9000244140625 1795.81005859375 C 1554.9000244140625 1795.81005859375 1555.030029296875 1795.550048828125 1555.030029296875 1795.31005859375 C 1555.030029296875 1795.31005859375 1555.030029296875 1794.8900146484375 1554.75 1794.6400146484375 C 1554.75 1794.6400146484375 1554.469970703125 1794.3900146484375 1554.0 1794.3900146484375 C 1554.0 1794.3900146484375 1553.6700439453125 1794.3900146484375 1553.31005859375 1794.5 C 1553.31005859375 1794.5 1552.949951171875 1794.6099853515625 1552.550048828125 1794.8399658203125 L 1552.550048828125 1794.1400146484375 C 1552.550048828125 1794.1400146484375 1552.969970703125 1793.969970703125 1553.3299560546875 1793.8800048828125 C 1553.3299560546875 1793.8800048828125 1553.68994140625 1793.800048828125 1553.97998046875 1793.800048828125 C 1553.97998046875 1793.800048828125 1554.780029296875 1793.800048828125 1555.25 1794.199951171875 C 1555.25 1794.199951171875 1555.719970703125 1794.5899658203125 1555.719970703125 1795.27001953125 C 1555.719970703125 1795.27001953125 1555.719970703125 1795.5799560546875 1555.5999755859375 1795.8599853515625 C 1555.5999755859375 1795.8599853515625 1555.47998046875 1796.1400146484375 1555.1700439453125 1796.52001953125 C 1555.1700439453125 1796.52001953125 1555.0899658203125 1796.6199951171875 1554.6300048828125 1797.0899658203125 Z M 1557.3299560546875 1798.4200439453125 L 1558.449951171875 1798.4200439453125 L 1558.449951171875 1794.530029296875 L 1557.219970703125 1794.77001953125 L 1557.219970703125 1794.1400146484375 L 1558.43994140625 1793.8900146484375 L 1559.1400146484375 1793.8900146484375 L 1559.1400146484375 1798.4200439453125 L 1560.27001953125 1798.4200439453125 L 1560.27001953125 1799.0 L 1557.3299560546875 1799.0 Z" stroke="black" fill="none" stroke-width="1" />
                </svg>