<svg xmlns="http://www.w3.org/2000/svg" width="24.72998046875" height="26.9200439453125" viewBox="1284.800048828125 1945.949951171875 24.72998046875 26.9200439453125">
                <rect x="1284.800048828125" y="1945.949951171875" width="24.72998046875" height="26.9200439453125" fill="white"/>
                <path d="M 1303.0 1972.3299560546875 C 1303.0 1972.3299560546875 1304.1600341796875 1972.1199951171875 1305.0899658203125 1971.699951171875 C 1305.0899658203125 1971.699951171875 1306.030029296875 1971.27001953125 1306.800048828125 1970.6099853515625 C 1306.800048828125 1970.6099853515625 1307.5699462890625 1969.949951171875 1308.1400146484375 1969.0799560546875 C 1308.1400146484375 1969.0799560546875 1308.7099609375 1968.2099609375 1309.0799560546875 1967.1099853515625 L 1309.530029296875 1967.6400146484375 C 1309.530029296875 1967.6400146484375 1309.18994140625 1968.8199462890625 1308.6400146484375 1969.719970703125 C 1308.6400146484375 1969.719970703125 1308.0899658203125 1970.6099853515625 1307.3499755859375 1971.25 C 1307.3499755859375 1971.25 1306.5999755859375 1971.8900146484375 1305.6400146484375 1972.300048828125 C 1305.6400146484375 1972.300048828125 1304.6800537109375 1972.699951171875 1303.4599609375 1972.8699951171875 Z M 1306.010009765625 1966.510009765625 L 1303.989990234375 1964.1700439453125 L 1304.56005859375 1963.6800537109375 L 1307.280029296875 1966.8399658203125 L 1306.7099609375 1967.3299560546875 C 1306.7099609375 1967.3299560546875 1305.989990234375 1967.280029296875 1304.75 1967.18994140625 C 1304.75 1967.18994140625 1303.52001953125 1967.1099853515625 1303.1700439453125 1967.0999755859375 C 1303.1700439453125 1967.0999755859375 1302.530029296875 1967.0899658203125 1302.1700439453125 1967.18994140625 C 1302.1700439453125 1967.18994140625 1301.81005859375 1967.280029296875 1301.5699462890625 1967.489990234375 C 1301.5699462890625 1967.489990234375 1301.1700439453125 1967.8299560546875 1301.1500244140625 1968.3199462890625 C 1301.1500244140625 1968.3199462890625 1301.1400146484375 1968.81005859375 1301.530029296875 1969.260009765625 C 1301.530029296875 1969.260009765625 1301.800048828125 1969.5799560546875 1302.219970703125 1969.8299560546875 C 1302.219970703125 1969.8299560546875 1302.6300048828125 1970.0799560546875 1303.199951171875 1970.2900390625 L 1302.510009765625 1970.8800048828125 C 1302.510009765625 1970.8800048828125 1302.010009765625 1970.6099853515625 1301.6199951171875 1970.3299560546875 C 1301.6199951171875 1970.3299560546875 1301.219970703125 1970.050048828125 1300.969970703125 1969.760009765625 C 1300.969970703125 1969.760009765625 1300.31005859375 1968.989990234375 1300.300048828125 1968.18994140625 C 1300.300048828125 1968.18994140625 1300.2900390625 1967.3900146484375 1300.9300537109375 1966.8399658203125 C 1300.9300537109375 1966.8399658203125 1301.239990234375 1966.5699462890625 1301.6199951171875 1966.449951171875 C 1301.6199951171875 1966.449951171875 1302.0 1966.3299560546875 1302.6199951171875 1966.31005859375 C 1302.6199951171875 1966.31005859375 1302.7900390625 1966.31005859375 1303.6400146484375 1966.3699951171875 Z M 1297.5699462890625 1964.72998046875 C 1297.5699462890625 1964.72998046875 1298.02001953125 1965.25 1298.760009765625 1965.0699462890625 C 1298.760009765625 1965.0699462890625 1299.5 1964.8900146484375 1300.52001953125 1964.010009765625 C 1300.52001953125 1964.010009765625 1301.550048828125 1963.1300048828125 1301.8399658203125 1962.4300537109375 C 1301.8399658203125 1962.4300537109375 1302.1199951171875 1961.72998046875 1301.6700439453125 1961.2099609375 C 1301.6700439453125 1961.2099609375 1301.219970703125 1960.68994140625 1300.489990234375 1960.8599853515625 C 1300.489990234375 1960.8599853515625 1299.760009765625 1961.0400390625 1298.72998046875 1961.9300537109375 C 1298.72998046875 1961.9300537109375 1297.7099609375 1962.800048828125 1297.4200439453125 1963.510009765625 Z M 1297.0400390625 1965.18994140625 C 1297.0400390625 1965.18994140625 1296.3199462890625 1964.3499755859375 1296.5999755859375 1963.3399658203125 C 1296.5999755859375 1963.3399658203125 1296.8900146484375 1962.3299560546875 1298.1500244140625 1961.25 C 1298.1500244140625 1961.25 1299.4000244140625 1960.1700439453125 1300.43994140625 1960.0400390625 C 1300.43994140625 1960.0400390625 1301.47998046875 1959.9100341796875 1302.2099609375 1960.75 C 1302.2099609375 1960.75 1302.9200439453125 1961.5799560546875 1302.6400146484375 1962.5899658203125 C 1302.6400146484375 1962.5899658203125 1302.3599853515625 1963.6099853515625 1301.0999755859375 1964.68994140625 C 1301.0999755859375 1964.68994140625 1299.8499755859375 1965.77001953125 1298.800048828125 1965.8900146484375 Z M 1296.02001953125 1958.52001953125 C 1296.02001953125 1958.52001953125 1296.4300537109375 1958.989990234375 1296.9200439453125 1959.050048828125 C 1296.9200439453125 1959.050048828125 1297.4200439453125 1959.1099853515625 1297.8699951171875 1958.719970703125 C 1297.8699951171875 1958.719970703125 1298.3199462890625 1958.3299560546875 1298.3299560546875 1957.8399658203125 C 1298.3299560546875 1957.8399658203125 1298.3499755859375 1957.3399658203125 1297.93994140625 1956.8699951171875 C 1297.93994140625 1956.8699951171875 1297.52001953125 1956.3800048828125 1297.030029296875 1956.3299560546875 C 1297.030029296875 1956.3299560546875 1296.5400390625 1956.27001953125 1296.0899658203125 1956.6600341796875 C 1296.0899658203125 1956.6600341796875 1295.6400146484375 1957.050048828125 1295.6199951171875 1957.5400390625 Z M 1296.300048828125 1959.449951171875 C 1296.300048828125 1959.449951171875 1296.56005859375 1959.9599609375 1296.47998046875 1960.4599609375 C 1296.47998046875 1960.4599609375 1296.3900146484375 1960.9599609375 1295.9599609375 1961.3299560546875 C 1295.9599609375 1961.3299560546875 1295.3699951171875 1961.8399658203125 1294.6600341796875 1961.7099609375 C 1294.6600341796875 1961.7099609375 1293.93994140625 1961.5799560546875 1293.31005859375 1960.8499755859375 C 1293.31005859375 1960.8499755859375 1292.6700439453125 1960.0999755859375 1292.6500244140625 1959.3800048828125 C 1292.6500244140625 1959.3800048828125 1292.6400146484375 1958.6600341796875 1293.22998046875 1958.1500244140625 C 1293.22998046875 1958.1500244140625 1293.6600341796875 1957.780029296875 1294.1600341796875 1957.77001953125 C 1294.1600341796875 1957.77001953125 1294.6700439453125 1957.760009765625 1295.1400146484375 1958.0999755859375 C 1295.1400146484375 1958.0999755859375 1294.8399658203125 1957.510009765625 1294.93994140625 1956.949951171875 C 1294.93994140625 1956.949951171875 1295.0400390625 1956.3900146484375 1295.510009765625 1955.97998046875 C 1295.510009765625 1955.97998046875 1296.22998046875 1955.3599853515625 1297.0 1955.469970703125 C 1297.0 1955.469970703125 1297.760009765625 1955.5799560546875 1298.469970703125 1956.4100341796875 C 1298.469970703125 1956.4100341796875 1299.1800537109375 1957.219970703125 1299.1700439453125 1958.0 C 1299.1700439453125 1958.0 1299.1700439453125 1958.77001953125 1298.449951171875 1959.4000244140625 C 1298.449951171875 1959.4000244140625 1297.969970703125 1959.800048828125 1297.4100341796875 1959.8199462890625 Z M 1295.4599609375 1960.5999755859375 C 1295.4599609375 1960.5999755859375 1295.8399658203125 1960.280029296875 1295.8499755859375 1959.8399658203125 C 1295.8499755859375 1959.8399658203125 1295.8599853515625 1959.4100341796875 1295.489990234375 1958.969970703125 C 1295.489990234375 1958.969970703125 1295.1099853515625 1958.5400390625 1294.6800537109375 1958.47998046875 C 1294.6800537109375 1958.47998046875 1294.25 1958.4300537109375 1293.8699951171875 1958.75 C 1293.8699951171875 1958.75 1293.47998046875 1959.0899658203125 1293.469970703125 1959.52001953125 C 1293.469970703125 1959.52001953125 1293.4599609375 1959.949951171875 1293.8399658203125 1960.3900146484375 C 1293.8399658203125 1960.3900146484375 1294.219970703125 1960.8299560546875 1294.6500244140625 1960.8800048828125 Z M 1295.0400390625 1954.300048828125 L 1294.4300537109375 1953.6099853515625 L 1295.27001953125 1952.8800048828125 L 1295.8800048828125 1953.5799560546875 Z M 1290.4200439453125 1952.010009765625 C 1290.4200439453125 1952.010009765625 1290.8299560546875 1952.47998046875 1291.3199462890625 1952.5400390625 C 1291.3199462890625 1952.5400390625 1291.8199462890625 1952.5999755859375 1292.27001953125 1952.2099609375 C 1292.27001953125 1952.2099609375 1292.719970703125 1951.8199462890625 1292.72998046875 1951.3299560546875 C 1292.72998046875 1951.3299560546875 1292.75 1950.8299560546875 1292.3399658203125 1950.3599853515625 C 1292.3399658203125 1950.3599853515625 1291.9200439453125 1949.8699951171875 1291.4300537109375 1949.8199462890625 C 1291.4300537109375 1949.8199462890625 1290.93994140625 1949.760009765625 1290.489990234375 1950.1500244140625 C 1290.489990234375 1950.1500244140625 1290.0400390625 1950.5400390625 1290.02001953125 1951.030029296875 Z M 1290.699951171875 1952.93994140625 C 1290.699951171875 1952.93994140625 1290.969970703125 1953.449951171875 1290.8800048828125 1953.949951171875 C 1290.8800048828125 1953.949951171875 1290.7900390625 1954.449951171875 1290.3599853515625 1954.8199462890625 C 1290.3599853515625 1954.8199462890625 1289.77001953125 1955.3299560546875 1289.06005859375 1955.199951171875 C 1289.06005859375 1955.199951171875 1288.3399658203125 1955.0699462890625 1287.7099609375 1954.3399658203125 C 1287.7099609375 1954.3399658203125 1287.0699462890625 1953.5899658203125 1287.050048828125 1952.8699951171875 C 1287.050048828125 1952.8699951171875 1287.0400390625 1952.1500244140625 1287.6300048828125 1951.6400146484375 C 1287.6300048828125 1951.6400146484375 1288.06005859375 1951.27001953125 1288.56005859375 1951.260009765625 C 1288.56005859375 1951.260009765625 1289.0699462890625 1951.25 1289.5400390625 1951.5899658203125 C 1289.5400390625 1951.5899658203125 1289.239990234375 1951.0 1289.3399658203125 1950.43994140625 C 1289.3399658203125 1950.43994140625 1289.43994140625 1949.8800048828125 1289.9100341796875 1949.47998046875 C 1289.9100341796875 1949.47998046875 1290.6400146484375 1948.8499755859375 1291.4000244140625 1948.9599609375 C 1291.4000244140625 1948.9599609375 1292.1600341796875 1949.0699462890625 1292.8699951171875 1949.9000244140625 C 1292.8699951171875 1949.9000244140625 1293.5799560546875 1950.7099609375 1293.5699462890625 1951.489990234375 C 1293.5699462890625 1951.489990234375 1293.5699462890625 1952.27001953125 1292.8499755859375 1952.8900146484375 C 1292.8499755859375 1952.8900146484375 1292.3699951171875 1953.2900390625 1291.81005859375 1953.31005859375 Z M 1289.8599853515625 1954.0899658203125 C 1289.8599853515625 1954.0899658203125 1290.239990234375 1953.77001953125 1290.25 1953.3299560546875 C 1290.25 1953.3299560546875 1290.260009765625 1952.9000244140625 1289.8900146484375 1952.4599609375 C 1289.8900146484375 1952.4599609375 1289.510009765625 1952.030029296875 1289.0799560546875 1951.969970703125 C 1289.0799560546875 1951.969970703125 1288.6500244140625 1951.9200439453125 1288.280029296875 1952.239990234375 C 1288.280029296875 1952.239990234375 1287.8800048828125 1952.5799560546875 1287.8699951171875 1953.010009765625 C 1287.8699951171875 1953.010009765625 1287.8599853515625 1953.43994140625 1288.239990234375 1953.8800048828125 C 1288.239990234375 1953.8800048828125 1288.6199951171875 1954.3199462890625 1289.050048828125 1954.3699951171875 Z M 1285.260009765625 1951.7099609375 L 1284.800048828125 1951.1800537109375 C 1284.800048828125 1951.1800537109375 1285.1600341796875 1950.010009765625 1285.699951171875 1949.1099853515625 C 1285.699951171875 1949.1099853515625 1286.22998046875 1948.219970703125 1286.97998046875 1947.5799560546875 C 1286.97998046875 1947.5799560546875 1287.72998046875 1946.9300537109375 1288.699951171875 1946.530029296875 C 1288.699951171875 1946.530029296875 1289.6700439453125 1946.1300048828125 1290.8800048828125 1945.949951171875 L 1291.3399658203125 1946.489990234375 C 1291.3399658203125 1946.489990234375 1290.18994140625 1946.68994140625 1289.25 1947.1300048828125 C 1289.25 1947.1300048828125 1288.31005859375 1947.5699462890625 1287.5400390625 1948.22998046875 C 1287.5400390625 1948.22998046875 1286.77001953125 1948.8900146484375 1286.2099609375 1949.75 Z" stroke="black" fill="none" stroke-width="1" />
                </svg>