<svg xmlns="http://www.w3.org/2000/svg" width="11.02001953125" height="31.260009765625" viewBox="769.9400024414062 1640.3699951171875 11.02001953125 31.260009765625">
                <rect x="769.9400024414062" y="1640.3699951171875" width="11.02001953125" height="31.260009765625" fill="white"/>
                <path d="M 772.9099731445312 1669.949951171875 C 772.9099731445312 1669.949951171875 773.989990234375 1670.4300537109375 775.0 1670.6099853515625 C 775.0 1670.6099853515625 776.010009765625 1670.7900390625 777.010009765625 1670.68994140625 C 777.010009765625 1670.68994140625 778.02001953125 1670.5799560546875 778.989990234375 1670.1800537109375 C 778.989990234375 1670.1800537109375 779.9500122070312 1669.7900390625 780.8800048828125 1669.0899658203125 L 780.9600219726562 1669.7900390625 C 780.9600219726562 1669.7900390625 780.0 1670.5699462890625 779.0399780273438 1670.989990234375 C 779.0399780273438 1670.989990234375 778.0800170898438 1671.4200439453125 777.0999755859375 1671.52001953125 C 777.0999755859375 1671.52001953125 776.1300048828125 1671.6300048828125 775.1099853515625 1671.4200439453125 C 775.1099853515625 1671.4200439453125 774.0800170898438 1671.199951171875 772.989990234375 1670.6500244140625 Z M 778.760009765625 1667.489990234375 L 778.6099853515625 1666.0400390625 L 773.6400146484375 1666.5699462890625 L 774.1099853515625 1668.1099853515625 L 773.3099975585938 1668.199951171875 L 772.8300170898438 1666.6600341796875 L 772.72998046875 1665.77001953125 L 778.510009765625 1665.1600341796875 L 778.3599853515625 1663.72998046875 L 779.0999755859375 1663.6500244140625 L 779.510009765625 1667.4100341796875 Z M 772.3900146484375 1662.550048828125 L 772.02001953125 1659.0899658203125 L 772.760009765625 1659.010009765625 L 773.0499877929688 1661.6600341796875 L 774.6500244140625 1661.489990234375 C 774.6500244140625 1661.489990234375 774.5599975585938 1661.300048828125 774.5 1661.1099853515625 C 774.5 1661.1099853515625 774.4500122070312 1660.9300537109375 774.4199829101562 1660.72998046875 C 774.4199829101562 1660.72998046875 774.3099975585938 1659.6400146484375 774.8400268554688 1658.93994140625 C 774.8400268554688 1658.93994140625 775.3699951171875 1658.239990234375 776.3900146484375 1658.1300048828125 C 776.3900146484375 1658.1300048828125 777.4500122070312 1658.02001953125 778.0999755859375 1658.6099853515625 C 778.0999755859375 1658.6099853515625 778.75 1659.199951171875 778.8800048828125 1660.3900146484375 C 778.8800048828125 1660.3900146484375 778.9299926757812 1660.800048828125 778.9000244140625 1661.22998046875 C 778.9000244140625 1661.22998046875 778.8800048828125 1661.6700439453125 778.7899780273438 1662.1500244140625 L 777.9000244140625 1662.239990234375 C 777.9000244140625 1662.239990234375 778.0800170898438 1661.8199462890625 778.1300048828125 1661.3900146484375 C 778.1300048828125 1661.3900146484375 778.1900024414062 1660.9599609375 778.1400146484375 1660.489990234375 C 778.1400146484375 1660.489990234375 778.0599975585938 1659.72998046875 777.6099853515625 1659.3399658203125 C 777.6099853515625 1659.3399658203125 777.1699829101562 1658.93994140625 776.489990234375 1659.02001953125 C 776.489990234375 1659.02001953125 775.7999877929688 1659.0899658203125 775.4500122070312 1659.5699462890625 C 775.4500122070312 1659.5699462890625 775.0999755859375 1660.0400390625 775.1900024414062 1660.81005859375 C 775.1900024414062 1660.81005859375 775.219970703125 1661.1600341796875 775.3400268554688 1661.5 C 775.3400268554688 1661.5 775.4500122070312 1661.8499755859375 775.6699829101562 1662.199951171875 Z M 778.1599731445312 1656.1600341796875 L 777.3699951171875 1656.239990234375 C 777.3699951171875 1656.239990234375 777.489990234375 1655.8800048828125 777.530029296875 1655.530029296875 C 777.530029296875 1655.530029296875 777.5700073242188 1655.1800537109375 777.530029296875 1654.8599853515625 C 777.530029296875 1654.8599853515625 777.4400024414062 1653.989990234375 776.8099975585938 1653.5899658203125 C 776.8099975585938 1653.5899658203125 776.1799926757812 1653.199951171875 774.969970703125 1653.260009765625 C 774.969970703125 1653.260009765625 775.3699951171875 1653.469970703125 775.6199951171875 1653.8399658203125 C 775.6199951171875 1653.8399658203125 775.8599853515625 1654.199951171875 775.9099731445312 1654.6700439453125 C 775.9099731445312 1654.6700439453125 776.02001953125 1655.6500244140625 775.47998046875 1656.2900390625 C 775.47998046875 1656.2900390625 774.9400024414062 1656.9300537109375 773.9199829101562 1657.0400390625 C 773.9199829101562 1657.0400390625 772.9199829101562 1657.1400146484375 772.25 1656.6099853515625 C 772.25 1656.6099853515625 771.5700073242188 1656.0799560546875 771.4600219726562 1655.0999755859375 C 771.4600219726562 1655.0999755859375 771.3400268554688 1653.969970703125 772.1500244140625 1653.27001953125 C 772.1500244140625 1653.27001953125 772.9500122070312 1652.5799560546875 774.5999755859375 1652.4100341796875 C 774.5999755859375 1652.4100341796875 776.1500244140625 1652.239990234375 777.1500244140625 1652.8699951171875 C 777.1500244140625 1652.8699951171875 778.1400146484375 1653.5 778.280029296875 1654.75 C 778.280029296875 1654.75 778.3099975585938 1655.0699462890625 778.2899780273438 1655.4200439453125 Z M 775.2100219726562 1654.699951171875 C 775.2100219726562 1654.699951171875 775.1400146484375 1654.0899658203125 774.7000122070312 1653.7900390625 C 774.7000122070312 1653.7900390625 774.260009765625 1653.5 773.5499877929688 1653.5699462890625 C 773.5499877929688 1653.5699462890625 772.8499755859375 1653.6500244140625 772.469970703125 1654.030029296875 C 772.469970703125 1654.030029296875 772.0999755859375 1654.4200439453125 772.1599731445312 1655.030029296875 C 772.1599731445312 1655.030029296875 772.22998046875 1655.6199951171875 772.6699829101562 1655.9200439453125 C 772.6699829101562 1655.9200439453125 773.1199951171875 1656.22998046875 773.8200073242188 1656.1500244140625 C 773.8200073242188 1656.1500244140625 774.5399780273438 1656.0699462890625 774.9000244140625 1655.6800537109375 Z M 776.5900268554688 1650.5799560546875 L 776.489990234375 1649.6700439453125 L 777.5900268554688 1649.550048828125 L 777.6900024414062 1650.469970703125 Z M 776.5599975585938 1646.93994140625 L 776.22998046875 1643.8599853515625 L 776.97998046875 1643.780029296875 L 777.4199829101562 1647.9300537109375 L 776.6699829101562 1648.010009765625 C 776.6699829101562 1648.010009765625 776.1099853515625 1647.550048828125 775.1400146484375 1646.7900390625 C 775.1400146484375 1646.7900390625 774.1699829101562 1646.02001953125 773.8900146484375 1645.81005859375 C 773.8900146484375 1645.81005859375 773.3699951171875 1645.43994140625 773.02001953125 1645.3199462890625 C 773.02001953125 1645.3199462890625 772.6599731445312 1645.18994140625 772.3499755859375 1645.219970703125 C 772.3499755859375 1645.219970703125 771.8200073242188 1645.280029296875 771.5399780273438 1645.6700439453125 C 771.5399780273438 1645.6700439453125 771.25 1646.06005859375 771.3099975585938 1646.6500244140625 C 771.3099975585938 1646.6500244140625 771.3599853515625 1647.0699462890625 771.5499877929688 1647.52001953125 C 771.5499877929688 1647.52001953125 771.75 1647.9599609375 772.0999755859375 1648.449951171875 L 771.2000122070312 1648.550048828125 C 771.2000122070312 1648.550048828125 770.9400024414062 1648.0400390625 770.780029296875 1647.5899658203125 C 770.780029296875 1647.5899658203125 770.6099853515625 1647.1400146484375 770.5700073242188 1646.75 C 770.5700073242188 1646.75 770.4600219726562 1645.739990234375 770.9099731445312 1645.0799560546875 C 770.9099731445312 1645.0799560546875 771.3599853515625 1644.4200439453125 772.1900024414062 1644.3299560546875 C 772.1900024414062 1644.3299560546875 772.5999755859375 1644.280029296875 772.97998046875 1644.4000244140625 C 772.97998046875 1644.4000244140625 773.3599853515625 1644.52001953125 773.8900146484375 1644.8499755859375 C 773.8900146484375 1644.8499755859375 774.02001953125 1644.949951171875 774.6900024414062 1645.469970703125 Z M 770.010009765625 1642.9000244140625 L 769.9400024414062 1642.199951171875 C 769.9400024414062 1642.199951171875 770.9000244140625 1641.43994140625 771.8499755859375 1641.010009765625 C 771.8499755859375 1641.010009765625 772.7999877929688 1640.5799560546875 773.780029296875 1640.469970703125 C 773.780029296875 1640.469970703125 774.760009765625 1640.3699951171875 775.7899780273438 1640.5899658203125 C 775.7899780273438 1640.5899658203125 776.8099975585938 1640.81005859375 777.9099731445312 1641.3499755859375 L 777.97998046875 1642.050048828125 C 777.97998046875 1642.050048828125 776.9299926757812 1641.5699462890625 775.9000244140625 1641.3900146484375 C 775.9000244140625 1641.3900146484375 774.8800048828125 1641.219970703125 773.8699951171875 1641.3299560546875 C 773.8699951171875 1641.3299560546875 772.8599853515625 1641.43994140625 771.9099731445312 1641.8199462890625 Z" stroke="black" fill="none" stroke-width="1" />
                </svg>