<svg xmlns="http://www.w3.org/2000/svg" width="14.800048828125" height="9.849853515625" viewBox="1136.8800048828125 2413.340087890625 14.800048828125 9.849853515625">
                <rect x="1136.8800048828125" y="2413.340087890625" width="14.800048828125" height="9.849853515625" fill="white"/>
                <path d="M 1140.1300048828125 2418.5 C 1140.1300048828125 2418.5 1139.219970703125 2418.5 1138.699951171875 2418.989990234375 C 1138.699951171875 2418.989990234375 1138.1700439453125 2419.47998046875 1138.1700439453125 2420.330078125 C 1138.1700439453125 2420.330078125 1138.1700439453125 2421.18994140625 1138.699951171875 2421.679931640625 C 1138.699951171875 2421.679931640625 1139.219970703125 2422.169921875 1140.1300048828125 2422.169921875 C 1140.1300048828125 2422.169921875 1141.050048828125 2422.169921875 1141.5699462890625 2421.679931640625 C 1141.5699462890625 2421.679931640625 1142.0899658203125 2421.18994140625 1142.0899658203125 2420.330078125 C 1142.0899658203125 2420.330078125 1142.0899658203125 2419.47998046875 1141.5699462890625 2418.989990234375 Z M 1138.8399658203125 2417.949951171875 C 1138.8399658203125 2417.949951171875 1138.030029296875 2417.75 1137.5699462890625 2417.18994140625 C 1137.5699462890625 2417.18994140625 1137.1099853515625 2416.6201171875 1137.1099853515625 2415.81005859375 C 1137.1099853515625 2415.81005859375 1137.1099853515625 2414.669921875 1137.9100341796875 2414.010009765625 C 1137.9100341796875 2414.010009765625 1138.719970703125 2413.340087890625 1140.1300048828125 2413.340087890625 C 1140.1300048828125 2413.340087890625 1141.550048828125 2413.340087890625 1142.3499755859375 2414.010009765625 C 1142.3499755859375 2414.010009765625 1143.1600341796875 2414.669921875 1143.1600341796875 2415.81005859375 C 1143.1600341796875 2415.81005859375 1143.1600341796875 2416.6201171875 1142.699951171875 2417.18994140625 C 1142.699951171875 2417.18994140625 1142.22998046875 2417.75 1141.4200439453125 2417.949951171875 C 1141.4200439453125 2417.949951171875 1142.3399658203125 2418.169921875 1142.8599853515625 2418.800048828125 C 1142.8599853515625 2418.800048828125 1143.3800048828125 2419.419921875 1143.3800048828125 2420.330078125 C 1143.3800048828125 2420.330078125 1143.3800048828125 2421.719970703125 1142.5400390625 2422.449951171875 C 1142.5400390625 2422.449951171875 1141.699951171875 2423.18994140625 1140.1300048828125 2423.18994140625 C 1140.1300048828125 2423.18994140625 1138.56005859375 2423.18994140625 1137.719970703125 2422.449951171875 C 1137.719970703125 2422.449951171875 1136.8800048828125 2421.719970703125 1136.8800048828125 2420.330078125 C 1136.8800048828125 2420.330078125 1136.8800048828125 2419.419921875 1137.4000244140625 2418.800048828125 Z M 1138.3800048828125 2415.919921875 C 1138.3800048828125 2415.919921875 1138.3800048828125 2416.669921875 1138.8399658203125 2417.080078125 C 1138.8399658203125 2417.080078125 1139.300048828125 2417.47998046875 1140.1300048828125 2417.47998046875 C 1140.1300048828125 2417.47998046875 1140.949951171875 2417.47998046875 1141.4200439453125 2417.080078125 C 1141.4200439453125 2417.080078125 1141.8900146484375 2416.669921875 1141.8900146484375 2415.919921875 C 1141.8900146484375 2415.919921875 1141.8900146484375 2415.18994140625 1141.4200439453125 2414.77001953125 C 1141.4200439453125 2414.77001953125 1140.949951171875 2414.35986328125 1140.1300048828125 2414.35986328125 C 1140.1300048828125 2414.35986328125 1139.300048828125 2414.35986328125 1138.8399658203125 2414.77001953125 Z M 1148.4000244140625 2414.35986328125 C 1148.4000244140625 2414.35986328125 1147.4100341796875 2414.35986328125 1146.9100341796875 2415.340087890625 C 1146.9100341796875 2415.340087890625 1146.4100341796875 2416.31005859375 1146.4100341796875 2418.27001953125 C 1146.4100341796875 2418.27001953125 1146.4100341796875 2420.219970703125 1146.9100341796875 2421.199951171875 C 1146.9100341796875 2421.199951171875 1147.4100341796875 2422.169921875 1148.4000244140625 2422.169921875 C 1148.4000244140625 2422.169921875 1149.4000244140625 2422.169921875 1149.9000244140625 2421.199951171875 C 1149.9000244140625 2421.199951171875 1150.4000244140625 2420.219970703125 1150.4000244140625 2418.27001953125 C 1150.4000244140625 2418.27001953125 1150.4000244140625 2416.31005859375 1149.9000244140625 2415.340087890625 Z M 1148.4000244140625 2413.340087890625 C 1148.4000244140625 2413.340087890625 1149.989990234375 2413.340087890625 1150.8299560546875 2414.60986328125 C 1150.8299560546875 2414.60986328125 1151.6800537109375 2415.8701171875 1151.6800537109375 2418.27001953125 C 1151.6800537109375 2418.27001953125 1151.6800537109375 2420.659912109375 1150.8299560546875 2421.919921875 C 1150.8299560546875 2421.919921875 1149.989990234375 2423.18994140625 1148.4000244140625 2423.18994140625 C 1148.4000244140625 2423.18994140625 1146.8199462890625 2423.18994140625 1145.969970703125 2421.919921875 C 1145.969970703125 2421.919921875 1145.1300048828125 2420.659912109375 1145.1300048828125 2418.27001953125 C 1145.1300048828125 2418.27001953125 1145.1300048828125 2415.8701171875 1145.969970703125 2414.60986328125 Z" stroke="black" fill="none" stroke-width="1" />
                </svg>