<svg xmlns="http://www.w3.org/2000/svg" width="7.02001953125" height="16.9000244140625" viewBox="755.72998046875 1602.8900146484375 7.02001953125 16.9000244140625">
                <rect x="755.72998046875" y="1602.8900146484375" width="7.02001953125" height="16.9000244140625" fill="white"/>
                <path d="M 757.6199951171875 1617.4100341796875 L 760.8900146484375 1619.1400146484375 L 760.719970703125 1617.1500244140625 Z M 756.9600219726562 1617.6800537109375 L 756.8699951171875 1616.68994140625 L 760.6599731445312 1616.3699951171875 L 760.5900268554688 1615.5400390625 L 761.239990234375 1615.489990234375 L 761.3099975585938 1616.3199462890625 L 762.6799926757812 1616.199951171875 L 762.75 1616.97998046875 L 761.3800048828125 1617.0899658203125 L 761.5999755859375 1619.72998046875 L 760.8300170898438 1619.7900390625 Z M 757.0700073242188 1612.8299560546875 C 757.0700073242188 1612.8299560546875 757.1199951171875 1613.43994140625 757.75 1613.68994140625 C 757.75 1613.68994140625 758.3699951171875 1613.949951171875 759.5700073242188 1613.8499755859375 C 759.5700073242188 1613.8499755859375 760.75 1613.75 761.3300170898438 1613.3900146484375 C 761.3300170898438 1613.3900146484375 761.9000244140625 1613.0400390625 761.8499755859375 1612.4300537109375 C 761.8499755859375 1612.4300537109375 761.7999877929688 1611.8299560546875 761.1699829101562 1611.5699462890625 C 761.1699829101562 1611.5699462890625 760.5499877929688 1611.3199462890625 759.3699951171875 1611.4200439453125 C 759.3699951171875 1611.4200439453125 758.1699829101562 1611.52001953125 757.5900268554688 1611.8699951171875 Z M 756.4500122070312 1612.8800048828125 C 756.4500122070312 1612.8800048828125 756.3599853515625 1611.9000244140625 757.0900268554688 1611.3299560546875 C 757.0900268554688 1611.3299560546875 757.8200073242188 1610.75 759.2999877929688 1610.6199951171875 C 759.2999877929688 1610.6199951171875 760.760009765625 1610.5 761.5800170898438 1610.949951171875 C 761.5800170898438 1610.949951171875 762.3900146484375 1611.4000244140625 762.469970703125 1612.3800048828125 C 762.469970703125 1612.3800048828125 762.5499877929688 1613.3599853515625 761.8300170898438 1613.93994140625 C 761.8300170898438 1613.93994140625 761.0999755859375 1614.52001953125 759.6400146484375 1614.6400146484375 C 759.6400146484375 1614.6400146484375 758.1599731445312 1614.760009765625 757.3400268554688 1614.3199462890625 Z M 761.0800170898438 1609.0799560546875 L 761.010009765625 1608.260009765625 L 762.010009765625 1608.1700439453125 L 762.0800170898438 1609.0 Z M 756.4299926757812 1605.22998046875 C 756.4299926757812 1605.22998046875 756.47998046875 1605.8299560546875 757.1099853515625 1606.0899658203125 C 757.1099853515625 1606.0899658203125 757.72998046875 1606.3399658203125 758.9299926757812 1606.239990234375 C 758.9299926757812 1606.239990234375 760.1199951171875 1606.1400146484375 760.6900024414062 1605.7900390625 C 760.6900024414062 1605.7900390625 761.260009765625 1605.4300537109375 761.2100219726562 1604.8299560546875 C 761.2100219726562 1604.8299560546875 761.1599731445312 1604.219970703125 760.5399780273438 1603.969970703125 C 760.5399780273438 1603.969970703125 759.9099731445312 1603.7099609375 758.72998046875 1603.81005859375 C 758.72998046875 1603.81005859375 757.530029296875 1603.9100341796875 756.9600219726562 1604.27001953125 Z M 755.8099975585938 1605.280029296875 C 755.8099975585938 1605.280029296875 755.72998046875 1604.300048828125 756.4600219726562 1603.719970703125 C 756.4600219726562 1603.719970703125 757.1799926757812 1603.1400146484375 758.6599731445312 1603.02001953125 C 758.6599731445312 1603.02001953125 760.1300048828125 1602.8900146484375 760.9400024414062 1603.3399658203125 C 760.9400024414062 1603.3399658203125 761.75 1603.7900390625 761.8400268554688 1604.77001953125 C 761.8400268554688 1604.77001953125 761.9199829101562 1605.760009765625 761.1900024414062 1606.3299560546875 C 761.1900024414062 1606.3299560546875 760.4600219726562 1606.9100341796875 759.0 1607.030029296875 C 759.0 1607.030029296875 757.52001953125 1607.1600341796875 756.7100219726562 1606.7099609375 Z" stroke="black" fill="none" stroke-width="1" />
                </svg>