<svg xmlns="http://www.w3.org/2000/svg" width="158.35986328125" height="10.64013671875" viewBox="2169.080078125 3298.639892578125 158.35986328125 10.64013671875">
                <rect x="2169.080078125" y="3298.639892578125" width="158.35986328125" height="10.64013671875" fill="white"/>
                <path d="M 2169.080078125 3298.97998046875 L 2170.550048828125 3298.97998046875 L 2174.090087890625 3305.68994140625 L 2174.090087890625 3298.97998046875 L 2175.159912109375 3298.97998046875 L 2175.159912109375 3307.0 L 2173.68994140625 3307.0 L 2170.1298828125 3300.300048828125 L 2170.1298828125 3307.0 L 2169.080078125 3307.0 Z M 2179.989990234375 3303.969970703125 C 2179.989990234375 3303.969970703125 2178.81005859375 3303.969970703125 2178.35009765625 3304.25 C 2178.35009765625 3304.25 2177.8798828125 3304.530029296875 2177.8798828125 3305.18994140625 C 2177.8798828125 3305.18994140625 2177.8798828125 3305.699951171875 2178.22998046875 3306.02001953125 C 2178.22998046875 3306.02001953125 2178.570068359375 3306.330078125 2179.169921875 3306.330078125 C 2179.169921875 3306.330078125 2179.989990234375 3306.330078125 2180.489990234375 3305.739990234375 C 2180.489990234375 3305.739990234375 2180.97998046875 3305.159912109375 2180.97998046875 3304.199951171875 L 2180.97998046875 3303.969970703125 Z M 2181.9599609375 3303.56005859375 L 2181.9599609375 3307.0 L 2180.97998046875 3307.0 L 2180.97998046875 3306.090087890625 C 2180.97998046875 3306.090087890625 2180.64990234375 3306.639892578125 2180.139892578125 3306.89990234375 C 2180.139892578125 3306.89990234375 2179.6298828125 3307.159912109375 2178.89990234375 3307.159912109375 C 2178.89990234375 3307.159912109375 2177.97998046875 3307.159912109375 2177.429931640625 3306.639892578125 C 2177.429931640625 3306.639892578125 2176.8798828125 3306.1201171875 2176.8798828125 3305.25 C 2176.8798828125 3305.25 2176.8798828125 3304.22998046875 2177.56005859375 3303.719970703125 C 2177.56005859375 3303.719970703125 2178.239990234375 3303.199951171875 2179.60009765625 3303.199951171875 L 2180.97998046875 3303.199951171875 L 2180.97998046875 3303.110107421875 C 2180.97998046875 3303.110107421875 2180.97998046875 3302.419921875 2180.530029296875 3302.050048828125 C 2180.530029296875 3302.050048828125 2180.090087890625 3301.669921875 2179.280029296875 3301.669921875 C 2179.280029296875 3301.669921875 2178.760009765625 3301.669921875 2178.27001953125 3301.800048828125 C 2178.27001953125 3301.800048828125 2177.780029296875 3301.919921875 2177.320068359375 3302.169921875 L 2177.320068359375 3301.27001953125 C 2177.320068359375 3301.27001953125 2177.8701171875 3301.050048828125 2178.3798828125 3300.949951171875 C 2178.3798828125 3300.949951171875 2178.89990234375 3300.840087890625 2179.3701171875 3300.840087890625 C 2179.3701171875 3300.840087890625 2180.679931640625 3300.840087890625 2181.320068359375 3301.52001953125 Z M 2188.68994140625 3302.139892578125 C 2188.68994140625 3302.139892578125 2189.06005859375 3301.469970703125 2189.580078125 3301.159912109375 C 2189.580078125 3301.159912109375 2190.090087890625 3300.840087890625 2190.800048828125 3300.840087890625 C 2190.800048828125 3300.840087890625 2191.72998046875 3300.840087890625 2192.239990234375 3301.5 C 2192.239990234375 3301.5 2192.75 3302.159912109375 2192.75 3303.3701171875 L 2192.75 3307.0 L 2191.75 3307.0 L 2191.75 3303.409912109375 C 2191.75 3303.409912109375 2191.75 3302.530029296875 2191.449951171875 3302.1201171875 C 2191.449951171875 3302.1201171875 2191.139892578125 3301.699951171875 2190.52001953125 3301.699951171875 C 2190.52001953125 3301.699951171875 2189.75 3301.699951171875 2189.31005859375 3302.2099609375 C 2189.31005859375 3302.2099609375 2188.860107421875 3302.719970703125 2188.860107421875 3303.590087890625 L 2188.860107421875 3307.0 L 2187.860107421875 3307.0 L 2187.860107421875 3303.409912109375 C 2187.860107421875 3303.409912109375 2187.860107421875 3302.530029296875 2187.56005859375 3302.1201171875 C 2187.56005859375 3302.1201171875 2187.25 3301.699951171875 2186.610107421875 3301.699951171875 C 2186.610107421875 3301.699951171875 2185.860107421875 3301.699951171875 2185.409912109375 3302.2099609375 C 2185.409912109375 3302.2099609375 2184.969970703125 3302.719970703125 2184.969970703125 3303.590087890625 L 2184.969970703125 3307.0 L 2183.969970703125 3307.0 L 2183.969970703125 3300.97998046875 L 2184.969970703125 3300.97998046875 L 2184.969970703125 3301.919921875 C 2184.969970703125 3301.919921875 2185.300048828125 3301.360107421875 2185.77001953125 3301.10009765625 C 2185.77001953125 3301.10009765625 2186.25 3300.840087890625 2186.889892578125 3300.840087890625 C 2186.889892578125 3300.840087890625 2187.550048828125 3300.840087890625 2188.010009765625 3301.169921875 Z M 2199.8701171875 3303.75 L 2199.8701171875 3304.22998046875 L 2195.330078125 3304.22998046875 C 2195.330078125 3304.22998046875 2195.389892578125 3305.25 2195.929931640625 3305.780029296875 C 2195.929931640625 3305.780029296875 2196.47998046875 3306.31005859375 2197.469970703125 3306.31005859375 C 2197.469970703125 3306.31005859375 2198.0400390625 3306.31005859375 2198.580078125 3306.169921875 C 2198.580078125 3306.169921875 2199.110107421875 3306.030029296875 2199.639892578125 3305.77001953125 L 2199.639892578125 3306.68994140625 C 2199.639892578125 3306.68994140625 2199.110107421875 3306.919921875 2198.5400390625 3307.0400390625 C 2198.5400390625 3307.0400390625 2197.97998046875 3307.159912109375 2197.419921875 3307.159912109375 C 2197.419921875 3307.159912109375 2195.969970703125 3307.159912109375 2195.1298828125 3306.320068359375 C 2195.1298828125 3306.320068359375 2194.2900390625 3305.47998046875 2194.2900390625 3304.050048828125 C 2194.2900390625 3304.050048828125 2194.2900390625 3302.580078125 2195.090087890625 3301.7099609375 C 2195.090087890625 3301.7099609375 2195.889892578125 3300.840087890625 2197.25 3300.840087890625 C 2197.25 3300.840087890625 2198.449951171875 3300.840087890625 2199.159912109375 3301.6201171875 Z M 2198.8701171875 3303.449951171875 C 2198.8701171875 3303.449951171875 2198.8701171875 3302.639892578125 2198.429931640625 3302.159912109375 C 2198.429931640625 3302.159912109375 2197.97998046875 3301.669921875 2197.25 3301.669921875 C 2197.25 3301.669921875 2196.419921875 3301.669921875 2195.929931640625 3302.139892578125 C 2195.929931640625 3302.139892578125 2195.429931640625 3302.610107421875 2195.360107421875 3303.449951171875 Z M 2207.320068359375 3301.669921875 C 2207.320068359375 3301.669921875 2206.530029296875 3301.669921875 2206.070068359375 3302.300048828125 C 2206.070068359375 3302.300048828125 2205.60009765625 3302.919921875 2205.60009765625 3304.0 C 2205.60009765625 3304.0 2205.60009765625 3305.080078125 2206.06005859375 3305.699951171875 C 2206.06005859375 3305.699951171875 2206.510009765625 3306.31005859375 2207.320068359375 3306.31005859375 C 2207.320068359375 3306.31005859375 2208.10009765625 3306.31005859375 2208.570068359375 3305.699951171875 C 2208.570068359375 3305.699951171875 2209.030029296875 3305.080078125 2209.030029296875 3304.0 C 2209.030029296875 3304.0 2209.030029296875 3302.919921875 2208.570068359375 3302.300048828125 Z M 2207.320068359375 3300.840087890625 C 2207.320068359375 3300.840087890625 2208.60009765625 3300.840087890625 2209.340087890625 3301.679931640625 C 2209.340087890625 3301.679931640625 2210.070068359375 3302.52001953125 2210.070068359375 3304.0 C 2210.070068359375 3304.0 2210.070068359375 3305.469970703125 2209.340087890625 3306.31005859375 C 2209.340087890625 3306.31005859375 2208.60009765625 3307.159912109375 2207.320068359375 3307.159912109375 C 2207.320068359375 3307.159912109375 2206.030029296875 3307.159912109375 2205.2900390625 3306.31005859375 C 2205.2900390625 3306.31005859375 2204.56005859375 3305.469970703125 2204.56005859375 3304.0 C 2204.56005859375 3304.0 2204.56005859375 3302.52001953125 2205.2900390625 3301.679931640625 Z M 2214.760009765625 3298.639892578125 L 2214.760009765625 3299.469970703125 L 2213.820068359375 3299.469970703125 C 2213.820068359375 3299.469970703125 2213.2900390625 3299.469970703125 2213.080078125 3299.679931640625 C 2213.080078125 3299.679931640625 2212.8701171875 3299.889892578125 2212.8701171875 3300.449951171875 L 2212.8701171875 3300.97998046875 L 2214.489990234375 3300.97998046875 L 2214.489990234375 3301.75 L 2212.8701171875 3301.75 L 2212.8701171875 3307.0 L 2211.8798828125 3307.0 L 2211.8798828125 3301.75 L 2210.929931640625 3301.75 L 2210.929931640625 3300.97998046875 L 2211.8798828125 3300.97998046875 L 2211.8798828125 3300.56005859375 C 2211.8798828125 3300.56005859375 2211.8798828125 3299.56005859375 2212.340087890625 3299.10009765625 C 2212.340087890625 3299.10009765625 2212.800048828125 3298.639892578125 2213.820068359375 3298.639892578125 Z M 2221.81005859375 3303.969970703125 C 2221.81005859375 3303.969970703125 2220.6298828125 3303.969970703125 2220.169921875 3304.25 C 2220.169921875 3304.25 2219.699951171875 3304.530029296875 2219.699951171875 3305.18994140625 C 2219.699951171875 3305.18994140625 2219.699951171875 3305.699951171875 2220.050048828125 3306.02001953125 C 2220.050048828125 3306.02001953125 2220.389892578125 3306.330078125 2220.989990234375 3306.330078125 C 2220.989990234375 3306.330078125 2221.81005859375 3306.330078125 2222.31005859375 3305.739990234375 C 2222.31005859375 3305.739990234375 2222.800048828125 3305.159912109375 2222.800048828125 3304.199951171875 L 2222.800048828125 3303.969970703125 Z M 2223.780029296875 3303.56005859375 L 2223.780029296875 3307.0 L 2222.800048828125 3307.0 L 2222.800048828125 3306.090087890625 C 2222.800048828125 3306.090087890625 2222.469970703125 3306.639892578125 2221.9599609375 3306.89990234375 C 2221.9599609375 3306.89990234375 2221.449951171875 3307.159912109375 2220.719970703125 3307.159912109375 C 2220.719970703125 3307.159912109375 2219.800048828125 3307.159912109375 2219.25 3306.639892578125 C 2219.25 3306.639892578125 2218.699951171875 3306.1201171875 2218.699951171875 3305.25 C 2218.699951171875 3305.25 2218.699951171875 3304.22998046875 2219.3798828125 3303.719970703125 C 2219.3798828125 3303.719970703125 2220.06005859375 3303.199951171875 2221.419921875 3303.199951171875 L 2222.800048828125 3303.199951171875 L 2222.800048828125 3303.110107421875 C 2222.800048828125 3303.110107421875 2222.800048828125 3302.419921875 2222.35009765625 3302.050048828125 C 2222.35009765625 3302.050048828125 2221.909912109375 3301.669921875 2221.090087890625 3301.669921875 C 2221.090087890625 3301.669921875 2220.580078125 3301.669921875 2220.090087890625 3301.800048828125 C 2220.090087890625 3301.800048828125 2219.590087890625 3301.919921875 2219.139892578125 3302.169921875 L 2219.139892578125 3301.27001953125 C 2219.139892578125 3301.27001953125 2219.68994140625 3301.050048828125 2220.199951171875 3300.949951171875 C 2220.199951171875 3300.949951171875 2220.719970703125 3300.840087890625 2221.18994140625 3300.840087890625 C 2221.18994140625 3300.840087890625 2222.5 3300.840087890625 2223.139892578125 3301.52001953125 Z M 2226.7900390625 3306.090087890625 L 2226.7900390625 3309.280029296875 L 2225.7900390625 3309.280029296875 L 2225.7900390625 3300.97998046875 L 2226.7900390625 3300.97998046875 L 2226.7900390625 3301.889892578125 C 2226.7900390625 3301.889892578125 2227.090087890625 3301.360107421875 2227.56005859375 3301.10009765625 C 2227.56005859375 3301.10009765625 2228.0400390625 3300.840087890625 2228.7099609375 3300.840087890625 C 2228.7099609375 3300.840087890625 2229.800048828125 3300.840087890625 2230.47998046875 3301.7099609375 C 2230.47998046875 3301.7099609375 2231.159912109375 3302.580078125 2231.159912109375 3304.0 C 2231.159912109375 3304.0 2231.159912109375 3305.419921875 2230.47998046875 3306.2900390625 C 2230.47998046875 3306.2900390625 2229.800048828125 3307.159912109375 2228.7099609375 3307.159912109375 C 2228.7099609375 3307.159912109375 2228.0400390625 3307.159912109375 2227.56005859375 3306.89990234375 Z M 2230.14990234375 3304.0 C 2230.14990234375 3304.0 2230.14990234375 3302.909912109375 2229.68994140625 3302.2900390625 C 2229.68994140625 3302.2900390625 2229.239990234375 3301.669921875 2228.4599609375 3301.669921875 C 2228.4599609375 3301.669921875 2227.679931640625 3301.669921875 2227.22998046875 3302.2900390625 C 2227.22998046875 3302.2900390625 2226.7900390625 3302.909912109375 2226.7900390625 3304.0 C 2226.7900390625 3304.0 2226.7900390625 3305.090087890625 2227.22998046875 3305.7099609375 C 2227.22998046875 3305.7099609375 2227.679931640625 3306.330078125 2228.4599609375 3306.330078125 C 2228.4599609375 3306.330078125 2229.239990234375 3306.330078125 2229.68994140625 3305.7099609375 Z M 2233.77001953125 3306.090087890625 L 2233.77001953125 3309.280029296875 L 2232.77001953125 3309.280029296875 L 2232.77001953125 3300.97998046875 L 2233.77001953125 3300.97998046875 L 2233.77001953125 3301.889892578125 C 2233.77001953125 3301.889892578125 2234.070068359375 3301.360107421875 2234.5400390625 3301.10009765625 C 2234.5400390625 3301.10009765625 2235.02001953125 3300.840087890625 2235.68994140625 3300.840087890625 C 2235.68994140625 3300.840087890625 2236.7900390625 3300.840087890625 2237.469970703125 3301.7099609375 C 2237.469970703125 3301.7099609375 2238.14990234375 3302.580078125 2238.14990234375 3304.0 C 2238.14990234375 3304.0 2238.14990234375 3305.419921875 2237.469970703125 3306.2900390625 C 2237.469970703125 3306.2900390625 2236.7900390625 3307.159912109375 2235.68994140625 3307.159912109375 C 2235.68994140625 3307.159912109375 2235.02001953125 3307.159912109375 2234.5400390625 3306.89990234375 Z M 2237.1298828125 3304.0 C 2237.1298828125 3304.0 2237.1298828125 3302.909912109375 2236.679931640625 3302.2900390625 C 2236.679931640625 3302.2900390625 2236.219970703125 3301.669921875 2235.43994140625 3301.669921875 C 2235.43994140625 3301.669921875 2234.659912109375 3301.669921875 2234.219970703125 3302.2900390625 C 2234.219970703125 3302.2900390625 2233.77001953125 3302.909912109375 2233.77001953125 3304.0 C 2233.77001953125 3304.0 2233.77001953125 3305.090087890625 2234.219970703125 3305.7099609375 C 2234.219970703125 3305.7099609375 2234.659912109375 3306.330078125 2235.43994140625 3306.330078125 C 2235.43994140625 3306.330078125 2236.219970703125 3306.330078125 2236.679931640625 3305.7099609375 Z M 2243.27001953125 3301.909912109375 C 2243.27001953125 3301.909912109375 2243.110107421875 3301.81005859375 2242.919921875 3301.77001953125 C 2242.919921875 3301.77001953125 2242.719970703125 3301.719970703125 2242.489990234375 3301.719970703125 C 2242.489990234375 3301.719970703125 2241.639892578125 3301.719970703125 2241.199951171875 3302.27001953125 C 2241.199951171875 3302.27001953125 2240.75 3302.81005859375 2240.75 3303.830078125 L 2240.75 3307.0 L 2239.75 3307.0 L 2239.75 3300.97998046875 L 2240.75 3300.97998046875 L 2240.75 3301.919921875 C 2240.75 3301.919921875 2241.050048828125 3301.3701171875 2241.550048828125 3301.110107421875 C 2241.550048828125 3301.110107421875 2242.050048828125 3300.840087890625 2242.77001953125 3300.840087890625 C 2242.77001953125 3300.840087890625 2242.8798828125 3300.840087890625 2243.0 3300.85009765625 C 2243.0 3300.85009765625 2243.110107421875 3300.860107421875 2243.27001953125 3300.889892578125 Z M 2246.64990234375 3301.669921875 C 2246.64990234375 3301.669921875 2245.85009765625 3301.669921875 2245.389892578125 3302.300048828125 C 2245.389892578125 3302.300048828125 2244.929931640625 3302.919921875 2244.929931640625 3304.0 C 2244.929931640625 3304.0 2244.929931640625 3305.080078125 2245.389892578125 3305.699951171875 C 2245.389892578125 3305.699951171875 2245.840087890625 3306.31005859375 2246.64990234375 3306.31005859375 C 2246.64990234375 3306.31005859375 2247.429931640625 3306.31005859375 2247.889892578125 3305.699951171875 C 2247.889892578125 3305.699951171875 2248.35009765625 3305.080078125 2248.35009765625 3304.0 C 2248.35009765625 3304.0 2248.35009765625 3302.919921875 2247.889892578125 3302.300048828125 Z M 2246.64990234375 3300.840087890625 C 2246.64990234375 3300.840087890625 2247.929931640625 3300.840087890625 2248.669921875 3301.679931640625 C 2248.669921875 3301.679931640625 2249.39990234375 3302.52001953125 2249.39990234375 3304.0 C 2249.39990234375 3304.0 2249.39990234375 3305.469970703125 2248.669921875 3306.31005859375 C 2248.669921875 3306.31005859375 2247.929931640625 3307.159912109375 2246.64990234375 3307.159912109375 C 2246.64990234375 3307.159912109375 2245.35009765625 3307.159912109375 2244.6201171875 3306.31005859375 C 2244.6201171875 3306.31005859375 2243.889892578125 3305.469970703125 2243.889892578125 3304.0 C 2243.889892578125 3304.0 2243.889892578125 3302.52001953125 2244.6201171875 3301.679931640625 Z M 2250.330078125 3300.97998046875 L 2251.3798828125 3300.97998046875 L 2253.260009765625 3306.030029296875 L 2255.14990234375 3300.97998046875 L 2256.18994140625 3300.97998046875 L 2253.929931640625 3307.0 L 2252.580078125 3307.0 Z M 2262.699951171875 3303.75 L 2262.699951171875 3304.22998046875 L 2258.159912109375 3304.22998046875 C 2258.159912109375 3304.22998046875 2258.219970703125 3305.25 2258.77001953125 3305.780029296875 C 2258.77001953125 3305.780029296875 2259.31005859375 3306.31005859375 2260.300048828125 3306.31005859375 C 2260.300048828125 3306.31005859375 2260.8798828125 3306.31005859375 2261.409912109375 3306.169921875 C 2261.409912109375 3306.169921875 2261.93994140625 3306.030029296875 2262.469970703125 3305.77001953125 L 2262.469970703125 3306.68994140625 C 2262.469970703125 3306.68994140625 2261.93994140625 3306.919921875 2261.3798828125 3307.0400390625 C 2261.3798828125 3307.0400390625 2260.81005859375 3307.159912109375 2260.25 3307.159912109375 C 2260.25 3307.159912109375 2258.800048828125 3307.159912109375 2257.9599609375 3306.320068359375 C 2257.9599609375 3306.320068359375 2257.1298828125 3305.47998046875 2257.1298828125 3304.050048828125 C 2257.1298828125 3304.050048828125 2257.1298828125 3302.580078125 2257.919921875 3301.7099609375 C 2257.919921875 3301.7099609375 2258.719970703125 3300.840087890625 2260.080078125 3300.840087890625 C 2260.080078125 3300.840087890625 2261.280029296875 3300.840087890625 2261.989990234375 3301.6201171875 Z M 2261.699951171875 3303.449951171875 C 2261.699951171875 3303.449951171875 2261.699951171875 3302.639892578125 2261.260009765625 3302.159912109375 C 2261.260009765625 3302.159912109375 2260.81005859375 3301.669921875 2260.080078125 3301.669921875 C 2260.080078125 3301.669921875 2259.25 3301.669921875 2258.760009765625 3302.139892578125 C 2258.760009765625 3302.139892578125 2258.27001953125 3302.610107421875 2258.18994140625 3303.449951171875 Z M 2267.800048828125 3301.909912109375 C 2267.800048828125 3301.909912109375 2267.639892578125 3301.81005859375 2267.449951171875 3301.77001953125 C 2267.449951171875 3301.77001953125 2267.25 3301.719970703125 2267.02001953125 3301.719970703125 C 2267.02001953125 3301.719970703125 2266.169921875 3301.719970703125 2265.72998046875 3302.27001953125 C 2265.72998046875 3302.27001953125 2265.280029296875 3302.81005859375 2265.280029296875 3303.830078125 L 2265.280029296875 3307.0 L 2264.280029296875 3307.0 L 2264.280029296875 3300.97998046875 L 2265.280029296875 3300.97998046875 L 2265.280029296875 3301.919921875 C 2265.280029296875 3301.919921875 2265.580078125 3301.3701171875 2266.080078125 3301.110107421875 C 2266.080078125 3301.110107421875 2266.580078125 3300.840087890625 2267.300048828125 3300.840087890625 C 2267.300048828125 3300.840087890625 2267.409912109375 3300.840087890625 2267.530029296875 3300.85009765625 C 2267.530029296875 3300.85009765625 2267.639892578125 3300.860107421875 2267.800048828125 3300.889892578125 Z M 2272.60009765625 3305.639892578125 L 2273.719970703125 3305.639892578125 L 2273.719970703125 3307.0 L 2272.60009765625 3307.0 Z M 2272.60009765625 3301.31005859375 L 2273.719970703125 3301.31005859375 L 2273.719970703125 3302.669921875 L 2272.60009765625 3302.669921875 Z M 2284.219970703125 3302.139892578125 C 2284.219970703125 3302.139892578125 2284.60009765625 3301.469970703125 2285.110107421875 3301.159912109375 C 2285.110107421875 3301.159912109375 2285.6298828125 3300.840087890625 2286.330078125 3300.840087890625 C 2286.330078125 3300.840087890625 2287.27001953125 3300.840087890625 2287.780029296875 3301.5 C 2287.780029296875 3301.5 2288.2900390625 3302.159912109375 2288.2900390625 3303.3701171875 L 2288.2900390625 3307.0 L 2287.2900390625 3307.0 L 2287.2900390625 3303.409912109375 C 2287.2900390625 3303.409912109375 2287.2900390625 3302.530029296875 2286.97998046875 3302.1201171875 C 2286.97998046875 3302.1201171875 2286.679931640625 3301.699951171875 2286.050048828125 3301.699951171875 C 2286.050048828125 3301.699951171875 2285.2900390625 3301.699951171875 2284.840087890625 3302.2099609375 C 2284.840087890625 3302.2099609375 2284.39990234375 3302.719970703125 2284.39990234375 3303.590087890625 L 2284.39990234375 3307.0 L 2283.39990234375 3307.0 L 2283.39990234375 3303.409912109375 C 2283.39990234375 3303.409912109375 2283.39990234375 3302.530029296875 2283.090087890625 3302.1201171875 C 2283.090087890625 3302.1201171875 2282.7900390625 3301.699951171875 2282.14990234375 3301.699951171875 C 2282.14990234375 3301.699951171875 2281.39990234375 3301.699951171875 2280.949951171875 3302.2099609375 C 2280.949951171875 3302.2099609375 2280.5 3302.719970703125 2280.5 3303.590087890625 L 2280.5 3307.0 L 2279.5 3307.0 L 2279.5 3300.97998046875 L 2280.5 3300.97998046875 L 2280.5 3301.919921875 C 2280.5 3301.919921875 2280.830078125 3301.360107421875 2281.31005859375 3301.10009765625 C 2281.31005859375 3301.10009765625 2281.7900390625 3300.840087890625 2282.429931640625 3300.840087890625 C 2282.429931640625 3300.840087890625 2283.080078125 3300.840087890625 2283.5400390625 3301.169921875 Z M 2290.159912109375 3304.6201171875 L 2290.159912109375 3300.97998046875 L 2291.139892578125 3300.97998046875 L 2291.139892578125 3304.590087890625 C 2291.139892578125 3304.590087890625 2291.139892578125 3305.43994140625 2291.47998046875 3305.8701171875 C 2291.47998046875 3305.8701171875 2291.81005859375 3306.300048828125 2292.469970703125 3306.300048828125 C 2292.469970703125 3306.300048828125 2293.280029296875 3306.300048828125 2293.739990234375 3305.7900390625 C 2293.739990234375 3305.7900390625 2294.199951171875 3305.280029296875 2294.199951171875 3304.389892578125 L 2294.199951171875 3300.97998046875 L 2295.18994140625 3300.97998046875 L 2295.18994140625 3307.0 L 2294.199951171875 3307.0 L 2294.199951171875 3306.080078125 C 2294.199951171875 3306.080078125 2293.85009765625 3306.6201171875 2293.3701171875 3306.889892578125 C 2293.3701171875 3306.889892578125 2292.889892578125 3307.159912109375 2292.27001953125 3307.159912109375 C 2292.27001953125 3307.159912109375 2291.239990234375 3307.159912109375 2290.699951171875 3306.510009765625 Z M 2300.7099609375 3301.909912109375 C 2300.7099609375 3301.909912109375 2300.550048828125 3301.81005859375 2300.360107421875 3301.77001953125 C 2300.360107421875 3301.77001953125 2300.159912109375 3301.719970703125 2299.929931640625 3301.719970703125 C 2299.929931640625 3301.719970703125 2299.080078125 3301.719970703125 2298.639892578125 3302.27001953125 C 2298.639892578125 3302.27001953125 2298.18994140625 3302.81005859375 2298.18994140625 3303.830078125 L 2298.18994140625 3307.0 L 2297.18994140625 3307.0 L 2297.18994140625 3300.97998046875 L 2298.18994140625 3300.97998046875 L 2298.18994140625 3301.919921875 C 2298.18994140625 3301.919921875 2298.489990234375 3301.3701171875 2298.989990234375 3301.110107421875 C 2298.989990234375 3301.110107421875 2299.489990234375 3300.840087890625 2300.2099609375 3300.840087890625 C 2300.2099609375 3300.840087890625 2300.320068359375 3300.840087890625 2300.429931640625 3300.85009765625 C 2300.429931640625 3300.85009765625 2300.550048828125 3300.860107421875 2300.7099609375 3300.889892578125 Z M 2301.64990234375 3304.6201171875 L 2301.64990234375 3300.97998046875 L 2302.639892578125 3300.97998046875 L 2302.639892578125 3304.590087890625 C 2302.639892578125 3304.590087890625 2302.639892578125 3305.43994140625 2302.969970703125 3305.8701171875 C 2302.969970703125 3305.8701171875 2303.31005859375 3306.300048828125 2303.9599609375 3306.300048828125 C 2303.9599609375 3306.300048828125 2304.780029296875 3306.300048828125 2305.239990234375 3305.7900390625 C 2305.239990234375 3305.7900390625 2305.699951171875 3305.280029296875 2305.699951171875 3304.389892578125 L 2305.699951171875 3300.97998046875 L 2306.679931640625 3300.97998046875 L 2306.679931640625 3307.0 L 2305.699951171875 3307.0 L 2305.699951171875 3306.080078125 C 2305.699951171875 3306.080078125 2305.340087890625 3306.6201171875 2304.860107421875 3306.889892578125 C 2304.860107421875 3306.889892578125 2304.389892578125 3307.159912109375 2303.760009765625 3307.159912109375 C 2303.760009765625 3307.159912109375 2302.72998046875 3307.159912109375 2302.18994140625 3306.510009765625 Z M 2312.68994140625 3303.919921875 C 2312.68994140625 3303.919921875 2312.68994140625 3302.840087890625 2312.239990234375 3302.260009765625 C 2312.239990234375 3302.260009765625 2311.800048828125 3301.669921875 2311.0 3301.669921875 C 2311.0 3301.669921875 2310.199951171875 3301.669921875 2309.760009765625 3302.260009765625 C 2309.760009765625 3302.260009765625 2309.31005859375 3302.840087890625 2309.31005859375 3303.919921875 C 2309.31005859375 3303.919921875 2309.31005859375 3304.97998046875 2309.760009765625 3305.580078125 C 2309.760009765625 3305.580078125 2310.199951171875 3306.169921875 2311.0 3306.169921875 C 2311.0 3306.169921875 2311.800048828125 3306.169921875 2312.239990234375 3305.580078125 Z M 2313.669921875 3306.25 C 2313.669921875 3306.25 2313.669921875 3307.800048828125 2312.989990234375 3308.5400390625 C 2312.989990234375 3308.5400390625 2312.31005859375 3309.280029296875 2310.89990234375 3309.280029296875 C 2310.89990234375 3309.280029296875 2310.3701171875 3309.280029296875 2309.909912109375 3309.199951171875 C 2309.909912109375 3309.199951171875 2309.449951171875 3309.1201171875 2309.010009765625 3308.969970703125 L 2309.010009765625 3308.02001953125 C 2309.010009765625 3308.02001953125 2309.449951171875 3308.25 2309.8701171875 3308.360107421875 C 2309.8701171875 3308.360107421875 2310.300048828125 3308.469970703125 2310.75 3308.469970703125 C 2310.75 3308.469970703125 2311.719970703125 3308.469970703125 2312.199951171875 3307.9599609375 C 2312.199951171875 3307.9599609375 2312.68994140625 3307.449951171875 2312.68994140625 3306.43994140625 L 2312.68994140625 3305.93994140625 C 2312.68994140625 3305.93994140625 2312.3701171875 3306.469970703125 2311.89990234375 3306.72998046875 C 2311.89990234375 3306.72998046875 2311.419921875 3307.0 2310.75 3307.0 C 2310.75 3307.0 2309.639892578125 3307.0 2308.969970703125 3306.159912109375 C 2308.969970703125 3306.159912109375 2308.300048828125 3305.31005859375 2308.300048828125 3303.919921875 C 2308.300048828125 3303.919921875 2308.300048828125 3302.530029296875 2308.969970703125 3301.68994140625 C 2308.969970703125 3301.68994140625 2309.639892578125 3300.840087890625 2310.75 3300.840087890625 C 2310.75 3300.840087890625 2311.419921875 3300.840087890625 2311.89990234375 3301.10009765625 C 2311.89990234375 3301.10009765625 2312.3701171875 3301.360107421875 2312.68994140625 3301.889892578125 L 2312.68994140625 3300.97998046875 L 2313.669921875 3300.97998046875 Z M 2318.429931640625 3303.969970703125 C 2318.429931640625 3303.969970703125 2317.25 3303.969970703125 2316.7900390625 3304.25 C 2316.7900390625 3304.25 2316.320068359375 3304.530029296875 2316.320068359375 3305.18994140625 C 2316.320068359375 3305.18994140625 2316.320068359375 3305.699951171875 2316.669921875 3306.02001953125 C 2316.669921875 3306.02001953125 2317.010009765625 3306.330078125 2317.610107421875 3306.330078125 C 2317.610107421875 3306.330078125 2318.429931640625 3306.330078125 2318.929931640625 3305.739990234375 C 2318.929931640625 3305.739990234375 2319.419921875 3305.159912109375 2319.419921875 3304.199951171875 L 2319.419921875 3303.969970703125 Z M 2320.39990234375 3303.56005859375 L 2320.39990234375 3307.0 L 2319.419921875 3307.0 L 2319.419921875 3306.090087890625 C 2319.419921875 3306.090087890625 2319.090087890625 3306.639892578125 2318.580078125 3306.89990234375 C 2318.580078125 3306.89990234375 2318.070068359375 3307.159912109375 2317.340087890625 3307.159912109375 C 2317.340087890625 3307.159912109375 2316.419921875 3307.159912109375 2315.8701171875 3306.639892578125 C 2315.8701171875 3306.639892578125 2315.320068359375 3306.1201171875 2315.320068359375 3305.25 C 2315.320068359375 3305.25 2315.320068359375 3304.22998046875 2316.0 3303.719970703125 C 2316.0 3303.719970703125 2316.679931640625 3303.199951171875 2318.0400390625 3303.199951171875 L 2319.419921875 3303.199951171875 L 2319.419921875 3303.110107421875 C 2319.419921875 3303.110107421875 2319.419921875 3302.419921875 2318.969970703125 3302.050048828125 C 2318.969970703125 3302.050048828125 2318.530029296875 3301.669921875 2317.719970703125 3301.669921875 C 2317.719970703125 3301.669921875 2317.199951171875 3301.669921875 2316.7099609375 3301.800048828125 C 2316.7099609375 3301.800048828125 2316.219970703125 3301.919921875 2315.760009765625 3302.169921875 L 2315.760009765625 3301.27001953125 C 2315.760009765625 3301.27001953125 2316.31005859375 3301.050048828125 2316.820068359375 3300.949951171875 C 2316.820068359375 3300.949951171875 2317.340087890625 3300.840087890625 2317.81005859375 3300.840087890625 C 2317.81005859375 3300.840087890625 2319.1201171875 3300.840087890625 2319.760009765625 3301.52001953125 Z M 2327.43994140625 3303.3701171875 L 2327.43994140625 3307.0 L 2326.4599609375 3307.0 L 2326.4599609375 3303.409912109375 C 2326.4599609375 3303.409912109375 2326.4599609375 3302.550048828125 2326.1298828125 3302.1201171875 C 2326.1298828125 3302.1201171875 2325.800048828125 3301.699951171875 2325.1298828125 3301.699951171875 C 2325.1298828125 3301.699951171875 2324.330078125 3301.699951171875 2323.8701171875 3302.2099609375 C 2323.8701171875 3302.2099609375 2323.409912109375 3302.719970703125 2323.409912109375 3303.590087890625 L 2323.409912109375 3307.0 L 2322.409912109375 3307.0 L 2322.409912109375 3300.97998046875 L 2323.409912109375 3300.97998046875 L 2323.409912109375 3301.919921875 C 2323.409912109375 3301.919921875 2323.75 3301.3701171875 2324.239990234375 3301.110107421875 C 2324.239990234375 3301.110107421875 2324.719970703125 3300.840087890625 2325.35009765625 3300.840087890625 C 2325.35009765625 3300.840087890625 2326.3798828125 3300.840087890625 2326.909912109375 3301.47998046875 Z" stroke="black" fill="none" stroke-width="1" />
                </svg>