<svg xmlns="http://www.w3.org/2000/svg" width="154.2200927734375" height="9.079833984375" viewBox="1429.0899658203125 89.090087890625 154.2200927734375 9.079833984375">
                <rect x="1429.0899658203125" y="89.090087890625" width="154.2200927734375" height="9.079833984375" fill="white"/>
                <path d="M 1433.1099853515625 90.419921875 L 1431.5 94.77001953125 L 1434.719970703125 94.77001953125 Z M 1432.43994140625 89.25 L 1433.780029296875 89.25 L 1437.1099853515625 98.0 L 1435.8800048828125 98.0 L 1435.0799560546875 95.75 L 1431.1400146484375 95.75 L 1430.3399658203125 98.0 L 1429.0899658203125 98.0 Z M 1442.1500244140625 92.43994140625 C 1442.1500244140625 92.43994140625 1441.9599609375 92.340087890625 1441.75 92.2900390625 C 1441.75 92.2900390625 1441.5400390625 92.22998046875 1441.27001953125 92.22998046875 C 1441.27001953125 92.22998046875 1440.3699951171875 92.22998046875 1439.8699951171875 92.830078125 C 1439.8699951171875 92.830078125 1439.3800048828125 93.419921875 1439.3800048828125 94.550048828125 L 1439.3800048828125 98.0 L 1438.300048828125 98.0 L 1438.300048828125 91.43994140625 L 1439.3800048828125 91.43994140625 L 1439.3800048828125 92.449951171875 C 1439.3800048828125 92.449951171875 1439.719970703125 91.860107421875 1440.27001953125 91.570068359375 C 1440.27001953125 91.570068359375 1440.8199462890625 91.280029296875 1441.5999755859375 91.280029296875 C 1441.5999755859375 91.280029296875 1441.7099609375 91.280029296875 1441.8399658203125 91.300048828125 C 1441.8399658203125 91.300048828125 1441.969970703125 91.31005859375 1442.1300048828125 91.340087890625 Z M 1448.8900146484375 94.449951171875 L 1448.8900146484375 94.969970703125 L 1443.9200439453125 94.969970703125 C 1443.9200439453125 94.969970703125 1444.0 96.090087890625 1444.5999755859375 96.669921875 C 1444.5999755859375 96.669921875 1445.2099609375 97.25 1446.27001953125 97.25 C 1446.27001953125 97.25 1446.8900146484375 97.25 1447.47998046875 97.10009765625 C 1447.47998046875 97.10009765625 1448.06005859375 96.949951171875 1448.6400146484375 96.639892578125 L 1448.6400146484375 97.669921875 C 1448.6400146484375 97.669921875 1448.050048828125 97.909912109375 1447.43994140625 98.0400390625 C 1447.43994140625 98.0400390625 1446.8299560546875 98.169921875 1446.2099609375 98.169921875 C 1446.2099609375 98.169921875 1444.6400146484375 98.169921875 1443.719970703125 97.260009765625 C 1443.719970703125 97.260009765625 1442.800048828125 96.340087890625 1442.800048828125 94.780029296875 C 1442.800048828125 94.780029296875 1442.800048828125 93.169921875 1443.6700439453125 92.22998046875 C 1443.6700439453125 92.22998046875 1444.550048828125 91.280029296875 1446.02001953125 91.280029296875 C 1446.02001953125 91.280029296875 1447.3499755859375 91.280029296875 1448.1199951171875 92.1298828125 Z M 1447.81005859375 94.1201171875 C 1447.81005859375 94.1201171875 1447.800048828125 93.25 1447.31005859375 92.719970703125 C 1447.31005859375 92.719970703125 1446.8299560546875 92.18994140625 1446.030029296875 92.18994140625 C 1446.030029296875 92.18994140625 1445.1300048828125 92.18994140625 1444.5899658203125 92.699951171875 C 1444.5899658203125 92.699951171875 1444.050048828125 93.219970703125 1443.969970703125 94.139892578125 Z M 1453.6300048828125 94.699951171875 C 1453.6300048828125 94.699951171875 1452.3399658203125 94.699951171875 1451.8299560546875 95.0 C 1451.8299560546875 95.0 1451.3199462890625 95.300048828125 1451.3199462890625 96.02001953125 C 1451.3199462890625 96.02001953125 1451.3199462890625 96.590087890625 1451.7099609375 96.929931640625 C 1451.7099609375 96.929931640625 1452.0899658203125 97.27001953125 1452.72998046875 97.27001953125 C 1452.72998046875 97.27001953125 1453.6300048828125 97.27001953125 1454.1700439453125 96.6298828125 C 1454.1700439453125 96.6298828125 1454.7099609375 96.0 1454.7099609375 94.93994140625 L 1454.7099609375 94.699951171875 Z M 1455.7900390625 94.25 L 1455.7900390625 98.0 L 1454.7099609375 98.0 L 1454.7099609375 97.0 C 1454.7099609375 97.0 1454.3399658203125 97.590087890625 1453.7900390625 97.8798828125 C 1453.7900390625 97.8798828125 1453.239990234375 98.169921875 1452.449951171875 98.169921875 C 1452.449951171875 98.169921875 1451.4300537109375 98.169921875 1450.8399658203125 97.60009765625 C 1450.8399658203125 97.60009765625 1450.239990234375 97.030029296875 1450.239990234375 96.090087890625 C 1450.239990234375 96.090087890625 1450.239990234375 94.97998046875 1450.989990234375 94.419921875 C 1450.989990234375 94.419921875 1451.72998046875 93.860107421875 1453.199951171875 93.860107421875 L 1454.7099609375 93.860107421875 L 1454.7099609375 93.75 C 1454.7099609375 93.75 1454.7099609375 93.0 1454.219970703125 92.590087890625 C 1454.219970703125 92.590087890625 1453.72998046875 92.18994140625 1452.8499755859375 92.18994140625 C 1452.8499755859375 92.18994140625 1452.2900390625 92.18994140625 1451.75 92.330078125 C 1451.75 92.330078125 1451.2099609375 92.469970703125 1450.72998046875 92.72998046875 L 1450.72998046875 91.72998046875 C 1450.72998046875 91.72998046875 1451.3199462890625 91.5 1451.8800048828125 91.389892578125 C 1451.8800048828125 91.389892578125 1452.4300537109375 91.280029296875 1452.9599609375 91.280029296875 C 1452.9599609375 91.280029296875 1454.3800048828125 91.280029296875 1455.0899658203125 92.02001953125 Z M 1462.0999755859375 96.52001953125 L 1463.3299560546875 96.52001953125 L 1463.3299560546875 98.0 L 1462.0999755859375 98.0 Z M 1462.0999755859375 91.800048828125 L 1463.3299560546875 91.800048828125 L 1463.3299560546875 93.280029296875 L 1462.0999755859375 93.280029296875 Z M 1469.719970703125 89.25 L 1470.9100341796875 89.25 L 1470.9100341796875 92.840087890625 L 1475.2099609375 92.840087890625 L 1475.2099609375 89.25 L 1476.3900146484375 89.25 L 1476.3900146484375 98.0 L 1475.2099609375 98.0 L 1475.2099609375 93.830078125 L 1470.9100341796875 93.830078125 L 1470.9100341796875 98.0 L 1469.719970703125 98.0 Z M 1484.3199462890625 94.449951171875 L 1484.3199462890625 94.969970703125 L 1479.3599853515625 94.969970703125 C 1479.3599853515625 94.969970703125 1479.4300537109375 96.090087890625 1480.0400390625 96.669921875 C 1480.0400390625 96.669921875 1480.6400146484375 97.25 1481.699951171875 97.25 C 1481.699951171875 97.25 1482.3199462890625 97.25 1482.9100341796875 97.10009765625 C 1482.9100341796875 97.10009765625 1483.5 96.949951171875 1484.0699462890625 96.639892578125 L 1484.0699462890625 97.669921875 C 1484.0699462890625 97.669921875 1483.47998046875 97.909912109375 1482.8699951171875 98.0400390625 C 1482.8699951171875 98.0400390625 1482.260009765625 98.169921875 1481.6400146484375 98.169921875 C 1481.6400146484375 98.169921875 1480.0699462890625 98.169921875 1479.1500244140625 97.260009765625 C 1479.1500244140625 97.260009765625 1478.22998046875 96.340087890625 1478.22998046875 94.780029296875 C 1478.22998046875 94.780029296875 1478.22998046875 93.169921875 1479.1099853515625 92.22998046875 C 1479.1099853515625 92.22998046875 1479.97998046875 91.280029296875 1481.449951171875 91.280029296875 C 1481.449951171875 91.280029296875 1482.780029296875 91.280029296875 1483.550048828125 92.1298828125 Z M 1483.25 94.1201171875 C 1483.25 94.1201171875 1483.22998046875 93.25 1482.75 92.719970703125 C 1482.75 92.719970703125 1482.260009765625 92.18994140625 1481.4599609375 92.18994140625 C 1481.4599609375 92.18994140625 1480.56005859375 92.18994140625 1480.02001953125 92.699951171875 C 1480.02001953125 92.699951171875 1479.47998046875 93.219970703125 1479.4000244140625 94.139892578125 Z M 1490.8199462890625 91.68994140625 L 1490.8199462890625 92.699951171875 C 1490.8199462890625 92.699951171875 1490.3499755859375 92.43994140625 1489.8900146484375 92.31005859375 C 1489.8900146484375 92.31005859375 1489.43994140625 92.18994140625 1488.969970703125 92.18994140625 C 1488.969970703125 92.18994140625 1487.9100341796875 92.18994140625 1487.3299560546875 92.85009765625 C 1487.3299560546875 92.85009765625 1486.75 93.52001953125 1486.75 94.719970703125 C 1486.75 94.719970703125 1486.75 95.919921875 1487.3299560546875 96.590087890625 C 1487.3299560546875 96.590087890625 1487.9100341796875 97.25 1488.969970703125 97.25 C 1488.969970703125 97.25 1489.43994140625 97.25 1489.8900146484375 97.1201171875 C 1489.8900146484375 97.1201171875 1490.3499755859375 97.0 1490.8199462890625 96.75 L 1490.8199462890625 97.75 C 1490.8199462890625 97.75 1490.3599853515625 97.949951171875 1489.8800048828125 98.06005859375 C 1489.8800048828125 98.06005859375 1489.3900146484375 98.169921875 1488.8499755859375 98.169921875 C 1488.8499755859375 98.169921875 1487.3599853515625 98.169921875 1486.489990234375 97.239990234375 C 1486.489990234375 97.239990234375 1485.6099853515625 96.31005859375 1485.6099853515625 94.719970703125 C 1485.6099853515625 94.719970703125 1485.6099853515625 93.1201171875 1486.5 92.199951171875 C 1486.5 92.199951171875 1487.3800048828125 91.280029296875 1488.9300537109375 91.280029296875 C 1488.9300537109375 91.280029296875 1489.4100341796875 91.280029296875 1489.8900146484375 91.3798828125 Z M 1493.760009765625 89.580078125 L 1493.760009765625 91.43994140625 L 1495.97998046875 91.43994140625 L 1495.97998046875 92.280029296875 L 1493.760009765625 92.280029296875 L 1493.760009765625 95.840087890625 C 1493.760009765625 95.840087890625 1493.760009765625 96.639892578125 1493.97998046875 96.8701171875 C 1493.97998046875 96.8701171875 1494.199951171875 97.090087890625 1494.8699951171875 97.090087890625 L 1495.97998046875 97.090087890625 L 1495.97998046875 98.0 L 1494.8699951171875 98.0 C 1494.8699951171875 98.0 1493.6199951171875 98.0 1493.1400146484375 97.530029296875 C 1493.1400146484375 97.530029296875 1492.6600341796875 97.06005859375 1492.6600341796875 95.840087890625 L 1492.6600341796875 92.280029296875 L 1491.8800048828125 92.280029296875 L 1491.8800048828125 91.43994140625 L 1492.6600341796875 91.43994140625 L 1492.6600341796875 89.580078125 Z M 1503.8900146484375 90.030029296875 C 1503.8900146484375 90.030029296875 1502.97998046875 90.030029296875 1502.52001953125 90.929931640625 C 1502.52001953125 90.929931640625 1502.06005859375 91.830078125 1502.06005859375 93.639892578125 C 1502.06005859375 93.639892578125 1502.06005859375 95.43994140625 1502.52001953125 96.340087890625 C 1502.52001953125 96.340087890625 1502.97998046875 97.22998046875 1503.8900146484375 97.22998046875 C 1503.8900146484375 97.22998046875 1504.81005859375 97.22998046875 1505.27001953125 96.340087890625 C 1505.27001953125 96.340087890625 1505.72998046875 95.43994140625 1505.72998046875 93.639892578125 C 1505.72998046875 93.639892578125 1505.72998046875 91.830078125 1505.27001953125 90.929931640625 Z M 1503.8900146484375 89.090087890625 C 1503.8900146484375 89.090087890625 1505.3599853515625 89.090087890625 1506.1400146484375 90.260009765625 C 1506.1400146484375 90.260009765625 1506.9200439453125 91.419921875 1506.9200439453125 93.639892578125 C 1506.9200439453125 93.639892578125 1506.9200439453125 95.840087890625 1506.1400146484375 97.010009765625 C 1506.1400146484375 97.010009765625 1505.3599853515625 98.169921875 1503.8900146484375 98.169921875 C 1503.8900146484375 98.169921875 1502.4200439453125 98.169921875 1501.6400146484375 97.010009765625 C 1501.6400146484375 97.010009765625 1500.8699951171875 95.840087890625 1500.8699951171875 93.639892578125 C 1500.8699951171875 93.639892578125 1500.8699951171875 91.419921875 1501.6400146484375 90.260009765625 Z M 1510.010009765625 97.0 L 1514.1500244140625 97.0 L 1514.1500244140625 98.0 L 1508.5799560546875 98.0 L 1508.5799560546875 97.0 C 1508.5799560546875 97.0 1509.260009765625 96.31005859375 1510.4200439453125 95.1298828125 C 1510.4200439453125 95.1298828125 1511.5799560546875 93.949951171875 1511.8800048828125 93.610107421875 C 1511.8800048828125 93.610107421875 1512.4599609375 92.97998046875 1512.68994140625 92.5400390625 C 1512.68994140625 92.5400390625 1512.9100341796875 92.090087890625 1512.9100341796875 91.669921875 C 1512.9100341796875 91.669921875 1512.9100341796875 90.969970703125 1512.4200439453125 90.530029296875 C 1512.4200439453125 90.530029296875 1511.9300537109375 90.090087890625 1511.1500244140625 90.090087890625 C 1511.1500244140625 90.090087890625 1510.5799560546875 90.090087890625 1509.969970703125 90.280029296875 C 1509.969970703125 90.280029296875 1509.3499755859375 90.469970703125 1508.6500244140625 90.8701171875 L 1508.6500244140625 89.669921875 C 1508.6500244140625 89.669921875 1509.3699951171875 89.389892578125 1509.97998046875 89.239990234375 C 1509.97998046875 89.239990234375 1510.5999755859375 89.090087890625 1511.1199951171875 89.090087890625 C 1511.1199951171875 89.090087890625 1512.469970703125 89.090087890625 1513.2900390625 89.77001953125 C 1513.2900390625 89.77001953125 1514.0999755859375 90.449951171875 1514.0999755859375 91.590087890625 C 1514.0999755859375 91.590087890625 1514.0999755859375 92.1201171875 1513.9000244140625 92.610107421875 C 1513.9000244140625 92.610107421875 1513.68994140625 93.090087890625 1513.1600341796875 93.75 C 1513.1600341796875 93.75 1513.010009765625 93.919921875 1512.219970703125 94.72998046875 Z M 1523.27001953125 90.419921875 L 1521.6600341796875 94.77001953125 L 1524.8800048828125 94.77001953125 Z M 1522.5999755859375 89.25 L 1523.93994140625 89.25 L 1527.27001953125 98.0 L 1526.030029296875 98.0 L 1525.239990234375 95.75 L 1521.300048828125 95.75 L 1520.5 98.0 L 1519.25 98.0 Z M 1532.300048828125 92.43994140625 C 1532.300048828125 92.43994140625 1532.1199951171875 92.340087890625 1531.9100341796875 92.2900390625 C 1531.9100341796875 92.2900390625 1531.699951171875 92.22998046875 1531.4300537109375 92.22998046875 C 1531.4300537109375 92.22998046875 1530.52001953125 92.22998046875 1530.030029296875 92.830078125 C 1530.030029296875 92.830078125 1529.5400390625 93.419921875 1529.5400390625 94.550048828125 L 1529.5400390625 98.0 L 1528.4599609375 98.0 L 1528.4599609375 91.43994140625 L 1529.5400390625 91.43994140625 L 1529.5400390625 92.449951171875 C 1529.5400390625 92.449951171875 1529.8800048828125 91.860107421875 1530.4300537109375 91.570068359375 C 1530.4300537109375 91.570068359375 1530.97998046875 91.280029296875 1531.760009765625 91.280029296875 C 1531.760009765625 91.280029296875 1531.8699951171875 91.280029296875 1532.0 91.300048828125 C 1532.0 91.300048828125 1532.1300048828125 91.31005859375 1532.2900390625 91.340087890625 Z M 1539.050048828125 94.449951171875 L 1539.050048828125 94.969970703125 L 1534.0799560546875 94.969970703125 C 1534.0799560546875 94.969970703125 1534.1600341796875 96.090087890625 1534.760009765625 96.669921875 C 1534.760009765625 96.669921875 1535.3599853515625 97.25 1536.4300537109375 97.25 C 1536.4300537109375 97.25 1537.050048828125 97.25 1537.6400146484375 97.10009765625 C 1537.6400146484375 97.10009765625 1538.219970703125 96.949951171875 1538.800048828125 96.639892578125 L 1538.800048828125 97.669921875 C 1538.800048828125 97.669921875 1538.2099609375 97.909912109375 1537.5999755859375 98.0400390625 C 1537.5999755859375 98.0400390625 1536.989990234375 98.169921875 1536.3599853515625 98.169921875 C 1536.3599853515625 98.169921875 1534.800048828125 98.169921875 1533.8800048828125 97.260009765625 C 1533.8800048828125 97.260009765625 1532.9599609375 96.340087890625 1532.9599609375 94.780029296875 C 1532.9599609375 94.780029296875 1532.9599609375 93.169921875 1533.8299560546875 92.22998046875 C 1533.8299560546875 92.22998046875 1534.7099609375 91.280029296875 1536.1800537109375 91.280029296875 C 1536.1800537109375 91.280029296875 1537.5 91.280029296875 1538.280029296875 92.1298828125 Z M 1537.969970703125 94.1201171875 C 1537.969970703125 94.1201171875 1537.9599609375 93.25 1537.469970703125 92.719970703125 C 1537.469970703125 92.719970703125 1536.989990234375 92.18994140625 1536.18994140625 92.18994140625 C 1536.18994140625 92.18994140625 1535.2900390625 92.18994140625 1534.75 92.699951171875 C 1534.75 92.699951171875 1534.2099609375 93.219970703125 1534.1300048828125 94.139892578125 Z M 1545.0 91.6201171875 L 1545.0 92.659912109375 C 1545.0 92.659912109375 1544.5400390625 92.419921875 1544.050048828125 92.300048828125 C 1544.050048828125 92.300048828125 1543.56005859375 92.18994140625 1543.030029296875 92.18994140625 C 1543.030029296875 92.18994140625 1542.22998046875 92.18994140625 1541.8199462890625 92.429931640625 C 1541.8199462890625 92.429931640625 1541.4200439453125 92.669921875 1541.4200439453125 93.169921875 C 1541.4200439453125 93.169921875 1541.4200439453125 93.550048828125 1541.7099609375 93.760009765625 C 1541.7099609375 93.760009765625 1542.0 93.969970703125 1542.8699951171875 94.159912109375 L 1543.22998046875 94.25 C 1543.22998046875 94.25 1544.3900146484375 94.47998046875 1544.8699951171875 94.93994140625 C 1544.8699951171875 94.93994140625 1545.3599853515625 95.389892578125 1545.3599853515625 96.18994140625 C 1545.3599853515625 96.18994140625 1545.3599853515625 97.110107421875 1544.6300048828125 97.639892578125 C 1544.6300048828125 97.639892578125 1543.9000244140625 98.169921875 1542.6400146484375 98.169921875 C 1542.6400146484375 98.169921875 1542.1099853515625 98.169921875 1541.5400390625 98.070068359375 C 1541.5400390625 98.070068359375 1540.9599609375 97.969970703125 1540.3399658203125 97.77001953125 L 1540.3399658203125 96.639892578125 C 1540.3399658203125 96.639892578125 1540.9300537109375 96.949951171875 1541.510009765625 97.110107421875 C 1541.510009765625 97.110107421875 1542.0899658203125 97.27001953125 1542.6700439453125 97.27001953125 C 1542.6700439453125 97.27001953125 1543.4200439453125 97.27001953125 1543.8299560546875 97.010009765625 C 1543.8299560546875 97.010009765625 1544.25 96.75 1544.25 96.27001953125 C 1544.25 96.27001953125 1544.25 95.830078125 1543.949951171875 95.590087890625 C 1543.949951171875 95.590087890625 1543.6500244140625 95.360107421875 1542.6500244140625 95.139892578125 L 1542.280029296875 95.06005859375 C 1542.280029296875 95.06005859375 1541.280029296875 94.840087890625 1540.8299560546875 94.409912109375 C 1540.8299560546875 94.409912109375 1540.3900146484375 93.969970703125 1540.3900146484375 93.219970703125 C 1540.3900146484375 93.219970703125 1540.3900146484375 92.280029296875 1541.0400390625 91.780029296875 C 1541.0400390625 91.780029296875 1541.699951171875 91.280029296875 1542.9000244140625 91.280029296875 C 1542.9000244140625 91.280029296875 1543.5 91.280029296875 1544.030029296875 91.3701171875 Z M 1551.22998046875 97.0 L 1553.1700439453125 97.0 L 1553.1700439453125 90.330078125 L 1551.06005859375 90.75 L 1551.06005859375 89.669921875 L 1553.1600341796875 89.25 L 1554.3399658203125 89.25 L 1554.3399658203125 97.0 L 1556.280029296875 97.0 L 1556.280029296875 98.0 L 1551.22998046875 98.0 Z M 1561.199951171875 90.030029296875 C 1561.199951171875 90.030029296875 1560.2900390625 90.030029296875 1559.8299560546875 90.929931640625 C 1559.8299560546875 90.929931640625 1559.3699951171875 91.830078125 1559.3699951171875 93.639892578125 C 1559.3699951171875 93.639892578125 1559.3699951171875 95.43994140625 1559.8299560546875 96.340087890625 C 1559.8299560546875 96.340087890625 1560.2900390625 97.22998046875 1561.199951171875 97.22998046875 C 1561.199951171875 97.22998046875 1562.1199951171875 97.22998046875 1562.5799560546875 96.340087890625 C 1562.5799560546875 96.340087890625 1563.0400390625 95.43994140625 1563.0400390625 93.639892578125 C 1563.0400390625 93.639892578125 1563.0400390625 91.830078125 1562.5799560546875 90.929931640625 Z M 1561.199951171875 89.090087890625 C 1561.199951171875 89.090087890625 1562.6700439453125 89.090087890625 1563.449951171875 90.260009765625 C 1563.449951171875 90.260009765625 1564.22998046875 91.419921875 1564.22998046875 93.639892578125 C 1564.22998046875 93.639892578125 1564.22998046875 95.840087890625 1563.449951171875 97.010009765625 C 1563.449951171875 97.010009765625 1562.6700439453125 98.169921875 1561.199951171875 98.169921875 C 1561.199951171875 98.169921875 1559.72998046875 98.169921875 1558.9599609375 97.010009765625 C 1558.9599609375 97.010009765625 1558.1800537109375 95.840087890625 1558.1800537109375 93.639892578125 C 1558.1800537109375 93.639892578125 1558.1800537109375 91.419921875 1558.9599609375 90.260009765625 Z M 1566.300048828125 96.52001953125 L 1567.5400390625 96.52001953125 L 1567.5400390625 98.0 L 1566.300048828125 98.0 Z M 1570.1300048828125 89.25 L 1574.77001953125 89.25 L 1574.77001953125 90.25 L 1571.2099609375 90.25 L 1571.2099609375 92.389892578125 C 1571.2099609375 92.389892578125 1571.469970703125 92.300048828125 1571.72998046875 92.260009765625 C 1571.72998046875 92.260009765625 1571.989990234375 92.219970703125 1572.239990234375 92.219970703125 C 1572.239990234375 92.219970703125 1573.7099609375 92.219970703125 1574.5699462890625 93.02001953125 C 1574.5699462890625 93.02001953125 1575.4300537109375 93.830078125 1575.4300537109375 95.18994140625 C 1575.4300537109375 95.18994140625 1575.4300537109375 96.610107421875 1574.5400390625 97.389892578125 C 1574.5400390625 97.389892578125 1573.6600341796875 98.169921875 1572.0699462890625 98.169921875 C 1572.0699462890625 98.169921875 1571.510009765625 98.169921875 1570.93994140625 98.080078125 C 1570.93994140625 98.080078125 1570.3699951171875 97.97998046875 1569.760009765625 97.800048828125 L 1569.760009765625 96.610107421875 C 1569.760009765625 96.610107421875 1570.2900390625 96.889892578125 1570.8499755859375 97.030029296875 C 1570.8499755859375 97.030029296875 1571.4100341796875 97.169921875 1572.0400390625 97.169921875 C 1572.0400390625 97.169921875 1573.050048828125 97.169921875 1573.6500244140625 96.639892578125 C 1573.6500244140625 96.639892578125 1574.239990234375 96.110107421875 1574.239990234375 95.18994140625 C 1574.239990234375 95.18994140625 1574.239990234375 94.280029296875 1573.6500244140625 93.75 C 1573.6500244140625 93.75 1573.050048828125 93.219970703125 1572.0400390625 93.219970703125 C 1572.0400390625 93.219970703125 1571.5699462890625 93.219970703125 1571.0899658203125 93.320068359375 C 1571.0899658203125 93.320068359375 1570.6199951171875 93.419921875 1570.1300048828125 93.639892578125 Z M 1580.280029296875 90.030029296875 C 1580.280029296875 90.030029296875 1579.3800048828125 90.030029296875 1578.9100341796875 90.929931640625 C 1578.9100341796875 90.929931640625 1578.449951171875 91.830078125 1578.449951171875 93.639892578125 C 1578.449951171875 93.639892578125 1578.449951171875 95.43994140625 1578.9100341796875 96.340087890625 C 1578.9100341796875 96.340087890625 1579.3800048828125 97.22998046875 1580.280029296875 97.22998046875 C 1580.280029296875 97.22998046875 1581.199951171875 97.22998046875 1581.6600341796875 96.340087890625 C 1581.6600341796875 96.340087890625 1582.1300048828125 95.43994140625 1582.1300048828125 93.639892578125 C 1582.1300048828125 93.639892578125 1582.1300048828125 91.830078125 1581.6600341796875 90.929931640625 Z M 1580.280029296875 89.090087890625 C 1580.280029296875 89.090087890625 1581.75 89.090087890625 1582.530029296875 90.260009765625 C 1582.530029296875 90.260009765625 1583.31005859375 91.419921875 1583.31005859375 93.639892578125 C 1583.31005859375 93.639892578125 1583.31005859375 95.840087890625 1582.530029296875 97.010009765625 C 1582.530029296875 97.010009765625 1581.75 98.169921875 1580.280029296875 98.169921875 C 1580.280029296875 98.169921875 1578.81005859375 98.169921875 1578.0400390625 97.010009765625 C 1578.0400390625 97.010009765625 1577.27001953125 95.840087890625 1577.27001953125 93.639892578125 C 1577.27001953125 93.639892578125 1577.27001953125 91.419921875 1578.0400390625 90.260009765625 Z" stroke="black" fill="none" stroke-width="1" />
                </svg>