<svg xmlns="http://www.w3.org/2000/svg" width="87.18994140625" height="11.409912109375" viewBox="1429.800048828125 61.090087890625 87.18994140625 11.409912109375">
                <rect x="1429.800048828125" y="61.090087890625" width="87.18994140625" height="11.409912109375" fill="white"/>
                <path d="M 1435.4200439453125 61.530029296875 L 1435.4200439453125 62.68994140625 C 1435.4200439453125 62.68994140625 1434.75 62.3701171875 1434.1500244140625 62.2099609375 C 1434.1500244140625 62.2099609375 1433.550048828125 62.050048828125 1433.0 62.050048828125 C 1433.0 62.050048828125 1432.030029296875 62.050048828125 1431.510009765625 62.419921875 C 1431.510009765625 62.419921875 1430.97998046875 62.800048828125 1430.97998046875 63.5 C 1430.97998046875 63.5 1430.97998046875 64.080078125 1431.3299560546875 64.3701171875 C 1431.3299560546875 64.3701171875 1431.6700439453125 64.669921875 1432.6600341796875 64.840087890625 L 1433.3599853515625 65.0 C 1433.3599853515625 65.0 1434.68994140625 65.25 1435.3199462890625 65.8798828125 C 1435.3199462890625 65.8798828125 1435.949951171875 66.52001953125 1435.949951171875 67.580078125 C 1435.949951171875 67.580078125 1435.949951171875 68.860107421875 1435.0999755859375 69.52001953125 C 1435.0999755859375 69.52001953125 1434.25 70.169921875 1432.5899658203125 70.169921875 C 1432.5899658203125 70.169921875 1431.97998046875 70.169921875 1431.280029296875 70.030029296875 C 1431.280029296875 70.030029296875 1430.5799560546875 69.889892578125 1429.8299560546875 69.610107421875 L 1429.8299560546875 68.389892578125 C 1429.8299560546875 68.389892578125 1430.550048828125 68.800048828125 1431.239990234375 69.0 C 1431.239990234375 69.0 1431.93994140625 69.199951171875 1432.5899658203125 69.199951171875 C 1432.5899658203125 69.199951171875 1433.6099853515625 69.199951171875 1434.1600341796875 68.800048828125 C 1434.1600341796875 68.800048828125 1434.719970703125 68.409912109375 1434.719970703125 67.669921875 C 1434.719970703125 67.669921875 1434.719970703125 67.030029296875 1434.3199462890625 66.659912109375 C 1434.3199462890625 66.659912109375 1433.9200439453125 66.300048828125 1433.02001953125 66.1201171875 L 1432.300048828125 65.97998046875 C 1432.300048828125 65.97998046875 1430.969970703125 65.719970703125 1430.3800048828125 65.159912109375 C 1430.3800048828125 65.159912109375 1429.800048828125 64.590087890625 1429.800048828125 63.590087890625 C 1429.800048828125 63.590087890625 1429.800048828125 62.419921875 1430.6099853515625 61.760009765625 C 1430.6099853515625 61.760009765625 1431.4200439453125 61.090087890625 1432.8599853515625 61.090087890625 C 1432.8599853515625 61.090087890625 1433.47998046875 61.090087890625 1434.1199951171875 61.199951171875 Z M 1437.6300048828125 67.409912109375 L 1437.6300048828125 63.43994140625 L 1438.7099609375 63.43994140625 L 1438.7099609375 67.3701171875 C 1438.7099609375 67.3701171875 1438.7099609375 68.300048828125 1439.0799560546875 68.77001953125 C 1439.0799560546875 68.77001953125 1439.449951171875 69.22998046875 1440.1600341796875 69.22998046875 C 1440.1600341796875 69.22998046875 1441.0400390625 69.22998046875 1441.550048828125 68.679931640625 C 1441.550048828125 68.679931640625 1442.050048828125 68.1201171875 1442.050048828125 67.159912109375 L 1442.050048828125 63.43994140625 L 1443.1300048828125 63.43994140625 L 1443.1300048828125 70.0 L 1442.050048828125 70.0 L 1442.050048828125 68.97998046875 C 1442.050048828125 68.97998046875 1441.6600341796875 69.590087890625 1441.1500244140625 69.8798828125 C 1441.1500244140625 69.8798828125 1440.6300048828125 70.169921875 1439.949951171875 70.169921875 C 1439.949951171875 70.169921875 1438.800048828125 70.169921875 1438.219970703125 69.469970703125 Z M 1449.1600341796875 64.43994140625 C 1449.1600341796875 64.43994140625 1448.969970703125 64.340087890625 1448.760009765625 64.2900390625 C 1448.760009765625 64.2900390625 1448.550048828125 64.22998046875 1448.2900390625 64.22998046875 C 1448.2900390625 64.22998046875 1447.3800048828125 64.22998046875 1446.8900146484375 64.830078125 C 1446.8900146484375 64.830078125 1446.3900146484375 65.419921875 1446.3900146484375 66.550048828125 L 1446.3900146484375 70.0 L 1445.3199462890625 70.0 L 1445.3199462890625 63.43994140625 L 1446.3900146484375 63.43994140625 L 1446.3900146484375 64.449951171875 C 1446.3900146484375 64.449951171875 1446.739990234375 63.860107421875 1447.2900390625 63.570068359375 C 1447.2900390625 63.570068359375 1447.8299560546875 63.280029296875 1448.6099853515625 63.280029296875 C 1448.6099853515625 63.280029296875 1448.719970703125 63.280029296875 1448.8599853515625 63.300048828125 C 1448.8599853515625 63.300048828125 1448.989990234375 63.31005859375 1449.1400146484375 63.340087890625 Z M 1449.52001953125 63.43994140625 L 1450.6600341796875 63.43994140625 L 1452.699951171875 68.93994140625 L 1454.77001953125 63.43994140625 L 1455.9100341796875 63.43994140625 L 1453.43994140625 70.0 L 1451.969970703125 70.0 Z M 1463.010009765625 66.449951171875 L 1463.010009765625 66.969970703125 L 1458.0400390625 66.969970703125 C 1458.0400390625 66.969970703125 1458.1199951171875 68.090087890625 1458.719970703125 68.669921875 C 1458.719970703125 68.669921875 1459.3199462890625 69.25 1460.3800048828125 69.25 C 1460.3800048828125 69.25 1461.010009765625 69.25 1461.5899658203125 69.10009765625 C 1461.5899658203125 69.10009765625 1462.1800537109375 68.949951171875 1462.760009765625 68.639892578125 L 1462.760009765625 69.669921875 C 1462.760009765625 69.669921875 1462.1600341796875 69.909912109375 1461.550048828125 70.0400390625 C 1461.550048828125 70.0400390625 1460.949951171875 70.169921875 1460.3199462890625 70.169921875 C 1460.3199462890625 70.169921875 1458.760009765625 70.169921875 1457.8399658203125 69.260009765625 C 1457.8399658203125 69.260009765625 1456.9100341796875 68.340087890625 1456.9100341796875 66.780029296875 C 1456.9100341796875 66.780029296875 1456.9100341796875 65.169921875 1457.7900390625 64.22998046875 C 1457.7900390625 64.22998046875 1458.6600341796875 63.280029296875 1460.1300048828125 63.280029296875 C 1460.1300048828125 63.280029296875 1461.4599609375 63.280029296875 1462.22998046875 64.1298828125 Z M 1461.9300537109375 66.1201171875 C 1461.9300537109375 66.1201171875 1461.9100341796875 65.25 1461.4300537109375 64.719970703125 C 1461.4300537109375 64.719970703125 1460.949951171875 64.18994140625 1460.1500244140625 64.18994140625 C 1460.1500244140625 64.18994140625 1459.239990234375 64.18994140625 1458.699951171875 64.699951171875 C 1458.699951171875 64.699951171875 1458.1600341796875 65.219970703125 1458.0899658203125 66.139892578125 Z M 1467.5 70.610107421875 C 1467.5 70.610107421875 1467.050048828125 71.780029296875 1466.6099853515625 72.139892578125 C 1466.6099853515625 72.139892578125 1466.1700439453125 72.5 1465.449951171875 72.5 L 1464.5899658203125 72.5 L 1464.5899658203125 71.590087890625 L 1465.219970703125 71.590087890625 C 1465.219970703125 71.590087890625 1465.6700439453125 71.590087890625 1465.9100341796875 71.3798828125 C 1465.9100341796875 71.3798828125 1466.1600341796875 71.169921875 1466.449951171875 70.389892578125 L 1466.6600341796875 69.889892578125 L 1464.0 63.43994140625 L 1465.1400146484375 63.43994140625 L 1467.18994140625 68.56005859375 L 1469.25 63.43994140625 L 1470.3900146484375 63.43994140625 Z M 1475.72998046875 61.25 L 1477.3199462890625 61.25 L 1481.2099609375 68.56005859375 L 1481.2099609375 61.25 L 1482.3499755859375 61.25 L 1482.3499755859375 70.0 L 1480.760009765625 70.0 L 1476.8800048828125 62.68994140625 L 1476.8800048828125 70.0 L 1475.72998046875 70.0 Z M 1487.2099609375 64.18994140625 C 1487.2099609375 64.18994140625 1486.3499755859375 64.18994140625 1485.8399658203125 64.8701171875 C 1485.8399658203125 64.8701171875 1485.3299560546875 65.550048828125 1485.3299560546875 66.719970703125 C 1485.3299560546875 66.719970703125 1485.3299560546875 67.909912109375 1485.8299560546875 68.580078125 C 1485.8299560546875 68.580078125 1486.3299560546875 69.25 1487.2099609375 69.25 C 1487.2099609375 69.25 1488.06005859375 69.25 1488.5699462890625 68.570068359375 C 1488.5699462890625 68.570068359375 1489.0799560546875 67.889892578125 1489.0799560546875 66.719970703125 C 1489.0799560546875 66.719970703125 1489.0799560546875 65.56005859375 1488.5699462890625 64.8701171875 Z M 1487.2099609375 63.280029296875 C 1487.2099609375 63.280029296875 1488.6099853515625 63.280029296875 1489.4200439453125 64.199951171875 C 1489.4200439453125 64.199951171875 1490.219970703125 65.110107421875 1490.219970703125 66.719970703125 C 1490.219970703125 66.719970703125 1490.219970703125 68.330078125 1489.4200439453125 69.25 C 1489.4200439453125 69.25 1488.6099853515625 70.169921875 1487.2099609375 70.169921875 C 1487.2099609375 70.169921875 1485.800048828125 70.169921875 1484.989990234375 69.25 C 1484.989990234375 69.25 1484.18994140625 68.330078125 1484.18994140625 66.719970703125 C 1484.18994140625 66.719970703125 1484.18994140625 65.110107421875 1484.989990234375 64.199951171875 Z M 1496.0999755859375 68.52001953125 L 1497.3299560546875 68.52001953125 L 1497.3299560546875 70.0 L 1496.0999755859375 70.0 Z M 1496.0999755859375 63.800048828125 L 1497.3299560546875 63.800048828125 L 1497.3299560546875 65.280029296875 L 1496.0999755859375 65.280029296875 Z M 1503.530029296875 61.25 L 1509.1600341796875 61.25 L 1509.1600341796875 61.75 L 1505.97998046875 70.0 L 1504.75 70.0 L 1507.72998046875 62.25 L 1503.530029296875 62.25 Z M 1513.989990234375 65.840087890625 C 1513.989990234375 65.840087890625 1513.1500244140625 65.840087890625 1512.6700439453125 66.300048828125 C 1512.6700439453125 66.300048828125 1512.1800537109375 66.75 1512.1800537109375 67.530029296875 C 1512.1800537109375 67.530029296875 1512.1800537109375 68.330078125 1512.6700439453125 68.780029296875 C 1512.6700439453125 68.780029296875 1513.1500244140625 69.22998046875 1513.989990234375 69.22998046875 C 1513.989990234375 69.22998046875 1514.8399658203125 69.22998046875 1515.3199462890625 68.780029296875 C 1515.3199462890625 68.780029296875 1515.81005859375 68.330078125 1515.81005859375 67.530029296875 C 1515.81005859375 67.530029296875 1515.81005859375 66.75 1515.3299560546875 66.300048828125 Z M 1512.81005859375 65.340087890625 C 1512.81005859375 65.340087890625 1512.06005859375 65.159912109375 1511.6300048828125 64.6298828125 C 1511.6300048828125 64.6298828125 1511.199951171875 64.110107421875 1511.199951171875 63.360107421875 C 1511.199951171875 63.360107421875 1511.199951171875 62.31005859375 1511.949951171875 61.699951171875 C 1511.949951171875 61.699951171875 1512.699951171875 61.090087890625 1513.989990234375 61.090087890625 C 1513.989990234375 61.090087890625 1515.31005859375 61.090087890625 1516.050048828125 61.699951171875 C 1516.050048828125 61.699951171875 1516.7900390625 62.31005859375 1516.7900390625 63.360107421875 C 1516.7900390625 63.360107421875 1516.7900390625 64.110107421875 1516.3699951171875 64.6298828125 C 1516.3699951171875 64.6298828125 1515.949951171875 65.159912109375 1515.1800537109375 65.340087890625 C 1515.1800537109375 65.340087890625 1516.0400390625 65.550048828125 1516.52001953125 66.1201171875 C 1516.52001953125 66.1201171875 1516.989990234375 66.699951171875 1516.989990234375 67.530029296875 C 1516.989990234375 67.530029296875 1516.989990234375 68.81005859375 1516.219970703125 69.489990234375 C 1516.219970703125 69.489990234375 1515.449951171875 70.169921875 1513.989990234375 70.169921875 C 1513.989990234375 70.169921875 1512.56005859375 70.169921875 1511.780029296875 69.489990234375 C 1511.780029296875 69.489990234375 1510.989990234375 68.81005859375 1510.989990234375 67.530029296875 C 1510.989990234375 67.530029296875 1510.989990234375 66.699951171875 1511.47998046875 66.1201171875 Z M 1512.3800048828125 63.469970703125 C 1512.3800048828125 63.469970703125 1512.3800048828125 64.159912109375 1512.81005859375 64.530029296875 C 1512.81005859375 64.530029296875 1513.22998046875 64.909912109375 1513.989990234375 64.909912109375 C 1513.989990234375 64.909912109375 1514.760009765625 64.909912109375 1515.18994140625 64.530029296875 C 1515.18994140625 64.530029296875 1515.6199951171875 64.159912109375 1515.6199951171875 63.469970703125 C 1515.6199951171875 63.469970703125 1515.6199951171875 62.800048828125 1515.18994140625 62.409912109375 C 1515.18994140625 62.409912109375 1514.760009765625 62.030029296875 1513.989990234375 62.030029296875 C 1513.989990234375 62.030029296875 1513.22998046875 62.030029296875 1512.81005859375 62.409912109375 Z" stroke="black" fill="none" stroke-width="1" />
                </svg>