<svg xmlns="http://www.w3.org/2000/svg" width="3.22998046875" height="5.199951171875" viewBox="768.52001953125 1885.800048828125 3.22998046875 5.199951171875">
                <rect x="768.52001953125" y="1885.800048828125" width="3.22998046875" height="5.199951171875" fill="white"/>
                <path d="M 769.3400268554688 1890.4200439453125 L 771.75 1890.4200439453125 L 771.75 1891.0 L 768.52001953125 1891.0 L 768.52001953125 1890.4200439453125 C 768.52001953125 1890.4200439453125 768.9099731445312 1890.02001953125 769.5900268554688 1889.3299560546875 C 769.5900268554688 1889.3299560546875 770.27001953125 1888.6400146484375 770.4400024414062 1888.43994140625 C 770.4400024414062 1888.43994140625 770.77001953125 1888.0799560546875 770.9000244140625 1887.81005859375 C 770.9000244140625 1887.81005859375 771.030029296875 1887.550048828125 771.030029296875 1887.31005859375 C 771.030029296875 1887.31005859375 771.030029296875 1886.8900146484375 770.75 1886.6400146484375 C 770.75 1886.6400146484375 770.469970703125 1886.3900146484375 770.0 1886.3900146484375 C 770.0 1886.3900146484375 769.6699829101562 1886.3900146484375 769.3099975585938 1886.5 C 769.3099975585938 1886.5 768.9500122070312 1886.6099853515625 768.5499877929688 1886.8399658203125 L 768.5499877929688 1886.1400146484375 C 768.5499877929688 1886.1400146484375 768.969970703125 1885.969970703125 769.3300170898438 1885.8800048828125 C 769.3300170898438 1885.8800048828125 769.6900024414062 1885.800048828125 769.97998046875 1885.800048828125 C 769.97998046875 1885.800048828125 770.780029296875 1885.800048828125 771.25 1886.199951171875 C 771.25 1886.199951171875 771.719970703125 1886.5899658203125 771.719970703125 1887.27001953125 C 771.719970703125 1887.27001953125 771.719970703125 1887.5799560546875 771.5999755859375 1887.8599853515625 C 771.5999755859375 1887.8599853515625 771.47998046875 1888.1400146484375 771.1699829101562 1888.52001953125 C 771.1699829101562 1888.52001953125 771.0900268554688 1888.6199951171875 770.6300048828125 1889.0899658203125 Z" stroke="black" fill="none" stroke-width="1" />
                </svg>