<svg xmlns="http://www.w3.org/2000/svg" width="110.530029296875" height="9.849853515625" viewBox="1847.1099853515625 1103.340087890625 110.530029296875 9.849853515625">
                <rect x="1847.1099853515625" y="1103.340087890625" width="110.530029296875" height="9.849853515625" fill="white"/>
                <path d="M 1850.719970703125 1113.0 L 1847.1099853515625 1103.52001953125 L 1848.43994140625 1103.52001953125 L 1851.43994140625 1111.5 L 1854.449951171875 1103.52001953125 L 1855.780029296875 1103.52001953125 L 1852.1700439453125 1113.0 Z M 1857.280029296875 1111.389892578125 L 1858.6300048828125 1111.389892578125 L 1858.6300048828125 1113.0 L 1857.280029296875 1113.0 Z M 1861.31005859375 1103.52001953125 L 1863.030029296875 1103.52001953125 L 1867.22998046875 1111.449951171875 L 1867.22998046875 1103.52001953125 L 1868.47998046875 1103.52001953125 L 1868.47998046875 1113.0 L 1866.739990234375 1113.0 L 1862.5400390625 1105.080078125 L 1862.5400390625 1113.0 L 1861.31005859375 1113.0 Z M 1873.72998046875 1106.699951171875 C 1873.72998046875 1106.699951171875 1872.800048828125 1106.699951171875 1872.25 1107.43994140625 C 1872.25 1107.43994140625 1871.699951171875 1108.169921875 1871.699951171875 1109.449951171875 C 1871.699951171875 1109.449951171875 1871.699951171875 1110.72998046875 1872.239990234375 1111.4599609375 C 1872.239990234375 1111.4599609375 1872.780029296875 1112.18994140625 1873.72998046875 1112.18994140625 C 1873.72998046875 1112.18994140625 1874.6600341796875 1112.18994140625 1875.199951171875 1111.449951171875 C 1875.199951171875 1111.449951171875 1875.75 1110.719970703125 1875.75 1109.449951171875 C 1875.75 1109.449951171875 1875.75 1108.18994140625 1875.199951171875 1107.449951171875 Z M 1873.72998046875 1105.719970703125 C 1873.72998046875 1105.719970703125 1875.25 1105.719970703125 1876.1300048828125 1106.7099609375 C 1876.1300048828125 1106.7099609375 1877.0 1107.699951171875 1877.0 1109.449951171875 C 1877.0 1109.449951171875 1877.0 1111.199951171875 1876.1300048828125 1112.199951171875 C 1876.1300048828125 1112.199951171875 1875.25 1113.18994140625 1873.72998046875 1113.18994140625 C 1873.72998046875 1113.18994140625 1872.199951171875 1113.18994140625 1871.3399658203125 1112.199951171875 C 1871.3399658203125 1112.199951171875 1870.469970703125 1111.199951171875 1870.469970703125 1109.449951171875 C 1870.469970703125 1109.449951171875 1870.469970703125 1107.699951171875 1871.3399658203125 1106.7099609375 Z M 1879.0899658203125 1111.389892578125 L 1880.43994140625 1111.389892578125 L 1880.43994140625 1113.0 L 1879.0899658203125 1113.0 Z M 1883.260009765625 1112.800048828125 L 1883.260009765625 1111.639892578125 C 1883.260009765625 1111.639892578125 1883.739990234375 1111.860107421875 1884.239990234375 1111.97998046875 C 1884.239990234375 1111.97998046875 1884.739990234375 1112.110107421875 1885.2099609375 1112.110107421875 C 1885.2099609375 1112.110107421875 1886.47998046875 1112.110107421875 1887.1500244140625 1111.25 C 1887.1500244140625 1111.25 1887.8199462890625 1110.389892578125 1887.9100341796875 1108.659912109375 C 1887.9100341796875 1108.659912109375 1887.550048828125 1109.199951171875 1886.97998046875 1109.489990234375 C 1886.97998046875 1109.489990234375 1886.4100341796875 1109.780029296875 1885.72998046875 1109.780029296875 C 1885.72998046875 1109.780029296875 1884.300048828125 1109.780029296875 1883.47998046875 1108.919921875 C 1883.47998046875 1108.919921875 1882.6500244140625 1108.06005859375 1882.6500244140625 1106.580078125 C 1882.6500244140625 1106.580078125 1882.6500244140625 1105.110107421875 1883.52001953125 1104.22998046875 C 1883.52001953125 1104.22998046875 1884.3800048828125 1103.340087890625 1885.8199462890625 1103.340087890625 C 1885.8199462890625 1103.340087890625 1887.4599609375 1103.340087890625 1888.3299560546875 1104.610107421875 C 1888.3299560546875 1104.610107421875 1889.199951171875 1105.8701171875 1889.199951171875 1108.27001953125 C 1889.199951171875 1108.27001953125 1889.199951171875 1110.52001953125 1888.1300048828125 1111.85009765625 C 1888.1300048828125 1111.85009765625 1887.0699462890625 1113.18994140625 1885.27001953125 1113.18994140625 C 1885.27001953125 1113.18994140625 1884.7900390625 1113.18994140625 1884.300048828125 1113.090087890625 Z M 1885.8199462890625 1108.780029296875 C 1885.8199462890625 1108.780029296875 1886.6800537109375 1108.780029296875 1887.18994140625 1108.199951171875 C 1887.18994140625 1108.199951171875 1887.699951171875 1107.610107421875 1887.699951171875 1106.580078125 C 1887.699951171875 1106.580078125 1887.699951171875 1105.550048828125 1887.18994140625 1104.949951171875 C 1887.18994140625 1104.949951171875 1886.6800537109375 1104.360107421875 1885.8199462890625 1104.360107421875 C 1885.8199462890625 1104.360107421875 1884.949951171875 1104.360107421875 1884.449951171875 1104.949951171875 C 1884.449951171875 1104.949951171875 1883.949951171875 1105.550048828125 1883.949951171875 1106.580078125 C 1883.949951171875 1106.580078125 1883.949951171875 1107.610107421875 1884.449951171875 1108.199951171875 Z M 1891.5 1111.389892578125 L 1892.8399658203125 1111.389892578125 L 1892.8399658203125 1113.0 L 1891.5 1113.0 Z M 1898.6800537109375 1104.780029296875 L 1896.93994140625 1109.5 L 1900.4300537109375 1109.5 Z M 1897.9599609375 1103.52001953125 L 1899.4100341796875 1103.52001953125 L 1903.02001953125 1113.0 L 1901.68994140625 1113.0 L 1900.8299560546875 1110.56005859375 L 1896.550048828125 1110.56005859375 L 1895.68994140625 1113.0 L 1894.3499755859375 1113.0 Z M 1903.0999755859375 1103.52001953125 L 1911.1199951171875 1103.52001953125 L 1911.1199951171875 1104.610107421875 L 1907.739990234375 1104.610107421875 L 1907.739990234375 1113.0 L 1906.4599609375 1113.0 L 1906.4599609375 1104.610107421875 L 1903.0999755859375 1104.610107421875 Z M 1912.3499755859375 1103.52001953125 L 1913.6400146484375 1103.52001953125 L 1913.6400146484375 1107.409912109375 L 1918.2900390625 1107.409912109375 L 1918.2900390625 1103.52001953125 L 1919.5699462890625 1103.52001953125 L 1919.5699462890625 1113.0 L 1918.2900390625 1113.0 L 1918.2900390625 1108.47998046875 L 1913.6400146484375 1108.47998046875 L 1913.6400146484375 1113.0 L 1912.3499755859375 1113.0 Z M 1925.2900390625 1104.780029296875 L 1923.550048828125 1109.5 L 1927.0400390625 1109.5 Z M 1924.5699462890625 1103.52001953125 L 1926.02001953125 1103.52001953125 L 1929.6300048828125 1113.0 L 1928.300048828125 1113.0 L 1927.43994140625 1110.56005859375 L 1923.1600341796875 1110.56005859375 L 1922.300048828125 1113.0 L 1920.9599609375 1113.0 Z M 1931.02001953125 1103.52001953125 L 1932.739990234375 1103.52001953125 L 1936.93994140625 1111.449951171875 L 1936.93994140625 1103.52001953125 L 1938.18994140625 1103.52001953125 L 1938.18994140625 1113.0 L 1936.4599609375 1113.0 L 1932.260009765625 1105.080078125 L 1932.260009765625 1113.0 L 1931.02001953125 1113.0 Z M 1940.5899658203125 1103.52001953125 L 1941.8900146484375 1103.52001953125 L 1941.8900146484375 1109.280029296875 C 1941.8900146484375 1109.280029296875 1941.8900146484375 1110.800048828125 1942.43994140625 1111.469970703125 C 1942.43994140625 1111.469970703125 1942.97998046875 1112.139892578125 1944.22998046875 1112.139892578125 C 1944.22998046875 1112.139892578125 1945.469970703125 1112.139892578125 1946.010009765625 1111.469970703125 C 1946.010009765625 1111.469970703125 1946.56005859375 1110.800048828125 1946.56005859375 1109.280029296875 L 1946.56005859375 1103.52001953125 L 1947.8599853515625 1103.52001953125 L 1947.8599853515625 1109.43994140625 C 1947.8599853515625 1109.43994140625 1947.8599853515625 1111.300048828125 1946.93994140625 1112.239990234375 C 1946.93994140625 1112.239990234375 1946.010009765625 1113.18994140625 1944.22998046875 1113.18994140625 C 1944.22998046875 1113.18994140625 1942.43994140625 1113.18994140625 1941.510009765625 1112.239990234375 C 1941.510009765625 1112.239990234375 1940.5899658203125 1111.300048828125 1940.5899658203125 1109.43994140625 Z M 1954.75 1108.56005859375 C 1954.75 1108.56005859375 1955.1700439453125 1108.699951171875 1955.56005859375 1109.159912109375 C 1955.56005859375 1109.159912109375 1955.949951171875 1109.610107421875 1956.3399658203125 1110.409912109375 L 1957.6400146484375 1113.0 L 1956.260009765625 1113.0 L 1955.0400390625 1110.56005859375 C 1955.0400390625 1110.56005859375 1954.5799560546875 1109.610107421875 1954.1400146484375 1109.300048828125 C 1954.1400146484375 1109.300048828125 1953.699951171875 1109.0 1952.9300537109375 1109.0 L 1951.5400390625 1109.0 L 1951.5400390625 1113.0 L 1950.260009765625 1113.0 L 1950.260009765625 1103.52001953125 L 1953.1500244140625 1103.52001953125 C 1953.1500244140625 1103.52001953125 1954.780029296875 1103.52001953125 1955.5799560546875 1104.199951171875 C 1955.5799560546875 1104.199951171875 1956.3699951171875 1104.8701171875 1956.3699951171875 1106.25 C 1956.3699951171875 1106.25 1956.3699951171875 1107.139892578125 1955.9599609375 1107.72998046875 Z M 1951.5400390625 1104.580078125 L 1951.5400390625 1107.93994140625 L 1953.1500244140625 1107.93994140625 C 1953.1500244140625 1107.93994140625 1954.0799560546875 1107.93994140625 1954.550048828125 1107.510009765625 C 1954.550048828125 1107.510009765625 1955.030029296875 1107.080078125 1955.030029296875 1106.25 C 1955.030029296875 1106.25 1955.030029296875 1105.419921875 1954.550048828125 1105.0 C 1954.550048828125 1105.0 1954.0799560546875 1104.580078125 1953.1500244140625 1104.580078125 Z" stroke="black" fill="none" stroke-width="1" />
                </svg>