<svg xmlns="http://www.w3.org/2000/svg" width="6.590087890625" height="11.5899658203125" viewBox="1504.3399658203125 1618.9000244140625 6.590087890625 11.5899658203125">
                <rect x="1504.3399658203125" y="1618.9000244140625" width="6.590087890625" height="11.5899658203125" fill="white"/>
                <path d="M 1510.260009765625 1630.050048828125 L 1510.1800537109375 1628.77001953125 L 1505.75 1629.06005859375 L 1506.1199951171875 1630.449951171875 L 1505.4100341796875 1630.489990234375 L 1505.030029296875 1629.1099853515625 L 1504.97998046875 1628.3299560546875 L 1510.1300048828125 1627.989990234375 L 1510.0400390625 1626.68994140625 L 1510.7099609375 1626.6500244140625 L 1510.9300537109375 1630.0 Z M 1509.6099853515625 1625.1300048828125 L 1509.550048828125 1624.300048828125 L 1510.550048828125 1624.239990234375 L 1510.6099853515625 1625.06005859375 Z M 1507.5699462890625 1621.030029296875 C 1507.5699462890625 1621.030029296875 1507.5999755859375 1621.5899658203125 1507.9200439453125 1621.8900146484375 C 1507.9200439453125 1621.8900146484375 1508.239990234375 1622.18994140625 1508.77001953125 1622.1500244140625 C 1508.77001953125 1622.1500244140625 1509.300048828125 1622.1199951171875 1509.5699462890625 1621.780029296875 C 1509.5699462890625 1621.780029296875 1509.8499755859375 1621.43994140625 1509.81005859375 1620.8800048828125 C 1509.81005859375 1620.8800048828125 1509.77001953125 1620.3199462890625 1509.449951171875 1620.02001953125 C 1509.449951171875 1620.02001953125 1509.1199951171875 1619.719970703125 1508.6099853515625 1619.75 C 1508.6099853515625 1619.75 1508.0799560546875 1619.7900390625 1507.800048828125 1620.1300048828125 Z M 1507.280029296875 1621.8399658203125 C 1507.280029296875 1621.8399658203125 1507.1800537109375 1622.3499755859375 1506.8599853515625 1622.6500244140625 C 1506.8599853515625 1622.6500244140625 1506.5400390625 1622.9599609375 1506.0400390625 1622.989990234375 C 1506.0400390625 1622.989990234375 1505.3299560546875 1623.0400390625 1504.9000244140625 1622.5699462890625 C 1504.9000244140625 1622.5699462890625 1504.4599609375 1622.1099853515625 1504.4000244140625 1621.239990234375 C 1504.4000244140625 1621.239990234375 1504.3399658203125 1620.3599853515625 1504.719970703125 1619.8499755859375 C 1504.719970703125 1619.8499755859375 1505.0899658203125 1619.3299560546875 1505.7900390625 1619.280029296875 C 1505.7900390625 1619.280029296875 1506.2900390625 1619.25 1506.6500244140625 1619.510009765625 C 1506.6500244140625 1619.510009765625 1507.010009765625 1619.760009765625 1507.1700439453125 1620.25 C 1507.1700439453125 1620.25 1507.27001953125 1619.6800537109375 1507.6300048828125 1619.3399658203125 C 1507.6300048828125 1619.3399658203125 1507.989990234375 1618.989990234375 1508.56005859375 1618.9599609375 C 1508.56005859375 1618.9599609375 1509.4000244140625 1618.9000244140625 1509.8800048828125 1619.3800048828125 C 1509.8800048828125 1619.3800048828125 1510.3699951171875 1619.8699951171875 1510.4300537109375 1620.8399658203125 C 1510.4300537109375 1620.8399658203125 1510.5 1621.800048828125 1510.0799560546875 1622.3499755859375 C 1510.0799560546875 1622.3499755859375 1509.6600341796875 1622.8900146484375 1508.8199462890625 1622.949951171875 C 1508.8199462890625 1622.949951171875 1508.260009765625 1622.97998046875 1507.8599853515625 1622.68994140625 Z M 1506.050048828125 1622.2099609375 C 1506.050048828125 1622.2099609375 1506.5 1622.1800537109375 1506.739990234375 1621.8800048828125 C 1506.739990234375 1621.8800048828125 1506.97998046875 1621.5799560546875 1506.93994140625 1621.0699462890625 C 1506.93994140625 1621.0699462890625 1506.9100341796875 1620.5699462890625 1506.6300048828125 1620.300048828125 C 1506.6300048828125 1620.300048828125 1506.3599853515625 1620.030029296875 1505.9000244140625 1620.06005859375 C 1505.9000244140625 1620.06005859375 1505.449951171875 1620.0899658203125 1505.219970703125 1620.3900146484375 C 1505.219970703125 1620.3900146484375 1504.989990234375 1620.699951171875 1505.02001953125 1621.18994140625 C 1505.02001953125 1621.18994140625 1505.06005859375 1621.7099609375 1505.3299560546875 1621.969970703125 Z" stroke="black" fill="none" stroke-width="1" />
                </svg>