<svg xmlns="http://www.w3.org/2000/svg" width="6.04998779296875" height="16.7099609375" viewBox="734.0599975585938 1951.72998046875 6.04998779296875 16.7099609375">
                <rect x="734.0599975585938" y="1951.72998046875" width="6.04998779296875" height="16.7099609375" fill="white"/>
                <path d="M 736.77001953125 1966.3599853515625 C 736.77001953125 1966.3599853515625 736.77001953125 1966.8900146484375 737.1300048828125 1967.199951171875 C 737.1300048828125 1967.199951171875 737.5 1967.52001953125 738.1300048828125 1967.52001953125 C 738.1300048828125 1967.52001953125 738.75 1967.52001953125 739.1199951171875 1967.199951171875 C 739.1199951171875 1967.199951171875 739.47998046875 1966.8900146484375 739.47998046875 1966.3599853515625 C 739.47998046875 1966.3599853515625 739.47998046875 1965.8299560546875 739.1199951171875 1965.52001953125 C 739.1199951171875 1965.52001953125 738.75 1965.199951171875 738.1300048828125 1965.199951171875 C 738.1300048828125 1965.199951171875 737.5 1965.199951171875 737.1300048828125 1965.52001953125 Z M 734.2999877929688 1964.800048828125 L 735.02001953125 1964.800048828125 C 735.02001953125 1964.800048828125 734.8800048828125 1965.0899658203125 734.7999877929688 1965.3900146484375 C 734.7999877929688 1965.3900146484375 734.719970703125 1965.68994140625 734.719970703125 1965.97998046875 C 734.719970703125 1965.97998046875 734.719970703125 1966.77001953125 735.25 1967.1800537109375 C 735.25 1967.1800537109375 735.780029296875 1967.5899658203125 736.8400268554688 1967.6600341796875 C 736.8400268554688 1967.6600341796875 736.5 1967.4200439453125 736.3200073242188 1967.0799560546875 C 736.3200073242188 1967.0799560546875 736.1400146484375 1966.72998046875 736.1400146484375 1966.31005859375 C 736.1400146484375 1966.31005859375 736.1400146484375 1965.43994140625 736.6699829101562 1964.9200439453125 C 736.6699829101562 1964.9200439453125 737.2000122070312 1964.4100341796875 738.1300048828125 1964.4100341796875 C 738.1300048828125 1964.4100341796875 739.030029296875 1964.4100341796875 739.5700073242188 1964.93994140625 C 739.5700073242188 1964.93994140625 740.1099853515625 1965.469970703125 740.1099853515625 1966.3599853515625 C 740.1099853515625 1966.3599853515625 740.1099853515625 1967.3699951171875 739.3400268554688 1967.9100341796875 C 739.3400268554688 1967.9100341796875 738.5599975585938 1968.43994140625 737.0900268554688 1968.43994140625 C 737.0900268554688 1968.43994140625 735.7000122070312 1968.43994140625 734.8800048828125 1967.780029296875 C 734.8800048828125 1967.780029296875 734.0599975585938 1967.1199951171875 734.0599975585938 1966.02001953125 C 734.0599975585938 1966.02001953125 734.0599975585938 1965.719970703125 734.1199951171875 1965.4200439453125 Z M 736.8599853515625 1960.6600341796875 C 736.8599853515625 1960.6600341796875 736.969970703125 1960.0999755859375 737.3499755859375 1959.780029296875 C 737.3499755859375 1959.780029296875 737.739990234375 1959.4599609375 738.2999877929688 1959.4599609375 C 738.2999877929688 1959.4599609375 739.1699829101562 1959.4599609375 739.6400146484375 1960.050048828125 C 739.6400146484375 1960.050048828125 740.1099853515625 1960.6400146484375 740.1099853515625 1961.739990234375 C 740.1099853515625 1961.739990234375 740.1099853515625 1962.1099853515625 740.0399780273438 1962.5 C 740.0399780273438 1962.5 739.969970703125 1962.8800048828125 739.8300170898438 1963.300048828125 L 739.0599975585938 1963.300048828125 C 739.0599975585938 1963.300048828125 739.25 1962.969970703125 739.3499755859375 1962.5799560546875 C 739.3499755859375 1962.5799560546875 739.4500122070312 1962.18994140625 739.4500122070312 1961.77001953125 C 739.4500122070312 1961.77001953125 739.4500122070312 1961.02001953125 739.1599731445312 1960.6300048828125 C 739.1599731445312 1960.6300048828125 738.8599853515625 1960.239990234375 738.2999877929688 1960.239990234375 C 738.2999877929688 1960.239990234375 737.780029296875 1960.239990234375 737.489990234375 1960.6099853515625 C 737.489990234375 1960.6099853515625 737.2000122070312 1960.969970703125 737.2000122070312 1961.6099853515625 L 737.2000122070312 1962.280029296875 L 736.5599975585938 1962.280029296875 L 736.5599975585938 1961.5799560546875 C 736.5599975585938 1961.5799560546875 736.5599975585938 1961.0 736.3300170898438 1960.68994140625 C 736.3300170898438 1960.68994140625 736.0900268554688 1960.3800048828125 735.6599731445312 1960.3800048828125 C 735.6599731445312 1960.3800048828125 735.2000122070312 1960.3800048828125 734.9600219726562 1960.699951171875 C 734.9600219726562 1960.699951171875 734.719970703125 1961.02001953125 734.719970703125 1961.6099853515625 C 734.719970703125 1961.6099853515625 734.719970703125 1961.93994140625 734.7899780273438 1962.31005859375 C 734.7899780273438 1962.31005859375 734.8599853515625 1962.6800537109375 735.02001953125 1963.1300048828125 L 734.3099975585938 1963.1300048828125 C 734.3099975585938 1963.1300048828125 734.1900024414062 1962.6800537109375 734.1300048828125 1962.280029296875 C 734.1300048828125 1962.280029296875 734.0599975585938 1961.8900146484375 734.0599975585938 1961.530029296875 C 734.0599975585938 1961.530029296875 734.0599975585938 1960.6400146484375 734.469970703125 1960.1199951171875 C 734.469970703125 1960.1199951171875 734.8800048828125 1959.5999755859375 735.5800170898438 1959.5999755859375 C 735.5800170898438 1959.5999755859375 736.0599975585938 1959.5999755859375 736.3900146484375 1959.8699951171875 Z M 739.0 1957.9599609375 L 739.0 1957.1300048828125 L 740.0 1957.1300048828125 L 740.0 1957.9599609375 Z M 737.239990234375 1953.72998046875 C 737.239990234375 1953.72998046875 737.239990234375 1954.2900390625 737.530029296875 1954.6099853515625 C 737.530029296875 1954.6099853515625 737.8300170898438 1954.9300537109375 738.3599853515625 1954.9300537109375 C 738.3599853515625 1954.9300537109375 738.8900146484375 1954.9300537109375 739.1900024414062 1954.6099853515625 C 739.1900024414062 1954.6099853515625 739.489990234375 1954.2900390625 739.489990234375 1953.72998046875 C 739.489990234375 1953.72998046875 739.489990234375 1953.1700439453125 739.1799926757812 1952.8499755859375 C 739.1799926757812 1952.8499755859375 738.8800048828125 1952.530029296875 738.3599853515625 1952.530029296875 C 738.3599853515625 1952.530029296875 737.8300170898438 1952.530029296875 737.530029296875 1952.8499755859375 Z M 736.8900146484375 1954.530029296875 C 736.8900146484375 1954.530029296875 736.77001953125 1955.030029296875 736.4199829101562 1955.31005859375 C 736.4199829101562 1955.31005859375 736.0800170898438 1955.5899658203125 735.5800170898438 1955.5899658203125 C 735.5800170898438 1955.5899658203125 734.8800048828125 1955.5899658203125 734.469970703125 1955.0999755859375 C 734.469970703125 1955.0999755859375 734.0599975585938 1954.5999755859375 734.0599975585938 1953.72998046875 C 734.0599975585938 1953.72998046875 734.0599975585938 1952.8499755859375 734.469970703125 1952.3599853515625 C 734.469970703125 1952.3599853515625 734.8800048828125 1951.8699951171875 735.5800170898438 1951.8699951171875 C 735.5800170898438 1951.8699951171875 736.0800170898438 1951.8699951171875 736.4199829101562 1952.1500244140625 C 736.4199829101562 1952.1500244140625 736.77001953125 1952.4300537109375 736.8900146484375 1952.9300537109375 C 736.8900146484375 1952.9300537109375 737.030029296875 1952.3699951171875 737.4199829101562 1952.050048828125 C 737.4199829101562 1952.050048828125 737.7999877929688 1951.72998046875 738.3599853515625 1951.72998046875 C 738.3599853515625 1951.72998046875 739.2000122070312 1951.72998046875 739.6599731445312 1952.25 C 739.6599731445312 1952.25 740.1099853515625 1952.760009765625 740.1099853515625 1953.72998046875 C 740.1099853515625 1953.72998046875 740.1099853515625 1954.699951171875 739.6599731445312 1955.2099609375 C 739.6599731445312 1955.2099609375 739.2000122070312 1955.72998046875 738.3599853515625 1955.72998046875 C 738.3599853515625 1955.72998046875 737.7999877929688 1955.72998046875 737.4199829101562 1955.4100341796875 Z M 735.6400146484375 1954.81005859375 C 735.6400146484375 1954.81005859375 736.0900268554688 1954.81005859375 736.3499755859375 1954.530029296875 C 736.3499755859375 1954.530029296875 736.6099853515625 1954.25 736.6099853515625 1953.72998046875 C 736.6099853515625 1953.72998046875 736.6099853515625 1953.22998046875 736.3499755859375 1952.93994140625 C 736.3499755859375 1952.93994140625 736.0999755859375 1952.6500244140625 735.6400146484375 1952.6500244140625 C 735.6400146484375 1952.6500244140625 735.1900024414062 1952.6500244140625 734.9400024414062 1952.93994140625 C 734.9400024414062 1952.93994140625 734.6900024414062 1953.22998046875 734.6900024414062 1953.72998046875 C 734.6900024414062 1953.72998046875 734.6900024414062 1954.25 734.9400024414062 1954.530029296875 Z" stroke="black" fill="none" stroke-width="1" />
                </svg>