<svg xmlns="http://www.w3.org/2000/svg" width="135.43017578125" height="8.710205078125" viewBox="2168.889892578125 3313.159912109375 135.43017578125 8.710205078125">
                <rect x="2168.889892578125" y="3313.159912109375" width="135.43017578125" height="8.710205078125" fill="white"/>
                <path d="M 2169.77001953125 3314.169921875 L 2169.77001953125 3319.27001953125 L 2170.840087890625 3319.27001953125 C 2170.840087890625 3319.27001953125 2172.199951171875 3319.27001953125 2172.840087890625 3318.659912109375 C 2172.840087890625 3318.659912109375 2173.469970703125 3318.050048828125 2173.469970703125 3316.719970703125 C 2173.469970703125 3316.719970703125 2173.469970703125 3315.389892578125 2172.840087890625 3314.780029296875 C 2172.840087890625 3314.780029296875 2172.199951171875 3314.169921875 2170.840087890625 3314.169921875 Z M 2168.889892578125 3313.43994140625 L 2170.699951171875 3313.43994140625 C 2170.699951171875 3313.43994140625 2172.610107421875 3313.43994140625 2173.510009765625 3314.22998046875 C 2173.510009765625 3314.22998046875 2174.409912109375 3315.030029296875 2174.409912109375 3316.719970703125 C 2174.409912109375 3316.719970703125 2174.409912109375 3318.409912109375 2173.510009765625 3319.199951171875 C 2173.510009765625 3319.199951171875 2172.610107421875 3320.0 2170.699951171875 3320.0 L 2168.889892578125 3320.0 Z M 2178.010009765625 3317.530029296875 C 2178.010009765625 3317.530029296875 2177.0400390625 3317.530029296875 2176.659912109375 3317.75 C 2176.659912109375 3317.75 2176.27001953125 3317.969970703125 2176.27001953125 3318.52001953125 C 2176.27001953125 3318.52001953125 2176.27001953125 3318.93994140625 2176.56005859375 3319.199951171875 C 2176.56005859375 3319.199951171875 2176.85009765625 3319.449951171875 2177.340087890625 3319.449951171875 C 2177.340087890625 3319.449951171875 2178.010009765625 3319.449951171875 2178.409912109375 3318.97998046875 C 2178.409912109375 3318.97998046875 2178.820068359375 3318.5 2178.820068359375 3317.699951171875 L 2178.820068359375 3317.530029296875 Z M 2179.6298828125 3317.18994140625 L 2179.6298828125 3320.0 L 2178.820068359375 3320.0 L 2178.820068359375 3319.25 C 2178.820068359375 3319.25 2178.5400390625 3319.699951171875 2178.1298828125 3319.909912109375 C 2178.1298828125 3319.909912109375 2177.7099609375 3320.1201171875 2177.1201171875 3320.1201171875 C 2177.1201171875 3320.1201171875 2176.3701171875 3320.1201171875 2175.919921875 3319.699951171875 C 2175.919921875 3319.699951171875 2175.47998046875 3319.280029296875 2175.47998046875 3318.56005859375 C 2175.47998046875 3318.56005859375 2175.47998046875 3317.72998046875 2176.030029296875 3317.31005859375 C 2176.030029296875 3317.31005859375 2176.590087890625 3316.889892578125 2177.679931640625 3316.889892578125 L 2178.820068359375 3316.889892578125 L 2178.820068359375 3316.81005859375 C 2178.820068359375 3316.81005859375 2178.820068359375 3316.25 2178.449951171875 3315.949951171875 C 2178.449951171875 3315.949951171875 2178.090087890625 3315.639892578125 2177.409912109375 3315.639892578125 C 2177.409912109375 3315.639892578125 2176.989990234375 3315.639892578125 2176.590087890625 3315.739990234375 C 2176.590087890625 3315.739990234375 2176.199951171875 3315.840087890625 2175.840087890625 3316.050048828125 L 2175.840087890625 3315.300048828125 C 2175.840087890625 3315.300048828125 2176.27001953125 3315.1201171875 2176.699951171875 3315.0400390625 C 2176.699951171875 3315.0400390625 2177.1201171875 3314.949951171875 2177.510009765625 3314.949951171875 C 2177.510009765625 3314.949951171875 2178.570068359375 3314.949951171875 2179.10009765625 3315.510009765625 Z M 2182.090087890625 3313.68994140625 L 2182.090087890625 3315.080078125 L 2183.760009765625 3315.080078125 L 2183.760009765625 3315.699951171875 L 2182.090087890625 3315.699951171875 L 2182.090087890625 3318.3701171875 C 2182.090087890625 3318.3701171875 2182.090087890625 3318.97998046875 2182.260009765625 3319.159912109375 C 2182.260009765625 3319.159912109375 2182.429931640625 3319.330078125 2182.929931640625 3319.330078125 L 2183.760009765625 3319.330078125 L 2183.760009765625 3320.0 L 2182.929931640625 3320.0 C 2182.929931640625 3320.0 2181.989990234375 3320.0 2181.6298828125 3319.64990234375 C 2181.6298828125 3319.64990234375 2181.27001953125 3319.300048828125 2181.27001953125 3318.3701171875 L 2181.27001953125 3315.699951171875 L 2180.679931640625 3315.699951171875 L 2180.679931640625 3315.080078125 L 2181.27001953125 3315.080078125 L 2181.27001953125 3313.68994140625 Z M 2189.0400390625 3317.340087890625 L 2189.0400390625 3317.72998046875 L 2185.320068359375 3317.72998046875 C 2185.320068359375 3317.72998046875 2185.360107421875 3318.56005859375 2185.820068359375 3319.0 C 2185.820068359375 3319.0 2186.27001953125 3319.43994140625 2187.070068359375 3319.43994140625 C 2187.070068359375 3319.43994140625 2187.5400390625 3319.43994140625 2187.969970703125 3319.330078125 C 2187.969970703125 3319.330078125 2188.409912109375 3319.219970703125 2188.85009765625 3318.97998046875 L 2188.85009765625 3319.75 C 2188.85009765625 3319.75 2188.409912109375 3319.93994140625 2187.949951171875 3320.030029296875 C 2187.949951171875 3320.030029296875 2187.489990234375 3320.1201171875 2187.02001953125 3320.1201171875 C 2187.02001953125 3320.1201171875 2185.85009765625 3320.1201171875 2185.159912109375 3319.43994140625 C 2185.159912109375 3319.43994140625 2184.469970703125 3318.75 2184.469970703125 3317.590087890625 C 2184.469970703125 3317.590087890625 2184.469970703125 3316.3701171875 2185.1201171875 3315.659912109375 C 2185.1201171875 3315.659912109375 2185.77001953125 3314.949951171875 2186.8798828125 3314.949951171875 C 2186.8798828125 3314.949951171875 2187.8798828125 3314.949951171875 2188.4599609375 3315.590087890625 Z M 2188.219970703125 3317.090087890625 C 2188.219970703125 3317.090087890625 2188.2099609375 3316.43994140625 2187.85009765625 3316.0400390625 C 2187.85009765625 3316.0400390625 2187.489990234375 3315.639892578125 2186.89990234375 3315.639892578125 C 2186.89990234375 3315.639892578125 2186.2099609375 3315.639892578125 2185.800048828125 3316.02001953125 C 2185.800048828125 3316.02001953125 2185.39990234375 3316.409912109375 2185.330078125 3317.110107421875 Z M 2195.1201171875 3315.639892578125 C 2195.1201171875 3315.639892578125 2194.47998046875 3315.639892578125 2194.10009765625 3316.14990234375 C 2194.10009765625 3316.14990234375 2193.719970703125 3316.659912109375 2193.719970703125 3317.550048828125 C 2193.719970703125 3317.550048828125 2193.719970703125 3318.419921875 2194.090087890625 3318.929931640625 C 2194.090087890625 3318.929931640625 2194.469970703125 3319.43994140625 2195.1201171875 3319.43994140625 C 2195.1201171875 3319.43994140625 2195.780029296875 3319.43994140625 2196.14990234375 3318.929931640625 C 2196.14990234375 3318.929931640625 2196.530029296875 3318.419921875 2196.530029296875 3317.550048828125 C 2196.530029296875 3317.550048828125 2196.530029296875 3316.669921875 2196.14990234375 3316.159912109375 Z M 2195.1201171875 3314.949951171875 C 2195.1201171875 3314.949951171875 2196.179931640625 3314.949951171875 2196.7900390625 3315.639892578125 C 2196.7900390625 3315.639892578125 2197.389892578125 3316.330078125 2197.389892578125 3317.550048828125 C 2197.389892578125 3317.550048828125 2197.389892578125 3318.75 2196.7900390625 3319.43994140625 C 2196.7900390625 3319.43994140625 2196.179931640625 3320.1201171875 2195.1201171875 3320.1201171875 C 2195.1201171875 3320.1201171875 2194.080078125 3320.1201171875 2193.469970703125 3319.43994140625 C 2193.469970703125 3319.43994140625 2192.8701171875 3318.75 2192.8701171875 3317.550048828125 C 2192.8701171875 3317.550048828125 2192.8701171875 3316.330078125 2193.469970703125 3315.639892578125 Z M 2201.219970703125 3313.159912109375 L 2201.219970703125 3313.830078125 L 2200.43994140625 3313.830078125 C 2200.43994140625 3313.830078125 2200.0 3313.830078125 2199.840087890625 3314.010009765625 C 2199.840087890625 3314.010009765625 2199.679931640625 3314.18994140625 2199.679931640625 3314.639892578125 L 2199.679931640625 3315.080078125 L 2201.0 3315.080078125 L 2201.0 3315.699951171875 L 2199.679931640625 3315.699951171875 L 2199.679931640625 3320.0 L 2198.860107421875 3320.0 L 2198.860107421875 3315.699951171875 L 2198.080078125 3315.699951171875 L 2198.080078125 3315.080078125 L 2198.860107421875 3315.080078125 L 2198.860107421875 3314.72998046875 C 2198.860107421875 3314.72998046875 2198.860107421875 3313.909912109375 2199.25 3313.530029296875 C 2199.25 3313.530029296875 2199.6298828125 3313.159912109375 2200.4599609375 3313.159912109375 Z M 2206.989990234375 3314.31005859375 L 2205.780029296875 3317.580078125 L 2208.18994140625 3317.580078125 Z M 2206.489990234375 3313.43994140625 L 2207.489990234375 3313.43994140625 L 2209.989990234375 3320.0 L 2209.06005859375 3320.0 L 2208.469970703125 3318.31005859375 L 2205.52001953125 3318.31005859375 L 2204.909912109375 3320.0 L 2203.989990234375 3320.0 Z M 2211.68994140625 3319.27001953125 L 2211.68994140625 3321.8701171875 L 2210.8798828125 3321.8701171875 L 2210.8798828125 3315.080078125 L 2211.68994140625 3315.080078125 L 2211.68994140625 3315.830078125 C 2211.68994140625 3315.830078125 2211.9599609375 3315.389892578125 2212.340087890625 3315.169921875 C 2212.340087890625 3315.169921875 2212.719970703125 3314.949951171875 2213.27001953125 3314.949951171875 C 2213.27001953125 3314.949951171875 2214.159912109375 3314.949951171875 2214.719970703125 3315.669921875 C 2214.719970703125 3315.669921875 2215.280029296875 3316.389892578125 2215.280029296875 3317.550048828125 C 2215.280029296875 3317.550048828125 2215.280029296875 3318.699951171875 2214.719970703125 3319.409912109375 C 2214.719970703125 3319.409912109375 2214.159912109375 3320.1201171875 2213.27001953125 3320.1201171875 C 2213.27001953125 3320.1201171875 2212.719970703125 3320.1201171875 2212.340087890625 3319.909912109375 Z M 2214.43994140625 3317.550048828125 C 2214.43994140625 3317.550048828125 2214.43994140625 3316.659912109375 2214.070068359375 3316.14990234375 C 2214.070068359375 3316.14990234375 2213.7099609375 3315.639892578125 2213.06005859375 3315.639892578125 C 2213.06005859375 3315.639892578125 2212.419921875 3315.639892578125 2212.06005859375 3316.14990234375 C 2212.06005859375 3316.14990234375 2211.68994140625 3316.659912109375 2211.68994140625 3317.550048828125 C 2211.68994140625 3317.550048828125 2211.68994140625 3318.43994140625 2212.06005859375 3318.949951171875 C 2212.06005859375 3318.949951171875 2212.419921875 3319.449951171875 2213.06005859375 3319.449951171875 C 2213.06005859375 3319.449951171875 2213.7099609375 3319.449951171875 2214.070068359375 3318.949951171875 Z M 2217.39990234375 3319.27001953125 L 2217.39990234375 3321.8701171875 L 2216.590087890625 3321.8701171875 L 2216.590087890625 3315.080078125 L 2217.39990234375 3315.080078125 L 2217.39990234375 3315.830078125 C 2217.39990234375 3315.830078125 2217.669921875 3315.389892578125 2218.050048828125 3315.169921875 C 2218.050048828125 3315.169921875 2218.429931640625 3314.949951171875 2218.97998046875 3314.949951171875 C 2218.97998046875 3314.949951171875 2219.8701171875 3314.949951171875 2220.429931640625 3315.669921875 C 2220.429931640625 3315.669921875 2221.0 3316.389892578125 2221.0 3317.550048828125 C 2221.0 3317.550048828125 2221.0 3318.699951171875 2220.429931640625 3319.409912109375 C 2220.429931640625 3319.409912109375 2219.8701171875 3320.1201171875 2218.97998046875 3320.1201171875 C 2218.97998046875 3320.1201171875 2218.429931640625 3320.1201171875 2218.050048828125 3319.909912109375 Z M 2220.14990234375 3317.550048828125 C 2220.14990234375 3317.550048828125 2220.14990234375 3316.659912109375 2219.7900390625 3316.14990234375 C 2219.7900390625 3316.14990234375 2219.419921875 3315.639892578125 2218.780029296875 3315.639892578125 C 2218.780029296875 3315.639892578125 2218.139892578125 3315.639892578125 2217.77001953125 3316.14990234375 C 2217.77001953125 3316.14990234375 2217.39990234375 3316.659912109375 2217.39990234375 3317.550048828125 C 2217.39990234375 3317.550048828125 2217.39990234375 3318.43994140625 2217.77001953125 3318.949951171875 C 2217.77001953125 3318.949951171875 2218.139892578125 3319.449951171875 2218.780029296875 3319.449951171875 C 2218.780029296875 3319.449951171875 2219.419921875 3319.449951171875 2219.7900390625 3318.949951171875 Z M 2225.18994140625 3315.830078125 C 2225.18994140625 3315.830078125 2225.050048828125 3315.75 2224.89990234375 3315.719970703125 C 2224.89990234375 3315.719970703125 2224.739990234375 3315.68994140625 2224.5400390625 3315.68994140625 C 2224.5400390625 3315.68994140625 2223.85009765625 3315.68994140625 2223.47998046875 3316.1298828125 C 2223.47998046875 3316.1298828125 2223.1201171875 3316.580078125 2223.1201171875 3317.409912109375 L 2223.1201171875 3320.0 L 2222.300048828125 3320.0 L 2222.300048828125 3315.080078125 L 2223.1201171875 3315.080078125 L 2223.1201171875 3315.840087890625 C 2223.1201171875 3315.840087890625 2223.3798828125 3315.389892578125 2223.7900390625 3315.169921875 C 2223.7900390625 3315.169921875 2224.18994140625 3314.949951171875 2224.77001953125 3314.949951171875 C 2224.77001953125 3314.949951171875 2224.8701171875 3314.949951171875 2224.969970703125 3314.969970703125 C 2224.969970703125 3314.969970703125 2225.070068359375 3314.97998046875 2225.18994140625 3315.0 Z M 2227.93994140625 3315.639892578125 C 2227.93994140625 3315.639892578125 2227.300048828125 3315.639892578125 2226.919921875 3316.14990234375 C 2226.919921875 3316.14990234375 2226.530029296875 3316.659912109375 2226.530029296875 3317.550048828125 C 2226.530029296875 3317.550048828125 2226.530029296875 3318.419921875 2226.909912109375 3318.929931640625 C 2226.909912109375 3318.929931640625 2227.280029296875 3319.43994140625 2227.93994140625 3319.43994140625 C 2227.93994140625 3319.43994140625 2228.60009765625 3319.43994140625 2228.969970703125 3318.929931640625 C 2228.969970703125 3318.929931640625 2229.35009765625 3318.419921875 2229.35009765625 3317.550048828125 C 2229.35009765625 3317.550048828125 2229.35009765625 3316.669921875 2228.969970703125 3316.159912109375 Z M 2227.93994140625 3314.949951171875 C 2227.93994140625 3314.949951171875 2229.0 3314.949951171875 2229.60009765625 3315.639892578125 C 2229.60009765625 3315.639892578125 2230.2099609375 3316.330078125 2230.2099609375 3317.550048828125 C 2230.2099609375 3317.550048828125 2230.2099609375 3318.75 2229.60009765625 3319.43994140625 C 2229.60009765625 3319.43994140625 2229.0 3320.1201171875 2227.93994140625 3320.1201171875 C 2227.93994140625 3320.1201171875 2226.889892578125 3320.1201171875 2226.2900390625 3319.43994140625 C 2226.2900390625 3319.43994140625 2225.68994140625 3318.75 2225.68994140625 3317.550048828125 C 2225.68994140625 3317.550048828125 2225.68994140625 3316.330078125 2226.2900390625 3315.639892578125 Z M 2230.9599609375 3315.080078125 L 2231.820068359375 3315.080078125 L 2233.35009765625 3319.199951171875 L 2234.89990234375 3315.080078125 L 2235.760009765625 3315.080078125 L 2233.919921875 3320.0 L 2232.81005859375 3320.0 Z M 2239.10009765625 3317.530029296875 C 2239.10009765625 3317.530029296875 2238.1298828125 3317.530029296875 2237.75 3317.75 C 2237.75 3317.75 2237.3701171875 3317.969970703125 2237.3701171875 3318.52001953125 C 2237.3701171875 3318.52001953125 2237.3701171875 3318.93994140625 2237.659912109375 3319.199951171875 C 2237.659912109375 3319.199951171875 2237.93994140625 3319.449951171875 2238.429931640625 3319.449951171875 C 2238.429931640625 3319.449951171875 2239.10009765625 3319.449951171875 2239.510009765625 3318.97998046875 C 2239.510009765625 3318.97998046875 2239.909912109375 3318.5 2239.909912109375 3317.699951171875 L 2239.909912109375 3317.530029296875 Z M 2240.72998046875 3317.18994140625 L 2240.72998046875 3320.0 L 2239.909912109375 3320.0 L 2239.909912109375 3319.25 C 2239.909912109375 3319.25 2239.6298828125 3319.699951171875 2239.219970703125 3319.909912109375 C 2239.219970703125 3319.909912109375 2238.800048828125 3320.1201171875 2238.2099609375 3320.1201171875 C 2238.2099609375 3320.1201171875 2237.4599609375 3320.1201171875 2237.02001953125 3319.699951171875 C 2237.02001953125 3319.699951171875 2236.570068359375 3319.280029296875 2236.570068359375 3318.56005859375 C 2236.570068359375 3318.56005859375 2236.570068359375 3317.72998046875 2237.1201171875 3317.31005859375 C 2237.1201171875 3317.31005859375 2237.679931640625 3316.889892578125 2238.77001953125 3316.889892578125 L 2239.909912109375 3316.889892578125 L 2239.909912109375 3316.81005859375 C 2239.909912109375 3316.81005859375 2239.909912109375 3316.25 2239.550048828125 3315.949951171875 C 2239.550048828125 3315.949951171875 2239.179931640625 3315.639892578125 2238.510009765625 3315.639892578125 C 2238.510009765625 3315.639892578125 2238.090087890625 3315.639892578125 2237.68994140625 3315.739990234375 C 2237.68994140625 3315.739990234375 2237.2900390625 3315.840087890625 2236.929931640625 3316.050048828125 L 2236.929931640625 3315.300048828125 C 2236.929931640625 3315.300048828125 2237.3701171875 3315.1201171875 2237.7900390625 3315.0400390625 C 2237.7900390625 3315.0400390625 2238.2099609375 3314.949951171875 2238.60009765625 3314.949951171875 C 2238.60009765625 3314.949951171875 2239.659912109375 3314.949951171875 2240.18994140625 3315.510009765625 Z M 2242.3798828125 3313.159912109375 L 2243.18994140625 3313.159912109375 L 2243.18994140625 3320.0 L 2242.3798828125 3320.0 Z M 2247.9599609375 3318.889892578125 L 2248.8798828125 3318.889892578125 L 2248.8798828125 3320.0 L 2247.9599609375 3320.0 Z M 2247.9599609375 3315.340087890625 L 2248.8798828125 3315.340087890625 L 2248.8798828125 3316.469970703125 L 2247.9599609375 3316.469970703125 Z M 2254.530029296875 3319.25 L 2257.6201171875 3319.25 L 2257.6201171875 3320.0 L 2253.449951171875 3320.0 L 2253.449951171875 3319.25 C 2253.449951171875 3319.25 2253.9599609375 3318.72998046875 2254.830078125 3317.85009765625 C 2254.830078125 3317.85009765625 2255.699951171875 3316.969970703125 2255.929931640625 3316.719970703125 C 2255.929931640625 3316.719970703125 2256.35009765625 3316.22998046875 2256.52001953125 3315.89990234375 C 2256.52001953125 3315.89990234375 2256.679931640625 3315.56005859375 2256.679931640625 3315.25 C 2256.679931640625 3315.25 2256.679931640625 3314.719970703125 2256.320068359375 3314.389892578125 C 2256.320068359375 3314.389892578125 2255.9599609375 3314.06005859375 2255.3701171875 3314.06005859375 C 2255.3701171875 3314.06005859375 2254.949951171875 3314.06005859375 2254.489990234375 3314.2099609375 C 2254.489990234375 3314.2099609375 2254.030029296875 3314.360107421875 2253.5 3314.659912109375 L 2253.5 3313.75 C 2253.5 3313.75 2254.030029296875 3313.550048828125 2254.5 3313.429931640625 C 2254.5 3313.429931640625 2254.9599609375 3313.31005859375 2255.35009765625 3313.31005859375 C 2255.35009765625 3313.31005859375 2256.3701171875 3313.31005859375 2256.97998046875 3313.830078125 C 2256.97998046875 3313.830078125 2257.590087890625 3314.340087890625 2257.590087890625 3315.18994140625 C 2257.590087890625 3315.18994140625 2257.590087890625 3315.590087890625 2257.429931640625 3315.9599609375 C 2257.429931640625 3315.9599609375 2257.280029296875 3316.330078125 2256.889892578125 3316.81005859375 C 2256.889892578125 3316.81005859375 2256.780029296875 3316.93994140625 2256.179931640625 3317.550048828125 Z M 2261.3798828125 3316.889892578125 C 2261.3798828125 3316.889892578125 2260.75 3316.889892578125 2260.389892578125 3317.22998046875 C 2260.389892578125 3317.22998046875 2260.02001953125 3317.56005859375 2260.02001953125 3318.159912109375 C 2260.02001953125 3318.159912109375 2260.02001953125 3318.75 2260.389892578125 3319.090087890625 C 2260.389892578125 3319.090087890625 2260.75 3319.419921875 2261.3798828125 3319.419921875 C 2261.3798828125 3319.419921875 2262.02001953125 3319.419921875 2262.3798828125 3319.090087890625 C 2262.3798828125 3319.090087890625 2262.739990234375 3318.75 2262.739990234375 3318.159912109375 C 2262.739990234375 3318.159912109375 2262.739990234375 3317.56005859375 2262.3798828125 3317.22998046875 Z M 2260.489990234375 3316.5 C 2260.489990234375 3316.5 2259.919921875 3316.360107421875 2259.60009765625 3315.969970703125 C 2259.60009765625 3315.969970703125 2259.280029296875 3315.580078125 2259.280029296875 3315.02001953125 C 2259.280029296875 3315.02001953125 2259.280029296875 3314.22998046875 2259.85009765625 3313.77001953125 C 2259.85009765625 3313.77001953125 2260.409912109375 3313.31005859375 2261.3798828125 3313.31005859375 C 2261.3798828125 3313.31005859375 2262.360107421875 3313.31005859375 2262.919921875 3313.77001953125 C 2262.919921875 3313.77001953125 2263.469970703125 3314.22998046875 2263.469970703125 3315.02001953125 C 2263.469970703125 3315.02001953125 2263.469970703125 3315.580078125 2263.14990234375 3315.969970703125 C 2263.14990234375 3315.969970703125 2262.830078125 3316.360107421875 2262.27001953125 3316.5 C 2262.27001953125 3316.5 2262.909912109375 3316.659912109375 2263.27001953125 3317.090087890625 C 2263.27001953125 3317.090087890625 2263.6298828125 3317.530029296875 2263.6298828125 3318.159912109375 C 2263.6298828125 3318.159912109375 2263.6298828125 3319.110107421875 2263.050048828125 3319.6201171875 C 2263.050048828125 3319.6201171875 2262.469970703125 3320.1201171875 2261.3798828125 3320.1201171875 C 2261.3798828125 3320.1201171875 2260.300048828125 3320.1201171875 2259.7099609375 3319.6201171875 C 2259.7099609375 3319.6201171875 2259.1298828125 3319.110107421875 2259.1298828125 3318.159912109375 C 2259.1298828125 3318.159912109375 2259.1298828125 3317.530029296875 2259.489990234375 3317.090087890625 Z M 2260.159912109375 3315.110107421875 C 2260.159912109375 3315.110107421875 2260.159912109375 3315.610107421875 2260.47998046875 3315.89990234375 C 2260.47998046875 3315.89990234375 2260.800048828125 3316.18994140625 2261.3798828125 3316.18994140625 C 2261.3798828125 3316.18994140625 2261.9599609375 3316.18994140625 2262.280029296875 3315.89990234375 C 2262.280029296875 3315.89990234375 2262.60009765625 3315.610107421875 2262.60009765625 3315.110107421875 C 2262.60009765625 3315.110107421875 2262.60009765625 3314.590087890625 2262.280029296875 3314.300048828125 C 2262.280029296875 3314.300048828125 2261.9599609375 3314.02001953125 2261.3798828125 3314.02001953125 C 2261.3798828125 3314.02001953125 2260.800048828125 3314.02001953125 2260.47998046875 3314.300048828125 Z M 2264.679931640625 3317.169921875 L 2267.06005859375 3317.169921875 L 2267.06005859375 3317.889892578125 L 2264.679931640625 3317.889892578125 Z M 2270.35009765625 3314.02001953125 C 2270.35009765625 3314.02001953125 2269.659912109375 3314.02001953125 2269.320068359375 3314.699951171875 C 2269.320068359375 3314.699951171875 2268.97998046875 3315.3701171875 2268.97998046875 3316.719970703125 C 2268.97998046875 3316.719970703125 2268.97998046875 3318.080078125 2269.320068359375 3318.75 C 2269.320068359375 3318.75 2269.659912109375 3319.419921875 2270.35009765625 3319.419921875 C 2270.35009765625 3319.419921875 2271.0400390625 3319.419921875 2271.3798828125 3318.75 C 2271.3798828125 3318.75 2271.72998046875 3318.080078125 2271.72998046875 3316.719970703125 C 2271.72998046875 3316.719970703125 2271.72998046875 3315.3701171875 2271.3798828125 3314.699951171875 Z M 2270.35009765625 3313.31005859375 C 2270.35009765625 3313.31005859375 2271.4599609375 3313.31005859375 2272.0400390625 3314.18994140625 C 2272.0400390625 3314.18994140625 2272.6201171875 3315.06005859375 2272.6201171875 3316.719970703125 C 2272.6201171875 3316.719970703125 2272.6201171875 3318.3701171875 2272.0400390625 3319.25 C 2272.0400390625 3319.25 2271.4599609375 3320.1201171875 2270.35009765625 3320.1201171875 C 2270.35009765625 3320.1201171875 2269.260009765625 3320.1201171875 2268.669921875 3319.25 C 2268.669921875 3319.25 2268.090087890625 3318.3701171875 2268.090087890625 3316.719970703125 C 2268.090087890625 3316.719970703125 2268.090087890625 3315.06005859375 2268.669921875 3314.18994140625 Z M 2276.8701171875 3316.469970703125 C 2276.8701171875 3316.469970703125 2277.52001953125 3316.590087890625 2277.8701171875 3317.02001953125 C 2277.8701171875 3317.02001953125 2278.219970703125 3317.449951171875 2278.219970703125 3318.090087890625 C 2278.219970703125 3318.090087890625 2278.219970703125 3319.06005859375 2277.550048828125 3319.590087890625 C 2277.550048828125 3319.590087890625 2276.889892578125 3320.1201171875 2275.659912109375 3320.1201171875 C 2275.659912109375 3320.1201171875 2275.25 3320.1201171875 2274.81005859375 3320.050048828125 C 2274.81005859375 3320.050048828125 2274.3701171875 3319.969970703125 2273.909912109375 3319.800048828125 L 2273.909912109375 3318.93994140625 C 2273.909912109375 3318.93994140625 2274.280029296875 3319.159912109375 2274.719970703125 3319.27001953125 C 2274.719970703125 3319.27001953125 2275.159912109375 3319.3701171875 2275.6201171875 3319.3701171875 C 2275.6201171875 3319.3701171875 2276.469970703125 3319.3701171875 2276.909912109375 3319.050048828125 C 2276.909912109375 3319.050048828125 2277.340087890625 3318.719970703125 2277.340087890625 3318.090087890625 C 2277.340087890625 3318.090087890625 2277.340087890625 3317.52001953125 2276.93994140625 3317.18994140625 C 2276.93994140625 3317.18994140625 2276.530029296875 3316.860107421875 2275.800048828125 3316.860107421875 L 2275.030029296875 3316.860107421875 L 2275.030029296875 3316.1201171875 L 2275.840087890625 3316.1201171875 C 2275.840087890625 3316.1201171875 2276.5 3316.1201171875 2276.840087890625 3315.8701171875 C 2276.840087890625 3315.8701171875 2277.18994140625 3315.610107421875 2277.18994140625 3315.110107421875 C 2277.18994140625 3315.110107421875 2277.18994140625 3314.610107421875 2276.830078125 3314.340087890625 C 2276.830078125 3314.340087890625 2276.469970703125 3314.06005859375 2275.800048828125 3314.06005859375 C 2275.800048828125 3314.06005859375 2275.43994140625 3314.06005859375 2275.02001953125 3314.139892578125 C 2275.02001953125 3314.139892578125 2274.610107421875 3314.219970703125 2274.110107421875 3314.389892578125 L 2274.110107421875 3313.590087890625 C 2274.110107421875 3313.590087890625 2274.610107421875 3313.449951171875 2275.050048828125 3313.3798828125 C 2275.050048828125 3313.3798828125 2275.47998046875 3313.31005859375 2275.8701171875 3313.31005859375 C 2275.8701171875 3313.31005859375 2276.889892578125 3313.31005859375 2277.47998046875 3313.77001953125 C 2277.47998046875 3313.77001953125 2278.080078125 3314.22998046875 2278.080078125 3315.02001953125 C 2278.080078125 3315.02001953125 2278.080078125 3315.56005859375 2277.77001953125 3315.93994140625 Z M 2279.3798828125 3317.169921875 L 2281.760009765625 3317.169921875 L 2281.760009765625 3317.889892578125 L 2279.3798828125 3317.889892578125 Z M 2283.929931640625 3319.25 L 2287.02001953125 3319.25 L 2287.02001953125 3320.0 L 2282.85009765625 3320.0 L 2282.85009765625 3319.25 C 2282.85009765625 3319.25 2283.360107421875 3318.72998046875 2284.22998046875 3317.85009765625 C 2284.22998046875 3317.85009765625 2285.10009765625 3316.969970703125 2285.330078125 3316.719970703125 C 2285.330078125 3316.719970703125 2285.75 3316.22998046875 2285.919921875 3315.89990234375 C 2285.919921875 3315.89990234375 2286.080078125 3315.56005859375 2286.080078125 3315.25 C 2286.080078125 3315.25 2286.080078125 3314.719970703125 2285.719970703125 3314.389892578125 C 2285.719970703125 3314.389892578125 2285.360107421875 3314.06005859375 2284.77001953125 3314.06005859375 C 2284.77001953125 3314.06005859375 2284.35009765625 3314.06005859375 2283.889892578125 3314.2099609375 C 2283.889892578125 3314.2099609375 2283.429931640625 3314.360107421875 2282.89990234375 3314.659912109375 L 2282.89990234375 3313.75 C 2282.89990234375 3313.75 2283.429931640625 3313.550048828125 2283.89990234375 3313.429931640625 C 2283.89990234375 3313.429931640625 2284.360107421875 3313.31005859375 2284.75 3313.31005859375 C 2284.75 3313.31005859375 2285.77001953125 3313.31005859375 2286.3798828125 3313.830078125 C 2286.3798828125 3313.830078125 2286.989990234375 3314.340087890625 2286.989990234375 3315.18994140625 C 2286.989990234375 3315.18994140625 2286.989990234375 3315.590087890625 2286.830078125 3315.9599609375 C 2286.830078125 3315.9599609375 2286.679931640625 3316.330078125 2286.2900390625 3316.81005859375 C 2286.2900390625 3316.81005859375 2286.179931640625 3316.93994140625 2285.580078125 3317.550048828125 Z M 2290.780029296875 3314.02001953125 C 2290.780029296875 3314.02001953125 2290.090087890625 3314.02001953125 2289.75 3314.699951171875 C 2289.75 3314.699951171875 2289.39990234375 3315.3701171875 2289.39990234375 3316.719970703125 C 2289.39990234375 3316.719970703125 2289.39990234375 3318.080078125 2289.75 3318.75 C 2289.75 3318.75 2290.090087890625 3319.419921875 2290.780029296875 3319.419921875 C 2290.780029296875 3319.419921875 2291.4599609375 3319.419921875 2291.81005859375 3318.75 C 2291.81005859375 3318.75 2292.14990234375 3318.080078125 2292.14990234375 3316.719970703125 C 2292.14990234375 3316.719970703125 2292.14990234375 3315.3701171875 2291.81005859375 3314.699951171875 Z M 2290.780029296875 3313.31005859375 C 2290.780029296875 3313.31005859375 2291.889892578125 3313.31005859375 2292.4599609375 3314.18994140625 C 2292.4599609375 3314.18994140625 2293.0400390625 3315.06005859375 2293.0400390625 3316.719970703125 C 2293.0400390625 3316.719970703125 2293.0400390625 3318.3701171875 2292.4599609375 3319.25 C 2292.4599609375 3319.25 2291.889892578125 3320.1201171875 2290.780029296875 3320.1201171875 C 2290.780029296875 3320.1201171875 2289.679931640625 3320.1201171875 2289.10009765625 3319.25 C 2289.10009765625 3319.25 2288.510009765625 3318.3701171875 2288.510009765625 3316.719970703125 C 2288.510009765625 3316.719970703125 2288.510009765625 3315.06005859375 2289.10009765625 3314.18994140625 Z M 2294.75 3319.25 L 2296.2099609375 3319.25 L 2296.2099609375 3314.25 L 2294.6298828125 3314.56005859375 L 2294.6298828125 3313.75 L 2296.2099609375 3313.43994140625 L 2297.10009765625 3313.43994140625 L 2297.10009765625 3319.25 L 2298.530029296875 3319.25 L 2298.530029296875 3320.0 L 2294.75 3320.0 Z M 2300.10009765625 3313.43994140625 L 2304.320068359375 3313.43994140625 L 2304.320068359375 3313.81005859375 L 2301.949951171875 3320.0 L 2301.010009765625 3320.0 L 2303.260009765625 3314.18994140625 L 2300.10009765625 3314.18994140625 Z" stroke="black" fill="none" stroke-width="1" />
                </svg>