<svg xmlns="http://www.w3.org/2000/svg" width="118.449951171875" height="11.6298828125" viewBox="2168.800048828125 3283.8701171875 118.449951171875 11.6298828125">
                <rect x="2168.800048828125" y="3283.8701171875" width="118.449951171875" height="11.6298828125" fill="white"/>
                <path d="M 2174.419921875 3284.530029296875 L 2174.419921875 3285.68994140625 C 2174.419921875 3285.68994140625 2173.75 3285.3701171875 2173.14990234375 3285.2099609375 C 2173.14990234375 3285.2099609375 2172.550048828125 3285.050048828125 2172.0 3285.050048828125 C 2172.0 3285.050048828125 2171.030029296875 3285.050048828125 2170.510009765625 3285.419921875 C 2170.510009765625 3285.419921875 2169.97998046875 3285.800048828125 2169.97998046875 3286.5 C 2169.97998046875 3286.5 2169.97998046875 3287.080078125 2170.330078125 3287.3701171875 C 2170.330078125 3287.3701171875 2170.669921875 3287.669921875 2171.659912109375 3287.840087890625 L 2172.360107421875 3288.0 C 2172.360107421875 3288.0 2173.68994140625 3288.25 2174.320068359375 3288.8798828125 C 2174.320068359375 3288.8798828125 2174.949951171875 3289.52001953125 2174.949951171875 3290.580078125 C 2174.949951171875 3290.580078125 2174.949951171875 3291.860107421875 2174.10009765625 3292.52001953125 C 2174.10009765625 3292.52001953125 2173.25 3293.169921875 2171.590087890625 3293.169921875 C 2171.590087890625 3293.169921875 2170.97998046875 3293.169921875 2170.280029296875 3293.030029296875 C 2170.280029296875 3293.030029296875 2169.580078125 3292.889892578125 2168.830078125 3292.610107421875 L 2168.830078125 3291.389892578125 C 2168.830078125 3291.389892578125 2169.550048828125 3291.800048828125 2170.239990234375 3292.0 C 2170.239990234375 3292.0 2170.93994140625 3292.199951171875 2171.590087890625 3292.199951171875 C 2171.590087890625 3292.199951171875 2172.610107421875 3292.199951171875 2173.159912109375 3291.800048828125 C 2173.159912109375 3291.800048828125 2173.719970703125 3291.409912109375 2173.719970703125 3290.669921875 C 2173.719970703125 3290.669921875 2173.719970703125 3290.030029296875 2173.320068359375 3289.659912109375 C 2173.320068359375 3289.659912109375 2172.919921875 3289.300048828125 2172.02001953125 3289.1201171875 L 2171.300048828125 3288.97998046875 C 2171.300048828125 3288.97998046875 2169.969970703125 3288.719970703125 2169.3798828125 3288.159912109375 C 2169.3798828125 3288.159912109375 2168.800048828125 3287.590087890625 2168.800048828125 3286.590087890625 C 2168.800048828125 3286.590087890625 2168.800048828125 3285.419921875 2169.610107421875 3284.760009765625 C 2169.610107421875 3284.760009765625 2170.419921875 3284.090087890625 2171.860107421875 3284.090087890625 C 2171.860107421875 3284.090087890625 2172.47998046875 3284.090087890625 2173.1201171875 3284.199951171875 Z M 2176.739990234375 3286.43994140625 L 2177.820068359375 3286.43994140625 L 2177.820068359375 3293.0 L 2176.739990234375 3293.0 Z M 2176.739990234375 3283.8701171875 L 2177.820068359375 3283.8701171875 L 2177.820068359375 3285.25 L 2176.739990234375 3285.25 Z M 2184.39990234375 3289.639892578125 C 2184.39990234375 3289.639892578125 2184.39990234375 3288.469970703125 2183.919921875 3287.830078125 C 2183.919921875 3287.830078125 2183.43994140625 3287.18994140625 2182.56005859375 3287.18994140625 C 2182.56005859375 3287.18994140625 2181.699951171875 3287.18994140625 2181.219970703125 3287.830078125 C 2181.219970703125 3287.830078125 2180.72998046875 3288.469970703125 2180.72998046875 3289.639892578125 C 2180.72998046875 3289.639892578125 2180.72998046875 3290.81005859375 2181.219970703125 3291.449951171875 C 2181.219970703125 3291.449951171875 2181.699951171875 3292.090087890625 2182.56005859375 3292.090087890625 C 2182.56005859375 3292.090087890625 2183.43994140625 3292.090087890625 2183.919921875 3291.449951171875 Z M 2185.47998046875 3292.18994140625 C 2185.47998046875 3292.18994140625 2185.47998046875 3293.860107421875 2184.739990234375 3294.679931640625 C 2184.739990234375 3294.679931640625 2184.0 3295.5 2182.449951171875 3295.5 C 2182.449951171875 3295.5 2181.889892578125 3295.5 2181.3798828125 3295.409912109375 C 2181.3798828125 3295.409912109375 2180.8701171875 3295.330078125 2180.39990234375 3295.159912109375 L 2180.39990234375 3294.110107421875 C 2180.39990234375 3294.110107421875 2180.8701171875 3294.360107421875 2181.340087890625 3294.47998046875 C 2181.340087890625 3294.47998046875 2181.81005859375 3294.610107421875 2182.280029296875 3294.610107421875 C 2182.280029296875 3294.610107421875 2183.340087890625 3294.610107421875 2183.8701171875 3294.050048828125 C 2183.8701171875 3294.050048828125 2184.39990234375 3293.5 2184.39990234375 3292.3701171875 L 2184.39990234375 3291.840087890625 C 2184.39990234375 3291.840087890625 2184.06005859375 3292.419921875 2183.5400390625 3292.7099609375 C 2183.5400390625 3292.7099609375 2183.030029296875 3293.0 2182.2900390625 3293.0 C 2182.2900390625 3293.0 2181.090087890625 3293.0 2180.35009765625 3292.080078125 C 2180.35009765625 3292.080078125 2179.610107421875 3291.159912109375 2179.610107421875 3289.639892578125 C 2179.610107421875 3289.639892578125 2179.610107421875 3288.1201171875 2180.35009765625 3287.199951171875 C 2180.35009765625 3287.199951171875 2181.090087890625 3286.280029296875 2182.2900390625 3286.280029296875 C 2182.2900390625 3286.280029296875 2183.030029296875 3286.280029296875 2183.5400390625 3286.570068359375 C 2183.5400390625 3286.570068359375 2184.06005859375 3286.860107421875 2184.39990234375 3287.43994140625 L 2184.39990234375 3286.43994140625 L 2185.47998046875 3286.43994140625 Z M 2193.159912109375 3289.030029296875 L 2193.159912109375 3293.0 L 2192.080078125 3293.0 L 2192.080078125 3289.080078125 C 2192.080078125 3289.080078125 2192.080078125 3288.139892578125 2191.719970703125 3287.679931640625 C 2191.719970703125 3287.679931640625 2191.35009765625 3287.219970703125 2190.6298828125 3287.219970703125 C 2190.6298828125 3287.219970703125 2189.760009765625 3287.219970703125 2189.25 3287.77001953125 C 2189.25 3287.77001953125 2188.739990234375 3288.330078125 2188.739990234375 3289.300048828125 L 2188.739990234375 3293.0 L 2187.659912109375 3293.0 L 2187.659912109375 3286.43994140625 L 2188.739990234375 3286.43994140625 L 2188.739990234375 3287.449951171875 C 2188.739990234375 3287.449951171875 2189.1298828125 3286.860107421875 2189.64990234375 3286.570068359375 C 2189.64990234375 3286.570068359375 2190.179931640625 3286.280029296875 2190.8701171875 3286.280029296875 C 2190.8701171875 3286.280029296875 2191.989990234375 3286.280029296875 2192.580078125 3286.97998046875 Z M 2200.919921875 3289.449951171875 L 2200.919921875 3289.969970703125 L 2195.9599609375 3289.969970703125 C 2195.9599609375 3289.969970703125 2196.030029296875 3291.090087890625 2196.6298828125 3291.669921875 C 2196.6298828125 3291.669921875 2197.239990234375 3292.25 2198.300048828125 3292.25 C 2198.300048828125 3292.25 2198.919921875 3292.25 2199.510009765625 3292.10009765625 C 2199.510009765625 3292.10009765625 2200.10009765625 3291.949951171875 2200.669921875 3291.639892578125 L 2200.669921875 3292.669921875 C 2200.669921875 3292.669921875 2200.080078125 3292.909912109375 2199.469970703125 3293.0400390625 C 2199.469970703125 3293.0400390625 2198.860107421875 3293.169921875 2198.239990234375 3293.169921875 C 2198.239990234375 3293.169921875 2196.669921875 3293.169921875 2195.75 3292.260009765625 C 2195.75 3292.260009765625 2194.830078125 3291.340087890625 2194.830078125 3289.780029296875 C 2194.830078125 3289.780029296875 2194.830078125 3288.169921875 2195.7099609375 3287.22998046875 C 2195.7099609375 3287.22998046875 2196.580078125 3286.280029296875 2198.050048828125 3286.280029296875 C 2198.050048828125 3286.280029296875 2199.3798828125 3286.280029296875 2200.14990234375 3287.1298828125 Z M 2199.85009765625 3289.1201171875 C 2199.85009765625 3289.1201171875 2199.830078125 3288.25 2199.35009765625 3287.719970703125 C 2199.35009765625 3287.719970703125 2198.860107421875 3287.18994140625 2198.06005859375 3287.18994140625 C 2198.06005859375 3287.18994140625 2197.159912109375 3287.18994140625 2196.6201171875 3287.699951171875 C 2196.6201171875 3287.699951171875 2196.080078125 3288.219970703125 2196.0 3289.139892578125 Z M 2207.010009765625 3287.43994140625 L 2207.010009765625 3283.8701171875 L 2208.090087890625 3283.8701171875 L 2208.090087890625 3293.0 L 2207.010009765625 3293.0 L 2207.010009765625 3292.02001953125 C 2207.010009765625 3292.02001953125 2206.669921875 3292.590087890625 2206.14990234375 3292.8798828125 C 2206.14990234375 3292.8798828125 2205.6298828125 3293.169921875 2204.89990234375 3293.169921875 C 2204.89990234375 3293.169921875 2203.7099609375 3293.169921875 2202.9599609375 3292.219970703125 C 2202.9599609375 3292.219970703125 2202.2099609375 3291.27001953125 2202.2099609375 3289.719970703125 C 2202.2099609375 3289.719970703125 2202.2099609375 3288.169921875 2202.9599609375 3287.22998046875 C 2202.9599609375 3287.22998046875 2203.7099609375 3286.280029296875 2204.89990234375 3286.280029296875 C 2204.89990234375 3286.280029296875 2205.6298828125 3286.280029296875 2206.14990234375 3286.56005859375 Z M 2203.340087890625 3289.719970703125 C 2203.340087890625 3289.719970703125 2203.340087890625 3290.909912109375 2203.820068359375 3291.590087890625 C 2203.820068359375 3291.590087890625 2204.31005859375 3292.27001953125 2205.169921875 3292.27001953125 C 2205.169921875 3292.27001953125 2206.030029296875 3292.27001953125 2206.52001953125 3291.590087890625 C 2206.52001953125 3291.590087890625 2207.010009765625 3290.909912109375 2207.010009765625 3289.719970703125 C 2207.010009765625 3289.719970703125 2207.010009765625 3288.530029296875 2206.52001953125 3287.860107421875 C 2206.52001953125 3287.860107421875 2206.030029296875 3287.18994140625 2205.169921875 3287.18994140625 C 2205.169921875 3287.18994140625 2204.31005859375 3287.18994140625 2203.820068359375 3287.860107421875 Z M 2215.35009765625 3288.830078125 L 2215.35009765625 3292.030029296875 L 2217.25 3292.030029296875 C 2217.25 3292.030029296875 2218.2099609375 3292.030029296875 2218.669921875 3291.6298828125 C 2218.669921875 3291.6298828125 2219.1298828125 3291.22998046875 2219.1298828125 3290.419921875 C 2219.1298828125 3290.419921875 2219.1298828125 3289.590087890625 2218.669921875 3289.2099609375 C 2218.669921875 3289.2099609375 2218.2099609375 3288.830078125 2217.25 3288.830078125 Z M 2215.35009765625 3285.219970703125 L 2215.35009765625 3287.860107421875 L 2217.10009765625 3287.860107421875 C 2217.10009765625 3287.860107421875 2217.969970703125 3287.860107421875 2218.389892578125 3287.530029296875 C 2218.389892578125 3287.530029296875 2218.820068359375 3287.199951171875 2218.820068359375 3286.550048828125 C 2218.820068359375 3286.550048828125 2218.820068359375 3285.8701171875 2218.389892578125 3285.550048828125 C 2218.389892578125 3285.550048828125 2217.969970703125 3285.219970703125 2217.10009765625 3285.219970703125 Z M 2214.159912109375 3284.25 L 2217.18994140625 3284.25 C 2217.18994140625 3284.25 2218.550048828125 3284.25 2219.280029296875 3284.81005859375 C 2219.280029296875 3284.81005859375 2220.0 3285.3701171875 2220.0 3286.409912109375 C 2220.0 3286.409912109375 2220.0 3287.219970703125 2219.6298828125 3287.699951171875 C 2219.6298828125 3287.699951171875 2219.25 3288.169921875 2218.5400390625 3288.280029296875 C 2218.5400390625 3288.280029296875 2219.409912109375 3288.469970703125 2219.889892578125 3289.06005859375 C 2219.889892578125 3289.06005859375 2220.3798828125 3289.659912109375 2220.3798828125 3290.550048828125 C 2220.3798828125 3290.550048828125 2220.3798828125 3291.719970703125 2219.580078125 3292.360107421875 C 2219.580078125 3292.360107421875 2218.7900390625 3293.0 2217.300048828125 3293.0 L 2214.159912109375 3293.0 Z M 2225.080078125 3293.610107421875 C 2225.080078125 3293.610107421875 2224.6298828125 3294.780029296875 2224.18994140625 3295.139892578125 C 2224.18994140625 3295.139892578125 2223.75 3295.5 2223.030029296875 3295.5 L 2222.169921875 3295.5 L 2222.169921875 3294.590087890625 L 2222.800048828125 3294.590087890625 C 2222.800048828125 3294.590087890625 2223.25 3294.590087890625 2223.489990234375 3294.3798828125 C 2223.489990234375 3294.3798828125 2223.739990234375 3294.169921875 2224.030029296875 3293.389892578125 L 2224.239990234375 3292.889892578125 L 2221.580078125 3286.43994140625 L 2222.719970703125 3286.43994140625 L 2224.77001953125 3291.56005859375 L 2226.830078125 3286.43994140625 L 2227.969970703125 3286.43994140625 Z M 2232.110107421875 3284.25 L 2239.5 3284.25 L 2239.5 3285.25 L 2236.39990234375 3285.25 L 2236.39990234375 3293.0 L 2235.2099609375 3293.0 L 2235.2099609375 3285.25 L 2232.110107421875 3285.25 Z M 2243.580078125 3289.699951171875 C 2243.580078125 3289.699951171875 2242.280029296875 3289.699951171875 2241.77001953125 3290.0 C 2241.77001953125 3290.0 2241.260009765625 3290.300048828125 2241.260009765625 3291.02001953125 C 2241.260009765625 3291.02001953125 2241.260009765625 3291.590087890625 2241.64990234375 3291.929931640625 C 2241.64990234375 3291.929931640625 2242.030029296875 3292.27001953125 2242.669921875 3292.27001953125 C 2242.669921875 3292.27001953125 2243.580078125 3292.27001953125 2244.1201171875 3291.6298828125 C 2244.1201171875 3291.6298828125 2244.64990234375 3291.0 2244.64990234375 3289.93994140625 L 2244.64990234375 3289.699951171875 Z M 2245.72998046875 3289.25 L 2245.72998046875 3293.0 L 2244.64990234375 3293.0 L 2244.64990234375 3292.0 C 2244.64990234375 3292.0 2244.280029296875 3292.590087890625 2243.72998046875 3292.8798828125 C 2243.72998046875 3292.8798828125 2243.18994140625 3293.169921875 2242.389892578125 3293.169921875 C 2242.389892578125 3293.169921875 2241.3701171875 3293.169921875 2240.780029296875 3292.60009765625 C 2240.780029296875 3292.60009765625 2240.18994140625 3292.030029296875 2240.18994140625 3291.090087890625 C 2240.18994140625 3291.090087890625 2240.18994140625 3289.97998046875 2240.929931640625 3289.419921875 C 2240.929931640625 3289.419921875 2241.669921875 3288.860107421875 2243.139892578125 3288.860107421875 L 2244.64990234375 3288.860107421875 L 2244.64990234375 3288.75 C 2244.64990234375 3288.75 2244.64990234375 3288.0 2244.159912109375 3287.590087890625 C 2244.159912109375 3287.590087890625 2243.669921875 3287.18994140625 2242.7900390625 3287.18994140625 C 2242.7900390625 3287.18994140625 2242.22998046875 3287.18994140625 2241.68994140625 3287.330078125 C 2241.68994140625 3287.330078125 2241.14990234375 3287.469970703125 2240.669921875 3287.72998046875 L 2240.669921875 3286.72998046875 C 2240.669921875 3286.72998046875 2241.260009765625 3286.5 2241.820068359375 3286.389892578125 C 2241.820068359375 3286.389892578125 2242.3701171875 3286.280029296875 2242.89990234375 3286.280029296875 C 2242.89990234375 3286.280029296875 2244.330078125 3286.280029296875 2245.030029296875 3287.02001953125 Z M 2253.409912109375 3289.030029296875 L 2253.409912109375 3293.0 L 2252.340087890625 3293.0 L 2252.340087890625 3289.080078125 C 2252.340087890625 3289.080078125 2252.340087890625 3288.139892578125 2251.969970703125 3287.679931640625 C 2251.969970703125 3287.679931640625 2251.60009765625 3287.219970703125 2250.8798828125 3287.219970703125 C 2250.8798828125 3287.219970703125 2250.010009765625 3287.219970703125 2249.5 3287.77001953125 C 2249.5 3287.77001953125 2248.989990234375 3288.330078125 2248.989990234375 3289.300048828125 L 2248.989990234375 3293.0 L 2247.909912109375 3293.0 L 2247.909912109375 3283.8701171875 L 2248.989990234375 3283.8701171875 L 2248.989990234375 3287.449951171875 C 2248.989990234375 3287.449951171875 2249.3798828125 3286.860107421875 2249.909912109375 3286.570068359375 C 2249.909912109375 3286.570068359375 2250.429931640625 3286.280029296875 2251.1201171875 3286.280029296875 C 2251.1201171875 3286.280029296875 2252.239990234375 3286.280029296875 2252.830078125 3286.97998046875 Z M 2259.739990234375 3286.6201171875 L 2259.739990234375 3287.659912109375 C 2259.739990234375 3287.659912109375 2259.2900390625 3287.419921875 2258.7900390625 3287.300048828125 C 2258.7900390625 3287.300048828125 2258.300048828125 3287.18994140625 2257.77001953125 3287.18994140625 C 2257.77001953125 3287.18994140625 2256.969970703125 3287.18994140625 2256.570068359375 3287.429931640625 C 2256.570068359375 3287.429931640625 2256.159912109375 3287.669921875 2256.159912109375 3288.169921875 C 2256.159912109375 3288.169921875 2256.159912109375 3288.550048828125 2256.449951171875 3288.760009765625 C 2256.449951171875 3288.760009765625 2256.739990234375 3288.969970703125 2257.610107421875 3289.159912109375 L 2257.969970703125 3289.25 C 2257.969970703125 3289.25 2259.1298828125 3289.47998046875 2259.610107421875 3289.93994140625 C 2259.610107421875 3289.93994140625 2260.10009765625 3290.389892578125 2260.10009765625 3291.18994140625 C 2260.10009765625 3291.18994140625 2260.10009765625 3292.110107421875 2259.3701171875 3292.639892578125 C 2259.3701171875 3292.639892578125 2258.639892578125 3293.169921875 2257.3798828125 3293.169921875 C 2257.3798828125 3293.169921875 2256.85009765625 3293.169921875 2256.280029296875 3293.070068359375 C 2256.280029296875 3293.070068359375 2255.7099609375 3292.969970703125 2255.080078125 3292.77001953125 L 2255.080078125 3291.639892578125 C 2255.080078125 3291.639892578125 2255.679931640625 3291.949951171875 2256.25 3292.110107421875 C 2256.25 3292.110107421875 2256.830078125 3292.27001953125 2257.409912109375 3292.27001953125 C 2257.409912109375 3292.27001953125 2258.159912109375 3292.27001953125 2258.570068359375 3292.010009765625 C 2258.570068359375 3292.010009765625 2258.989990234375 3291.75 2258.989990234375 3291.27001953125 C 2258.989990234375 3291.27001953125 2258.989990234375 3290.830078125 2258.68994140625 3290.590087890625 C 2258.68994140625 3290.590087890625 2258.389892578125 3290.360107421875 2257.389892578125 3290.139892578125 L 2257.02001953125 3290.06005859375 C 2257.02001953125 3290.06005859375 2256.02001953125 3289.840087890625 2255.570068359375 3289.409912109375 C 2255.570068359375 3289.409912109375 2255.1298828125 3288.969970703125 2255.1298828125 3288.219970703125 C 2255.1298828125 3288.219970703125 2255.1298828125 3287.280029296875 2255.7900390625 3286.780029296875 C 2255.7900390625 3286.780029296875 2256.43994140625 3286.280029296875 2257.639892578125 3286.280029296875 C 2257.639892578125 3286.280029296875 2258.239990234375 3286.280029296875 2258.77001953125 3286.3701171875 Z M 2261.800048828125 3286.43994140625 L 2262.8798828125 3286.43994140625 L 2262.8798828125 3293.0 L 2261.800048828125 3293.0 Z M 2261.800048828125 3283.8701171875 L 2262.8798828125 3283.8701171875 L 2262.8798828125 3285.25 L 2261.800048828125 3285.25 Z M 2265.139892578125 3283.8701171875 L 2266.2099609375 3283.8701171875 L 2266.2099609375 3293.0 L 2265.139892578125 3293.0 Z M 2272.800048828125 3287.43994140625 L 2272.800048828125 3283.8701171875 L 2273.8798828125 3283.8701171875 L 2273.8798828125 3293.0 L 2272.800048828125 3293.0 L 2272.800048828125 3292.02001953125 C 2272.800048828125 3292.02001953125 2272.4599609375 3292.590087890625 2271.93994140625 3292.8798828125 C 2271.93994140625 3292.8798828125 2271.419921875 3293.169921875 2270.68994140625 3293.169921875 C 2270.68994140625 3293.169921875 2269.5 3293.169921875 2268.75 3292.219970703125 C 2268.75 3292.219970703125 2268.0 3291.27001953125 2268.0 3289.719970703125 C 2268.0 3289.719970703125 2268.0 3288.169921875 2268.75 3287.22998046875 C 2268.75 3287.22998046875 2269.5 3286.280029296875 2270.68994140625 3286.280029296875 C 2270.68994140625 3286.280029296875 2271.419921875 3286.280029296875 2271.93994140625 3286.56005859375 Z M 2269.1298828125 3289.719970703125 C 2269.1298828125 3289.719970703125 2269.1298828125 3290.909912109375 2269.610107421875 3291.590087890625 C 2269.610107421875 3291.590087890625 2270.10009765625 3292.27001953125 2270.9599609375 3292.27001953125 C 2270.9599609375 3292.27001953125 2271.81005859375 3292.27001953125 2272.31005859375 3291.590087890625 C 2272.31005859375 3291.590087890625 2272.800048828125 3290.909912109375 2272.800048828125 3289.719970703125 C 2272.800048828125 3289.719970703125 2272.800048828125 3288.530029296875 2272.31005859375 3287.860107421875 C 2272.31005859375 3287.860107421875 2271.81005859375 3287.18994140625 2270.9599609375 3287.18994140625 C 2270.9599609375 3287.18994140625 2270.10009765625 3287.18994140625 2269.610107421875 3287.860107421875 Z M 2279.070068359375 3289.699951171875 C 2279.070068359375 3289.699951171875 2277.780029296875 3289.699951171875 2277.27001953125 3290.0 C 2277.27001953125 3290.0 2276.760009765625 3290.300048828125 2276.760009765625 3291.02001953125 C 2276.760009765625 3291.02001953125 2276.760009765625 3291.590087890625 2277.139892578125 3291.929931640625 C 2277.139892578125 3291.929931640625 2277.530029296875 3292.27001953125 2278.169921875 3292.27001953125 C 2278.169921875 3292.27001953125 2279.070068359375 3292.27001953125 2279.610107421875 3291.6298828125 C 2279.610107421875 3291.6298828125 2280.14990234375 3291.0 2280.14990234375 3289.93994140625 L 2280.14990234375 3289.699951171875 Z M 2281.22998046875 3289.25 L 2281.22998046875 3293.0 L 2280.14990234375 3293.0 L 2280.14990234375 3292.0 C 2280.14990234375 3292.0 2279.780029296875 3292.590087890625 2279.22998046875 3292.8798828125 C 2279.22998046875 3292.8798828125 2278.679931640625 3293.169921875 2277.8798828125 3293.169921875 C 2277.8798828125 3293.169921875 2276.8701171875 3293.169921875 2276.280029296875 3292.60009765625 C 2276.280029296875 3292.60009765625 2275.679931640625 3292.030029296875 2275.679931640625 3291.090087890625 C 2275.679931640625 3291.090087890625 2275.679931640625 3289.97998046875 2276.419921875 3289.419921875 C 2276.419921875 3289.419921875 2277.169921875 3288.860107421875 2278.6298828125 3288.860107421875 L 2280.14990234375 3288.860107421875 L 2280.14990234375 3288.75 C 2280.14990234375 3288.75 2280.14990234375 3288.0 2279.659912109375 3287.590087890625 C 2279.659912109375 3287.590087890625 2279.169921875 3287.18994140625 2278.2900390625 3287.18994140625 C 2278.2900390625 3287.18994140625 2277.72998046875 3287.18994140625 2277.18994140625 3287.330078125 C 2277.18994140625 3287.330078125 2276.64990234375 3287.469970703125 2276.169921875 3287.72998046875 L 2276.169921875 3286.72998046875 C 2276.169921875 3286.72998046875 2276.760009765625 3286.5 2277.31005859375 3286.389892578125 C 2277.31005859375 3286.389892578125 2277.8701171875 3286.280029296875 2278.39990234375 3286.280029296875 C 2278.39990234375 3286.280029296875 2279.820068359375 3286.280029296875 2280.530029296875 3287.02001953125 Z M 2287.25 3287.43994140625 C 2287.25 3287.43994140625 2287.070068359375 3287.340087890625 2286.860107421875 3287.2900390625 C 2286.860107421875 3287.2900390625 2286.639892578125 3287.22998046875 2286.3798828125 3287.22998046875 C 2286.3798828125 3287.22998046875 2285.469970703125 3287.22998046875 2284.97998046875 3287.830078125 C 2284.97998046875 3287.830078125 2284.489990234375 3288.419921875 2284.489990234375 3289.550048828125 L 2284.489990234375 3293.0 L 2283.409912109375 3293.0 L 2283.409912109375 3286.43994140625 L 2284.489990234375 3286.43994140625 L 2284.489990234375 3287.449951171875 C 2284.489990234375 3287.449951171875 2284.830078125 3286.860107421875 2285.3798828125 3286.570068359375 C 2285.3798828125 3286.570068359375 2285.929931640625 3286.280029296875 2286.7099609375 3286.280029296875 C 2286.7099609375 3286.280029296875 2286.820068359375 3286.280029296875 2286.949951171875 3286.300048828125 C 2286.949951171875 3286.300048828125 2287.080078125 3286.31005859375 2287.239990234375 3286.340087890625 Z" stroke="black" fill="none" stroke-width="1" />
                </svg>