<svg xmlns="http://www.w3.org/2000/svg" width="13.10009765625" height="16.27978515625" viewBox="1597.7099609375 1294.860107421875 13.10009765625 16.27978515625">
                <rect x="1597.7099609375" y="1294.860107421875" width="13.10009765625" height="16.27978515625" fill="white"/>
                <path d="M 1601.93994140625 1310.800048828125 L 1602.6099853515625 1309.699951171875 L 1598.81005859375 1307.39990234375 L 1598.3199462890625 1308.75 L 1597.7099609375 1308.3798828125 L 1598.18994140625 1307.030029296875 L 1598.5999755859375 1306.360107421875 L 1603.010009765625 1309.030029296875 L 1603.6800537109375 1307.919921875 L 1604.260009765625 1308.27001953125 L 1602.52001953125 1311.139892578125 Z M 1601.81005859375 1302.389892578125 L 1603.4300537109375 1305.7099609375 L 1604.469970703125 1304.0 Z M 1601.0999755859375 1302.219970703125 L 1601.6199951171875 1301.3701171875 L 1604.8699951171875 1303.330078125 L 1605.300048828125 1302.6201171875 L 1605.8599853515625 1302.9599609375 L 1605.4300537109375 1303.669921875 L 1606.6099853515625 1304.3798828125 L 1606.199951171875 1305.050048828125 L 1605.030029296875 1304.340087890625 L 1603.6600341796875 1306.60009765625 L 1603.010009765625 1306.199951171875 Z M 1606.8599853515625 1302.0400390625 L 1607.2900390625 1301.330078125 L 1608.1400146484375 1301.85009765625 L 1607.7099609375 1302.56005859375 Z M 1608.800048828125 1299.4599609375 L 1610.239990234375 1297.090087890625 L 1610.81005859375 1297.43994140625 L 1608.8900146484375 1300.610107421875 L 1608.3199462890625 1300.260009765625 C 1608.3199462890625 1300.260009765625 1608.1600341796875 1299.64990234375 1607.8900146484375 1298.570068359375 C 1607.8900146484375 1298.570068359375 1607.6199951171875 1297.5 1607.530029296875 1297.219970703125 C 1607.530029296875 1297.219970703125 1607.3699951171875 1296.669921875 1607.18994140625 1296.389892578125 C 1607.18994140625 1296.389892578125 1607.010009765625 1296.110107421875 1606.77001953125 1295.9599609375 C 1606.77001953125 1295.9599609375 1606.3699951171875 1295.719970703125 1605.949951171875 1295.85009765625 C 1605.949951171875 1295.85009765625 1605.52001953125 1295.969970703125 1605.260009765625 1296.419921875 C 1605.260009765625 1296.419921875 1605.06005859375 1296.739990234375 1604.9599609375 1297.159912109375 C 1604.9599609375 1297.159912109375 1604.8599853515625 1297.580078125 1604.8499755859375 1298.1201171875 L 1604.1600341796875 1297.7099609375 C 1604.1600341796875 1297.7099609375 1604.239990234375 1297.18994140625 1604.3800048828125 1296.7900390625 C 1604.3800048828125 1296.7900390625 1604.510009765625 1296.3798828125 1604.68994140625 1296.090087890625 C 1604.68994140625 1296.090087890625 1605.1600341796875 1295.31005859375 1605.8199462890625 1295.090087890625 C 1605.8199462890625 1295.090087890625 1606.489990234375 1294.860107421875 1607.1300048828125 1295.25 C 1607.1300048828125 1295.25 1607.43994140625 1295.43994140625 1607.6500244140625 1295.72998046875 C 1607.6500244140625 1295.72998046875 1607.8599853515625 1296.02001953125 1608.050048828125 1296.5400390625 C 1608.050048828125 1296.5400390625 1608.0899658203125 1296.68994140625 1608.280029296875 1297.409912109375 Z" stroke="black" fill="none" stroke-width="1" />
                </svg>