<svg xmlns="http://www.w3.org/2000/svg" width="7.82000732421875" height="5.2899169921875" viewBox="688.52001953125 1523.800048828125 7.82000732421875 5.2899169921875">
                <rect x="688.52001953125" y="1523.800048828125" width="7.82000732421875" height="5.2899169921875" fill="white"/>
                <path d="M 689.3400268554688 1528.4200439453125 L 691.75 1528.4200439453125 L 691.75 1529.0 L 688.52001953125 1529.0 L 688.52001953125 1528.4200439453125 C 688.52001953125 1528.4200439453125 688.9099731445312 1528.02001953125 689.5900268554688 1527.3299560546875 C 689.5900268554688 1527.3299560546875 690.27001953125 1526.6400146484375 690.4400024414062 1526.43994140625 C 690.4400024414062 1526.43994140625 690.77001953125 1526.0799560546875 690.9000244140625 1525.81005859375 C 690.9000244140625 1525.81005859375 691.030029296875 1525.550048828125 691.030029296875 1525.31005859375 C 691.030029296875 1525.31005859375 691.030029296875 1524.8900146484375 690.75 1524.6400146484375 C 690.75 1524.6400146484375 690.469970703125 1524.3900146484375 690.0 1524.3900146484375 C 690.0 1524.3900146484375 689.6699829101562 1524.3900146484375 689.3099975585938 1524.5 C 689.3099975585938 1524.5 688.9500122070312 1524.6099853515625 688.5499877929688 1524.8399658203125 L 688.5499877929688 1524.1400146484375 C 688.5499877929688 1524.1400146484375 688.969970703125 1523.969970703125 689.3300170898438 1523.8800048828125 C 689.3300170898438 1523.8800048828125 689.6900024414062 1523.800048828125 689.97998046875 1523.800048828125 C 689.97998046875 1523.800048828125 690.780029296875 1523.800048828125 691.25 1524.199951171875 C 691.25 1524.199951171875 691.719970703125 1524.5899658203125 691.719970703125 1525.27001953125 C 691.719970703125 1525.27001953125 691.719970703125 1525.5799560546875 691.5999755859375 1525.8599853515625 C 691.5999755859375 1525.8599853515625 691.47998046875 1526.1400146484375 691.1699829101562 1526.52001953125 C 691.1699829101562 1526.52001953125 691.0900268554688 1526.6199951171875 690.6300048828125 1527.0899658203125 Z M 695.2999877929688 1526.25 C 695.2999877929688 1526.25 695.7999877929688 1526.3599853515625 696.0700073242188 1526.699951171875 C 696.0700073242188 1526.699951171875 696.3400268554688 1527.030029296875 696.3400268554688 1527.52001953125 C 696.3400268554688 1527.52001953125 696.3400268554688 1528.27001953125 695.8300170898438 1528.6800537109375 C 695.8300170898438 1528.6800537109375 695.3099975585938 1529.0899658203125 694.3400268554688 1529.0899658203125 C 694.3400268554688 1529.0899658203125 694.030029296875 1529.0899658203125 693.6900024414062 1529.030029296875 C 693.6900024414062 1529.030029296875 693.3400268554688 1528.969970703125 692.97998046875 1528.8399658203125 L 692.97998046875 1528.1700439453125 C 692.97998046875 1528.1700439453125 693.280029296875 1528.3399658203125 693.6199951171875 1528.4300537109375 C 693.6199951171875 1528.4300537109375 693.9500122070312 1528.52001953125 694.3300170898438 1528.52001953125 C 694.3300170898438 1528.52001953125 694.97998046875 1528.52001953125 695.3200073242188 1528.260009765625 C 695.3200073242188 1528.260009765625 695.6599731445312 1528.0 695.6599731445312 1527.52001953125 C 695.6599731445312 1527.52001953125 695.6599731445312 1527.06005859375 695.3400268554688 1526.81005859375 C 695.3400268554688 1526.81005859375 695.030029296875 1526.56005859375 694.469970703125 1526.56005859375 L 693.8800048828125 1526.56005859375 L 693.8800048828125 1525.97998046875 L 694.47998046875 1525.97998046875 C 694.47998046875 1525.97998046875 695.0 1525.97998046875 695.27001953125 1525.780029296875 C 695.27001953125 1525.780029296875 695.5499877929688 1525.5799560546875 695.5499877929688 1525.199951171875 C 695.5499877929688 1525.199951171875 695.5499877929688 1524.81005859375 695.27001953125 1524.5999755859375 C 695.27001953125 1524.5999755859375 694.97998046875 1524.3900146484375 694.469970703125 1524.3900146484375 C 694.469970703125 1524.3900146484375 694.1699829101562 1524.3900146484375 693.8499755859375 1524.449951171875 C 693.8499755859375 1524.449951171875 693.530029296875 1524.52001953125 693.1400146484375 1524.6400146484375 L 693.1400146484375 1524.02001953125 C 693.1400146484375 1524.02001953125 693.530029296875 1523.9100341796875 693.8800048828125 1523.8499755859375 C 693.8800048828125 1523.8499755859375 694.219970703125 1523.800048828125 694.530029296875 1523.800048828125 C 694.530029296875 1523.800048828125 695.3099975585938 1523.800048828125 695.77001953125 1524.1600341796875 C 695.77001953125 1524.1600341796875 696.22998046875 1524.52001953125 696.22998046875 1525.1199951171875 C 696.22998046875 1525.1199951171875 696.22998046875 1525.550048828125 695.97998046875 1525.8399658203125 Z" stroke="black" fill="none" stroke-width="1" />
                </svg>