<svg xmlns="http://www.w3.org/2000/svg" width="6.7100830078125" height="16.97998046875" viewBox="1599.0899658203125 1428.77001953125 6.7100830078125 16.97998046875">
                <rect x="1599.0899658203125" y="1428.77001953125" width="6.7100830078125" height="16.97998046875" fill="white"/>
                <path d="M 1600.6700439453125 1443.3199462890625 L 1603.9000244140625 1445.1099853515625 L 1603.77001953125 1443.1099853515625 Z M 1600.0 1443.5799560546875 L 1599.9300537109375 1442.5799560546875 L 1603.719970703125 1442.3299560546875 L 1603.6700439453125 1441.5 L 1604.3199462890625 1441.4599609375 L 1604.3800048828125 1442.2900390625 L 1605.75 1442.199951171875 L 1605.800048828125 1442.97998046875 L 1604.4300537109375 1443.0699462890625 L 1604.5999755859375 1445.699951171875 L 1603.8399658203125 1445.75 Z M 1602.72998046875 1438.56005859375 C 1602.72998046875 1438.56005859375 1602.77001953125 1439.1199951171875 1603.0899658203125 1439.4200439453125 C 1603.0899658203125 1439.4200439453125 1603.4100341796875 1439.719970703125 1603.93994140625 1439.68994140625 C 1603.93994140625 1439.68994140625 1604.469970703125 1439.6500244140625 1604.739990234375 1439.31005859375 C 1604.739990234375 1439.31005859375 1605.02001953125 1438.97998046875 1604.97998046875 1438.4100341796875 C 1604.97998046875 1438.4100341796875 1604.93994140625 1437.8499755859375 1604.6199951171875 1437.550048828125 C 1604.6199951171875 1437.550048828125 1604.2900390625 1437.25 1603.780029296875 1437.2900390625 C 1603.780029296875 1437.2900390625 1603.25 1437.3199462890625 1602.969970703125 1437.6600341796875 Z M 1602.43994140625 1439.3800048828125 C 1602.43994140625 1439.3800048828125 1602.3499755859375 1439.8900146484375 1602.030029296875 1440.18994140625 C 1602.030029296875 1440.18994140625 1601.699951171875 1440.5 1601.199951171875 1440.530029296875 C 1601.199951171875 1440.530029296875 1600.5 1440.5799560546875 1600.0699462890625 1440.1099853515625 C 1600.0699462890625 1440.1099853515625 1599.6300048828125 1439.6500244140625 1599.5699462890625 1438.77001953125 C 1599.5699462890625 1438.77001953125 1599.510009765625 1437.9000244140625 1599.8800048828125 1437.3800048828125 C 1599.8800048828125 1437.3800048828125 1600.260009765625 1436.8599853515625 1600.9599609375 1436.8199462890625 C 1600.9599609375 1436.8199462890625 1601.4599609375 1436.780029296875 1601.8199462890625 1437.0400390625 C 1601.8199462890625 1437.0400390625 1602.1800537109375 1437.300048828125 1602.3399658203125 1437.7900390625 C 1602.3399658203125 1437.7900390625 1602.43994140625 1437.219970703125 1602.800048828125 1436.8800048828125 C 1602.800048828125 1436.8800048828125 1603.1600341796875 1436.530029296875 1603.719970703125 1436.489990234375 C 1603.719970703125 1436.489990234375 1604.5699462890625 1436.43994140625 1605.050048828125 1436.9200439453125 C 1605.050048828125 1436.9200439453125 1605.5400390625 1437.4100341796875 1605.5999755859375 1438.3699951171875 C 1605.5999755859375 1438.3699951171875 1605.6700439453125 1439.3399658203125 1605.25 1439.8800048828125 C 1605.25 1439.8800048828125 1604.8299560546875 1440.4300537109375 1603.989990234375 1440.47998046875 C 1603.989990234375 1440.47998046875 1603.4300537109375 1440.52001953125 1603.02001953125 1440.22998046875 Z M 1601.219970703125 1439.739990234375 C 1601.219970703125 1439.739990234375 1601.6700439453125 1439.7099609375 1601.9100341796875 1439.4200439453125 C 1601.9100341796875 1439.4200439453125 1602.1400146484375 1439.1199951171875 1602.1099853515625 1438.5999755859375 C 1602.1099853515625 1438.5999755859375 1602.0799560546875 1438.1099853515625 1601.800048828125 1437.8299560546875 C 1601.800048828125 1437.8299560546875 1601.52001953125 1437.56005859375 1601.0699462890625 1437.5899658203125 C 1601.0699462890625 1437.5899658203125 1600.6199951171875 1437.6199951171875 1600.3900146484375 1437.9300537109375 C 1600.3900146484375 1437.9300537109375 1600.1600341796875 1438.22998046875 1600.18994140625 1438.72998046875 C 1600.18994140625 1438.72998046875 1600.22998046875 1439.25 1600.5 1439.510009765625 Z M 1604.27001953125 1435.050048828125 L 1604.219970703125 1434.22998046875 L 1605.2099609375 1434.1600341796875 L 1605.27001953125 1434.989990234375 Z M 1599.8299560546875 1430.6199951171875 L 1603.06005859375 1432.4100341796875 L 1602.9300537109375 1430.4200439453125 Z M 1599.1500244140625 1430.8900146484375 L 1599.0899658203125 1429.8900146484375 L 1602.8800048828125 1429.6400146484375 L 1602.8199462890625 1428.81005859375 L 1603.47998046875 1428.77001953125 L 1603.530029296875 1429.5899658203125 L 1604.9000244140625 1429.5 L 1604.9599609375 1430.280029296875 L 1603.5799560546875 1430.3699951171875 L 1603.760009765625 1433.010009765625 L 1602.989990234375 1433.06005859375 Z" stroke="black" fill="none" stroke-width="1" />
                </svg>