<svg xmlns="http://www.w3.org/2000/svg" width="5.1800537109375" height="7.300048828125" viewBox="1634.97998046875 1202.699951171875 5.1800537109375 7.300048828125">
                <rect x="1634.97998046875" y="1202.699951171875" width="5.1800537109375" height="7.300048828125" fill="white"/>
                <path d="M 1635.969970703125 1206.52001953125 L 1635.969970703125 1209.18994140625 L 1637.550048828125 1209.18994140625 C 1637.550048828125 1209.18994140625 1638.3399658203125 1209.18994140625 1638.72998046875 1208.860107421875 C 1638.72998046875 1208.860107421875 1639.1099853515625 1208.530029296875 1639.1099853515625 1207.840087890625 C 1639.1099853515625 1207.840087890625 1639.1099853515625 1207.169921875 1638.72998046875 1206.840087890625 C 1638.72998046875 1206.840087890625 1638.3399658203125 1206.52001953125 1637.550048828125 1206.52001953125 Z M 1635.969970703125 1203.52001953125 L 1635.969970703125 1205.719970703125 L 1637.4200439453125 1205.719970703125 C 1637.4200439453125 1205.719970703125 1638.1600341796875 1205.719970703125 1638.510009765625 1205.449951171875 C 1638.510009765625 1205.449951171875 1638.8599853515625 1205.169921875 1638.8599853515625 1204.6201171875 C 1638.8599853515625 1204.6201171875 1638.8599853515625 1204.06005859375 1638.510009765625 1203.7900390625 C 1638.510009765625 1203.7900390625 1638.1600341796875 1203.52001953125 1637.4200439453125 1203.52001953125 Z M 1634.97998046875 1202.699951171875 L 1637.5 1202.699951171875 C 1637.5 1202.699951171875 1638.6300048828125 1202.699951171875 1639.22998046875 1203.169921875 C 1639.22998046875 1203.169921875 1639.8399658203125 1203.639892578125 1639.8399658203125 1204.52001953125 C 1639.8399658203125 1204.52001953125 1639.8399658203125 1205.18994140625 1639.530029296875 1205.580078125 C 1639.530029296875 1205.580078125 1639.219970703125 1205.969970703125 1638.6300048828125 1206.06005859375 C 1638.6300048828125 1206.06005859375 1639.3399658203125 1206.219970703125 1639.75 1206.719970703125 C 1639.75 1206.719970703125 1640.1600341796875 1207.219970703125 1640.1600341796875 1207.949951171875 C 1640.1600341796875 1207.949951171875 1640.1600341796875 1208.93994140625 1639.489990234375 1209.469970703125 C 1639.489990234375 1209.469970703125 1638.8299560546875 1210.0 1637.5899658203125 1210.0 L 1634.97998046875 1210.0 Z" stroke="black" fill="none" stroke-width="1" />
                </svg>