<svg xmlns="http://www.w3.org/2000/svg" width="31.679931640625" height="6.190185546875" viewBox="2281.590087890625 3330.919921875 31.679931640625 6.190185546875">
                <rect x="2281.590087890625" y="3330.919921875" width="31.679931640625" height="6.190185546875" fill="white"/>
                <path d="M 2282.530029296875 3336.330078125 L 2285.300048828125 3336.330078125 L 2285.300048828125 3337.0 L 2281.590087890625 3337.0 L 2281.590087890625 3336.330078125 C 2281.590087890625 3336.330078125 2282.030029296875 3335.8701171875 2282.81005859375 3335.090087890625 C 2282.81005859375 3335.090087890625 2283.590087890625 3334.300048828125 2283.780029296875 3334.080078125 C 2283.780029296875 3334.080078125 2284.169921875 3333.659912109375 2284.320068359375 3333.360107421875 C 2284.320068359375 3333.360107421875 2284.469970703125 3333.06005859375 2284.469970703125 3332.780029296875 C 2284.469970703125 3332.780029296875 2284.469970703125 3332.31005859375 2284.139892578125 3332.02001953125 C 2284.139892578125 3332.02001953125 2283.81005859375 3331.719970703125 2283.300048828125 3331.719970703125 C 2283.300048828125 3331.719970703125 2282.919921875 3331.719970703125 2282.510009765625 3331.85009765625 C 2282.510009765625 3331.85009765625 2282.090087890625 3331.97998046875 2281.6298828125 3332.25 L 2281.6298828125 3331.449951171875 C 2281.6298828125 3331.449951171875 2282.110107421875 3331.25 2282.52001953125 3331.159912109375 C 2282.52001953125 3331.159912109375 2282.93994140625 3331.06005859375 2283.280029296875 3331.06005859375 C 2283.280029296875 3331.06005859375 2284.18994140625 3331.06005859375 2284.72998046875 3331.52001953125 C 2284.72998046875 3331.52001953125 2285.27001953125 3331.969970703125 2285.27001953125 3332.719970703125 C 2285.27001953125 3332.719970703125 2285.27001953125 3333.080078125 2285.1298828125 3333.409912109375 C 2285.1298828125 3333.409912109375 2284.97998046875 3333.72998046875 2284.639892578125 3334.169921875 C 2284.639892578125 3334.169921875 2284.530029296875 3334.280029296875 2284.010009765625 3334.820068359375 Z M 2289.1201171875 3331.860107421875 L 2287.1201171875 3334.969970703125 L 2289.1201171875 3334.969970703125 Z M 2288.89990234375 3331.169921875 L 2289.89990234375 3331.169921875 L 2289.89990234375 3334.969970703125 L 2290.72998046875 3334.969970703125 L 2290.72998046875 3335.6201171875 L 2289.89990234375 3335.6201171875 L 2289.89990234375 3337.0 L 2289.1201171875 3337.0 L 2289.1201171875 3335.6201171875 L 2286.47998046875 3335.6201171875 L 2286.47998046875 3334.860107421875 Z M 2293.72998046875 3331.68994140625 C 2293.72998046875 3331.68994140625 2293.1201171875 3331.68994140625 2292.81005859375 3332.2900390625 C 2292.81005859375 3332.2900390625 2292.510009765625 3332.889892578125 2292.510009765625 3334.090087890625 C 2292.510009765625 3334.090087890625 2292.510009765625 3335.280029296875 2292.81005859375 3335.8798828125 C 2292.81005859375 3335.8798828125 2293.1201171875 3336.47998046875 2293.72998046875 3336.47998046875 C 2293.72998046875 3336.47998046875 2294.340087890625 3336.47998046875 2294.639892578125 3335.8798828125 C 2294.639892578125 3335.8798828125 2294.949951171875 3335.280029296875 2294.949951171875 3334.090087890625 C 2294.949951171875 3334.090087890625 2294.949951171875 3332.889892578125 2294.639892578125 3332.2900390625 Z M 2293.72998046875 3331.06005859375 C 2293.72998046875 3331.06005859375 2294.7099609375 3331.06005859375 2295.22998046875 3331.840087890625 C 2295.22998046875 3331.840087890625 2295.739990234375 3332.610107421875 2295.739990234375 3334.090087890625 C 2295.739990234375 3334.090087890625 2295.739990234375 3335.56005859375 2295.22998046875 3336.340087890625 C 2295.22998046875 3336.340087890625 2294.7099609375 3337.110107421875 2293.72998046875 3337.110107421875 C 2293.72998046875 3337.110107421875 2292.739990234375 3337.110107421875 2292.22998046875 3336.340087890625 C 2292.22998046875 3336.340087890625 2291.7099609375 3335.56005859375 2291.7099609375 3334.090087890625 C 2291.7099609375 3334.090087890625 2291.7099609375 3332.610107421875 2292.22998046875 3331.840087890625 Z M 2301.780029296875 3330.919921875 L 2301.780029296875 3331.52001953125 L 2301.090087890625 3331.52001953125 C 2301.090087890625 3331.52001953125 2300.699951171875 3331.52001953125 2300.550048828125 3331.669921875 C 2300.550048828125 3331.669921875 2300.409912109375 3331.830078125 2300.409912109375 3332.22998046875 L 2300.409912109375 3332.6201171875 L 2301.590087890625 3332.6201171875 L 2301.590087890625 3333.18994140625 L 2300.409912109375 3333.18994140625 L 2300.409912109375 3337.0 L 2299.68994140625 3337.0 L 2299.68994140625 3333.18994140625 L 2299.0 3333.18994140625 L 2299.0 3332.6201171875 L 2299.68994140625 3332.6201171875 L 2299.68994140625 3332.31005859375 C 2299.68994140625 3332.31005859375 2299.68994140625 3331.590087890625 2300.02001953125 3331.260009765625 C 2300.02001953125 3331.260009765625 2300.360107421875 3330.919921875 2301.110107421875 3330.919921875 Z M 2301.860107421875 3332.6201171875 L 2302.6298828125 3332.6201171875 L 2304.0 3336.300048828125 L 2305.360107421875 3332.6201171875 L 2306.1298828125 3332.6201171875 L 2304.489990234375 3337.0 L 2303.5 3337.0 Z M 2307.219970703125 3336.0 L 2308.050048828125 3336.0 L 2308.050048828125 3337.0 L 2307.219970703125 3337.0 Z M 2309.909912109375 3336.330078125 L 2311.18994140625 3336.330078125 L 2311.18994140625 3331.889892578125 L 2309.780029296875 3332.169921875 L 2309.780029296875 3331.449951171875 L 2311.18994140625 3331.169921875 L 2311.969970703125 3331.169921875 L 2311.969970703125 3336.330078125 L 2313.27001953125 3336.330078125 L 2313.27001953125 3337.0 L 2309.909912109375 3337.0 Z" stroke="black" fill="none" stroke-width="1" />
                </svg>