<svg xmlns="http://www.w3.org/2000/svg" width="4.7900390625" height="7.56005859375" viewBox="1126.77001953125 2032.5799560546875 4.7900390625 7.56005859375">
                <rect x="1126.77001953125" y="2032.5799560546875" width="4.7900390625" height="7.56005859375" fill="white"/>
                <path d="M 1130.06005859375 2036.06005859375 C 1130.06005859375 2036.06005859375 1130.77001953125 2036.219970703125 1131.1600341796875 2036.699951171875 C 1131.1600341796875 2036.699951171875 1131.56005859375 2037.1700439453125 1131.56005859375 2037.8699951171875 C 1131.56005859375 2037.8699951171875 1131.56005859375 2038.949951171875 1130.8199462890625 2039.550048828125 C 1130.8199462890625 2039.550048828125 1130.0799560546875 2040.1400146484375 1128.699951171875 2040.1400146484375 C 1128.699951171875 2040.1400146484375 1128.25 2040.1400146484375 1127.77001953125 2040.050048828125 C 1127.77001953125 2040.050048828125 1127.280029296875 2039.949951171875 1126.77001953125 2039.780029296875 L 1126.77001953125 2038.8299560546875 C 1126.77001953125 2038.8299560546875 1127.1700439453125 2039.06005859375 1127.6600341796875 2039.18994140625 C 1127.6600341796875 2039.18994140625 1128.1600341796875 2039.31005859375 1128.68994140625 2039.31005859375 C 1128.68994140625 2039.31005859375 1129.6099853515625 2039.31005859375 1130.0899658203125 2038.949951171875 C 1130.0899658203125 2038.949951171875 1130.5799560546875 2038.5799560546875 1130.5799560546875 2037.8699951171875 C 1130.5799560546875 2037.8699951171875 1130.5799560546875 2037.22998046875 1130.1300048828125 2036.8699951171875 C 1130.1300048828125 2036.8699951171875 1129.6700439453125 2036.52001953125 1128.8800048828125 2036.52001953125 L 1128.02001953125 2036.52001953125 L 1128.02001953125 2035.699951171875 L 1128.9100341796875 2035.699951171875 C 1128.9100341796875 2035.699951171875 1129.6400146484375 2035.699951171875 1130.02001953125 2035.4100341796875 C 1130.02001953125 2035.4100341796875 1130.4100341796875 2035.1099853515625 1130.4100341796875 2034.56005859375 C 1130.4100341796875 2034.56005859375 1130.4100341796875 2034.02001953125 1130.010009765625 2033.7099609375 C 1130.010009765625 2033.7099609375 1129.6099853515625 2033.4100341796875 1128.8800048828125 2033.4100341796875 C 1128.8800048828125 2033.4100341796875 1128.469970703125 2033.4100341796875 1128.0 2033.489990234375 C 1128.0 2033.489990234375 1127.530029296875 2033.5799560546875 1126.97998046875 2033.77001953125 L 1126.97998046875 2032.8900146484375 C 1126.97998046875 2032.8900146484375 1127.550048828125 2032.72998046875 1128.0400390625 2032.6600341796875 C 1128.0400390625 2032.6600341796875 1128.530029296875 2032.5799560546875 1128.949951171875 2032.5799560546875 C 1128.949951171875 2032.5799560546875 1130.0799560546875 2032.5799560546875 1130.72998046875 2033.0899658203125 C 1130.72998046875 2033.0899658203125 1131.3900146484375 2033.5899658203125 1131.3900146484375 2034.469970703125 C 1131.3900146484375 2034.469970703125 1131.3900146484375 2035.0799560546875 1131.050048828125 2035.489990234375 Z" stroke="black" fill="none" stroke-width="1" />
                </svg>