<svg xmlns="http://www.w3.org/2000/svg" width="91.25" height="0.900146484375" viewBox="1856.8800048828125 1121.159912109375 91.25 0.900146484375">
                <rect x="1856.8800048828125" y="1121.159912109375" width="91.25" height="0.900146484375" fill="white"/>
                <path d="M 1863.6300048828125 1121.159912109375 L 1863.6300048828125 1122.06005859375 L 1856.8800048828125 1122.06005859375 L 1856.8800048828125 1121.159912109375 Z M 1870.1300048828125 1121.159912109375 L 1870.1300048828125 1122.06005859375 L 1863.3800048828125 1122.06005859375 L 1863.3800048828125 1121.159912109375 Z M 1876.6300048828125 1121.159912109375 L 1876.6300048828125 1122.06005859375 L 1869.8800048828125 1122.06005859375 L 1869.8800048828125 1121.159912109375 Z M 1883.1300048828125 1121.159912109375 L 1883.1300048828125 1122.06005859375 L 1876.3800048828125 1122.06005859375 L 1876.3800048828125 1121.159912109375 Z M 1889.6300048828125 1121.159912109375 L 1889.6300048828125 1122.06005859375 L 1882.8800048828125 1122.06005859375 L 1882.8800048828125 1121.159912109375 Z M 1896.1300048828125 1121.159912109375 L 1896.1300048828125 1122.06005859375 L 1889.3800048828125 1122.06005859375 L 1889.3800048828125 1121.159912109375 Z M 1902.6300048828125 1121.159912109375 L 1902.6300048828125 1122.06005859375 L 1895.8800048828125 1122.06005859375 L 1895.8800048828125 1121.159912109375 Z M 1909.1300048828125 1121.159912109375 L 1909.1300048828125 1122.06005859375 L 1902.3800048828125 1122.06005859375 L 1902.3800048828125 1121.159912109375 Z M 1915.6300048828125 1121.159912109375 L 1915.6300048828125 1122.06005859375 L 1908.8800048828125 1122.06005859375 L 1908.8800048828125 1121.159912109375 Z M 1922.1300048828125 1121.159912109375 L 1922.1300048828125 1122.06005859375 L 1915.3800048828125 1122.06005859375 L 1915.3800048828125 1121.159912109375 Z M 1928.6300048828125 1121.159912109375 L 1928.6300048828125 1122.06005859375 L 1921.8800048828125 1122.06005859375 L 1921.8800048828125 1121.159912109375 Z M 1935.1300048828125 1121.159912109375 L 1935.1300048828125 1122.06005859375 L 1928.3800048828125 1122.06005859375 L 1928.3800048828125 1121.159912109375 Z M 1941.6300048828125 1121.159912109375 L 1941.6300048828125 1122.06005859375 L 1934.8800048828125 1122.06005859375 L 1934.8800048828125 1121.159912109375 Z M 1948.1300048828125 1121.159912109375 L 1948.1300048828125 1122.06005859375 L 1941.3800048828125 1122.06005859375 L 1941.3800048828125 1121.159912109375 Z" stroke="black" fill="none" stroke-width="1" />
                </svg>