<svg xmlns="http://www.w3.org/2000/svg" width="14.57000732421875" height="9.8499755859375" viewBox="533.0599975585938 1725.3399658203125 14.57000732421875 9.8499755859375">
                <rect x="533.0599975585938" y="1725.3399658203125" width="14.57000732421875" height="9.8499755859375" fill="white"/>
                <path d="M 533.0599975585938 1725.52001953125 L 539.1599731445312 1725.52001953125 L 539.1599731445312 1726.06005859375 L 535.719970703125 1735.0 L 534.3800048828125 1735.0 L 537.6300048828125 1726.6099853515625 L 533.0599975585938 1726.6099853515625 Z M 541.6900024414062 1734.800048828125 L 541.6900024414062 1733.6400146484375 C 541.6900024414062 1733.6400146484375 542.1799926757812 1733.8599853515625 542.6799926757812 1733.97998046875 C 542.6799926757812 1733.97998046875 543.1799926757812 1734.1099853515625 543.6500244140625 1734.1099853515625 C 543.6500244140625 1734.1099853515625 544.9099731445312 1734.1099853515625 545.5800170898438 1733.25 C 545.5800170898438 1733.25 546.260009765625 1732.3900146484375 546.3499755859375 1730.6600341796875 C 546.3499755859375 1730.6600341796875 545.989990234375 1731.199951171875 545.4199829101562 1731.489990234375 C 545.4199829101562 1731.489990234375 544.8499755859375 1731.780029296875 544.1599731445312 1731.780029296875 C 544.1599731445312 1731.780029296875 542.739990234375 1731.780029296875 541.9099731445312 1730.9200439453125 C 541.9099731445312 1730.9200439453125 541.0800170898438 1730.06005859375 541.0800170898438 1728.5799560546875 C 541.0800170898438 1728.5799560546875 541.0800170898438 1727.1099853515625 541.9500122070312 1726.22998046875 C 541.9500122070312 1726.22998046875 542.8200073242188 1725.3399658203125 544.260009765625 1725.3399658203125 C 544.260009765625 1725.3399658203125 545.9000244140625 1725.3399658203125 546.760009765625 1726.6099853515625 C 546.760009765625 1726.6099853515625 547.6300048828125 1727.8699951171875 547.6300048828125 1730.27001953125 C 547.6300048828125 1730.27001953125 547.6300048828125 1732.52001953125 546.5700073242188 1733.8499755859375 C 546.5700073242188 1733.8499755859375 545.510009765625 1735.18994140625 543.7100219726562 1735.18994140625 C 543.7100219726562 1735.18994140625 543.219970703125 1735.18994140625 542.72998046875 1735.0899658203125 Z M 544.260009765625 1730.780029296875 C 544.260009765625 1730.780029296875 545.1099853515625 1730.780029296875 545.6199951171875 1730.199951171875 C 545.6199951171875 1730.199951171875 546.1300048828125 1729.6099853515625 546.1300048828125 1728.5799560546875 C 546.1300048828125 1728.5799560546875 546.1300048828125 1727.550048828125 545.6199951171875 1726.949951171875 C 545.6199951171875 1726.949951171875 545.1099853515625 1726.3599853515625 544.260009765625 1726.3599853515625 C 544.260009765625 1726.3599853515625 543.3800048828125 1726.3599853515625 542.8800048828125 1726.949951171875 C 542.8800048828125 1726.949951171875 542.3800048828125 1727.550048828125 542.3800048828125 1728.5799560546875 C 542.3800048828125 1728.5799560546875 542.3800048828125 1729.6099853515625 542.8800048828125 1730.199951171875 Z" stroke="black" fill="none" stroke-width="1" />
                </svg>