<svg xmlns="http://www.w3.org/2000/svg" width="21.22998046875" height="6.0498046875" viewBox="1137.8800048828125 2229.06005859375 21.22998046875 6.0498046875">
                <rect x="1137.8800048828125" y="2229.06005859375" width="21.22998046875" height="6.0498046875" fill="white"/>
                <path d="M 1138.0 2234.330078125 L 1139.280029296875 2234.330078125 L 1139.280029296875 2229.89013671875 L 1137.8800048828125 2230.169921875 L 1137.8800048828125 2229.449951171875 L 1139.280029296875 2229.169921875 L 1140.06005859375 2229.169921875 L 1140.06005859375 2234.330078125 L 1141.3599853515625 2234.330078125 L 1141.3599853515625 2235.0 L 1138.0 2235.0 Z M 1143.0899658203125 2234.330078125 L 1144.3699951171875 2234.330078125 L 1144.3699951171875 2229.89013671875 L 1142.9599609375 2230.169921875 L 1142.9599609375 2229.449951171875 L 1144.3699951171875 2229.169921875 L 1145.1500244140625 2229.169921875 L 1145.1500244140625 2234.330078125 L 1146.449951171875 2234.330078125 L 1146.449951171875 2235.0 L 1143.0899658203125 2235.0 Z M 1148.050048828125 2234.8701171875 L 1148.050048828125 2234.16015625 C 1148.050048828125 2234.16015625 1148.3499755859375 2234.300048828125 1148.6600341796875 2234.3701171875 C 1148.6600341796875 2234.3701171875 1148.9599609375 2234.449951171875 1149.260009765625 2234.449951171875 C 1149.260009765625 2234.449951171875 1150.0400390625 2234.449951171875 1150.449951171875 2233.919921875 C 1150.449951171875 2233.919921875 1150.8699951171875 2233.39013671875 1150.9300537109375 2232.330078125 C 1150.9300537109375 2232.330078125 1150.699951171875 2232.66015625 1150.3499755859375 2232.83984375 C 1150.3499755859375 2232.83984375 1150.010009765625 2233.02001953125 1149.5899658203125 2233.02001953125 C 1149.5899658203125 2233.02001953125 1148.7099609375 2233.02001953125 1148.199951171875 2232.489990234375 C 1148.199951171875 2232.489990234375 1147.6800537109375 2231.969970703125 1147.6800537109375 2231.050048828125 C 1147.6800537109375 2231.050048828125 1147.6800537109375 2230.14013671875 1148.2099609375 2229.60009765625 C 1148.2099609375 2229.60009765625 1148.739990234375 2229.06005859375 1149.6300048828125 2229.06005859375 C 1149.6300048828125 2229.06005859375 1150.6500244140625 2229.06005859375 1151.1800537109375 2229.83984375 C 1151.1800537109375 2229.83984375 1151.7099609375 2230.60986328125 1151.7099609375 2232.08984375 C 1151.7099609375 2232.08984375 1151.7099609375 2233.469970703125 1151.050048828125 2234.2900390625 C 1151.050048828125 2234.2900390625 1150.4000244140625 2235.10986328125 1149.2900390625 2235.10986328125 C 1149.2900390625 2235.10986328125 1148.989990234375 2235.10986328125 1148.68994140625 2235.050048828125 Z M 1149.6300048828125 2232.41015625 C 1149.6300048828125 2232.41015625 1150.1600341796875 2232.41015625 1150.47998046875 2232.0400390625 C 1150.47998046875 2232.0400390625 1150.7900390625 2231.669921875 1150.7900390625 2231.050048828125 C 1150.7900390625 2231.050048828125 1150.7900390625 2230.419921875 1150.47998046875 2230.050048828125 C 1150.47998046875 2230.050048828125 1150.1600341796875 2229.68994140625 1149.6300048828125 2229.68994140625 C 1149.6300048828125 2229.68994140625 1149.0999755859375 2229.68994140625 1148.7900390625 2230.050048828125 C 1148.7900390625 2230.050048828125 1148.47998046875 2230.419921875 1148.47998046875 2231.050048828125 C 1148.47998046875 2231.050048828125 1148.47998046875 2231.669921875 1148.7900390625 2232.0400390625 Z M 1153.1300048828125 2234.0 L 1153.9599609375 2234.0 L 1153.9599609375 2235.0 L 1153.1300048828125 2235.0 Z M 1156.3399658203125 2234.330078125 L 1159.1099853515625 2234.330078125 L 1159.1099853515625 2235.0 L 1155.4100341796875 2235.0 L 1155.4100341796875 2234.330078125 C 1155.4100341796875 2234.330078125 1155.8399658203125 2233.8701171875 1156.6300048828125 2233.08984375 C 1156.6300048828125 2233.08984375 1157.4100341796875 2232.300048828125 1157.5899658203125 2232.080078125 C 1157.5899658203125 2232.080078125 1157.97998046875 2231.66015625 1158.1300048828125 2231.35986328125 C 1158.1300048828125 2231.35986328125 1158.280029296875 2231.06005859375 1158.280029296875 2230.780029296875 C 1158.280029296875 2230.780029296875 1158.280029296875 2230.31005859375 1157.949951171875 2230.02001953125 C 1157.949951171875 2230.02001953125 1157.6300048828125 2229.719970703125 1157.1099853515625 2229.719970703125 C 1157.1099853515625 2229.719970703125 1156.72998046875 2229.719970703125 1156.3199462890625 2229.85009765625 C 1156.3199462890625 2229.85009765625 1155.9100341796875 2229.97998046875 1155.43994140625 2230.25 L 1155.43994140625 2229.449951171875 C 1155.43994140625 2229.449951171875 1155.9200439453125 2229.25 1156.3399658203125 2229.16015625 C 1156.3399658203125 2229.16015625 1156.75 2229.06005859375 1157.0899658203125 2229.06005859375 C 1157.0899658203125 2229.06005859375 1158.0 2229.06005859375 1158.5400390625 2229.52001953125 C 1158.5400390625 2229.52001953125 1159.0799560546875 2229.969970703125 1159.0799560546875 2230.719970703125 C 1159.0799560546875 2230.719970703125 1159.0799560546875 2231.080078125 1158.93994140625 2231.41015625 C 1158.93994140625 2231.41015625 1158.800048828125 2231.72998046875 1158.449951171875 2232.169921875 C 1158.449951171875 2232.169921875 1158.3399658203125 2232.280029296875 1157.8199462890625 2232.81982421875 Z" stroke="black" fill="none" stroke-width="1" />
                </svg>