<svg xmlns="http://www.w3.org/2000/svg" width="7.919921875" height="5.2899169921875" viewBox="1566.52001953125 1573.800048828125 7.919921875 5.2899169921875">
                <rect x="1566.52001953125" y="1573.800048828125" width="7.919921875" height="5.2899169921875" fill="white"/>
                <path d="M 1567.3399658203125 1578.4200439453125 L 1569.75 1578.4200439453125 L 1569.75 1579.0 L 1566.52001953125 1579.0 L 1566.52001953125 1578.4200439453125 C 1566.52001953125 1578.4200439453125 1566.9100341796875 1578.02001953125 1567.5899658203125 1577.3299560546875 C 1567.5899658203125 1577.3299560546875 1568.27001953125 1576.6400146484375 1568.43994140625 1576.43994140625 C 1568.43994140625 1576.43994140625 1568.77001953125 1576.0799560546875 1568.9000244140625 1575.81005859375 C 1568.9000244140625 1575.81005859375 1569.030029296875 1575.550048828125 1569.030029296875 1575.31005859375 C 1569.030029296875 1575.31005859375 1569.030029296875 1574.8900146484375 1568.75 1574.6400146484375 C 1568.75 1574.6400146484375 1568.469970703125 1574.3900146484375 1568.0 1574.3900146484375 C 1568.0 1574.3900146484375 1567.6700439453125 1574.3900146484375 1567.31005859375 1574.5 C 1567.31005859375 1574.5 1566.949951171875 1574.6099853515625 1566.550048828125 1574.8399658203125 L 1566.550048828125 1574.1400146484375 C 1566.550048828125 1574.1400146484375 1566.969970703125 1573.969970703125 1567.3299560546875 1573.8800048828125 C 1567.3299560546875 1573.8800048828125 1567.68994140625 1573.800048828125 1567.97998046875 1573.800048828125 C 1567.97998046875 1573.800048828125 1568.780029296875 1573.800048828125 1569.25 1574.199951171875 C 1569.25 1574.199951171875 1569.719970703125 1574.5899658203125 1569.719970703125 1575.27001953125 C 1569.719970703125 1575.27001953125 1569.719970703125 1575.5799560546875 1569.5999755859375 1575.8599853515625 C 1569.5999755859375 1575.8599853515625 1569.47998046875 1576.1400146484375 1569.1700439453125 1576.52001953125 C 1569.1700439453125 1576.52001953125 1569.0899658203125 1576.6199951171875 1568.6300048828125 1577.0899658203125 Z M 1572.6700439453125 1574.3399658203125 C 1572.6700439453125 1574.3399658203125 1572.1400146484375 1574.3399658203125 1571.8800048828125 1574.8699951171875 C 1571.8800048828125 1574.8699951171875 1571.6099853515625 1575.4100341796875 1571.6099853515625 1576.449951171875 C 1571.6099853515625 1576.449951171875 1571.6099853515625 1577.5 1571.8800048828125 1578.02001953125 C 1571.8800048828125 1578.02001953125 1572.1400146484375 1578.550048828125 1572.6700439453125 1578.550048828125 C 1572.6700439453125 1578.550048828125 1573.219970703125 1578.550048828125 1573.47998046875 1578.02001953125 C 1573.47998046875 1578.02001953125 1573.75 1577.5 1573.75 1576.449951171875 C 1573.75 1576.449951171875 1573.75 1575.4100341796875 1573.47998046875 1574.8699951171875 Z M 1572.6700439453125 1573.800048828125 C 1572.6700439453125 1573.800048828125 1573.530029296875 1573.800048828125 1573.97998046875 1574.47998046875 C 1573.97998046875 1574.47998046875 1574.43994140625 1575.1600341796875 1574.43994140625 1576.449951171875 C 1574.43994140625 1576.449951171875 1574.43994140625 1577.72998046875 1573.97998046875 1578.4100341796875 C 1573.97998046875 1578.4100341796875 1573.530029296875 1579.0899658203125 1572.6700439453125 1579.0899658203125 C 1572.6700439453125 1579.0899658203125 1571.8299560546875 1579.0899658203125 1571.3800048828125 1578.4100341796875 C 1571.3800048828125 1578.4100341796875 1570.9200439453125 1577.72998046875 1570.9200439453125 1576.449951171875 C 1570.9200439453125 1576.449951171875 1570.9200439453125 1575.1600341796875 1571.3800048828125 1574.47998046875 Z" stroke="black" fill="none" stroke-width="1" />
                </svg>