<svg xmlns="http://www.w3.org/2000/svg" width="7.1500244140625" height="17.0999755859375" viewBox="647.8099975585938 1513.81005859375 7.1500244140625 17.0999755859375">
                <rect x="647.8099975585938" y="1513.81005859375" width="7.1500244140625" height="17.0999755859375" fill="white"/>
                <path d="M 654.7999877929688 1530.1400146484375 L 654.0900268554688 1530.199951171875 C 654.0900268554688 1530.199951171875 654.2000122070312 1529.8900146484375 654.25 1529.5799560546875 C 654.25 1529.5799560546875 654.3099975585938 1529.27001953125 654.280029296875 1528.969970703125 C 654.280029296875 1528.969970703125 654.219970703125 1528.199951171875 653.6500244140625 1527.8299560546875 C 653.6500244140625 1527.8299560546875 653.0900268554688 1527.4599609375 652.02001953125 1527.489990234375 C 652.02001953125 1527.489990234375 652.3699951171875 1527.68994140625 652.5800170898438 1528.02001953125 C 652.5800170898438 1528.02001953125 652.7899780273438 1528.3499755859375 652.8200073242188 1528.77001953125 C 652.8200073242188 1528.77001953125 652.8900146484375 1529.6400146484375 652.4199829101562 1530.199951171875 C 652.4199829101562 1530.199951171875 651.9400024414062 1530.75 651.02001953125 1530.8299560546875 C 651.02001953125 1530.8299560546875 650.1199951171875 1530.9100341796875 649.530029296875 1530.4200439453125 C 649.530029296875 1530.4200439453125 648.9500122070312 1529.93994140625 648.8800048828125 1529.050048828125 C 648.8800048828125 1529.050048828125 648.7899780273438 1528.0400390625 649.52001953125 1527.43994140625 C 649.52001953125 1527.43994140625 650.25 1526.8499755859375 651.72998046875 1526.72998046875 C 651.72998046875 1526.72998046875 653.0999755859375 1526.6099853515625 653.969970703125 1527.199951171875 C 653.969970703125 1527.199951171875 654.8400268554688 1527.780029296875 654.9299926757812 1528.8900146484375 C 654.9299926757812 1528.8900146484375 654.9600219726562 1529.1800537109375 654.9299926757812 1529.489990234375 Z M 652.2100219726562 1528.77001953125 C 652.2100219726562 1528.77001953125 652.1699829101562 1528.239990234375 651.77001953125 1527.9599609375 C 651.77001953125 1527.9599609375 651.3800048828125 1527.6800537109375 650.760009765625 1527.72998046875 C 650.760009765625 1527.72998046875 650.1400146484375 1527.780029296875 649.7999877929688 1528.1300048828125 C 649.7999877929688 1528.1300048828125 649.4600219726562 1528.469970703125 649.5 1529.0 C 649.5 1529.0 649.5499877929688 1529.530029296875 649.9400024414062 1529.81005859375 C 649.9400024414062 1529.81005859375 650.3300170898438 1530.0899658203125 650.9500122070312 1530.0400390625 C 650.9500122070312 1530.0400390625 651.5800170898438 1529.989990234375 651.9199829101562 1529.6400146484375 Z M 649.2000122070312 1523.3399658203125 L 652.469970703125 1525.0699462890625 L 652.2999877929688 1523.0799560546875 Z M 648.530029296875 1523.6099853515625 L 648.4500122070312 1522.6099853515625 L 652.22998046875 1522.300048828125 L 652.1599731445312 1521.469970703125 L 652.8200073242188 1521.4200439453125 L 652.8900146484375 1522.239990234375 L 654.260009765625 1522.1300048828125 L 654.3200073242188 1522.9100341796875 L 652.9500122070312 1523.02001953125 L 653.1699829101562 1525.6500244140625 L 652.4099731445312 1525.719970703125 Z M 653.0800170898438 1520.0799560546875 L 653.010009765625 1519.260009765625 L 654.010009765625 1519.1700439453125 L 654.0800170898438 1520.0 Z M 648.5599975585938 1515.72998046875 L 651.8300170898438 1517.4599609375 L 651.6599731445312 1515.469970703125 Z M 647.9000244140625 1516.0 L 647.8099975585938 1515.010009765625 L 651.5999755859375 1514.68994140625 L 651.530029296875 1513.8699951171875 L 652.1799926757812 1513.81005859375 L 652.25 1514.6400146484375 L 653.6199951171875 1514.52001953125 L 653.6900024414062 1515.300048828125 L 652.3200073242188 1515.4200439453125 L 652.5399780273438 1518.050048828125 L 651.77001953125 1518.1099853515625 Z" stroke="black" fill="none" stroke-width="1" />
                </svg>