<svg xmlns="http://www.w3.org/2000/svg" width="7.1099853515625" height="16.5198974609375" viewBox="1483.239990234375 1985.4300537109375 7.1099853515625 16.5198974609375">
                <rect x="1483.239990234375" y="1985.4300537109375" width="7.1099853515625" height="16.5198974609375" fill="white"/>
                <path d="M 1483.239990234375 2001.9000244140625 L 1483.52001953125 1998.1600341796875 L 1483.8499755859375 1998.18994140625 L 1489.1800537109375 2000.7099609375 L 1489.1099853515625 2001.5400390625 L 1484.1099853515625 1999.1600341796875 L 1483.8900146484375 2001.949951171875 Z M 1488.7900390625 1996.8800048828125 L 1488.8900146484375 1995.5999755859375 L 1484.469970703125 1995.260009765625 L 1484.6400146484375 1996.6800537109375 L 1483.9200439453125 1996.6300048828125 L 1483.75 1995.2099609375 L 1483.81005859375 1994.4300537109375 L 1488.949951171875 1994.8199462890625 L 1489.050048828125 1993.530029296875 L 1489.719970703125 1993.5799560546875 L 1489.4599609375 1996.9300537109375 Z M 1488.8399658203125 1991.9200439453125 L 1488.9100341796875 1991.0899658203125 L 1489.9000244140625 1991.1700439453125 L 1489.8399658203125 1991.989990234375 Z M 1484.8699951171875 1987.3699951171875 C 1484.8699951171875 1987.3699951171875 1484.8199462890625 1987.97998046875 1485.4000244140625 1988.3299560546875 C 1485.4000244140625 1988.3299560546875 1485.969970703125 1988.6800537109375 1487.1700439453125 1988.77001953125 C 1487.1700439453125 1988.77001953125 1488.3599853515625 1988.8599853515625 1488.97998046875 1988.5999755859375 C 1488.97998046875 1988.5999755859375 1489.5999755859375 1988.3399658203125 1489.6500244140625 1987.739990234375 C 1489.6500244140625 1987.739990234375 1489.699951171875 1987.1300048828125 1489.1199951171875 1986.780029296875 C 1489.1199951171875 1986.780029296875 1488.5400390625 1986.4300537109375 1487.3599853515625 1986.3399658203125 C 1487.3599853515625 1986.3399658203125 1486.1600341796875 1986.25 1485.5400390625 1986.5 Z M 1484.239990234375 1987.3199462890625 C 1484.239990234375 1987.3199462890625 1484.3199462890625 1986.3399658203125 1485.1300048828125 1985.8900146484375 C 1485.1300048828125 1985.8900146484375 1485.93994140625 1985.4300537109375 1487.4200439453125 1985.5400390625 C 1487.4200439453125 1985.5400390625 1488.8800048828125 1985.6600341796875 1489.6199951171875 1986.22998046875 C 1489.6199951171875 1986.22998046875 1490.3499755859375 1986.800048828125 1490.27001953125 1987.780029296875 C 1490.27001953125 1987.780029296875 1490.199951171875 1988.760009765625 1489.3900146484375 1989.219970703125 C 1489.3900146484375 1989.219970703125 1488.5799560546875 1989.6800537109375 1487.1099853515625 1989.56005859375 C 1487.1099853515625 1989.56005859375 1485.6300048828125 1989.449951171875 1484.9000244140625 1988.8800048828125 Z" stroke="black" fill="none" stroke-width="1" />
                </svg>