<svg xmlns="http://www.w3.org/2000/svg" width="10.1199951171875" height="31.2899169921875" viewBox="1558.3499755859375 1798.7900390625 10.1199951171875 31.2899169921875">
                <rect x="1558.3499755859375" y="1798.7900390625" width="10.1199951171875" height="31.2899169921875" fill="white"/>
                <path d="M 1558.4000244140625 1827.699951171875 C 1558.4000244140625 1827.699951171875 1559.3699951171875 1828.3699951171875 1560.3299560546875 1828.72998046875 C 1560.3299560546875 1828.72998046875 1561.2900390625 1829.0899658203125 1562.300048828125 1829.1700439453125 C 1562.300048828125 1829.1700439453125 1563.31005859375 1829.239990234375 1564.3299560546875 1829.030029296875 C 1564.3299560546875 1829.030029296875 1565.3499755859375 1828.8199462890625 1566.3900146484375 1828.300048828125 L 1566.3399658203125 1829.0 C 1566.3399658203125 1829.0 1565.260009765625 1829.5899658203125 1564.239990234375 1829.8399658203125 C 1564.239990234375 1829.8399658203125 1563.219970703125 1830.0799560546875 1562.239990234375 1830.010009765625 C 1562.239990234375 1830.010009765625 1561.260009765625 1829.93994140625 1560.2900390625 1829.5400390625 C 1560.2900390625 1829.5400390625 1559.3199462890625 1829.1500244140625 1558.3499755859375 1828.4000244140625 Z M 1564.5999755859375 1826.3399658203125 L 1564.699951171875 1824.8900146484375 L 1559.719970703125 1824.52001953125 L 1559.9100341796875 1826.1099853515625 L 1559.0999755859375 1826.050048828125 L 1558.9100341796875 1824.4599609375 L 1558.969970703125 1823.5699462890625 L 1564.77001953125 1824.0 L 1564.8800048828125 1822.5699462890625 L 1565.6199951171875 1822.6199951171875 L 1565.3399658203125 1826.3900146484375 Z M 1562.280029296875 1818.56005859375 C 1562.280029296875 1818.56005859375 1562.22998046875 1819.1500244140625 1562.6199951171875 1819.530029296875 C 1562.6199951171875 1819.530029296875 1563.010009765625 1819.9100341796875 1563.7099609375 1819.9599609375 C 1563.7099609375 1819.9599609375 1564.4200439453125 1820.02001953125 1564.8599853515625 1819.699951171875 C 1564.8599853515625 1819.699951171875 1565.2900390625 1819.3800048828125 1565.3299560546875 1818.780029296875 C 1565.3299560546875 1818.780029296875 1565.3699951171875 1818.18994140625 1565.0 1817.81005859375 C 1565.0 1817.81005859375 1564.6199951171875 1817.4300537109375 1563.9000244140625 1817.3800048828125 C 1563.9000244140625 1817.3800048828125 1563.199951171875 1817.3299560546875 1562.760009765625 1817.6500244140625 Z M 1559.6300048828125 1816.5899658203125 L 1560.43994140625 1816.6500244140625 C 1560.43994140625 1816.6500244140625 1560.260009765625 1816.969970703125 1560.1500244140625 1817.300048828125 C 1560.1500244140625 1817.300048828125 1560.0400390625 1817.6400146484375 1560.02001953125 1817.969970703125 C 1560.02001953125 1817.969970703125 1559.949951171875 1818.8499755859375 1560.510009765625 1819.3599853515625 C 1560.510009765625 1819.3599853515625 1561.0699462890625 1819.8599853515625 1562.260009765625 1820.010009765625 C 1562.260009765625 1820.010009765625 1561.9100341796875 1819.739990234375 1561.72998046875 1819.3299560546875 C 1561.72998046875 1819.3299560546875 1561.5400390625 1818.9300537109375 1561.5799560546875 1818.43994140625 C 1561.5799560546875 1818.43994140625 1561.6500244140625 1817.4599609375 1562.300048828125 1816.93994140625 C 1562.300048828125 1816.93994140625 1562.93994140625 1816.4100341796875 1563.969970703125 1816.489990234375 C 1563.969970703125 1816.489990234375 1564.97998046875 1816.56005859375 1565.5400390625 1817.199951171875 C 1565.5400390625 1817.199951171875 1566.1099853515625 1817.8399658203125 1566.030029296875 1818.8399658203125 C 1566.030029296875 1818.8399658203125 1565.949951171875 1819.969970703125 1565.030029296875 1820.510009765625 C 1565.030029296875 1820.510009765625 1564.1099853515625 1821.0400390625 1562.4599609375 1820.9200439453125 C 1562.4599609375 1820.9200439453125 1560.9200439453125 1820.81005859375 1560.050048828125 1820.0 C 1560.050048828125 1820.0 1559.1700439453125 1819.18994140625 1559.27001953125 1817.9599609375 C 1559.27001953125 1817.9599609375 1559.2900390625 1817.6099853515625 1559.3900146484375 1817.280029296875 Z M 1562.8599853515625 1812.1700439453125 C 1562.8599853515625 1812.1700439453125 1563.030029296875 1811.5400390625 1563.489990234375 1811.219970703125 C 1563.489990234375 1811.219970703125 1563.93994140625 1810.9000244140625 1564.5799560546875 1810.949951171875 C 1564.5799560546875 1810.949951171875 1565.550048828125 1811.02001953125 1566.030029296875 1811.719970703125 C 1566.030029296875 1811.719970703125 1566.510009765625 1812.4300537109375 1566.4200439453125 1813.6600341796875 C 1566.4200439453125 1813.6600341796875 1566.3900146484375 1814.06005859375 1566.280029296875 1814.489990234375 C 1566.280029296875 1814.489990234375 1566.1700439453125 1814.9200439453125 1565.9599609375 1815.3800048828125 L 1565.0999755859375 1815.31005859375 C 1565.0999755859375 1815.31005859375 1565.3499755859375 1814.9599609375 1565.489990234375 1814.530029296875 C 1565.489990234375 1814.530029296875 1565.6300048828125 1814.0999755859375 1565.6700439453125 1813.6300048828125 C 1565.6700439453125 1813.6300048828125 1565.72998046875 1812.7900390625 1565.43994140625 1812.3299560546875 C 1565.43994140625 1812.3299560546875 1565.1400146484375 1811.8699951171875 1564.52001953125 1811.8199462890625 C 1564.52001953125 1811.8199462890625 1563.93994140625 1811.780029296875 1563.5799560546875 1812.1600341796875 C 1563.5799560546875 1812.1600341796875 1563.22998046875 1812.5400390625 1563.1700439453125 1813.27001953125 L 1563.1099853515625 1814.0400390625 L 1562.3800048828125 1813.97998046875 L 1562.43994140625 1813.1700439453125 C 1562.43994140625 1813.1700439453125 1562.489990234375 1812.52001953125 1562.260009765625 1812.1600341796875 C 1562.260009765625 1812.1600341796875 1562.030029296875 1811.7900390625 1561.530029296875 1811.760009765625 C 1561.530029296875 1811.760009765625 1561.030029296875 1811.719970703125 1560.72998046875 1812.06005859375 C 1560.72998046875 1812.06005859375 1560.4300537109375 1812.4000244140625 1560.3800048828125 1813.0699462890625 C 1560.3800048828125 1813.0699462890625 1560.3599853515625 1813.4200439453125 1560.4000244140625 1813.8399658203125 C 1560.4000244140625 1813.8399658203125 1560.449951171875 1814.260009765625 1560.5799560546875 1814.77001953125 L 1559.7900390625 1814.7099609375 C 1559.7900390625 1814.7099609375 1559.68994140625 1814.199951171875 1559.6500244140625 1813.760009765625 C 1559.6500244140625 1813.760009765625 1559.6099853515625 1813.3199462890625 1559.6400146484375 1812.9300537109375 C 1559.6400146484375 1812.9300537109375 1559.719970703125 1811.9200439453125 1560.219970703125 1811.3599853515625 C 1560.219970703125 1811.3599853515625 1560.719970703125 1810.800048828125 1561.5 1810.8599853515625 C 1561.5 1810.8599853515625 1562.050048828125 1810.9000244140625 1562.4000244140625 1811.239990234375 Z M 1565.5 1809.3199462890625 L 1565.5699462890625 1808.4000244140625 L 1566.6800537109375 1808.47998046875 L 1566.6099853515625 1809.4000244140625 Z M 1563.3399658203125 1804.280029296875 C 1563.3399658203125 1804.280029296875 1563.300048828125 1804.8800048828125 1563.6800537109375 1805.260009765625 C 1563.6800537109375 1805.260009765625 1564.0699462890625 1805.6400146484375 1564.77001953125 1805.68994140625 C 1564.77001953125 1805.68994140625 1565.489990234375 1805.739990234375 1565.9200439453125 1805.4200439453125 C 1565.9200439453125 1805.4200439453125 1566.3499755859375 1805.0999755859375 1566.3900146484375 1804.510009765625 C 1566.3900146484375 1804.510009765625 1566.43994140625 1803.9200439453125 1566.06005859375 1803.5400390625 C 1566.06005859375 1803.5400390625 1565.6800537109375 1803.1600341796875 1564.9599609375 1803.0999755859375 C 1564.9599609375 1803.0999755859375 1564.260009765625 1803.050048828125 1563.8199462890625 1803.3699951171875 Z M 1560.699951171875 1802.3199462890625 L 1561.510009765625 1802.3800048828125 C 1561.510009765625 1802.3800048828125 1561.3299560546875 1802.68994140625 1561.219970703125 1803.030029296875 C 1561.219970703125 1803.030029296875 1561.1099853515625 1803.3699951171875 1561.0799560546875 1803.68994140625 C 1561.0799560546875 1803.68994140625 1561.010009765625 1804.5799560546875 1561.5699462890625 1805.0799560546875 C 1561.5699462890625 1805.0799560546875 1562.1300048828125 1805.5899658203125 1563.3299560546875 1805.739990234375 C 1563.3299560546875 1805.739990234375 1562.969970703125 1805.4599609375 1562.7900390625 1805.06005859375 C 1562.7900390625 1805.06005859375 1562.6099853515625 1804.6500244140625 1562.6400146484375 1804.1700439453125 C 1562.6400146484375 1804.1700439453125 1562.719970703125 1803.18994140625 1563.3599853515625 1802.6600341796875 C 1563.3599853515625 1802.6600341796875 1564.0 1802.1400146484375 1565.030029296875 1802.219970703125 C 1565.030029296875 1802.219970703125 1566.0400390625 1802.2900390625 1566.6099853515625 1802.9300537109375 C 1566.6099853515625 1802.9300537109375 1567.1700439453125 1803.5699462890625 1567.0999755859375 1804.56005859375 C 1567.0999755859375 1804.56005859375 1567.010009765625 1805.699951171875 1566.0899658203125 1806.239990234375 C 1566.0899658203125 1806.239990234375 1565.1800537109375 1806.77001953125 1563.52001953125 1806.6500244140625 C 1563.52001953125 1806.6500244140625 1561.97998046875 1806.530029296875 1561.1099853515625 1805.719970703125 C 1561.1099853515625 1805.719970703125 1560.239990234375 1804.9100341796875 1560.3299560546875 1803.6800537109375 C 1560.3299560546875 1803.6800537109375 1560.3499755859375 1803.3399658203125 1560.449951171875 1803.010009765625 Z M 1560.4200439453125 1800.5799560546875 L 1560.469970703125 1799.8800048828125 C 1560.469970703125 1799.8800048828125 1561.550048828125 1799.300048828125 1562.56005859375 1799.050048828125 C 1562.56005859375 1799.050048828125 1563.5799560546875 1798.7900390625 1564.56005859375 1798.8699951171875 C 1564.56005859375 1798.8699951171875 1565.5400390625 1798.93994140625 1566.510009765625 1799.3399658203125 C 1566.510009765625 1799.3399658203125 1567.489990234375 1799.739990234375 1568.469970703125 1800.469970703125 L 1568.4100341796875 1801.1800537109375 C 1568.4100341796875 1801.1800537109375 1567.4599609375 1800.510009765625 1566.47998046875 1800.1500244140625 C 1566.47998046875 1800.1500244140625 1565.510009765625 1799.800048828125 1564.489990234375 1799.719970703125 C 1564.489990234375 1799.719970703125 1563.47998046875 1799.6500244140625 1562.47998046875 1799.8599853515625 Z" stroke="black" fill="none" stroke-width="1" />
                </svg>