<svg xmlns="http://www.w3.org/2000/svg" width="7.1199951171875" height="16.8599853515625" viewBox="1490.22998046875 1700.52001953125 7.1199951171875 16.8599853515625">
                <rect x="1490.22998046875" y="1700.52001953125" width="7.1199951171875" height="16.8599853515625" fill="white"/>
                <path d="M 1493.1199951171875 1714.52001953125 C 1493.1199951171875 1714.52001953125 1493.27001953125 1713.969970703125 1493.6700439453125 1713.6800537109375 C 1493.6700439453125 1713.6800537109375 1494.0799560546875 1713.3900146484375 1494.6400146484375 1713.4300537109375 C 1494.6400146484375 1713.4300537109375 1495.510009765625 1713.5 1495.93994140625 1714.1199951171875 C 1495.93994140625 1714.1199951171875 1496.3599853515625 1714.75 1496.27001953125 1715.8399658203125 C 1496.27001953125 1715.8399658203125 1496.25 1716.219970703125 1496.1500244140625 1716.5899658203125 C 1496.1500244140625 1716.5899658203125 1496.050048828125 1716.969970703125 1495.8800048828125 1717.3800048828125 L 1495.1099853515625 1717.3199462890625 C 1495.1099853515625 1717.3199462890625 1495.3199462890625 1717.010009765625 1495.449951171875 1716.6300048828125 C 1495.449951171875 1716.6300048828125 1495.5899658203125 1716.239990234375 1495.6199951171875 1715.8199462890625 C 1495.6199951171875 1715.8199462890625 1495.6800537109375 1715.0799560546875 1495.4100341796875 1714.6600341796875 C 1495.4100341796875 1714.6600341796875 1495.1400146484375 1714.25 1494.5799560546875 1714.2099609375 C 1494.5799560546875 1714.2099609375 1494.0699462890625 1714.1700439453125 1493.75 1714.510009765625 C 1493.75 1714.510009765625 1493.43994140625 1714.8599853515625 1493.3900146484375 1715.5 L 1493.3399658203125 1716.1700439453125 L 1492.699951171875 1716.1199951171875 L 1492.75 1715.4200439453125 C 1492.75 1715.4200439453125 1492.7900390625 1714.8399658203125 1492.5799560546875 1714.510009765625 C 1492.5799560546875 1714.510009765625 1492.3699951171875 1714.1800537109375 1491.93994140625 1714.1500244140625 C 1491.93994140625 1714.1500244140625 1491.489990234375 1714.1099853515625 1491.219970703125 1714.4100341796875 C 1491.219970703125 1714.4100341796875 1490.949951171875 1714.719970703125 1490.9100341796875 1715.31005859375 C 1490.9100341796875 1715.31005859375 1490.8800048828125 1715.6300048828125 1490.9300537109375 1716.010009765625 C 1490.9300537109375 1716.010009765625 1490.969970703125 1716.3800048828125 1491.0899658203125 1716.8399658203125 L 1490.3900146484375 1716.7900390625 C 1490.3900146484375 1716.7900390625 1490.300048828125 1716.3299560546875 1490.27001953125 1715.9300537109375 C 1490.27001953125 1715.9300537109375 1490.22998046875 1715.5400390625 1490.260009765625 1715.1800537109375 C 1490.260009765625 1715.1800537109375 1490.3299560546875 1714.2900390625 1490.77001953125 1713.800048828125 C 1490.77001953125 1713.800048828125 1491.219970703125 1713.31005859375 1491.9200439453125 1713.3599853515625 C 1491.9200439453125 1713.3599853515625 1492.4000244140625 1713.4000244140625 1492.7099609375 1713.699951171875 Z M 1495.7900390625 1711.8800048828125 L 1495.8900146484375 1710.5999755859375 L 1491.469970703125 1710.260009765625 L 1491.6400146484375 1711.6800537109375 L 1490.9200439453125 1711.6300048828125 L 1490.75 1710.2099609375 L 1490.81005859375 1709.4300537109375 L 1495.949951171875 1709.8199462890625 L 1496.050048828125 1708.530029296875 L 1496.719970703125 1708.5799560546875 L 1496.4599609375 1711.9300537109375 Z M 1495.8399658203125 1706.9200439453125 L 1495.9100341796875 1706.0899658203125 L 1496.9000244140625 1706.1700439453125 L 1496.8399658203125 1706.989990234375 Z M 1493.949951171875 1702.4300537109375 C 1493.949951171875 1702.4300537109375 1493.9100341796875 1702.9599609375 1494.25 1703.300048828125 C 1494.25 1703.300048828125 1494.5899658203125 1703.6400146484375 1495.2099609375 1703.68994140625 C 1495.2099609375 1703.68994140625 1495.8399658203125 1703.739990234375 1496.22998046875 1703.4599609375 C 1496.22998046875 1703.4599609375 1496.6199951171875 1703.1700439453125 1496.6600341796875 1702.6400146484375 C 1496.6600341796875 1702.6400146484375 1496.699951171875 1702.1099853515625 1496.3599853515625 1701.77001953125 C 1496.3599853515625 1701.77001953125 1496.010009765625 1701.4300537109375 1495.3900146484375 1701.3900146484375 C 1495.3900146484375 1701.3900146484375 1494.77001953125 1701.3399658203125 1494.3800048828125 1701.6199951171875 Z M 1491.5999755859375 1700.68994140625 L 1492.3199462890625 1700.739990234375 C 1492.3199462890625 1700.739990234375 1492.1600341796875 1701.030029296875 1492.06005859375 1701.3199462890625 C 1492.06005859375 1701.3199462890625 1491.9599609375 1701.6099853515625 1491.9300537109375 1701.9000244140625 C 1491.9300537109375 1701.9000244140625 1491.8699951171875 1702.6800537109375 1492.3699951171875 1703.1400146484375 C 1492.3699951171875 1703.1400146484375 1492.8699951171875 1703.5899658203125 1493.9300537109375 1703.72998046875 C 1493.9300537109375 1703.72998046875 1493.5999755859375 1703.469970703125 1493.449951171875 1703.1199951171875 C 1493.449951171875 1703.1199951171875 1493.2900390625 1702.760009765625 1493.3299560546875 1702.3399658203125 C 1493.3299560546875 1702.3399658203125 1493.3900146484375 1701.469970703125 1493.9599609375 1700.989990234375 C 1493.9599609375 1700.989990234375 1494.530029296875 1700.52001953125 1495.449951171875 1700.5899658203125 C 1495.449951171875 1700.5899658203125 1496.3499755859375 1700.6600341796875 1496.8499755859375 1701.22998046875 C 1496.8499755859375 1701.22998046875 1497.3499755859375 1701.800048828125 1497.280029296875 1702.68994140625 C 1497.280029296875 1702.68994140625 1497.199951171875 1703.699951171875 1496.3900146484375 1704.1700439453125 C 1496.3900146484375 1704.1700439453125 1495.5799560546875 1704.6400146484375 1494.1199951171875 1704.530029296875 C 1494.1199951171875 1704.530029296875 1492.72998046875 1704.4300537109375 1491.9599609375 1703.7099609375 C 1491.9599609375 1703.7099609375 1491.18994140625 1702.989990234375 1491.280029296875 1701.8900146484375 C 1491.280029296875 1701.8900146484375 1491.300048828125 1701.5899658203125 1491.3800048828125 1701.300048828125 Z" stroke="black" fill="none" stroke-width="1" />
                </svg>