<svg xmlns="http://www.w3.org/2000/svg" width="3.3599853515625" height="5.2899169921875" viewBox="1571.530029296875 1364.800048828125 3.3599853515625 5.2899169921875">
                <rect x="1571.530029296875" y="1364.800048828125" width="3.3599853515625" height="5.2899169921875" fill="white"/>
                <path d="M 1573.8399658203125 1367.25 C 1573.8399658203125 1367.25 1574.3399658203125 1367.3599853515625 1574.6199951171875 1367.699951171875 C 1574.6199951171875 1367.699951171875 1574.8900146484375 1368.030029296875 1574.8900146484375 1368.52001953125 C 1574.8900146484375 1368.52001953125 1574.8900146484375 1369.27001953125 1574.3800048828125 1369.6800537109375 C 1574.3800048828125 1369.6800537109375 1573.8599853515625 1370.0899658203125 1572.8900146484375 1370.0899658203125 C 1572.8900146484375 1370.0899658203125 1572.5799560546875 1370.0899658203125 1572.22998046875 1370.030029296875 C 1572.22998046875 1370.030029296875 1571.8900146484375 1369.969970703125 1571.530029296875 1369.8399658203125 L 1571.530029296875 1369.1700439453125 C 1571.530029296875 1369.1700439453125 1571.8299560546875 1369.3399658203125 1572.1600341796875 1369.4300537109375 C 1572.1600341796875 1369.4300537109375 1572.5 1369.52001953125 1572.8800048828125 1369.52001953125 C 1572.8800048828125 1369.52001953125 1573.530029296875 1369.52001953125 1573.8699951171875 1369.260009765625 C 1573.8699951171875 1369.260009765625 1574.199951171875 1369.0 1574.199951171875 1368.52001953125 C 1574.199951171875 1368.52001953125 1574.199951171875 1368.06005859375 1573.8900146484375 1367.81005859375 C 1573.8900146484375 1367.81005859375 1573.5799560546875 1367.56005859375 1573.02001953125 1367.56005859375 L 1572.4200439453125 1367.56005859375 L 1572.4200439453125 1366.97998046875 L 1573.030029296875 1366.97998046875 C 1573.030029296875 1366.97998046875 1573.550048828125 1366.97998046875 1573.8199462890625 1366.780029296875 C 1573.8199462890625 1366.780029296875 1574.0899658203125 1366.5799560546875 1574.0899658203125 1366.199951171875 C 1574.0899658203125 1366.199951171875 1574.0899658203125 1365.81005859375 1573.81005859375 1365.5999755859375 C 1573.81005859375 1365.5999755859375 1573.530029296875 1365.3900146484375 1573.02001953125 1365.3900146484375 C 1573.02001953125 1365.3900146484375 1572.719970703125 1365.3900146484375 1572.4000244140625 1365.449951171875 C 1572.4000244140625 1365.449951171875 1572.0799560546875 1365.52001953125 1571.68994140625 1365.6400146484375 L 1571.68994140625 1365.02001953125 C 1571.68994140625 1365.02001953125 1572.0799560546875 1364.9100341796875 1572.4200439453125 1364.8499755859375 C 1572.4200439453125 1364.8499755859375 1572.77001953125 1364.800048828125 1573.0799560546875 1364.800048828125 C 1573.0799560546875 1364.800048828125 1573.8599853515625 1364.800048828125 1574.3199462890625 1365.1600341796875 C 1574.3199462890625 1365.1600341796875 1574.780029296875 1365.52001953125 1574.780029296875 1366.1199951171875 C 1574.780029296875 1366.1199951171875 1574.780029296875 1366.550048828125 1574.530029296875 1366.8399658203125 Z" stroke="black" fill="none" stroke-width="1" />
                </svg>