<svg xmlns="http://www.w3.org/2000/svg" width="6.7900390625" height="16.9599609375" viewBox="1507.010009765625 1423.7900390625 6.7900390625 16.9599609375">
                <rect x="1507.010009765625" y="1423.7900390625" width="6.7900390625" height="16.9599609375" fill="white"/>
                <path d="M 1508.6700439453125 1438.3199462890625 L 1511.9000244140625 1440.1099853515625 L 1511.77001953125 1438.1099853515625 Z M 1508.0 1438.5799560546875 L 1507.9300537109375 1437.5799560546875 L 1511.719970703125 1437.3299560546875 L 1511.6700439453125 1436.5 L 1512.3199462890625 1436.4599609375 L 1512.3800048828125 1437.2900390625 L 1513.75 1437.199951171875 L 1513.800048828125 1437.97998046875 L 1512.4300537109375 1438.0699462890625 L 1512.5999755859375 1440.699951171875 L 1511.8399658203125 1440.75 Z M 1510.260009765625 1433.5 C 1510.260009765625 1433.5 1510.300048828125 1434.030029296875 1510.6800537109375 1434.3199462890625 C 1510.6800537109375 1434.3199462890625 1511.0699462890625 1434.6099853515625 1511.68994140625 1434.56005859375 C 1511.68994140625 1434.56005859375 1512.3199462890625 1434.52001953125 1512.6600341796875 1434.18994140625 C 1512.6600341796875 1434.18994140625 1513.010009765625 1433.8499755859375 1512.969970703125 1433.3199462890625 C 1512.969970703125 1433.3199462890625 1512.93994140625 1432.7900390625 1512.550048828125 1432.5 C 1512.550048828125 1432.5 1512.1600341796875 1432.219970703125 1511.5400390625 1432.260009765625 C 1511.5400390625 1432.260009765625 1510.9200439453125 1432.300048828125 1510.5699462890625 1432.6300048828125 Z M 1507.68994140625 1432.1099853515625 L 1508.4100341796875 1432.06005859375 C 1508.4100341796875 1432.06005859375 1508.2900390625 1432.3599853515625 1508.22998046875 1432.6600341796875 C 1508.22998046875 1432.6600341796875 1508.1700439453125 1432.969970703125 1508.18994140625 1433.260009765625 C 1508.18994140625 1433.260009765625 1508.239990234375 1434.0400390625 1508.800048828125 1434.4200439453125 C 1508.800048828125 1434.4200439453125 1509.3599853515625 1434.800048828125 1510.4200439453125 1434.7900390625 C 1510.4200439453125 1434.7900390625 1510.0699462890625 1434.5799560546875 1509.8599853515625 1434.25 C 1509.8599853515625 1434.25 1509.6600341796875 1433.9200439453125 1509.6300048828125 1433.5 C 1509.6300048828125 1433.5 1509.5799560546875 1432.6199951171875 1510.0699462890625 1432.0699462890625 C 1510.0699462890625 1432.0699462890625 1510.5699462890625 1431.52001953125 1511.489990234375 1431.4599609375 C 1511.489990234375 1431.4599609375 1512.3900146484375 1431.4000244140625 1512.9599609375 1431.9000244140625 C 1512.9599609375 1431.9000244140625 1513.5400390625 1432.3900146484375 1513.5999755859375 1433.280029296875 C 1513.5999755859375 1433.280029296875 1513.6600341796875 1434.2900390625 1512.9300537109375 1434.8699951171875 C 1512.9300537109375 1434.8699951171875 1512.18994140625 1435.4599609375 1510.72998046875 1435.550048828125 C 1510.72998046875 1435.550048828125 1509.3399658203125 1435.6500244140625 1508.47998046875 1435.0400390625 C 1508.47998046875 1435.0400390625 1507.6099853515625 1434.43994140625 1507.5400390625 1433.3399658203125 C 1507.5400390625 1433.3399658203125 1507.52001953125 1433.0400390625 1507.56005859375 1432.739990234375 Z M 1512.27001953125 1430.050048828125 L 1512.219970703125 1429.22998046875 L 1513.2099609375 1429.1600341796875 L 1513.27001953125 1429.989990234375 Z M 1509.75 1425.8900146484375 C 1509.75 1425.8900146484375 1509.7900390625 1426.4200439453125 1510.1800537109375 1426.699951171875 C 1510.1800537109375 1426.699951171875 1510.56005859375 1426.989990234375 1511.18994140625 1426.949951171875 C 1511.18994140625 1426.949951171875 1511.81005859375 1426.9100341796875 1512.1600341796875 1426.5699462890625 C 1512.1600341796875 1426.5699462890625 1512.5 1426.22998046875 1512.469970703125 1425.699951171875 C 1512.469970703125 1425.699951171875 1512.4300537109375 1425.1700439453125 1512.0400390625 1424.8900146484375 C 1512.0400390625 1424.8900146484375 1511.6600341796875 1424.5999755859375 1511.030029296875 1424.6400146484375 C 1511.030029296875 1424.6400146484375 1510.4100341796875 1424.6800537109375 1510.06005859375 1425.02001953125 Z M 1507.18994140625 1424.489990234375 L 1507.9000244140625 1424.43994140625 C 1507.9000244140625 1424.43994140625 1507.780029296875 1424.75 1507.72998046875 1425.050048828125 C 1507.72998046875 1425.050048828125 1507.6700439453125 1425.3499755859375 1507.68994140625 1425.6500244140625 C 1507.68994140625 1425.6500244140625 1507.739990234375 1426.4300537109375 1508.300048828125 1426.800048828125 C 1508.300048828125 1426.800048828125 1508.8499755859375 1427.1800537109375 1509.9200439453125 1427.1700439453125 C 1509.9200439453125 1427.1700439453125 1509.56005859375 1426.9599609375 1509.3599853515625 1426.6300048828125 C 1509.3599853515625 1426.6300048828125 1509.1600341796875 1426.300048828125 1509.1300048828125 1425.8800048828125 C 1509.1300048828125 1425.8800048828125 1509.0699462890625 1425.010009765625 1509.5699462890625 1424.4599609375 C 1509.5699462890625 1424.4599609375 1510.06005859375 1423.9100341796875 1510.97998046875 1423.8499755859375 C 1510.97998046875 1423.8499755859375 1511.8900146484375 1423.7900390625 1512.4599609375 1424.280029296875 C 1512.4599609375 1424.280029296875 1513.030029296875 1424.77001953125 1513.0899658203125 1425.6600341796875 C 1513.0899658203125 1425.6600341796875 1513.1600341796875 1426.6800537109375 1512.4200439453125 1427.260009765625 C 1512.4200439453125 1427.260009765625 1511.6800537109375 1427.8399658203125 1510.219970703125 1427.93994140625 C 1510.219970703125 1427.93994140625 1508.8299560546875 1428.030029296875 1507.969970703125 1427.4300537109375 C 1507.969970703125 1427.4300537109375 1507.1099853515625 1426.8299560546875 1507.030029296875 1425.719970703125 C 1507.030029296875 1425.719970703125 1507.010009765625 1425.4300537109375 1507.050048828125 1425.1300048828125 Z" stroke="black" fill="none" stroke-width="1" />
                </svg>