<svg xmlns="http://www.w3.org/2000/svg" width="7.16998291015625" height="16.77001953125" viewBox="832.75 1810.8199462890625 7.16998291015625 16.77001953125">
                <rect x="832.75" y="1810.8199462890625" width="7.16998291015625" height="16.77001953125" fill="white"/>
                <path d="M 839.25 1827.06005859375 L 839.1400146484375 1825.780029296875 L 834.719970703125 1826.1500244140625 L 835.1199951171875 1827.530029296875 L 834.4000244140625 1827.5899658203125 L 834.0 1826.2099609375 L 833.9400024414062 1825.4300537109375 L 839.0800170898438 1825.0 L 838.969970703125 1823.7099609375 L 839.6400146484375 1823.6600341796875 L 839.9199829101562 1827.0 Z M 834.0700073242188 1820.8299560546875 C 834.0700073242188 1820.8299560546875 834.1199951171875 1821.43994140625 834.75 1821.68994140625 C 834.75 1821.68994140625 835.3699951171875 1821.949951171875 836.5700073242188 1821.8499755859375 C 836.5700073242188 1821.8499755859375 837.75 1821.75 838.3300170898438 1821.3900146484375 C 838.3300170898438 1821.3900146484375 838.9000244140625 1821.0400390625 838.8499755859375 1820.4300537109375 C 838.8499755859375 1820.4300537109375 838.7999877929688 1819.8299560546875 838.1699829101562 1819.5699462890625 C 838.1699829101562 1819.5699462890625 837.5499877929688 1819.3199462890625 836.3699951171875 1819.4200439453125 C 836.3699951171875 1819.4200439453125 835.1699829101562 1819.52001953125 834.5900268554688 1819.8699951171875 Z M 833.4500122070312 1820.8800048828125 C 833.4500122070312 1820.8800048828125 833.3599853515625 1819.9000244140625 834.0900268554688 1819.3299560546875 C 834.0900268554688 1819.3299560546875 834.8200073242188 1818.75 836.2999877929688 1818.6199951171875 C 836.2999877929688 1818.6199951171875 837.760009765625 1818.5 838.5800170898438 1818.949951171875 C 838.5800170898438 1818.949951171875 839.3900146484375 1819.4000244140625 839.469970703125 1820.3800048828125 C 839.469970703125 1820.3800048828125 839.5499877929688 1821.3599853515625 838.8300170898438 1821.93994140625 C 838.8300170898438 1821.93994140625 838.0999755859375 1822.52001953125 836.6400146484375 1822.6400146484375 C 836.6400146484375 1822.6400146484375 835.1599731445312 1822.760009765625 834.3400268554688 1822.3199462890625 Z M 838.0800170898438 1817.0799560546875 L 838.010009765625 1816.260009765625 L 839.010009765625 1816.1700439453125 L 839.0800170898438 1817.0 Z M 835.5 1812.9599609375 C 835.5 1812.9599609375 835.5399780273438 1813.489990234375 835.9299926757812 1813.77001953125 C 835.9299926757812 1813.77001953125 836.3200073242188 1814.050048828125 836.9500122070312 1814.0 C 836.9500122070312 1814.0 837.5700073242188 1813.949951171875 837.9099731445312 1813.5999755859375 C 837.9099731445312 1813.5999755859375 838.25 1813.260009765625 838.2100219726562 1812.72998046875 C 838.2100219726562 1812.72998046875 838.1599731445312 1812.199951171875 837.77001953125 1811.9200439453125 C 837.77001953125 1811.9200439453125 837.3800048828125 1811.6400146484375 836.75 1811.68994140625 C 836.75 1811.68994140625 836.1300048828125 1811.75 835.7899780273438 1812.0899658203125 Z M 832.9099731445312 1811.6099853515625 L 833.6199951171875 1811.550048828125 C 833.6199951171875 1811.550048828125 833.510009765625 1811.8599853515625 833.4500122070312 1812.1600341796875 C 833.4500122070312 1812.1600341796875 833.4000244140625 1812.4599609375 833.4299926757812 1812.760009765625 C 833.4299926757812 1812.760009765625 833.489990234375 1813.5400390625 834.0499877929688 1813.9000244140625 C 834.0499877929688 1813.9000244140625 834.6199951171875 1814.27001953125 835.6799926757812 1814.25 C 835.6799926757812 1814.25 835.3200073242188 1814.0400390625 835.1099853515625 1813.7099609375 C 835.1099853515625 1813.7099609375 834.9000244140625 1813.3900146484375 834.8699951171875 1812.969970703125 C 834.8699951171875 1812.969970703125 834.7999877929688 1812.0899658203125 835.280029296875 1811.5400390625 C 835.280029296875 1811.5400390625 835.77001953125 1810.97998046875 836.6900024414062 1810.9000244140625 C 836.6900024414062 1810.9000244140625 837.5900268554688 1810.8199462890625 838.1699829101562 1811.31005859375 C 838.1699829101562 1811.31005859375 838.75 1811.7900390625 838.8300170898438 1812.6800537109375 C 838.8300170898438 1812.6800537109375 838.9099731445312 1813.68994140625 838.1900024414062 1814.2900390625 C 838.1900024414062 1814.2900390625 837.4600219726562 1814.8800048828125 836.0 1815.0 C 836.0 1815.0 834.6099853515625 1815.1199951171875 833.739990234375 1814.530029296875 C 833.739990234375 1814.530029296875 832.8699951171875 1813.949951171875 832.77001953125 1812.8399658203125 C 832.77001953125 1812.8399658203125 832.75 1812.550048828125 832.780029296875 1812.25 Z" stroke="black" fill="none" stroke-width="1" />
                </svg>