<svg xmlns="http://www.w3.org/2000/svg" width="176.6099967956543" height="7.72998046875" viewBox="44.97999954223633 3324.409912109375 176.6099967956543 7.72998046875">
                <rect x="44.97999954223633" y="3324.409912109375" width="176.6099967956543" height="7.72998046875" fill="white"/>
                <path d="M 45.970001220703125 3325.52001953125 L 45.970001220703125 3331.18994140625 L 47.15999984741211 3331.18994140625 C 47.15999984741211 3331.18994140625 48.66999816894531 3331.18994140625 49.369998931884766 3330.510009765625 C 49.369998931884766 3330.510009765625 50.060001373291016 3329.830078125 50.060001373291016 3328.340087890625 C 50.060001373291016 3328.340087890625 50.060001373291016 3326.8701171875 49.369998931884766 3326.199951171875 C 49.369998931884766 3326.199951171875 48.66999816894531 3325.52001953125 47.15999984741211 3325.52001953125 Z M 44.97999954223633 3324.699951171875 L 47.02000045776367 3324.699951171875 C 47.02000045776367 3324.699951171875 49.130001068115234 3324.699951171875 50.119998931884766 3325.590087890625 C 50.119998931884766 3325.590087890625 51.11000061035156 3326.469970703125 51.11000061035156 3328.340087890625 C 51.11000061035156 3328.340087890625 51.11000061035156 3330.22998046875 50.119998931884766 3331.1201171875 C 50.119998931884766 3331.1201171875 49.130001068115234 3332.0 47.02000045776367 3332.0 L 44.97999954223633 3332.0 Z M 55.119998931884766 3329.25 C 55.119998931884766 3329.25 54.040000915527344 3329.25 53.619998931884766 3329.5 C 53.619998931884766 3329.5 53.20000076293945 3329.75 53.20000076293945 3330.340087890625 C 53.20000076293945 3330.340087890625 53.20000076293945 3330.830078125 53.5099983215332 3331.110107421875 C 53.5099983215332 3331.110107421875 53.83000183105469 3331.389892578125 54.369998931884766 3331.389892578125 C 54.369998931884766 3331.389892578125 55.119998931884766 3331.389892578125 55.58000183105469 3330.860107421875 C 55.58000183105469 3330.860107421875 56.029998779296875 3330.330078125 56.029998779296875 3329.449951171875 L 56.029998779296875 3329.25 Z M 56.91999816894531 3328.8701171875 L 56.91999816894531 3332.0 L 56.029998779296875 3332.0 L 56.029998779296875 3331.169921875 C 56.029998779296875 3331.169921875 55.720001220703125 3331.669921875 55.25 3331.909912109375 C 55.25 3331.909912109375 54.790000915527344 3332.139892578125 54.13999938964844 3332.139892578125 C 54.13999938964844 3332.139892578125 53.290000915527344 3332.139892578125 52.790000915527344 3331.669921875 C 52.790000915527344 3331.669921875 52.290000915527344 3331.199951171875 52.290000915527344 3330.409912109375 C 52.290000915527344 3330.409912109375 52.290000915527344 3329.47998046875 52.91999816894531 3329.02001953125 C 52.91999816894531 3329.02001953125 53.540000915527344 3328.550048828125 54.7599983215332 3328.550048828125 L 56.029998779296875 3328.550048828125 L 56.029998779296875 3328.449951171875 C 56.029998779296875 3328.449951171875 56.029998779296875 3327.840087890625 55.61000061035156 3327.5 C 55.61000061035156 3327.5 55.20000076293945 3327.159912109375 54.470001220703125 3327.159912109375 C 54.470001220703125 3327.159912109375 54.0 3327.159912109375 53.54999923706055 3327.27001953125 C 53.54999923706055 3327.27001953125 53.11000061035156 3327.389892578125 52.70000076293945 3327.610107421875 L 52.70000076293945 3326.780029296875 C 52.70000076293945 3326.780029296875 53.20000076293945 3326.590087890625 53.65999984741211 3326.5 C 53.65999984741211 3326.5 54.119998931884766 3326.409912109375 54.560001373291016 3326.409912109375 C 54.560001373291016 3326.409912109375 55.75 3326.409912109375 56.33000183105469 3327.02001953125 Z M 59.65999984741211 3324.97998046875 L 59.65999984741211 3326.530029296875 L 61.52000045776367 3326.530029296875 L 61.52000045776367 3327.22998046875 L 59.65999984741211 3327.22998046875 L 59.65999984741211 3330.199951171875 C 59.65999984741211 3330.199951171875 59.65999984741211 3330.860107421875 59.84000015258789 3331.050048828125 C 59.84000015258789 3331.050048828125 60.029998779296875 3331.25 60.59000015258789 3331.25 L 61.52000045776367 3331.25 L 61.52000045776367 3332.0 L 60.59000015258789 3332.0 C 60.59000015258789 3332.0 59.54999923706055 3332.0 59.150001525878906 3331.610107421875 C 59.150001525878906 3331.610107421875 58.75 3331.219970703125 58.75 3330.199951171875 L 58.75 3327.22998046875 L 58.09000015258789 3327.22998046875 L 58.09000015258789 3326.530029296875 L 58.75 3326.530029296875 L 58.75 3324.97998046875 Z M 67.37000274658203 3329.050048828125 L 67.37000274658203 3329.47998046875 L 63.22999954223633 3329.47998046875 C 63.22999954223633 3329.47998046875 63.29999923706055 3330.409912109375 63.79999923706055 3330.889892578125 C 63.79999923706055 3330.889892578125 64.30000305175781 3331.3701171875 65.19000244140625 3331.3701171875 C 65.19000244140625 3331.3701171875 65.69999694824219 3331.3701171875 66.19000244140625 3331.25 C 66.19000244140625 3331.25 66.69000244140625 3331.1201171875 67.16000366210938 3330.8701171875 L 67.16000366210938 3331.719970703125 C 67.16000366210938 3331.719970703125 66.66999816894531 3331.919921875 66.16000366210938 3332.030029296875 C 66.16000366210938 3332.030029296875 65.66000366210938 3332.139892578125 65.13999938964844 3332.139892578125 C 65.13999938964844 3332.139892578125 63.83000183105469 3332.139892578125 63.060001373291016 3331.3798828125 C 63.060001373291016 3331.3798828125 62.29999923706055 3330.6201171875 62.29999923706055 3329.31005859375 C 62.29999923706055 3329.31005859375 62.29999923706055 3327.969970703125 63.02000045776367 3327.18994140625 C 63.02000045776367 3327.18994140625 63.75 3326.409912109375 64.9800033569336 3326.409912109375 C 64.9800033569336 3326.409912109375 66.08999633789062 3326.409912109375 66.7300033569336 3327.110107421875 Z M 66.47000122070312 3328.780029296875 C 66.47000122070312 3328.780029296875 66.47000122070312 3328.050048828125 66.05999755859375 3327.60009765625 C 66.05999755859375 3327.60009765625 65.66000366210938 3327.159912109375 65.0 3327.159912109375 C 65.0 3327.159912109375 64.2300033569336 3327.159912109375 63.790000915527344 3327.590087890625 C 63.790000915527344 3327.590087890625 63.34000015258789 3328.02001953125 63.2599983215332 3328.780029296875 Z M 74.13999938964844 3327.159912109375 C 74.13999938964844 3327.159912109375 73.41999816894531 3327.159912109375 73.0 3327.719970703125 C 73.0 3327.719970703125 72.58000183105469 3328.280029296875 72.58000183105469 3329.27001953125 C 72.58000183105469 3329.27001953125 72.58000183105469 3330.25 72.98999786376953 3330.81005859375 C 72.98999786376953 3330.81005859375 73.41000366210938 3331.3701171875 74.13999938964844 3331.3701171875 C 74.13999938964844 3331.3701171875 74.86000061035156 3331.3701171875 75.27999877929688 3330.81005859375 C 75.27999877929688 3330.81005859375 75.70999908447266 3330.25 75.70999908447266 3329.27001953125 C 75.70999908447266 3329.27001953125 75.70999908447266 3328.300048828125 75.27999877929688 3327.72998046875 Z M 74.13999938964844 3326.409912109375 C 74.13999938964844 3326.409912109375 75.30999755859375 3326.409912109375 75.98999786376953 3327.159912109375 C 75.98999786376953 3327.159912109375 76.66000366210938 3327.919921875 76.66000366210938 3329.27001953125 C 76.66000366210938 3329.27001953125 76.66000366210938 3330.610107421875 75.98999786376953 3331.3701171875 C 75.98999786376953 3331.3701171875 75.30999755859375 3332.139892578125 74.13999938964844 3332.139892578125 C 74.13999938964844 3332.139892578125 72.97000122070312 3332.139892578125 72.30000305175781 3331.3701171875 C 72.30000305175781 3331.3701171875 71.62999725341797 3330.610107421875 71.62999725341797 3329.27001953125 C 71.62999725341797 3329.27001953125 71.62999725341797 3327.919921875 72.30000305175781 3327.159912109375 Z M 80.91999816894531 3324.409912109375 L 80.91999816894531 3325.159912109375 L 80.05999755859375 3325.159912109375 C 80.05999755859375 3325.159912109375 79.56999969482422 3325.159912109375 79.38999938964844 3325.35009765625 C 79.38999938964844 3325.35009765625 79.19999694824219 3325.550048828125 79.19999694824219 3326.050048828125 L 79.19999694824219 3326.530029296875 L 80.66999816894531 3326.530029296875 L 80.66999816894531 3327.22998046875 L 79.19999694824219 3327.22998046875 L 79.19999694824219 3332.0 L 78.29000091552734 3332.0 L 78.29000091552734 3327.22998046875 L 77.43000030517578 3327.22998046875 L 77.43000030517578 3326.530029296875 L 78.29000091552734 3326.530029296875 L 78.29000091552734 3326.159912109375 C 78.29000091552734 3326.159912109375 78.29000091552734 3325.22998046875 78.70999908447266 3324.820068359375 C 78.70999908447266 3324.820068359375 79.13999938964844 3324.409912109375 80.05999755859375 3324.409912109375 Z M 84.87999725341797 3324.699951171875 L 85.87000274658203 3324.699951171875 L 85.87000274658203 3332.0 L 84.87999725341797 3332.0 Z M 91.2699966430664 3326.68994140625 L 91.2699966430664 3327.550048828125 C 91.2699966430664 3327.550048828125 90.88999938964844 3327.340087890625 90.48999786376953 3327.25 C 90.48999786376953 3327.25 90.08000183105469 3327.159912109375 89.62999725341797 3327.159912109375 C 89.62999725341797 3327.159912109375 88.97000122070312 3327.159912109375 88.63999938964844 3327.360107421875 C 88.63999938964844 3327.360107421875 88.30000305175781 3327.56005859375 88.30000305175781 3327.969970703125 C 88.30000305175781 3327.969970703125 88.30000305175781 3328.280029296875 88.52999877929688 3328.4599609375 C 88.52999877929688 3328.4599609375 88.7699966430664 3328.639892578125 89.5 3328.800048828125 L 89.80000305175781 3328.8701171875 C 89.80000305175781 3328.8701171875 90.7699966430664 3329.080078125 91.16999816894531 3329.449951171875 C 91.16999816894531 3329.449951171875 91.56999969482422 3329.830078125 91.56999969482422 3330.47998046875 C 91.56999969482422 3330.47998046875 91.56999969482422 3331.25 90.95999908447266 3331.699951171875 C 90.95999908447266 3331.699951171875 90.36000061035156 3332.139892578125 89.31999969482422 3332.139892578125 C 89.31999969482422 3332.139892578125 88.86000061035156 3332.139892578125 88.38999938964844 3332.050048828125 C 88.38999938964844 3332.050048828125 87.91000366210938 3331.969970703125 87.38999938964844 3331.800048828125 L 87.38999938964844 3330.8701171875 C 87.38999938964844 3330.8701171875 87.88999938964844 3331.1201171875 88.37000274658203 3331.260009765625 C 88.37000274658203 3331.260009765625 88.8499984741211 3331.389892578125 89.33000183105469 3331.389892578125 C 89.33000183105469 3331.389892578125 89.95999908447266 3331.389892578125 90.30000305175781 3331.169921875 C 90.30000305175781 3331.169921875 90.63999938964844 3330.949951171875 90.63999938964844 3330.56005859375 C 90.63999938964844 3330.56005859375 90.63999938964844 3330.18994140625 90.4000015258789 3329.989990234375 C 90.4000015258789 3329.989990234375 90.16000366210938 3329.800048828125 89.31999969482422 3329.6201171875 L 89.0 3329.550048828125 C 89.0 3329.550048828125 88.16999816894531 3329.3701171875 87.80000305175781 3329.010009765625 C 87.80000305175781 3329.010009765625 87.41999816894531 3328.639892578125 87.41999816894531 3328.02001953125 C 87.41999816894531 3328.02001953125 87.41999816894531 3327.22998046875 87.97000122070312 3326.820068359375 C 87.97000122070312 3326.820068359375 88.5199966430664 3326.409912109375 89.52999877929688 3326.409912109375 C 89.52999877929688 3326.409912109375 90.0199966430664 3326.409912109375 90.45999908447266 3326.47998046875 Z M 96.4800033569336 3326.68994140625 L 96.4800033569336 3327.550048828125 C 96.4800033569336 3327.550048828125 96.0999984741211 3327.340087890625 95.69999694824219 3327.25 C 95.69999694824219 3327.25 95.29000091552734 3327.159912109375 94.83999633789062 3327.159912109375 C 94.83999633789062 3327.159912109375 94.18000030517578 3327.159912109375 93.8499984741211 3327.360107421875 C 93.8499984741211 3327.360107421875 93.51000213623047 3327.56005859375 93.51000213623047 3327.969970703125 C 93.51000213623047 3327.969970703125 93.51000213623047 3328.280029296875 93.73999786376953 3328.4599609375 C 93.73999786376953 3328.4599609375 93.9800033569336 3328.639892578125 94.70999908447266 3328.800048828125 L 95.01000213623047 3328.8701171875 C 95.01000213623047 3328.8701171875 95.9800033569336 3329.080078125 96.37999725341797 3329.449951171875 C 96.37999725341797 3329.449951171875 96.77999877929688 3329.830078125 96.77999877929688 3330.47998046875 C 96.77999877929688 3330.47998046875 96.77999877929688 3331.25 96.16999816894531 3331.699951171875 C 96.16999816894531 3331.699951171875 95.56999969482422 3332.139892578125 94.52999877929688 3332.139892578125 C 94.52999877929688 3332.139892578125 94.06999969482422 3332.139892578125 93.5999984741211 3332.050048828125 C 93.5999984741211 3332.050048828125 93.12000274658203 3331.969970703125 92.5999984741211 3331.800048828125 L 92.5999984741211 3330.8701171875 C 92.5999984741211 3330.8701171875 93.0999984741211 3331.1201171875 93.58000183105469 3331.260009765625 C 93.58000183105469 3331.260009765625 94.05999755859375 3331.389892578125 94.54000091552734 3331.389892578125 C 94.54000091552734 3331.389892578125 95.16999816894531 3331.389892578125 95.51000213623047 3331.169921875 C 95.51000213623047 3331.169921875 95.8499984741211 3330.949951171875 95.8499984741211 3330.56005859375 C 95.8499984741211 3330.56005859375 95.8499984741211 3330.18994140625 95.61000061035156 3329.989990234375 C 95.61000061035156 3329.989990234375 95.37000274658203 3329.800048828125 94.52999877929688 3329.6201171875 L 94.20999908447266 3329.550048828125 C 94.20999908447266 3329.550048828125 93.37999725341797 3329.3701171875 93.01000213623047 3329.010009765625 C 93.01000213623047 3329.010009765625 92.62999725341797 3328.639892578125 92.62999725341797 3328.02001953125 C 92.62999725341797 3328.02001953125 92.62999725341797 3327.22998046875 93.18000030517578 3326.820068359375 C 93.18000030517578 3326.820068359375 93.7300033569336 3326.409912109375 94.73999786376953 3326.409912109375 C 94.73999786376953 3326.409912109375 95.2300033569336 3326.409912109375 95.66999816894531 3326.47998046875 Z M 98.11000061035156 3329.840087890625 L 98.11000061035156 3326.530029296875 L 99.0199966430664 3326.530029296875 L 99.0199966430664 3329.81005859375 C 99.0199966430664 3329.81005859375 99.0199966430664 3330.580078125 99.31999969482422 3330.969970703125 C 99.31999969482422 3330.969970703125 99.62999725341797 3331.360107421875 100.22000122070312 3331.360107421875 C 100.22000122070312 3331.360107421875 100.94999694824219 3331.360107421875 101.37999725341797 3330.89990234375 C 101.37999725341797 3330.89990234375 101.80000305175781 3330.43994140625 101.80000305175781 3329.6201171875 L 101.80000305175781 3326.530029296875 L 102.69999694824219 3326.530029296875 L 102.69999694824219 3332.0 L 101.80000305175781 3332.0 L 101.80000305175781 3331.159912109375 C 101.80000305175781 3331.159912109375 101.47000122070312 3331.659912109375 101.04000091552734 3331.89990234375 C 101.04000091552734 3331.89990234375 100.61000061035156 3332.139892578125 100.02999877929688 3332.139892578125 C 100.02999877929688 3332.139892578125 99.08999633789062 3332.139892578125 98.5999984741211 3331.550048828125 Z M 109.2300033569336 3329.050048828125 L 109.2300033569336 3329.47998046875 L 105.08999633789062 3329.47998046875 C 105.08999633789062 3329.47998046875 105.1500015258789 3330.409912109375 105.6500015258789 3330.889892578125 C 105.6500015258789 3330.889892578125 106.1500015258789 3331.3701171875 107.04000091552734 3331.3701171875 C 107.04000091552734 3331.3701171875 107.55999755859375 3331.3701171875 108.05000305175781 3331.25 C 108.05000305175781 3331.25 108.54000091552734 3331.1201171875 109.01000213623047 3330.8701171875 L 109.01000213623047 3331.719970703125 C 109.01000213623047 3331.719970703125 108.52999877929688 3331.919921875 108.0199966430664 3332.030029296875 C 108.0199966430664 3332.030029296875 107.51000213623047 3332.139892578125 107.0 3332.139892578125 C 107.0 3332.139892578125 105.68000030517578 3332.139892578125 104.91999816894531 3331.3798828125 C 104.91999816894531 3331.3798828125 104.1500015258789 3330.6201171875 104.1500015258789 3329.31005859375 C 104.1500015258789 3329.31005859375 104.1500015258789 3327.969970703125 104.87999725341797 3327.18994140625 C 104.87999725341797 3327.18994140625 105.5999984741211 3326.409912109375 106.83999633789062 3326.409912109375 C 106.83999633789062 3326.409912109375 107.94999694824219 3326.409912109375 108.58999633789062 3327.110107421875 Z M 108.31999969482422 3328.780029296875 C 108.31999969482422 3328.780029296875 108.31999969482422 3328.050048828125 107.91999816894531 3327.60009765625 C 107.91999816894531 3327.60009765625 107.51000213623047 3327.159912109375 106.8499984741211 3327.159912109375 C 106.8499984741211 3327.159912109375 106.08999633789062 3327.159912109375 105.63999938964844 3327.590087890625 C 105.63999938964844 3327.590087890625 105.19999694824219 3328.02001953125 105.12000274658203 3328.780029296875 Z M 110.93000030517578 3330.77001953125 L 111.95999908447266 3330.77001953125 L 111.95999908447266 3332.0 L 110.93000030517578 3332.0 Z M 110.93000030517578 3326.830078125 L 111.95999908447266 3326.830078125 L 111.95999908447266 3328.06005859375 L 110.93000030517578 3328.06005859375 Z M 117.54000091552734 3331.169921875 L 119.16000366210938 3331.169921875 L 119.16000366210938 3325.610107421875 L 117.4000015258789 3325.949951171875 L 117.4000015258789 3325.06005859375 L 119.1500015258789 3324.699951171875 L 120.12999725341797 3324.699951171875 L 120.12999725341797 3331.169921875 L 121.73999786376953 3331.169921875 L 121.73999786376953 3332.0 L 117.54000091552734 3332.0 Z M 123.5 3324.699951171875 L 128.17999267578125 3324.699951171875 L 128.17999267578125 3325.1201171875 L 125.52999877929688 3332.0 L 124.5 3332.0 L 127.0 3325.550048828125 L 123.5 3325.550048828125 Z M 129.50999450683594 3328.860107421875 L 132.14999389648438 3328.860107421875 L 132.14999389648438 3329.659912109375 L 129.50999450683594 3329.659912109375 Z M 135.80999755859375 3325.360107421875 C 135.80999755859375 3325.360107421875 135.05999755859375 3325.360107421875 134.67999267578125 3326.110107421875 C 134.67999267578125 3326.110107421875 134.2899932861328 3326.860107421875 134.2899932861328 3328.360107421875 C 134.2899932861328 3328.360107421875 134.2899932861328 3329.860107421875 134.67999267578125 3330.610107421875 C 134.67999267578125 3330.610107421875 135.05999755859375 3331.360107421875 135.80999755859375 3331.360107421875 C 135.80999755859375 3331.360107421875 136.58999633789062 3331.360107421875 136.97000122070312 3330.610107421875 C 136.97000122070312 3330.610107421875 137.36000061035156 3329.860107421875 137.36000061035156 3328.360107421875 C 137.36000061035156 3328.360107421875 137.36000061035156 3326.860107421875 136.97000122070312 3326.110107421875 Z M 135.80999755859375 3324.580078125 C 135.80999755859375 3324.580078125 137.0399932861328 3324.580078125 137.69000244140625 3325.550048828125 C 137.69000244140625 3325.550048828125 138.33999633789062 3326.52001953125 138.33999633789062 3328.360107421875 C 138.33999633789062 3328.360107421875 138.33999633789062 3330.199951171875 137.69000244140625 3331.169921875 C 137.69000244140625 3331.169921875 137.0399932861328 3332.139892578125 135.80999755859375 3332.139892578125 C 135.80999755859375 3332.139892578125 134.58999633789062 3332.139892578125 133.94000244140625 3331.169921875 C 133.94000244140625 3331.169921875 133.2899932861328 3330.199951171875 133.2899932861328 3328.360107421875 C 133.2899932861328 3328.360107421875 133.2899932861328 3326.52001953125 133.94000244140625 3325.550048828125 Z M 139.8300018310547 3324.699951171875 L 144.52000427246094 3324.699951171875 L 144.52000427246094 3325.1201171875 L 141.86000061035156 3332.0 L 140.8300018310547 3332.0 L 143.3300018310547 3325.550048828125 L 139.8300018310547 3325.550048828125 Z M 145.85000610351562 3328.860107421875 L 148.49000549316406 3328.860107421875 L 148.49000549316406 3329.659912109375 L 145.85000610351562 3329.659912109375 Z M 150.88999938964844 3331.169921875 L 154.3300018310547 3331.169921875 L 154.3300018310547 3332.0 L 149.7100067138672 3332.0 L 149.7100067138672 3331.169921875 C 149.7100067138672 3331.169921875 150.27000427246094 3330.590087890625 151.24000549316406 3329.610107421875 C 151.24000549316406 3329.610107421875 152.2100067138672 3328.6201171875 152.4600067138672 3328.340087890625 C 152.4600067138672 3328.340087890625 152.9199981689453 3327.81005859375 153.11000061035156 3327.449951171875 C 153.11000061035156 3327.449951171875 153.3000030517578 3327.080078125 153.3000030517578 3326.719970703125 C 153.3000030517578 3326.719970703125 153.3000030517578 3326.139892578125 152.88999938964844 3325.77001953125 C 152.88999938964844 3325.77001953125 152.49000549316406 3325.409912109375 151.8300018310547 3325.409912109375 C 151.8300018310547 3325.409912109375 151.36000061035156 3325.409912109375 150.85000610351562 3325.570068359375 C 150.85000610351562 3325.570068359375 150.35000610351562 3325.72998046875 149.75 3326.06005859375 L 149.75 3325.06005859375 C 149.75 3325.06005859375 150.35000610351562 3324.830078125 150.86000061035156 3324.699951171875 C 150.86000061035156 3324.699951171875 151.3800048828125 3324.580078125 151.80999755859375 3324.580078125 C 151.80999755859375 3324.580078125 152.94000244140625 3324.580078125 153.6199951171875 3325.139892578125 C 153.6199951171875 3325.139892578125 154.3000030517578 3325.699951171875 154.3000030517578 3326.659912109375 C 154.3000030517578 3326.659912109375 154.3000030517578 3327.110107421875 154.1300048828125 3327.510009765625 C 154.1300048828125 3327.510009765625 153.9600067138672 3327.909912109375 153.52000427246094 3328.449951171875 C 153.52000427246094 3328.449951171875 153.38999938964844 3328.590087890625 152.74000549316406 3329.27001953125 Z M 158.5 3325.360107421875 C 158.5 3325.360107421875 157.75 3325.360107421875 157.3699951171875 3326.110107421875 C 157.3699951171875 3326.110107421875 156.99000549316406 3326.860107421875 156.99000549316406 3328.360107421875 C 156.99000549316406 3328.360107421875 156.99000549316406 3329.860107421875 157.3699951171875 3330.610107421875 C 157.3699951171875 3330.610107421875 157.75 3331.360107421875 158.5 3331.360107421875 C 158.5 3331.360107421875 159.2899932861328 3331.360107421875 159.6699981689453 3330.610107421875 C 159.6699981689453 3330.610107421875 160.0500030517578 3329.860107421875 160.0500030517578 3328.360107421875 C 160.0500030517578 3328.360107421875 160.0500030517578 3326.860107421875 159.6699981689453 3326.110107421875 Z M 158.5 3324.580078125 C 158.5 3324.580078125 159.74000549316406 3324.580078125 160.38999938964844 3325.550048828125 C 160.38999938964844 3325.550048828125 161.0399932861328 3326.52001953125 161.0399932861328 3328.360107421875 C 161.0399932861328 3328.360107421875 161.0399932861328 3330.199951171875 160.38999938964844 3331.169921875 C 160.38999938964844 3331.169921875 159.74000549316406 3332.139892578125 158.5 3332.139892578125 C 158.5 3332.139892578125 157.2899932861328 3332.139892578125 156.63999938964844 3331.169921875 C 156.63999938964844 3331.169921875 155.99000549316406 3330.199951171875 155.99000549316406 3328.360107421875 C 155.99000549316406 3328.360107421875 155.99000549316406 3326.52001953125 156.63999938964844 3325.550048828125 Z M 163.6199951171875 3331.169921875 L 167.0500030517578 3331.169921875 L 167.0500030517578 3332.0 L 162.42999267578125 3332.0 L 162.42999267578125 3331.169921875 C 162.42999267578125 3331.169921875 162.99000549316406 3330.590087890625 163.9600067138672 3329.610107421875 C 163.9600067138672 3329.610107421875 164.92999267578125 3328.6201171875 165.17999267578125 3328.340087890625 C 165.17999267578125 3328.340087890625 165.64999389648438 3327.81005859375 165.83999633789062 3327.449951171875 C 165.83999633789062 3327.449951171875 166.02000427246094 3327.080078125 166.02000427246094 3326.719970703125 C 166.02000427246094 3326.719970703125 166.02000427246094 3326.139892578125 165.6199951171875 3325.77001953125 C 165.6199951171875 3325.77001953125 165.2100067138672 3325.409912109375 164.5500030517578 3325.409912109375 C 164.5500030517578 3325.409912109375 164.08999633789062 3325.409912109375 163.5800018310547 3325.570068359375 C 163.5800018310547 3325.570068359375 163.07000732421875 3325.72998046875 162.47999572753906 3326.06005859375 L 162.47999572753906 3325.06005859375 C 162.47999572753906 3325.06005859375 163.07000732421875 3324.830078125 163.58999633789062 3324.699951171875 C 163.58999633789062 3324.699951171875 164.10000610351562 3324.580078125 164.5399932861328 3324.580078125 C 164.5399932861328 3324.580078125 165.66000366210938 3324.580078125 166.33999633789062 3325.139892578125 C 166.33999633789062 3325.139892578125 167.02000427246094 3325.699951171875 167.02000427246094 3326.659912109375 C 167.02000427246094 3326.659912109375 167.02000427246094 3327.110107421875 166.85000610351562 3327.510009765625 C 166.85000610351562 3327.510009765625 166.67999267578125 3327.909912109375 166.24000549316406 3328.449951171875 C 166.24000549316406 3328.449951171875 166.1199951171875 3328.590087890625 165.4600067138672 3329.27001953125 Z M 169.13999938964844 3324.699951171875 L 173.00999450683594 3324.699951171875 L 173.00999450683594 3325.550048828125 L 170.0399932861328 3325.550048828125 L 170.0399932861328 3327.330078125 C 170.0399932861328 3327.330078125 170.25999450683594 3327.25 170.47000122070312 3327.219970703125 C 170.47000122070312 3327.219970703125 170.67999267578125 3327.18994140625 170.89999389648438 3327.18994140625 C 170.89999389648438 3327.18994140625 172.1199951171875 3327.18994140625 172.8300018310547 3327.85009765625 C 172.8300018310547 3327.85009765625 173.5399932861328 3328.52001953125 173.5399932861328 3329.659912109375 C 173.5399932861328 3329.659912109375 173.5399932861328 3330.840087890625 172.82000732421875 3331.489990234375 C 172.82000732421875 3331.489990234375 172.08999633789062 3332.139892578125 170.75 3332.139892578125 C 170.75 3332.139892578125 170.2899932861328 3332.139892578125 169.82000732421875 3332.06005859375 C 169.82000732421875 3332.06005859375 169.33999633789062 3331.97998046875 168.82000732421875 3331.830078125 L 168.82000732421875 3330.840087890625 C 168.82000732421875 3330.840087890625 169.27999877929688 3331.080078125 169.75 3331.199951171875 C 169.75 3331.199951171875 170.2100067138672 3331.31005859375 170.72999572753906 3331.31005859375 C 170.72999572753906 3331.31005859375 171.57000732421875 3331.31005859375 172.07000732421875 3330.8701171875 C 172.07000732421875 3330.8701171875 172.55999755859375 3330.419921875 172.55999755859375 3329.659912109375 C 172.55999755859375 3329.659912109375 172.55999755859375 3328.909912109375 172.07000732421875 3328.4599609375 C 172.07000732421875 3328.4599609375 171.57000732421875 3328.02001953125 170.72999572753906 3328.02001953125 C 170.72999572753906 3328.02001953125 170.33999633789062 3328.02001953125 169.94000244140625 3328.10009765625 C 169.94000244140625 3328.10009765625 169.5399932861328 3328.18994140625 169.13999938964844 3328.3701171875 Z M 179.52000427246094 3331.169921875 L 182.9600067138672 3331.169921875 L 182.9600067138672 3332.0 L 178.3300018310547 3332.0 L 178.3300018310547 3331.169921875 C 178.3300018310547 3331.169921875 178.89999389648438 3330.590087890625 179.86000061035156 3329.610107421875 C 179.86000061035156 3329.610107421875 180.8300018310547 3328.6201171875 181.0800018310547 3328.340087890625 C 181.0800018310547 3328.340087890625 181.5500030517578 3327.81005859375 181.74000549316406 3327.449951171875 C 181.74000549316406 3327.449951171875 181.92999267578125 3327.080078125 181.92999267578125 3326.719970703125 C 181.92999267578125 3326.719970703125 181.92999267578125 3326.139892578125 181.52000427246094 3325.77001953125 C 181.52000427246094 3325.77001953125 181.11000061035156 3325.409912109375 180.4600067138672 3325.409912109375 C 180.4600067138672 3325.409912109375 179.99000549316406 3325.409912109375 179.47999572753906 3325.570068359375 C 179.47999572753906 3325.570068359375 178.97000122070312 3325.72998046875 178.3800048828125 3326.06005859375 L 178.3800048828125 3325.06005859375 C 178.3800048828125 3325.06005859375 178.97000122070312 3324.830078125 179.49000549316406 3324.699951171875 C 179.49000549316406 3324.699951171875 180.0 3324.580078125 180.44000244140625 3324.580078125 C 180.44000244140625 3324.580078125 181.57000732421875 3324.580078125 182.25 3325.139892578125 C 182.25 3325.139892578125 182.92999267578125 3325.699951171875 182.92999267578125 3326.659912109375 C 182.92999267578125 3326.659912109375 182.92999267578125 3327.110107421875 182.75 3327.510009765625 C 182.75 3327.510009765625 182.5800018310547 3327.909912109375 182.14999389648438 3328.449951171875 C 182.14999389648438 3328.449951171875 182.02000427246094 3328.590087890625 181.36000061035156 3329.27001953125 Z M 185.8800048828125 3331.169921875 L 189.32000732421875 3331.169921875 L 189.32000732421875 3332.0 L 184.6999969482422 3332.0 L 184.6999969482422 3331.169921875 C 184.6999969482422 3331.169921875 185.25999450683594 3330.590087890625 186.22999572753906 3329.610107421875 C 186.22999572753906 3329.610107421875 187.1999969482422 3328.6201171875 187.4499969482422 3328.340087890625 C 187.4499969482422 3328.340087890625 187.91000366210938 3327.81005859375 188.10000610351562 3327.449951171875 C 188.10000610351562 3327.449951171875 188.2899932861328 3327.080078125 188.2899932861328 3326.719970703125 C 188.2899932861328 3326.719970703125 188.2899932861328 3326.139892578125 187.8800048828125 3325.77001953125 C 187.8800048828125 3325.77001953125 187.47999572753906 3325.409912109375 186.82000732421875 3325.409912109375 C 186.82000732421875 3325.409912109375 186.35000610351562 3325.409912109375 185.83999633789062 3325.570068359375 C 185.83999633789062 3325.570068359375 185.33999633789062 3325.72998046875 184.74000549316406 3326.06005859375 L 184.74000549316406 3325.06005859375 C 184.74000549316406 3325.06005859375 185.33999633789062 3324.830078125 185.85000610351562 3324.699951171875 C 185.85000610351562 3324.699951171875 186.3699951171875 3324.580078125 186.8000030517578 3324.580078125 C 186.8000030517578 3324.580078125 187.92999267578125 3324.580078125 188.61000061035156 3325.139892578125 C 188.61000061035156 3325.139892578125 189.2899932861328 3325.699951171875 189.2899932861328 3326.659912109375 C 189.2899932861328 3326.659912109375 189.2899932861328 3327.110107421875 189.1199951171875 3327.510009765625 C 189.1199951171875 3327.510009765625 188.9499969482422 3327.909912109375 188.50999450683594 3328.449951171875 C 188.50999450683594 3328.449951171875 188.3800048828125 3328.590087890625 187.72999572753906 3329.27001953125 Z M 191.5 3330.77001953125 L 192.52999877929688 3330.77001953125 L 192.52999877929688 3332.0 L 191.5 3332.0 Z M 191.5 3326.830078125 L 192.52999877929688 3326.830078125 L 192.52999877929688 3328.06005859375 L 191.5 3328.06005859375 Z M 195.61000061035156 3331.169921875 L 199.0500030517578 3331.169921875 L 199.0500030517578 3332.0 L 194.42999267578125 3332.0 L 194.42999267578125 3331.169921875 C 194.42999267578125 3331.169921875 194.99000549316406 3330.590087890625 195.9600067138672 3329.610107421875 C 195.9600067138672 3329.610107421875 196.92999267578125 3328.6201171875 197.17999267578125 3328.340087890625 C 197.17999267578125 3328.340087890625 197.64999389648438 3327.81005859375 197.8300018310547 3327.449951171875 C 197.8300018310547 3327.449951171875 198.02000427246094 3327.080078125 198.02000427246094 3326.719970703125 C 198.02000427246094 3326.719970703125 198.02000427246094 3326.139892578125 197.61000061035156 3325.77001953125 C 197.61000061035156 3325.77001953125 197.2100067138672 3325.409912109375 196.5500030517578 3325.409912109375 C 196.5500030517578 3325.409912109375 196.0800018310547 3325.409912109375 195.5800018310547 3325.570068359375 C 195.5800018310547 3325.570068359375 195.07000732421875 3325.72998046875 194.47000122070312 3326.06005859375 L 194.47000122070312 3325.06005859375 C 194.47000122070312 3325.06005859375 195.07000732421875 3324.830078125 195.5800018310547 3324.699951171875 C 195.5800018310547 3324.699951171875 196.10000610351562 3324.580078125 196.5399932861328 3324.580078125 C 196.5399932861328 3324.580078125 197.66000366210938 3324.580078125 198.33999633789062 3325.139892578125 C 198.33999633789062 3325.139892578125 199.02000427246094 3325.699951171875 199.02000427246094 3326.659912109375 C 199.02000427246094 3326.659912109375 199.02000427246094 3327.110107421875 198.85000610351562 3327.510009765625 C 198.85000610351562 3327.510009765625 198.67999267578125 3327.909912109375 198.24000549316406 3328.449951171875 C 198.24000549316406 3328.449951171875 198.11000061035156 3328.590087890625 197.4600067138672 3329.27001953125 Z M 201.1300048828125 3324.699951171875 L 205.00999450683594 3324.699951171875 L 205.00999450683594 3325.550048828125 L 202.0399932861328 3325.550048828125 L 202.0399932861328 3327.330078125 C 202.0399932861328 3327.330078125 202.25999450683594 3327.25 202.47000122070312 3327.219970703125 C 202.47000122070312 3327.219970703125 202.67999267578125 3327.18994140625 202.89999389648438 3327.18994140625 C 202.89999389648438 3327.18994140625 204.1199951171875 3327.18994140625 204.8300018310547 3327.85009765625 C 204.8300018310547 3327.85009765625 205.5399932861328 3328.52001953125 205.5399932861328 3329.659912109375 C 205.5399932861328 3329.659912109375 205.5399932861328 3330.840087890625 204.80999755859375 3331.489990234375 C 204.80999755859375 3331.489990234375 204.08999633789062 3332.139892578125 202.74000549316406 3332.139892578125 C 202.74000549316406 3332.139892578125 202.2899932861328 3332.139892578125 201.80999755859375 3332.06005859375 C 201.80999755859375 3332.06005859375 201.33999633789062 3331.97998046875 200.82000732421875 3331.830078125 L 200.82000732421875 3330.840087890625 C 200.82000732421875 3330.840087890625 201.27000427246094 3331.080078125 201.74000549316406 3331.199951171875 C 201.74000549316406 3331.199951171875 202.2100067138672 3331.31005859375 202.72999572753906 3331.31005859375 C 202.72999572753906 3331.31005859375 203.57000732421875 3331.31005859375 204.05999755859375 3330.8701171875 C 204.05999755859375 3330.8701171875 204.5500030517578 3330.419921875 204.5500030517578 3329.659912109375 C 204.5500030517578 3329.659912109375 204.5500030517578 3328.909912109375 204.05999755859375 3328.4599609375 C 204.05999755859375 3328.4599609375 203.57000732421875 3328.02001953125 202.72999572753906 3328.02001953125 C 202.72999572753906 3328.02001953125 202.33999633789062 3328.02001953125 201.94000244140625 3328.10009765625 C 201.94000244140625 3328.10009765625 201.5399932861328 3328.18994140625 201.1300048828125 3328.3701171875 Z M 207.58999633789062 3330.77001953125 L 208.6199951171875 3330.77001953125 L 208.6199951171875 3332.0 L 207.58999633789062 3332.0 Z M 207.58999633789062 3326.830078125 L 208.6199951171875 3326.830078125 L 208.6199951171875 3328.06005859375 L 207.58999633789062 3328.06005859375 Z M 211.7100067138672 3331.169921875 L 215.14999389648438 3331.169921875 L 215.14999389648438 3332.0 L 210.52000427246094 3332.0 L 210.52000427246094 3331.169921875 C 210.52000427246094 3331.169921875 211.0800018310547 3330.590087890625 212.0500030517578 3329.610107421875 C 212.0500030517578 3329.610107421875 213.02000427246094 3328.6201171875 213.27000427246094 3328.340087890625 C 213.27000427246094 3328.340087890625 213.74000549316406 3327.81005859375 213.92999267578125 3327.449951171875 C 213.92999267578125 3327.449951171875 214.11000061035156 3327.080078125 214.11000061035156 3326.719970703125 C 214.11000061035156 3326.719970703125 214.11000061035156 3326.139892578125 213.7100067138672 3325.77001953125 C 213.7100067138672 3325.77001953125 213.3000030517578 3325.409912109375 212.64999389648438 3325.409912109375 C 212.64999389648438 3325.409912109375 212.17999267578125 3325.409912109375 211.6699981689453 3325.570068359375 C 211.6699981689453 3325.570068359375 211.16000366210938 3325.72998046875 210.57000732421875 3326.06005859375 L 210.57000732421875 3325.06005859375 C 210.57000732421875 3325.06005859375 211.16000366210938 3324.830078125 211.67999267578125 3324.699951171875 C 211.67999267578125 3324.699951171875 212.19000244140625 3324.580078125 212.6300048828125 3324.580078125 C 212.6300048828125 3324.580078125 213.75 3324.580078125 214.42999267578125 3325.139892578125 C 214.42999267578125 3325.139892578125 215.11000061035156 3325.699951171875 215.11000061035156 3326.659912109375 C 215.11000061035156 3326.659912109375 215.11000061035156 3327.110107421875 214.94000244140625 3327.510009765625 C 214.94000244140625 3327.510009765625 214.77000427246094 3327.909912109375 214.3300018310547 3328.449951171875 C 214.3300018310547 3328.449951171875 214.2100067138672 3328.590087890625 213.5500030517578 3329.27001953125 Z M 217.3800048828125 3331.169921875 L 219.00999450683594 3331.169921875 L 219.00999450683594 3325.610107421875 L 217.24000549316406 3325.949951171875 L 217.24000549316406 3325.06005859375 L 218.99000549316406 3324.699951171875 L 219.97999572753906 3324.699951171875 L 219.97999572753906 3331.169921875 L 221.58999633789062 3331.169921875 L 221.58999633789062 3332.0 L 217.3800048828125 3332.0 Z" stroke="black" fill="none" stroke-width="1" />
                </svg>