<svg xmlns="http://www.w3.org/2000/svg" width="177.98000717163086" height="11.6298828125" viewBox="47.09000015258789 116.8701171875 177.98000717163086 11.6298828125">
                <rect x="47.09000015258789" y="116.8701171875" width="177.98000717163086" height="11.6298828125" fill="white"/>
                <path d="M 50.439998626708984 126.0 L 47.09000015258789 117.25 L 48.33000183105469 117.25 L 51.11000061035156 124.610107421875 L 53.880001068115234 117.25 L 55.11000061035156 117.25 L 51.779998779296875 126.0 Z M 56.33000183105469 119.43994140625 L 57.40999984741211 119.43994140625 L 57.40999984741211 126.0 L 56.33000183105469 126.0 Z M 56.33000183105469 116.8701171875 L 57.40999984741211 116.8701171875 L 57.40999984741211 118.25 L 56.33000183105469 118.25 Z M 59.66999816894531 116.8701171875 L 60.75 116.8701171875 L 60.75 126.0 L 59.66999816894531 126.0 Z M 63.0 116.8701171875 L 64.08000183105469 116.8701171875 L 64.08000183105469 126.0 L 63.0 126.0 Z M 69.31999969482422 122.699951171875 C 69.31999969482422 122.699951171875 68.0199966430664 122.699951171875 67.5199966430664 123.0 C 67.5199966430664 123.0 67.01000213623047 123.300048828125 67.01000213623047 124.02001953125 C 67.01000213623047 124.02001953125 67.01000213623047 124.590087890625 67.38999938964844 124.929931640625 C 67.38999938964844 124.929931640625 67.7699966430664 125.27001953125 68.41000366210938 125.27001953125 C 68.41000366210938 125.27001953125 69.31999969482422 125.27001953125 69.86000061035156 124.6298828125 C 69.86000061035156 124.6298828125 70.4000015258789 124.0 70.4000015258789 122.93994140625 L 70.4000015258789 122.699951171875 Z M 71.4800033569336 122.25 L 71.4800033569336 126.0 L 70.4000015258789 126.0 L 70.4000015258789 125.0 C 70.4000015258789 125.0 70.0199966430664 125.590087890625 69.4800033569336 125.8798828125 C 69.4800033569336 125.8798828125 68.93000030517578 126.169921875 68.12999725341797 126.169921875 C 68.12999725341797 126.169921875 67.12000274658203 126.169921875 66.5199966430664 125.60009765625 C 66.5199966430664 125.60009765625 65.93000030517578 125.030029296875 65.93000030517578 124.090087890625 C 65.93000030517578 124.090087890625 65.93000030517578 122.97998046875 66.66999816894531 122.419921875 C 66.66999816894531 122.419921875 67.41000366210938 121.860107421875 68.87999725341797 121.860107421875 L 70.4000015258789 121.860107421875 L 70.4000015258789 121.75 C 70.4000015258789 121.75 70.4000015258789 121.0 69.91000366210938 120.590087890625 C 69.91000366210938 120.590087890625 69.41000366210938 120.18994140625 68.54000091552734 120.18994140625 C 68.54000091552734 120.18994140625 67.9800033569336 120.18994140625 67.44000244140625 120.330078125 C 67.44000244140625 120.330078125 66.9000015258789 120.469970703125 66.41000366210938 120.72998046875 L 66.41000366210938 119.72998046875 C 66.41000366210938 119.72998046875 67.01000213623047 119.5 67.55999755859375 119.389892578125 C 67.55999755859375 119.389892578125 68.12000274658203 119.280029296875 68.6500015258789 119.280029296875 C 68.6500015258789 119.280029296875 70.06999969482422 119.280029296875 70.7699966430664 120.02001953125 Z M 78.0199966430664 122.639892578125 C 78.0199966430664 122.639892578125 78.0199966430664 121.469970703125 77.52999877929688 120.830078125 C 77.52999877929688 120.830078125 77.05000305175781 120.18994140625 76.16999816894531 120.18994140625 C 76.16999816894531 120.18994140625 75.30999755859375 120.18994140625 74.83000183105469 120.830078125 C 74.83000183105469 120.830078125 74.3499984741211 121.469970703125 74.3499984741211 122.639892578125 C 74.3499984741211 122.639892578125 74.3499984741211 123.81005859375 74.83000183105469 124.449951171875 C 74.83000183105469 124.449951171875 75.30999755859375 125.090087890625 76.16999816894531 125.090087890625 C 76.16999816894531 125.090087890625 77.05000305175781 125.090087890625 77.52999877929688 124.449951171875 Z M 79.0999984741211 125.18994140625 C 79.0999984741211 125.18994140625 79.0999984741211 126.860107421875 78.3499984741211 127.679931640625 C 78.3499984741211 127.679931640625 77.61000061035156 128.5 76.05999755859375 128.5 C 76.05999755859375 128.5 75.5 128.5 74.98999786376953 128.409912109375 C 74.98999786376953 128.409912109375 74.48999786376953 128.330078125 74.0199966430664 128.159912109375 L 74.0199966430664 127.110107421875 C 74.0199966430664 127.110107421875 74.48999786376953 127.360107421875 74.95999908447266 127.47998046875 C 74.95999908447266 127.47998046875 75.41999816894531 127.610107421875 75.88999938964844 127.610107421875 C 75.88999938964844 127.610107421875 76.95999908447266 127.610107421875 77.48999786376953 127.050048828125 C 77.48999786376953 127.050048828125 78.0199966430664 126.5 78.0199966430664 125.3701171875 L 78.0199966430664 124.840087890625 C 78.0199966430664 124.840087890625 77.66999816894531 125.419921875 77.16000366210938 125.7099609375 C 77.16000366210938 125.7099609375 76.63999938964844 126.0 75.91000366210938 126.0 C 75.91000366210938 126.0 74.70999908447266 126.0 73.95999908447266 125.080078125 C 73.95999908447266 125.080078125 73.22000122070312 124.159912109375 73.22000122070312 122.639892578125 C 73.22000122070312 122.639892578125 73.22000122070312 121.1201171875 73.95999908447266 120.199951171875 C 73.95999908447266 120.199951171875 74.70999908447266 119.280029296875 75.91000366210938 119.280029296875 C 75.91000366210938 119.280029296875 76.63999938964844 119.280029296875 77.16000366210938 119.570068359375 C 77.16000366210938 119.570068359375 77.66999816894531 119.860107421875 78.0199966430664 120.43994140625 L 78.0199966430664 119.43994140625 L 79.0999984741211 119.43994140625 Z M 86.93000030517578 122.449951171875 L 86.93000030517578 122.969970703125 L 81.95999908447266 122.969970703125 C 81.95999908447266 122.969970703125 82.04000091552734 124.090087890625 82.63999938964844 124.669921875 C 82.63999938964844 124.669921875 83.23999786376953 125.25 84.30999755859375 125.25 C 84.30999755859375 125.25 84.93000030517578 125.25 85.5199966430664 125.10009765625 C 85.5199966430664 125.10009765625 86.0999984741211 124.949951171875 86.68000030517578 124.639892578125 L 86.68000030517578 125.669921875 C 86.68000030517578 125.669921875 86.08999633789062 125.909912109375 85.4800033569336 126.0400390625 C 85.4800033569336 126.0400390625 84.87000274658203 126.169921875 84.23999786376953 126.169921875 C 84.23999786376953 126.169921875 82.68000030517578 126.169921875 81.76000213623047 125.260009765625 C 81.76000213623047 125.260009765625 80.83999633789062 124.340087890625 80.83999633789062 122.780029296875 C 80.83999633789062 122.780029296875 80.83999633789062 121.169921875 81.70999908447266 120.22998046875 C 81.70999908447266 120.22998046875 82.58999633789062 119.280029296875 84.05999755859375 119.280029296875 C 84.05999755859375 119.280029296875 85.37999725341797 119.280029296875 86.16000366210938 120.1298828125 Z M 85.8499984741211 122.1201171875 C 85.8499984741211 122.1201171875 85.83999633789062 121.25 85.3499984741211 120.719970703125 C 85.3499984741211 120.719970703125 84.87000274658203 120.18994140625 84.06999969482422 120.18994140625 C 84.06999969482422 120.18994140625 83.16999816894531 120.18994140625 82.62999725341797 120.699951171875 C 82.62999725341797 120.699951171875 82.08999633789062 121.219970703125 82.01000213623047 122.139892578125 Z M 92.79000091552734 124.52001953125 L 94.0199966430664 124.52001953125 L 94.0199966430664 126.0 L 92.79000091552734 126.0 Z M 92.79000091552734 119.800048828125 L 94.0199966430664 119.800048828125 L 94.0199966430664 121.280029296875 L 92.79000091552734 121.280029296875 Z M 105.66000366210938 117.530029296875 L 105.66000366210938 118.68994140625 C 105.66000366210938 118.68994140625 104.98999786376953 118.3701171875 104.37999725341797 118.2099609375 C 104.37999725341797 118.2099609375 103.77999877929688 118.050048828125 103.23999786376953 118.050048828125 C 103.23999786376953 118.050048828125 102.2699966430664 118.050048828125 101.73999786376953 118.419921875 C 101.73999786376953 118.419921875 101.22000122070312 118.800048828125 101.22000122070312 119.5 C 101.22000122070312 119.5 101.22000122070312 120.080078125 101.55999755859375 120.3701171875 C 101.55999755859375 120.3701171875 101.91000366210938 120.669921875 102.88999938964844 120.840087890625 L 103.5999984741211 121.0 C 103.5999984741211 121.0 104.91999816894531 121.25 105.55999755859375 121.8798828125 C 105.55999755859375 121.8798828125 106.19000244140625 122.52001953125 106.19000244140625 123.580078125 C 106.19000244140625 123.580078125 106.19000244140625 124.860107421875 105.33999633789062 125.52001953125 C 105.33999633789062 125.52001953125 104.48999786376953 126.169921875 102.83000183105469 126.169921875 C 102.83000183105469 126.169921875 102.22000122070312 126.169921875 101.5199966430664 126.030029296875 C 101.5199966430664 126.030029296875 100.80999755859375 125.889892578125 100.05999755859375 125.610107421875 L 100.05999755859375 124.389892578125 C 100.05999755859375 124.389892578125 100.77999877929688 124.800048828125 101.4800033569336 125.0 C 101.4800033569336 125.0 102.16999816894531 125.199951171875 102.83000183105469 125.199951171875 C 102.83000183105469 125.199951171875 103.8499984741211 125.199951171875 104.4000015258789 124.800048828125 C 104.4000015258789 124.800048828125 104.95999908447266 124.409912109375 104.95999908447266 123.669921875 C 104.95999908447266 123.669921875 104.95999908447266 123.030029296875 104.55999755859375 122.659912109375 C 104.55999755859375 122.659912109375 104.16000366210938 122.300048828125 103.25 122.1201171875 L 102.52999877929688 121.97998046875 C 102.52999877929688 121.97998046875 101.20999908447266 121.719970703125 100.62000274658203 121.159912109375 C 100.62000274658203 121.159912109375 100.02999877929688 120.590087890625 100.02999877929688 119.590087890625 C 100.02999877929688 119.590087890625 100.02999877929688 118.419921875 100.8499984741211 117.760009765625 C 100.8499984741211 117.760009765625 101.66000366210938 117.090087890625 103.0999984741211 117.090087890625 C 103.0999984741211 117.090087890625 103.72000122070312 117.090087890625 104.3499984741211 117.199951171875 Z M 113.5999984741211 122.449951171875 L 113.5999984741211 122.969970703125 L 108.62999725341797 122.969970703125 C 108.62999725341797 122.969970703125 108.70999908447266 124.090087890625 109.30999755859375 124.669921875 C 109.30999755859375 124.669921875 109.91999816894531 125.25 110.9800033569336 125.25 C 110.9800033569336 125.25 111.5999984741211 125.25 112.19000244140625 125.10009765625 C 112.19000244140625 125.10009765625 112.77999877929688 124.949951171875 113.3499984741211 124.639892578125 L 113.3499984741211 125.669921875 C 113.3499984741211 125.669921875 112.76000213623047 125.909912109375 112.1500015258789 126.0400390625 C 112.1500015258789 126.0400390625 111.54000091552734 126.169921875 110.91999816894531 126.169921875 C 110.91999816894531 126.169921875 109.3499984741211 126.169921875 108.43000030517578 125.260009765625 C 108.43000030517578 125.260009765625 107.51000213623047 124.340087890625 107.51000213623047 122.780029296875 C 107.51000213623047 122.780029296875 107.51000213623047 121.169921875 108.37999725341797 120.22998046875 C 108.37999725341797 120.22998046875 109.26000213623047 119.280029296875 110.7300033569336 119.280029296875 C 110.7300033569336 119.280029296875 112.05999755859375 119.280029296875 112.83000183105469 120.1298828125 Z M 112.52999877929688 122.1201171875 C 112.52999877929688 122.1201171875 112.51000213623047 121.25 112.02999877929688 120.719970703125 C 112.02999877929688 120.719970703125 111.54000091552734 120.18994140625 110.73999786376953 120.18994140625 C 110.73999786376953 120.18994140625 109.83999633789062 120.18994140625 109.30000305175781 120.699951171875 C 109.30000305175781 120.699951171875 108.76000213623047 121.219970703125 108.68000030517578 122.139892578125 Z M 120.47000122070312 120.699951171875 C 120.47000122070312 120.699951171875 120.87999725341797 119.969970703125 121.44000244140625 119.6201171875 C 121.44000244140625 119.6201171875 122.0 119.280029296875 122.7699966430664 119.280029296875 C 122.7699966430664 119.280029296875 123.80000305175781 119.280029296875 124.3499984741211 120.0 C 124.3499984741211 120.0 124.91000366210938 120.719970703125 124.91000366210938 122.030029296875 L 124.91000366210938 126.0 L 123.83000183105469 126.0 L 123.83000183105469 122.080078125 C 123.83000183105469 122.080078125 123.83000183105469 121.1201171875 123.48999786376953 120.669921875 C 123.48999786376953 120.669921875 123.16000366210938 120.219970703125 122.47000122070312 120.219970703125 C 122.47000122070312 120.219970703125 121.62999725341797 120.219970703125 121.13999938964844 120.77001953125 C 121.13999938964844 120.77001953125 120.66000366210938 121.330078125 120.66000366210938 122.300048828125 L 120.66000366210938 126.0 L 119.58000183105469 126.0 L 119.58000183105469 122.080078125 C 119.58000183105469 122.080078125 119.58000183105469 121.1201171875 119.23999786376953 120.669921875 C 119.23999786376953 120.669921875 118.91000366210938 120.219970703125 118.20999908447266 120.219970703125 C 118.20999908447266 120.219970703125 117.37999725341797 120.219970703125 116.88999938964844 120.77001953125 C 116.88999938964844 120.77001953125 116.41000366210938 121.330078125 116.41000366210938 122.300048828125 L 116.41000366210938 126.0 L 115.33000183105469 126.0 L 115.33000183105469 119.43994140625 L 116.41000366210938 119.43994140625 L 116.41000366210938 120.449951171875 C 116.41000366210938 120.449951171875 116.77999877929688 119.860107421875 117.30000305175781 119.570068359375 C 117.30000305175781 119.570068359375 117.80999755859375 119.280029296875 118.5199966430664 119.280029296875 C 118.5199966430664 119.280029296875 119.23999786376953 119.280029296875 119.73999786376953 119.639892578125 Z M 131.77000427246094 122.719970703125 C 131.77000427246094 122.719970703125 131.77000427246094 121.530029296875 131.27999877929688 120.860107421875 C 131.27999877929688 120.860107421875 130.7899932861328 120.18994140625 129.94000244140625 120.18994140625 C 129.94000244140625 120.18994140625 129.0800018310547 120.18994140625 128.58999633789062 120.860107421875 C 128.58999633789062 120.860107421875 128.10000610351562 121.530029296875 128.10000610351562 122.719970703125 C 128.10000610351562 122.719970703125 128.10000610351562 123.909912109375 128.58999633789062 124.590087890625 C 128.58999633789062 124.590087890625 129.0800018310547 125.27001953125 129.94000244140625 125.27001953125 C 129.94000244140625 125.27001953125 130.7899932861328 125.27001953125 131.27999877929688 124.590087890625 Z M 128.10000610351562 120.43994140625 C 128.10000610351562 120.43994140625 128.44000244140625 119.840087890625 128.9600067138672 119.56005859375 C 128.9600067138672 119.56005859375 129.47000122070312 119.280029296875 130.19000244140625 119.280029296875 C 130.19000244140625 119.280029296875 131.38999938964844 119.280029296875 132.13999938964844 120.22998046875 C 132.13999938964844 120.22998046875 132.88999938964844 121.169921875 132.88999938964844 122.719970703125 C 132.88999938964844 122.719970703125 132.88999938964844 124.27001953125 132.13999938964844 125.219970703125 C 132.13999938964844 125.219970703125 131.38999938964844 126.169921875 130.19000244140625 126.169921875 C 130.19000244140625 126.169921875 129.47000122070312 126.169921875 128.9600067138672 125.8798828125 C 128.9600067138672 125.8798828125 128.44000244140625 125.590087890625 128.10000610351562 125.02001953125 L 128.10000610351562 126.0 L 127.0199966430664 126.0 L 127.0199966430664 116.8701171875 L 128.10000610351562 116.8701171875 Z M 134.6699981689453 119.43994140625 L 135.75 119.43994140625 L 135.75 126.0 L 134.6699981689453 126.0 Z M 134.6699981689453 116.8701171875 L 135.75 116.8701171875 L 135.75 118.25 L 134.6699981689453 118.25 Z M 140.74000549316406 126.610107421875 C 140.74000549316406 126.610107421875 140.27999877929688 127.780029296875 139.85000610351562 128.139892578125 C 139.85000610351562 128.139892578125 139.41000366210938 128.5 138.69000244140625 128.5 L 137.8300018310547 128.5 L 137.8300018310547 127.590087890625 L 138.4600067138672 127.590087890625 C 138.4600067138672 127.590087890625 138.91000366210938 127.590087890625 139.14999389648438 127.3798828125 C 139.14999389648438 127.3798828125 139.38999938964844 127.169921875 139.69000244140625 126.389892578125 L 139.88999938964844 125.889892578125 L 137.24000549316406 119.43994140625 L 138.3800048828125 119.43994140625 L 140.4199981689453 124.56005859375 L 142.49000549316406 119.43994140625 L 143.6300048828125 119.43994140625 Z M 148.08999633789062 122.699951171875 C 148.08999633789062 122.699951171875 146.7899932861328 122.699951171875 146.27999877929688 123.0 C 146.27999877929688 123.0 145.77999877929688 123.300048828125 145.77999877929688 124.02001953125 C 145.77999877929688 124.02001953125 145.77999877929688 124.590087890625 146.16000366210938 124.929931640625 C 146.16000366210938 124.929931640625 146.5399932861328 125.27001953125 147.17999267578125 125.27001953125 C 147.17999267578125 125.27001953125 148.08999633789062 125.27001953125 148.6300048828125 124.6298828125 C 148.6300048828125 124.6298828125 149.1699981689453 124.0 149.1699981689453 122.93994140625 L 149.1699981689453 122.699951171875 Z M 150.24000549316406 122.25 L 150.24000549316406 126.0 L 149.1699981689453 126.0 L 149.1699981689453 125.0 C 149.1699981689453 125.0 148.7899932861328 125.590087890625 148.24000549316406 125.8798828125 C 148.24000549316406 125.8798828125 147.6999969482422 126.169921875 146.89999389648438 126.169921875 C 146.89999389648438 126.169921875 145.8800048828125 126.169921875 145.2899932861328 125.60009765625 C 145.2899932861328 125.60009765625 144.6999969482422 125.030029296875 144.6999969482422 124.090087890625 C 144.6999969482422 124.090087890625 144.6999969482422 122.97998046875 145.44000244140625 122.419921875 C 145.44000244140625 122.419921875 146.17999267578125 121.860107421875 147.64999389648438 121.860107421875 L 149.1699981689453 121.860107421875 L 149.1699981689453 121.75 C 149.1699981689453 121.75 149.1699981689453 121.0 148.6699981689453 120.590087890625 C 148.6699981689453 120.590087890625 148.17999267578125 120.18994140625 147.30999755859375 120.18994140625 C 147.30999755859375 120.18994140625 146.74000549316406 120.18994140625 146.2100067138672 120.330078125 C 146.2100067138672 120.330078125 145.6699981689453 120.469970703125 145.17999267578125 120.72998046875 L 145.17999267578125 119.72998046875 C 145.17999267578125 119.72998046875 145.77999877929688 119.5 146.3300018310547 119.389892578125 C 146.3300018310547 119.389892578125 146.8800048828125 119.280029296875 147.4199981689453 119.280029296875 C 147.4199981689453 119.280029296875 148.83999633789062 119.280029296875 149.5399932861328 120.02001953125 Z M 157.92999267578125 122.030029296875 L 157.92999267578125 126.0 L 156.85000610351562 126.0 L 156.85000610351562 122.080078125 C 156.85000610351562 122.080078125 156.85000610351562 121.139892578125 156.47999572753906 120.679931640625 C 156.47999572753906 120.679931640625 156.11000061035156 120.219970703125 155.38999938964844 120.219970703125 C 155.38999938964844 120.219970703125 154.52000427246094 120.219970703125 154.00999450683594 120.77001953125 C 154.00999450683594 120.77001953125 153.5 121.330078125 153.5 122.300048828125 L 153.5 126.0 L 152.42999267578125 126.0 L 152.42999267578125 119.43994140625 L 153.5 119.43994140625 L 153.5 120.449951171875 C 153.5 120.449951171875 153.88999938964844 119.860107421875 154.4199981689453 119.570068359375 C 154.4199981689453 119.570068359375 154.94000244140625 119.280029296875 155.6300048828125 119.280029296875 C 155.6300048828125 119.280029296875 156.75 119.280029296875 157.33999633789062 119.97998046875 Z M 163.0500030517578 122.699951171875 C 163.0500030517578 122.699951171875 161.75 122.699951171875 161.24000549316406 123.0 C 161.24000549316406 123.0 160.72999572753906 123.300048828125 160.72999572753906 124.02001953125 C 160.72999572753906 124.02001953125 160.72999572753906 124.590087890625 161.1199951171875 124.929931640625 C 161.1199951171875 124.929931640625 161.5 125.27001953125 162.13999938964844 125.27001953125 C 162.13999938964844 125.27001953125 163.0500030517578 125.27001953125 163.58999633789062 124.6298828125 C 163.58999633789062 124.6298828125 164.1300048828125 124.0 164.1300048828125 122.93994140625 L 164.1300048828125 122.699951171875 Z M 165.1999969482422 122.25 L 165.1999969482422 126.0 L 164.1300048828125 126.0 L 164.1300048828125 125.0 C 164.1300048828125 125.0 163.75 125.590087890625 163.1999969482422 125.8798828125 C 163.1999969482422 125.8798828125 162.66000366210938 126.169921875 161.86000061035156 126.169921875 C 161.86000061035156 126.169921875 160.83999633789062 126.169921875 160.25 125.60009765625 C 160.25 125.60009765625 159.66000366210938 125.030029296875 159.66000366210938 124.090087890625 C 159.66000366210938 124.090087890625 159.66000366210938 122.97998046875 160.39999389648438 122.419921875 C 160.39999389648438 122.419921875 161.13999938964844 121.860107421875 162.61000061035156 121.860107421875 L 164.1300048828125 121.860107421875 L 164.1300048828125 121.75 C 164.1300048828125 121.75 164.1300048828125 121.0 163.6300048828125 120.590087890625 C 163.6300048828125 120.590087890625 163.13999938964844 120.18994140625 162.27000427246094 120.18994140625 C 162.27000427246094 120.18994140625 161.6999969482422 120.18994140625 161.16000366210938 120.330078125 C 161.16000366210938 120.330078125 160.6300048828125 120.469970703125 160.13999938964844 120.72998046875 L 160.13999938964844 119.72998046875 C 160.13999938964844 119.72998046875 160.72999572753906 119.5 161.2899932861328 119.389892578125 C 161.2899932861328 119.389892578125 161.83999633789062 119.280029296875 162.3800048828125 119.280029296875 C 162.3800048828125 119.280029296875 163.8000030517578 119.280029296875 164.5 120.02001953125 Z M 168.49000549316406 117.580078125 L 168.49000549316406 119.43994140625 L 170.7100067138672 119.43994140625 L 170.7100067138672 120.280029296875 L 168.49000549316406 120.280029296875 L 168.49000549316406 123.840087890625 C 168.49000549316406 123.840087890625 168.49000549316406 124.639892578125 168.7100067138672 124.8701171875 C 168.7100067138672 124.8701171875 168.92999267578125 125.090087890625 169.60000610351562 125.090087890625 L 170.7100067138672 125.090087890625 L 170.7100067138672 126.0 L 169.60000610351562 126.0 C 169.60000610351562 126.0 168.35000610351562 126.0 167.8800048828125 125.530029296875 C 167.8800048828125 125.530029296875 167.39999389648438 125.06005859375 167.39999389648438 123.840087890625 L 167.39999389648438 120.280029296875 L 166.6199951171875 120.280029296875 L 166.6199951171875 119.43994140625 L 167.39999389648438 119.43994140625 L 167.39999389648438 117.580078125 Z M 177.58999633789062 122.030029296875 L 177.58999633789062 126.0 L 176.50999450683594 126.0 L 176.50999450683594 122.080078125 C 176.50999450683594 122.080078125 176.50999450683594 121.139892578125 176.13999938964844 120.679931640625 C 176.13999938964844 120.679931640625 175.77999877929688 120.219970703125 175.05999755859375 120.219970703125 C 175.05999755859375 120.219970703125 174.17999267578125 120.219970703125 173.67999267578125 120.77001953125 C 173.67999267578125 120.77001953125 173.1699981689453 121.330078125 173.1699981689453 122.300048828125 L 173.1699981689453 126.0 L 172.08999633789062 126.0 L 172.08999633789062 116.8701171875 L 173.1699981689453 116.8701171875 L 173.1699981689453 120.449951171875 C 173.1699981689453 120.449951171875 173.55999755859375 119.860107421875 174.0800018310547 119.570068359375 C 174.0800018310547 119.570068359375 174.61000061035156 119.280029296875 175.2899932861328 119.280029296875 C 175.2899932861328 119.280029296875 176.4199981689453 119.280029296875 177.0 119.97998046875 Z M 182.7100067138672 122.699951171875 C 182.7100067138672 122.699951171875 181.41000366210938 122.699951171875 180.91000366210938 123.0 C 180.91000366210938 123.0 180.39999389648438 123.300048828125 180.39999389648438 124.02001953125 C 180.39999389648438 124.02001953125 180.39999389648438 124.590087890625 180.77999877929688 124.929931640625 C 180.77999877929688 124.929931640625 181.16000366210938 125.27001953125 181.8000030517578 125.27001953125 C 181.8000030517578 125.27001953125 182.7100067138672 125.27001953125 183.25 124.6298828125 C 183.25 124.6298828125 183.7899932861328 124.0 183.7899932861328 122.93994140625 L 183.7899932861328 122.699951171875 Z M 184.8699951171875 122.25 L 184.8699951171875 126.0 L 183.7899932861328 126.0 L 183.7899932861328 125.0 C 183.7899932861328 125.0 183.41000366210938 125.590087890625 182.8699951171875 125.8798828125 C 182.8699951171875 125.8798828125 182.32000732421875 126.169921875 181.52000427246094 126.169921875 C 181.52000427246094 126.169921875 180.50999450683594 126.169921875 179.91000366210938 125.60009765625 C 179.91000366210938 125.60009765625 179.32000732421875 125.030029296875 179.32000732421875 124.090087890625 C 179.32000732421875 124.090087890625 179.32000732421875 122.97998046875 180.05999755859375 122.419921875 C 180.05999755859375 122.419921875 180.8000030517578 121.860107421875 182.27000427246094 121.860107421875 L 183.7899932861328 121.860107421875 L 183.7899932861328 121.75 C 183.7899932861328 121.75 183.7899932861328 121.0 183.3000030517578 120.590087890625 C 183.3000030517578 120.590087890625 182.8000030517578 120.18994140625 181.92999267578125 120.18994140625 C 181.92999267578125 120.18994140625 181.3699951171875 120.18994140625 180.8300018310547 120.330078125 C 180.8300018310547 120.330078125 180.2899932861328 120.469970703125 179.8000030517578 120.72998046875 L 179.8000030517578 119.72998046875 C 179.8000030517578 119.72998046875 180.39999389648438 119.5 180.9499969482422 119.389892578125 C 180.9499969482422 119.389892578125 181.50999450683594 119.280029296875 182.0399932861328 119.280029296875 C 182.0399932861328 119.280029296875 183.4600067138672 119.280029296875 184.16000366210938 120.02001953125 Z M 192.19000244140625 120.699951171875 C 192.19000244140625 120.699951171875 192.60000610351562 119.969970703125 193.16000366210938 119.6201171875 C 193.16000366210938 119.6201171875 193.72000122070312 119.280029296875 194.49000549316406 119.280029296875 C 194.49000549316406 119.280029296875 195.52000427246094 119.280029296875 196.07000732421875 120.0 C 196.07000732421875 120.0 196.6300048828125 120.719970703125 196.6300048828125 122.030029296875 L 196.6300048828125 126.0 L 195.5500030517578 126.0 L 195.5500030517578 122.080078125 C 195.5500030517578 122.080078125 195.5500030517578 121.1201171875 195.2100067138672 120.669921875 C 195.2100067138672 120.669921875 194.8800048828125 120.219970703125 194.19000244140625 120.219970703125 C 194.19000244140625 120.219970703125 193.35000610351562 120.219970703125 192.86000061035156 120.77001953125 C 192.86000061035156 120.77001953125 192.3800048828125 121.330078125 192.3800048828125 122.300048828125 L 192.3800048828125 126.0 L 191.3000030517578 126.0 L 191.3000030517578 122.080078125 C 191.3000030517578 122.080078125 191.3000030517578 121.1201171875 190.9600067138672 120.669921875 C 190.9600067138672 120.669921875 190.6300048828125 120.219970703125 189.9199981689453 120.219970703125 C 189.9199981689453 120.219970703125 189.10000610351562 120.219970703125 188.61000061035156 120.77001953125 C 188.61000061035156 120.77001953125 188.1300048828125 121.330078125 188.1300048828125 122.300048828125 L 188.1300048828125 126.0 L 187.0500030517578 126.0 L 187.0500030517578 119.43994140625 L 188.1300048828125 119.43994140625 L 188.1300048828125 120.449951171875 C 188.1300048828125 120.449951171875 188.5 119.860107421875 189.02000427246094 119.570068359375 C 189.02000427246094 119.570068359375 189.52999877929688 119.280029296875 190.24000549316406 119.280029296875 C 190.24000549316406 119.280029296875 190.9600067138672 119.280029296875 191.4600067138672 119.639892578125 Z M 202.49000549316406 116.8701171875 L 204.97000122070312 116.8701171875 L 204.97000122070312 117.719970703125 L 203.57000732421875 117.719970703125 L 203.57000732421875 126.75 L 204.97000122070312 126.75 L 204.97000122070312 127.580078125 L 202.49000549316406 127.580078125 Z M 207.1300048828125 117.25 L 212.75 117.25 L 212.75 117.75 L 209.5800018310547 126.0 L 208.33999633789062 126.0 L 211.3300018310547 118.25 L 207.1300048828125 118.25 Z M 215.07000732421875 117.25 L 219.7100067138672 117.25 L 219.7100067138672 118.25 L 216.14999389648438 118.25 L 216.14999389648438 120.389892578125 C 216.14999389648438 120.389892578125 216.4199981689453 120.300048828125 216.6699981689453 120.260009765625 C 216.6699981689453 120.260009765625 216.92999267578125 120.219970703125 217.17999267578125 120.219970703125 C 217.17999267578125 120.219970703125 218.64999389648438 120.219970703125 219.50999450683594 121.02001953125 C 219.50999450683594 121.02001953125 220.3699951171875 121.830078125 220.3699951171875 123.18994140625 C 220.3699951171875 123.18994140625 220.3699951171875 124.610107421875 219.49000549316406 125.389892578125 C 219.49000549316406 125.389892578125 218.60000610351562 126.169921875 217.00999450683594 126.169921875 C 217.00999450683594 126.169921875 216.4499969482422 126.169921875 215.8800048828125 126.080078125 C 215.8800048828125 126.080078125 215.30999755859375 125.97998046875 214.6999969482422 125.800048828125 L 214.6999969482422 124.610107421875 C 214.6999969482422 124.610107421875 215.22999572753906 124.889892578125 215.7899932861328 125.030029296875 C 215.7899932861328 125.030029296875 216.35000610351562 125.169921875 216.97999572753906 125.169921875 C 216.97999572753906 125.169921875 217.99000549316406 125.169921875 218.58999633789062 124.639892578125 C 218.58999633789062 124.639892578125 219.17999267578125 124.110107421875 219.17999267578125 123.18994140625 C 219.17999267578125 123.18994140625 219.17999267578125 122.280029296875 218.58999633789062 121.75 C 218.58999633789062 121.75 217.99000549316406 121.219970703125 216.97999572753906 121.219970703125 C 216.97999572753906 121.219970703125 216.50999450683594 121.219970703125 216.02999877929688 121.320068359375 C 216.02999877929688 121.320068359375 215.55999755859375 121.419921875 215.07000732421875 121.639892578125 Z M 225.07000732421875 116.8701171875 L 225.07000732421875 127.580078125 L 222.5800018310547 127.580078125 L 222.5800018310547 126.75 L 223.97000122070312 126.75 L 223.97000122070312 117.719970703125 L 222.5800018310547 117.719970703125 L 222.5800018310547 116.8701171875 Z" stroke="black" fill="none" stroke-width="1" />
                </svg>