<svg xmlns="http://www.w3.org/2000/svg" width="6.1300048828125" height="7.300048828125" viewBox="745.97998046875 2251.699951171875 6.1300048828125 7.300048828125">
                <rect x="745.97998046875" y="2251.699951171875" width="6.1300048828125" height="7.300048828125" fill="white"/>
                <path d="M 746.969970703125 2252.52001953125 L 746.969970703125 2258.18994140625 L 748.1599731445312 2258.18994140625 C 748.1599731445312 2258.18994140625 749.6699829101562 2258.18994140625 750.3699951171875 2257.510009765625 C 750.3699951171875 2257.510009765625 751.0599975585938 2256.830078125 751.0599975585938 2255.33984375 C 751.0599975585938 2255.33984375 751.0599975585938 2253.8701171875 750.3699951171875 2253.199951171875 C 750.3699951171875 2253.199951171875 749.6699829101562 2252.52001953125 748.1599731445312 2252.52001953125 Z M 745.97998046875 2251.699951171875 L 748.02001953125 2251.699951171875 C 748.02001953125 2251.699951171875 750.1300048828125 2251.699951171875 751.1199951171875 2252.58984375 C 751.1199951171875 2252.58984375 752.1099853515625 2253.469970703125 752.1099853515625 2255.33984375 C 752.1099853515625 2255.33984375 752.1099853515625 2257.22998046875 751.1199951171875 2258.1201171875 C 751.1199951171875 2258.1201171875 750.1300048828125 2259.0 748.02001953125 2259.0 L 745.97998046875 2259.0 Z" stroke="black" fill="none" stroke-width="1" />
                </svg>