<svg xmlns="http://www.w3.org/2000/svg" width="84.5799560546875" height="9.2998046875" viewBox="1429.800048828125 116.8701171875 84.5799560546875 9.2998046875">
            <rect x="1429.800048828125" y="116.8701171875" width="84.5799560546875" height="9.2998046875" fill="white"/>
            <path d="M  1442.47998046875 119.68994140625 L 1442.47998046875 120.699951171875 C 1442.47998046875 120.699951171875 1442.010009765625 120.43994140625 1441.550048828125 120.31005859375 C 1441.550048828125 120.31005859375 1441.0999755859375 120.18994140625 1440.6300048828125 120.18994140625 C 1440.6300048828125 120.18994140625 1439.5699462890625 120.18994140625 1438.989990234375 120.85009765625 C 1438.989990234375 120.85009765625 1438.4100341796875 121.52001953125 1438.4100341796875 122.719970703125 C 1438.4100341796875 122.719970703125 1438.4100341796875 123.919921875 1438.989990234375 124.590087890625 C 1438.989990234375 124.590087890625 1439.5699462890625 125.25 1440.6300048828125 125.25 C 1440.6300048828125 125.25 1441.0999755859375 125.25 1441.550048828125 125.1201171875 C 1441.550048828125 125.1201171875 1442.010009765625 125.0 1442.47998046875 124.75 L 1442.47998046875 125.75 C 1442.47998046875 125.75 1442.02001953125 125.949951171875 1441.5400390625 126.06005859375 C 1441.5400390625 126.06005859375 1441.050048828125 126.169921875 1440.510009765625 126.169921875 C 1440.510009765625 126.169921875 1439.02001953125 126.169921875 1438.1500244140625 125.239990234375 C 1438.1500244140625 125.239990234375 1437.27001953125 124.31005859375 1437.27001953125 122.719970703125 C 1437.27001953125 122.719970703125 1437.27001953125 121.1201171875 1438.1600341796875 120.199951171875 C 1438.1600341796875 120.199951171875 1439.0400390625 119.280029296875 1440.5899658203125 119.280029296875 C 1440.5899658203125 119.280029296875 1441.0699462890625 119.280029296875 1441.550048828125 119.3798828125 Z " stroke="black" fill="none" stroke-width="1" />
            </svg>