<svg xmlns="http://www.w3.org/2000/svg" width="97.75" height="0.900146484375" viewBox="1852.8800048828125 1121.159912109375 97.75 0.900146484375">
                <rect x="1852.8800048828125" y="1121.159912109375" width="97.75" height="0.900146484375" fill="white"/>
                <path d="M 1859.6300048828125 1121.159912109375 L 1859.6300048828125 1122.06005859375 L 1852.8800048828125 1122.06005859375 L 1852.8800048828125 1121.159912109375 Z M 1866.1300048828125 1121.159912109375 L 1866.1300048828125 1122.06005859375 L 1859.3800048828125 1122.06005859375 L 1859.3800048828125 1121.159912109375 Z M 1872.6300048828125 1121.159912109375 L 1872.6300048828125 1122.06005859375 L 1865.8800048828125 1122.06005859375 L 1865.8800048828125 1121.159912109375 Z M 1879.1300048828125 1121.159912109375 L 1879.1300048828125 1122.06005859375 L 1872.3800048828125 1122.06005859375 L 1872.3800048828125 1121.159912109375 Z M 1885.6300048828125 1121.159912109375 L 1885.6300048828125 1122.06005859375 L 1878.8800048828125 1122.06005859375 L 1878.8800048828125 1121.159912109375 Z M 1892.1300048828125 1121.159912109375 L 1892.1300048828125 1122.06005859375 L 1885.3800048828125 1122.06005859375 L 1885.3800048828125 1121.159912109375 Z M 1898.6300048828125 1121.159912109375 L 1898.6300048828125 1122.06005859375 L 1891.8800048828125 1122.06005859375 L 1891.8800048828125 1121.159912109375 Z M 1905.1300048828125 1121.159912109375 L 1905.1300048828125 1122.06005859375 L 1898.3800048828125 1122.06005859375 L 1898.3800048828125 1121.159912109375 Z M 1911.6300048828125 1121.159912109375 L 1911.6300048828125 1122.06005859375 L 1904.8800048828125 1122.06005859375 L 1904.8800048828125 1121.159912109375 Z M 1918.1300048828125 1121.159912109375 L 1918.1300048828125 1122.06005859375 L 1911.3800048828125 1122.06005859375 L 1911.3800048828125 1121.159912109375 Z M 1924.6300048828125 1121.159912109375 L 1924.6300048828125 1122.06005859375 L 1917.8800048828125 1122.06005859375 L 1917.8800048828125 1121.159912109375 Z M 1931.1300048828125 1121.159912109375 L 1931.1300048828125 1122.06005859375 L 1924.3800048828125 1122.06005859375 L 1924.3800048828125 1121.159912109375 Z M 1937.6300048828125 1121.159912109375 L 1937.6300048828125 1122.06005859375 L 1930.8800048828125 1122.06005859375 L 1930.8800048828125 1121.159912109375 Z M 1944.1300048828125 1121.159912109375 L 1944.1300048828125 1122.06005859375 L 1937.3800048828125 1122.06005859375 L 1937.3800048828125 1121.159912109375 Z M 1950.6300048828125 1121.159912109375 L 1950.6300048828125 1122.06005859375 L 1943.8800048828125 1122.06005859375 L 1943.8800048828125 1121.159912109375 Z" stroke="black" fill="none" stroke-width="1" />
                </svg>