<svg xmlns="http://www.w3.org/2000/svg" width="94.11000061035156" height="9.2998046875" viewBox="46.970001220703125 88.8701171875 94.11000061035156 9.2998046875">
                <rect x="46.970001220703125" y="88.8701171875" width="94.11000061035156" height="9.2998046875" fill="white"/>
                <path d="M 46.970001220703125 89.25 L 54.36000061035156 89.25 L 54.36000061035156 90.25 L 51.27000045776367 90.25 L 51.27000045776367 98.0 L 50.08000183105469 98.0 L 50.08000183105469 90.25 L 46.970001220703125 90.25 Z M 58.439998626708984 94.699951171875 C 58.439998626708984 94.699951171875 57.13999938964844 94.699951171875 56.630001068115234 95.0 C 56.630001068115234 95.0 56.130001068115234 95.300048828125 56.130001068115234 96.02001953125 C 56.130001068115234 96.02001953125 56.130001068115234 96.590087890625 56.5099983215332 96.929931640625 C 56.5099983215332 96.929931640625 56.88999938964844 97.27001953125 57.529998779296875 97.27001953125 C 57.529998779296875 97.27001953125 58.439998626708984 97.27001953125 58.97999954223633 96.6298828125 C 58.97999954223633 96.6298828125 59.52000045776367 96.0 59.52000045776367 94.93994140625 L 59.52000045776367 94.699951171875 Z M 60.599998474121094 94.25 L 60.599998474121094 98.0 L 59.52000045776367 98.0 L 59.52000045776367 97.0 C 59.52000045776367 97.0 59.13999938964844 97.590087890625 58.599998474121094 97.8798828125 C 58.599998474121094 97.8798828125 58.04999923706055 98.169921875 57.25 98.169921875 C 57.25 98.169921875 56.2400016784668 98.169921875 55.63999938964844 97.60009765625 C 55.63999938964844 97.60009765625 55.04999923706055 97.030029296875 55.04999923706055 96.090087890625 C 55.04999923706055 96.090087890625 55.04999923706055 94.97998046875 55.790000915527344 94.419921875 C 55.790000915527344 94.419921875 56.529998779296875 93.860107421875 58.0 93.860107421875 L 59.52000045776367 93.860107421875 L 59.52000045776367 93.75 C 59.52000045776367 93.75 59.52000045776367 93.0 59.029998779296875 92.590087890625 C 59.029998779296875 92.590087890625 58.529998779296875 92.18994140625 57.65999984741211 92.18994140625 C 57.65999984741211 92.18994140625 57.099998474121094 92.18994140625 56.560001373291016 92.330078125 C 56.560001373291016 92.330078125 56.02000045776367 92.469970703125 55.529998779296875 92.72998046875 L 55.529998779296875 91.72998046875 C 55.529998779296875 91.72998046875 56.130001068115234 91.5 56.68000030517578 91.389892578125 C 56.68000030517578 91.389892578125 57.2400016784668 91.280029296875 57.77000045776367 91.280029296875 C 57.77000045776367 91.280029296875 59.189998626708984 91.280029296875 59.88999938964844 92.02001953125 Z M 62.810001373291016 88.8701171875 L 63.88999938964844 88.8701171875 L 63.88999938964844 98.0 L 62.810001373291016 98.0 Z M 66.02999877929688 95.409912109375 L 66.02999877929688 91.43994140625 L 67.11000061035156 91.43994140625 L 67.11000061035156 95.3701171875 C 67.11000061035156 95.3701171875 67.11000061035156 96.300048828125 67.4800033569336 96.77001953125 C 67.4800033569336 96.77001953125 67.8499984741211 97.22998046875 68.55999755859375 97.22998046875 C 68.55999755859375 97.22998046875 69.44000244140625 97.22998046875 69.94999694824219 96.679931640625 C 69.94999694824219 96.679931640625 70.45999908447266 96.1201171875 70.45999908447266 95.159912109375 L 70.45999908447266 91.43994140625 L 71.52999877929688 91.43994140625 L 71.52999877929688 98.0 L 70.45999908447266 98.0 L 70.45999908447266 96.97998046875 C 70.45999908447266 96.97998046875 70.05999755859375 97.590087890625 69.55000305175781 97.8798828125 C 69.55000305175781 97.8798828125 69.02999877929688 98.169921875 68.3499984741211 98.169921875 C 68.3499984741211 98.169921875 67.20999908447266 98.169921875 66.62000274658203 97.469970703125 Z M 73.72000122070312 88.8701171875 L 74.79000091552734 88.8701171875 L 74.79000091552734 94.27001953125 L 78.01000213623047 91.43994140625 L 79.38999938964844 91.43994140625 L 75.9000015258789 94.5 L 79.54000091552734 98.0 L 78.13999938964844 98.0 L 74.79000091552734 94.800048828125 L 74.79000091552734 98.0 L 73.72000122070312 98.0 Z M 84.79000091552734 96.52001953125 L 86.02999877929688 96.52001953125 L 86.02999877929688 98.0 L 84.79000091552734 98.0 Z M 84.79000091552734 91.800048828125 L 86.02999877929688 91.800048828125 L 86.02999877929688 93.280029296875 L 84.79000091552734 93.280029296875 Z M 92.41999816894531 89.25 L 93.5999984741211 89.25 L 93.5999984741211 92.949951171875 L 97.52999877929688 89.25 L 99.05999755859375 89.25 L 94.70999908447266 93.330078125 L 99.37000274658203 98.0 L 97.80999755859375 98.0 L 93.5999984741211 93.780029296875 L 93.5999984741211 98.0 L 92.41999816894531 98.0 Z M 103.22000122070312 94.699951171875 C 103.22000122070312 94.699951171875 101.93000030517578 94.699951171875 101.41999816894531 95.0 C 101.41999816894531 95.0 100.91000366210938 95.300048828125 100.91000366210938 96.02001953125 C 100.91000366210938 96.02001953125 100.91000366210938 96.590087890625 101.29000091552734 96.929931640625 C 101.29000091552734 96.929931640625 101.68000030517578 97.27001953125 102.31999969482422 97.27001953125 C 102.31999969482422 97.27001953125 103.22000122070312 97.27001953125 103.76000213623047 96.6298828125 C 103.76000213623047 96.6298828125 104.30000305175781 96.0 104.30000305175781 94.93994140625 L 104.30000305175781 94.699951171875 Z M 105.37999725341797 94.25 L 105.37999725341797 98.0 L 104.30000305175781 98.0 L 104.30000305175781 97.0 C 104.30000305175781 97.0 103.93000030517578 97.590087890625 103.37999725341797 97.8798828125 C 103.37999725341797 97.8798828125 102.83000183105469 98.169921875 102.04000091552734 98.169921875 C 102.04000091552734 98.169921875 101.0199966430664 98.169921875 100.43000030517578 97.60009765625 C 100.43000030517578 97.60009765625 99.83000183105469 97.030029296875 99.83000183105469 96.090087890625 C 99.83000183105469 96.090087890625 99.83000183105469 94.97998046875 100.56999969482422 94.419921875 C 100.56999969482422 94.419921875 101.31999969482422 93.860107421875 102.79000091552734 93.860107421875 L 104.30000305175781 93.860107421875 L 104.30000305175781 93.75 C 104.30000305175781 93.75 104.30000305175781 93.0 103.80999755859375 92.590087890625 C 103.80999755859375 92.590087890625 103.31999969482422 92.18994140625 102.44000244140625 92.18994140625 C 102.44000244140625 92.18994140625 101.87999725341797 92.18994140625 101.33999633789062 92.330078125 C 101.33999633789062 92.330078125 100.80000305175781 92.469970703125 100.31999969482422 92.72998046875 L 100.31999969482422 91.72998046875 C 100.31999969482422 91.72998046875 100.91000366210938 91.5 101.45999908447266 91.389892578125 C 101.45999908447266 91.389892578125 102.0199966430664 91.280029296875 102.55000305175781 91.280029296875 C 102.55000305175781 91.280029296875 103.97000122070312 91.280029296875 104.68000030517578 92.02001953125 Z M 111.91999816894531 92.43994140625 L 111.91999816894531 88.8701171875 L 113.0 88.8701171875 L 113.0 98.0 L 111.91999816894531 98.0 L 111.91999816894531 97.02001953125 C 111.91999816894531 97.02001953125 111.58000183105469 97.590087890625 111.05999755859375 97.8798828125 C 111.05999755859375 97.8798828125 110.54000091552734 98.169921875 109.80999755859375 98.169921875 C 109.80999755859375 98.169921875 108.62000274658203 98.169921875 107.87000274658203 97.219970703125 C 107.87000274658203 97.219970703125 107.12000274658203 96.27001953125 107.12000274658203 94.719970703125 C 107.12000274658203 94.719970703125 107.12000274658203 93.169921875 107.87000274658203 92.22998046875 C 107.87000274658203 92.22998046875 108.62000274658203 91.280029296875 109.80999755859375 91.280029296875 C 109.80999755859375 91.280029296875 110.54000091552734 91.280029296875 111.05999755859375 91.56005859375 Z M 108.25 94.719970703125 C 108.25 94.719970703125 108.25 95.909912109375 108.7300033569336 96.590087890625 C 108.7300033569336 96.590087890625 109.22000122070312 97.27001953125 110.08000183105469 97.27001953125 C 110.08000183105469 97.27001953125 110.94000244140625 97.27001953125 111.43000030517578 96.590087890625 C 111.43000030517578 96.590087890625 111.91999816894531 95.909912109375 111.91999816894531 94.719970703125 C 111.91999816894531 94.719970703125 111.91999816894531 93.530029296875 111.43000030517578 92.860107421875 C 111.43000030517578 92.860107421875 110.94000244140625 92.18994140625 110.08000183105469 92.18994140625 C 110.08000183105469 92.18994140625 109.22000122070312 92.18994140625 108.7300033569336 92.860107421875 Z M 118.19000244140625 94.699951171875 C 118.19000244140625 94.699951171875 116.9000015258789 94.699951171875 116.38999938964844 95.0 C 116.38999938964844 95.0 115.87999725341797 95.300048828125 115.87999725341797 96.02001953125 C 115.87999725341797 96.02001953125 115.87999725341797 96.590087890625 116.26000213623047 96.929931640625 C 116.26000213623047 96.929931640625 116.6500015258789 97.27001953125 117.29000091552734 97.27001953125 C 117.29000091552734 97.27001953125 118.19000244140625 97.27001953125 118.7300033569336 96.6298828125 C 118.7300033569336 96.6298828125 119.2699966430664 96.0 119.2699966430664 94.93994140625 L 119.2699966430664 94.699951171875 Z M 120.3499984741211 94.25 L 120.3499984741211 98.0 L 119.2699966430664 98.0 L 119.2699966430664 97.0 C 119.2699966430664 97.0 118.9000015258789 97.590087890625 118.3499984741211 97.8798828125 C 118.3499984741211 97.8798828125 117.80000305175781 98.169921875 117.01000213623047 98.169921875 C 117.01000213623047 98.169921875 115.98999786376953 98.169921875 115.4000015258789 97.60009765625 C 115.4000015258789 97.60009765625 114.80000305175781 97.030029296875 114.80000305175781 96.090087890625 C 114.80000305175781 96.090087890625 114.80000305175781 94.97998046875 115.54000091552734 94.419921875 C 115.54000091552734 94.419921875 116.29000091552734 93.860107421875 117.76000213623047 93.860107421875 L 119.2699966430664 93.860107421875 L 119.2699966430664 93.75 C 119.2699966430664 93.75 119.2699966430664 93.0 118.77999877929688 92.590087890625 C 118.77999877929688 92.590087890625 118.29000091552734 92.18994140625 117.41000366210938 92.18994140625 C 117.41000366210938 92.18994140625 116.8499984741211 92.18994140625 116.30999755859375 92.330078125 C 116.30999755859375 92.330078125 115.7699966430664 92.469970703125 115.29000091552734 92.72998046875 L 115.29000091552734 91.72998046875 C 115.29000091552734 91.72998046875 115.87999725341797 91.5 116.44000244140625 91.389892578125 C 116.44000244140625 91.389892578125 116.98999786376953 91.280029296875 117.5199966430664 91.280029296875 C 117.5199966430664 91.280029296875 118.94000244140625 91.280029296875 119.6500015258789 92.02001953125 Z M 121.80000305175781 91.43994140625 L 122.94000244140625 91.43994140625 L 124.9800033569336 96.93994140625 L 127.05000305175781 91.43994140625 L 128.19000244140625 91.43994140625 L 125.72000122070312 98.0 L 124.25 98.0 Z M 129.5500030517578 95.409912109375 L 129.5500030517578 91.43994140625 L 130.6300048828125 91.43994140625 L 130.6300048828125 95.3701171875 C 130.6300048828125 95.3701171875 130.6300048828125 96.300048828125 131.0 96.77001953125 C 131.0 96.77001953125 131.3699951171875 97.22998046875 132.08999633789062 97.22998046875 C 132.08999633789062 97.22998046875 132.9600067138672 97.22998046875 133.47000122070312 96.679931640625 C 133.47000122070312 96.679931640625 133.97999572753906 96.1201171875 133.97999572753906 95.159912109375 L 133.97999572753906 91.43994140625 L 135.0500030517578 91.43994140625 L 135.0500030517578 98.0 L 133.97999572753906 98.0 L 133.97999572753906 96.97998046875 C 133.97999572753906 96.97998046875 133.58999633789062 97.590087890625 133.07000732421875 97.8798828125 C 133.07000732421875 97.8798828125 132.5500030517578 98.169921875 131.8699951171875 98.169921875 C 131.8699951171875 98.169921875 130.72999572753906 98.169921875 130.13999938964844 97.469970703125 Z M 141.0800018310547 92.43994140625 C 141.0800018310547 92.43994140625 140.88999938964844 92.340087890625 140.67999267578125 92.2900390625 C 140.67999267578125 92.2900390625 140.47000122070312 92.22998046875 140.2100067138672 92.22998046875 C 140.2100067138672 92.22998046875 139.3000030517578 92.22998046875 138.80999755859375 92.830078125 C 138.80999755859375 92.830078125 138.32000732421875 93.419921875 138.32000732421875 94.550048828125 L 138.32000732421875 98.0 L 137.24000549316406 98.0 L 137.24000549316406 91.43994140625 L 138.32000732421875 91.43994140625 L 138.32000732421875 92.449951171875 C 138.32000732421875 92.449951171875 138.66000366210938 91.860107421875 139.2100067138672 91.570068359375 C 139.2100067138672 91.570068359375 139.75 91.280029296875 140.5399932861328 91.280029296875 C 140.5399932861328 91.280029296875 140.63999938964844 91.280029296875 140.77999877929688 91.300048828125 C 140.77999877929688 91.300048828125 140.91000366210938 91.31005859375 141.07000732421875 91.340087890625 Z" stroke="black" fill="none" stroke-width="1" />
                </svg>