<svg xmlns="http://www.w3.org/2000/svg" width="21.5400390625" height="7.3499755859375" viewBox="1121.0 1542.3599853515625 21.5400390625 7.3499755859375">
                <rect x="1121.0" y="1542.3599853515625" width="21.5400390625" height="7.3499755859375" fill="white"/>
                <path d="M 1121.050048828125 1547.4000244140625 L 1122.3299560546875 1547.5 L 1122.6600341796875 1543.0799560546875 L 1121.22998046875 1543.25 L 1121.2900390625 1542.530029296875 L 1122.7099609375 1542.3599853515625 L 1123.489990234375 1542.4200439453125 L 1123.0999755859375 1547.56005859375 L 1124.4000244140625 1547.6600341796875 L 1124.3499755859375 1548.3299560546875 L 1121.0 1548.0699462890625 Z M 1128.47998046875 1543.47998046875 L 1126.260009765625 1546.4300537109375 L 1128.25 1546.5799560546875 Z M 1128.3199462890625 1542.780029296875 L 1129.31005859375 1542.8599853515625 L 1129.030029296875 1546.6400146484375 L 1129.8599853515625 1546.699951171875 L 1129.81005859375 1547.3599853515625 L 1128.97998046875 1547.300048828125 L 1128.8800048828125 1548.6700439453125 L 1128.0999755859375 1548.6099853515625 L 1128.199951171875 1547.239990234375 L 1125.5699462890625 1547.0400390625 L 1125.6300048828125 1546.280029296875 Z M 1131.199951171875 1548.1700439453125 L 1132.47998046875 1548.260009765625 L 1132.81005859375 1543.8399658203125 L 1131.3900146484375 1544.010009765625 L 1131.43994140625 1543.300048828125 L 1132.8599853515625 1543.1199951171875 L 1133.6400146484375 1543.1800537109375 L 1133.260009765625 1548.3199462890625 L 1134.550048828125 1548.4200439453125 L 1134.5 1549.0899658203125 L 1131.1500244140625 1548.8399658203125 Z M 1136.1600341796875 1548.2099609375 L 1136.97998046875 1548.27001953125 L 1136.9100341796875 1549.27001953125 L 1136.0799560546875 1549.2099609375 Z M 1140.510009765625 1546.77001953125 C 1140.510009765625 1546.77001953125 1139.949951171875 1546.72998046875 1139.6099853515625 1547.0 C 1139.6099853515625 1547.0 1139.27001953125 1547.27001953125 1139.22998046875 1547.800048828125 C 1139.22998046875 1547.800048828125 1139.18994140625 1548.3299560546875 1139.47998046875 1548.6500244140625 C 1139.47998046875 1548.6500244140625 1139.780029296875 1548.969970703125 1140.3399658203125 1549.010009765625 C 1140.3399658203125 1549.010009765625 1140.9000244140625 1549.050048828125 1141.239990234375 1548.77001953125 C 1141.239990234375 1548.77001953125 1141.5899658203125 1548.489990234375 1141.6199951171875 1547.97998046875 C 1141.6199951171875 1547.97998046875 1141.6600341796875 1547.449951171875 1141.3699951171875 1547.1300048828125 Z M 1139.739990234375 1546.3599853515625 C 1139.739990234375 1546.3599853515625 1139.25 1546.199951171875 1139.0 1545.8399658203125 C 1139.0 1545.8399658203125 1138.739990234375 1545.47998046875 1138.780029296875 1544.97998046875 C 1138.780029296875 1544.97998046875 1138.8299560546875 1544.280029296875 1139.3499755859375 1543.9100341796875 C 1139.3499755859375 1543.9100341796875 1139.8699951171875 1543.5400390625 1140.75 1543.5999755859375 C 1140.75 1543.5999755859375 1141.6199951171875 1543.6700439453125 1142.0799560546875 1544.1099853515625 C 1142.0799560546875 1544.1099853515625 1142.5400390625 1544.550048828125 1142.489990234375 1545.260009765625 C 1142.489990234375 1545.260009765625 1142.449951171875 1545.75 1142.1400146484375 1546.0799560546875 C 1142.1400146484375 1546.0799560546875 1141.8399658203125 1546.4000244140625 1141.3299560546875 1546.47998046875 C 1141.3299560546875 1546.47998046875 1141.8800048828125 1546.6700439453125 1142.1700439453125 1547.0699462890625 C 1142.1700439453125 1547.0699462890625 1142.4599609375 1547.47998046875 1142.4200439453125 1548.0400390625 C 1142.4200439453125 1548.0400390625 1142.3599853515625 1548.8800048828125 1141.81005859375 1549.2900390625 C 1141.81005859375 1549.2900390625 1141.260009765625 1549.7099609375 1140.2900390625 1549.6300048828125 C 1140.2900390625 1549.6300048828125 1139.3299560546875 1549.56005859375 1138.8499755859375 1549.0699462890625 C 1138.8499755859375 1549.0699462890625 1138.3699951171875 1548.5799560546875 1138.4300537109375 1547.739990234375 C 1138.4300537109375 1547.739990234375 1138.469970703125 1547.1800537109375 1138.8199462890625 1546.8199462890625 Z M 1139.550048828125 1545.0999755859375 C 1139.550048828125 1545.0999755859375 1139.52001953125 1545.550048828125 1139.780029296875 1545.8299560546875 C 1139.780029296875 1545.8299560546875 1140.0400390625 1546.1099853515625 1140.56005859375 1546.1400146484375 C 1140.56005859375 1546.1400146484375 1141.050048828125 1546.1800537109375 1141.3599853515625 1545.949951171875 C 1141.3599853515625 1545.949951171875 1141.6700439453125 1545.7099609375 1141.699951171875 1545.260009765625 C 1141.699951171875 1545.260009765625 1141.739990234375 1544.81005859375 1141.469970703125 1544.5400390625 C 1141.469970703125 1544.5400390625 1141.199951171875 1544.27001953125 1140.699951171875 1544.22998046875 C 1140.699951171875 1544.22998046875 1140.18994140625 1544.18994140625 1139.8900146484375 1544.4200439453125 Z" stroke="black" fill="none" stroke-width="1" />
                </svg>